<svg width="18" height="18" viewBox="0 0 18 18" fill="none" xmlns="http://www.w3.org/2000/svg">
<path d="M12.1312 10.7501H3.75C3.5375 10.7501 3.35937 10.6782 3.21562 10.5345C3.07187 10.3907 3 10.2126 3 10.0001C3 9.78758 3.07187 9.60946 3.21562 9.46571C3.35937 9.32196 3.5375 9.25008 3.75 9.25008H12.1312L8.45625 5.57508C8.30625 5.42508 8.23437 5.25008 8.24062 5.05008C8.24687 4.85008 8.325 4.67508 8.475 4.52508C8.625 4.38758 8.8 4.31571 9 4.30946C9.2 4.30321 9.375 4.37508 9.525 4.52508L14.475 9.47508C14.55 9.55008 14.6031 9.63133 14.6344 9.71883C14.6656 9.80633 14.6812 9.90008 14.6812 10.0001C14.6812 10.1001 14.6656 10.1938 14.6344 10.2813C14.6031 10.3688 14.55 10.4501 14.475 10.5251L9.525 15.4751C9.3875 15.6126 9.21562 15.6813 9.00937 15.6813C8.80312 15.6813 8.625 15.6126 8.475 15.4751C8.325 15.3251 8.25 15.147 8.25 14.9407C8.25 14.7345 8.325 14.5563 8.475 14.4063L12.1312 10.7501Z" fill="#B0B0B0"/>
</svg>
