<svg width="101" height="100" viewBox="0 0 101 100" fill="none" xmlns="http://www.w3.org/2000/svg">
<g clip-path="url(#clip0_2260_9596)">
<path d="M60.4274 -0.0396698C60.6684 -0.041738 60.6684 -0.041738 60.9143 -0.0438481C67.6029 -0.0882248 67.6029 -0.0882248 70.4219 0.585941C70.59 0.624745 70.7581 0.663549 70.9313 0.703529C80.7654 3.02715 89.5025 8.92511 94.8727 17.5608C95.4126 18.4615 95.9139 19.381 96.3984 20.3125C96.4664 20.4431 96.5344 20.5737 96.6044 20.7083C98.3028 24.0236 99.4662 27.5815 100.109 31.25C100.144 31.4413 100.178 31.6326 100.214 31.8296C100.537 33.811 100.578 35.7649 100.573 37.7686C100.573 38.0265 100.573 38.0265 100.573 38.2896C100.565 41.0846 100.385 43.7598 99.7188 46.4844C99.656 46.7469 99.656 46.7469 99.5919 47.0148C97.2469 56.5552 91.1594 64.9616 82.8578 70.2093C78.2407 72.9895 73.2101 74.7861 67.8828 75.5859C67.7541 75.6061 67.6254 75.6262 67.4929 75.647C57.7675 76.9565 47.6059 74.2191 39.7822 68.3594C39.2901 67.9839 38.828 67.6249 38.3906 67.1875C37.6984 67.2473 37.3651 67.5576 36.8922 68.0428C36.7626 68.1743 36.6329 68.3059 36.4993 68.4414C36.3661 68.5795 36.2329 68.7176 36.0957 68.8599C35.9595 68.9987 35.8233 69.1376 35.683 69.2806C35.3472 69.6233 35.0131 69.9675 34.6797 70.3125C35.4625 71.2566 36.2867 72.131 37.1692 72.982C37.4156 73.2231 37.6619 73.4643 37.9081 73.7057C38.2919 74.081 38.6764 74.4555 39.0629 74.8281C39.4389 75.1912 39.8118 75.5572 40.1843 75.9239C40.3597 76.0909 40.3597 76.0909 40.5387 76.2612C40.8591 76.5794 40.8591 76.5794 41.3203 77.1484C41.2303 77.9277 40.8449 78.2779 40.2942 78.8177C40.1274 78.9827 39.9606 79.1476 39.7887 79.3175C39.6134 79.4879 39.438 79.6584 39.2573 79.834C39.0812 80.0075 38.9051 80.1809 38.7236 80.3596C38.2884 80.788 37.8519 81.2149 37.4141 81.6406C36.6321 81.2819 36.1016 80.7634 35.5098 80.1514C35.4108 80.0507 35.3119 79.95 35.2099 79.8462C34.9672 79.5989 34.7257 79.3503 34.4844 79.1016C33.3069 80.0751 32.2366 81.1339 31.1635 82.2204C30.9703 82.4153 30.777 82.6101 30.5837 82.8049C30.17 83.2219 29.7565 83.6392 29.3432 84.0566C28.6899 84.7163 28.0354 85.3749 27.3806 86.0331C27.156 86.259 26.9314 86.4848 26.7067 86.7107C26.5943 86.8237 26.4819 86.9367 26.3661 87.0532C24.8434 88.5843 23.3216 90.1163 21.8026 91.651C20.7754 92.6888 19.7465 93.7249 18.7156 94.7589C18.1707 95.3057 17.6266 95.8534 17.0847 96.4032C16.5762 96.9191 16.0655 97.4327 15.5529 97.9446C15.2751 98.2232 14.9998 98.5043 14.7245 98.7854C14.5594 98.9495 14.3944 99.1135 14.2243 99.2825C14.0813 99.4266 13.9383 99.5707 13.791 99.7192C13.3906 100 13.3906 100 12.9826 99.9771C12.3468 99.6834 11.8937 99.1735 11.406 98.6833C11.2874 98.5664 11.1689 98.4495 11.0468 98.3291C10.6554 97.9423 10.2663 97.5534 9.87729 97.1642C9.6065 96.8948 9.33565 96.6254 9.06475 96.3561C8.49749 95.7915 7.9314 95.2257 7.36603 94.6592C6.64005 93.9321 5.91056 93.2086 5.18008 92.486C4.61995 91.9309 4.06207 91.3736 3.50481 90.8156C3.23668 90.5478 2.96777 90.2808 2.69808 90.0146C2.32203 89.6428 1.9492 89.2681 1.57703 88.8925C1.46433 88.7824 1.35162 88.6723 1.2355 88.5588C0.930974 88.2477 0.930974 88.2477 0.5 87.6953C0.541462 86.9329 0.983201 86.5539 1.50477 86.0341C1.67924 85.8589 1.85371 85.6836 2.03346 85.503C2.22827 85.3103 2.42311 85.1176 2.61797 84.9249C2.82209 84.7209 3.02608 84.5168 3.22996 84.3126C3.78389 83.7585 4.33962 83.2063 4.89568 82.6543C5.47646 82.0772 6.05557 81.4984 6.63486 80.9198C7.73213 79.8244 8.83089 78.7304 9.93019 77.637C11.1816 76.3921 12.4314 75.1456 13.681 73.8989C16.2516 71.3344 18.8243 68.772 21.3984 66.2109C21.2137 65.9937 21.0288 65.7767 20.8437 65.5597C20.7407 65.4388 20.6377 65.318 20.5316 65.1934C20.1318 64.7351 19.7077 64.3061 19.2744 63.8794C19.1218 63.7286 18.9693 63.5778 18.8121 63.4224C18.6988 63.3114 18.5855 63.2003 18.4688 63.0859C19.3251 62.0602 20.2282 61.107 21.1787 60.1685C21.3804 59.9681 21.3804 59.9681 21.5861 59.7637C21.9137 59.4384 22.2418 59.1135 22.5703 58.7891C23.1742 59.0578 23.5852 59.3655 24.0498 59.8336C24.2492 60.033 24.2492 60.033 24.4525 60.2364C24.6644 60.4513 24.6644 60.4513 24.8805 60.6705C25.0999 60.8907 25.0999 60.8907 25.3238 61.1155C25.7904 61.5842 26.2555 62.0543 26.7207 62.5244C27.037 62.8427 27.3533 63.1608 27.6698 63.4789C28.445 64.2583 29.219 65.0389 29.9922 65.8203C30.2083 65.6358 30.4243 65.4512 30.6403 65.2665C30.7606 65.1637 30.8809 65.0609 31.0049 64.955C31.4941 64.5319 31.9672 64.0956 32.4336 63.6475C32.6904 63.405 32.6904 63.405 32.9524 63.1577C33.3535 62.7406 33.3535 62.7406 33.3117 62.2971C33.0746 61.8302 32.7897 61.4797 32.4458 61.084C31.355 59.7536 30.4729 58.3157 29.6016 56.8359C29.5257 56.7084 29.4499 56.5808 29.3717 56.4493C26.1042 50.877 24.626 44.3832 24.6577 37.9639C24.6583 37.7328 24.6583 37.7328 24.659 37.4971C24.6697 35.0493 24.7795 32.6723 25.3047 30.2734C25.3435 30.0948 25.3823 29.9162 25.4223 29.7321C27.5881 20.0955 33.4045 11.3261 41.7696 5.9619C47.3498 2.52019 53.7914 -0.00175196 60.4274 -0.0396698Z" fill="#8935C5"/>
<path d="M62.939 11.0596C63.1408 11.0572 63.1408 11.0572 63.3467 11.0548C66.0577 11.0308 68.6459 11.403 71.2031 12.3413C71.3661 12.4 71.5292 12.4586 71.6971 12.5191C78.5854 15.0681 84.0389 20.1104 87.1965 26.73C90.1839 33.2839 90.3431 40.786 87.8344 47.5143C86.4996 50.9006 84.6051 53.7802 82.1406 56.4453C81.9921 56.6077 81.8435 56.7701 81.6905 56.9374C77.5153 61.3038 71.2727 64.3932 65.2058 64.683C58.3914 64.7883 58.3914 64.7883 55.3828 63.8672C55.2565 63.8316 55.1301 63.7961 54.9999 63.7595C51.3707 62.7384 48.0927 60.8225 45.2266 58.3984C45.0702 58.2685 44.9139 58.1386 44.7528 58.0047C41.3803 55.1002 38.9983 51.4045 37.4141 47.2656C37.3219 47.0249 37.2298 46.7842 37.1348 46.5362C36.1174 43.6827 35.8017 41.0472 35.7905 38.0371C35.7889 37.6694 35.7889 37.6694 35.7872 37.2943C35.8058 34.8832 36.1702 32.5905 36.8281 30.2734C36.8896 30.0531 36.951 29.8328 37.0143 29.6058C39.1379 22.6293 44.1409 17.36 50.4016 13.8733C54.4044 11.7631 58.4572 11.0886 62.939 11.0596Z" fill="#ECF4FE"/>
<path d="M89.5625 11.1328C89.7813 11.3176 89.9997 11.5028 90.218 11.6882C90.4005 11.8429 90.4005 11.8429 90.5867 12.0007C93.0453 14.1802 94.8958 17.4238 96.3984 20.3125C96.4664 20.4431 96.5344 20.5737 96.6044 20.7083C98.3028 24.0236 99.4662 27.5815 100.109 31.25C100.144 31.4413 100.178 31.6326 100.214 31.8296C100.537 33.811 100.578 35.7649 100.573 37.7686C100.573 38.0265 100.573 38.0265 100.573 38.2896C100.565 41.0846 100.385 43.7598 99.7188 46.4844C99.656 46.7469 99.656 46.7469 99.5919 47.0148C97.2469 56.5551 91.1594 64.9616 82.8578 70.2093C78.2407 72.9895 73.2101 74.7861 67.8828 75.5859C67.7541 75.6061 67.6254 75.6262 67.4929 75.647C57.7675 76.9565 47.6059 74.2191 39.7822 68.3594C39.2901 67.9839 38.828 67.6249 38.3906 67.1875C37.6964 67.2464 37.3803 67.5513 36.9197 68.0496C36.7935 68.1821 36.6674 68.3145 36.5374 68.4509C36.2747 68.7325 36.0128 69.0148 35.7516 69.2978C35.5624 69.4957 35.5624 69.4957 35.3694 69.6976C35.2557 69.8201 35.142 69.9426 35.0249 70.0688C34.6797 70.3125 34.6797 70.3125 34.2721 70.2758C33.7549 70.0562 33.4543 69.729 33.0684 69.3237C32.9304 69.1805 32.7924 69.0372 32.6503 68.8896C32.5465 68.7791 32.4428 68.6686 32.3359 68.5547C33.4216 67.231 34.6321 66.0384 35.8439 64.8323C36.07 64.6066 36.296 64.3808 36.522 64.155C37.113 63.5648 37.7046 62.9751 38.2963 62.3856C38.9016 61.7823 39.5063 61.1785 40.1111 60.5747C41.2948 59.393 42.4793 58.2119 43.6641 57.0312C43.914 57.2172 44.1637 57.4035 44.4133 57.5899C44.5523 57.6936 44.6914 57.7972 44.8347 57.9041C45.3083 58.2655 45.7545 58.6536 46.2031 59.0454C47.4254 60.0535 48.7555 60.7961 50.1509 61.5335C50.4395 61.6866 50.7254 61.8451 51.0104 62.0049C52.0137 62.5472 53.062 62.9345 54.1377 63.3057C54.2716 63.3529 54.4055 63.4002 54.5435 63.4489C57.145 64.311 59.7404 64.5615 62.4629 64.5386C62.6116 64.538 62.7603 64.5375 62.9136 64.537C65.2943 64.5242 67.5397 64.3411 69.8359 63.6719C69.9653 63.6363 70.0948 63.6008 70.2281 63.5642C74.3677 62.4108 78.0011 60.0822 81.1641 57.2266C81.3083 57.0964 81.4526 56.9662 81.6012 56.8321C86.5816 52.0913 89.2355 45.0938 89.4225 38.308C89.5074 31.3395 86.9171 25.2296 82.5312 19.9219C82.4094 19.8151 82.2875 19.7084 82.162 19.5984C82.0905 19.5118 82.019 19.4252 81.9453 19.3359C82.0254 18.6197 82.3425 18.2813 82.8441 17.7847C82.9927 17.6362 83.1413 17.4876 83.2943 17.3346C83.4557 17.1763 83.617 17.018 83.7832 16.8549C84.0299 16.6094 84.0299 16.6094 84.2816 16.359C84.8076 15.8363 85.3357 15.3156 85.8638 14.7949C86.2206 14.4411 86.5773 14.0871 86.9338 13.7329C87.8085 12.8647 88.6849 11.9981 89.5625 11.1328Z" fill="#6D2A9C"/>
<path d="M81.5547 18.9453C82.5366 19.726 83.3271 20.5478 84.0693 21.5576C84.2197 21.761 84.2197 21.761 84.3731 21.9684C88.4802 27.636 90.3379 34.6638 89.3306 41.6138C88.417 47.3121 86.0569 52.2103 82.1406 56.4453C81.9921 56.6077 81.8435 56.7701 81.6905 56.9374C77.5153 61.3038 71.2727 64.3933 65.2058 64.683C58.3914 64.7883 58.3914 64.7883 55.3828 63.8672C55.1933 63.8139 55.1933 63.8139 54.9999 63.7595C50.6308 62.5302 47.0126 60.0244 43.6641 57.0312C43.7949 56.9005 43.9257 56.7698 44.0604 56.6351C44.7445 55.951 45.4277 55.2661 46.111 54.5812C47.5792 53.1098 49.0479 51.6389 50.5169 50.1683C51.4053 49.2789 52.2935 48.3893 53.1814 47.4992C54.0407 46.6378 54.9004 45.7769 55.7605 44.9162C56.0887 44.5877 56.4167 44.259 56.7446 43.9301C57.201 43.4723 57.6579 43.0151 58.1151 42.5581C58.2517 42.4208 58.3882 42.2835 58.5289 42.1421C58.6527 42.0186 58.7764 41.8951 58.9039 41.7679C59.0119 41.6597 59.12 41.5515 59.2313 41.44C59.4844 41.2109 59.4844 41.2109 59.6797 41.2109C59.6797 44.3047 59.6797 47.3984 59.6797 50.5859C61.7422 50.5859 63.8047 50.5859 65.9297 50.5859C65.7507 49.6229 65.5717 48.6599 65.3872 47.6677C65.1981 46.3283 65.0665 44.9889 64.9653 43.6401C64.9522 43.4654 64.939 43.2906 64.9254 43.1106C64.6206 38.5168 65.3376 34.959 68.364 31.3934C71.9921 27.3116 76.1422 23.6527 80.3559 20.1879C80.551 20.0267 80.551 20.0267 80.7501 19.8622C80.8637 19.7693 80.9773 19.6765 81.0944 19.5808C81.3859 19.3403 81.3859 19.3403 81.5547 18.9453Z" fill="#D6E8FE"/>
<path d="M22.5703 58.7891C23.1709 59.0569 23.5826 59.3622 24.0461 59.8268C24.1785 59.9585 24.3109 60.0903 24.4473 60.2261C24.5885 60.3687 24.7297 60.5113 24.8752 60.6583C25.0225 60.8057 25.1699 60.9532 25.3218 61.1051C25.6336 61.4176 25.9451 61.7306 26.256 62.044C26.7281 62.5196 27.2017 62.9936 27.6755 63.4674C27.9791 63.772 28.2827 64.0766 28.5861 64.3814C28.7961 64.5918 28.7961 64.5918 29.0104 64.8064C29.787 65.5902 30.5319 66.3914 31.25 67.2293C31.7462 67.7973 32.277 68.3288 32.812 68.8599C32.9139 68.9625 33.0157 69.0651 33.1206 69.1708C33.654 69.7028 34.1979 70.2112 34.7712 70.7001C35.9654 71.7352 37.0827 72.8526 38.2048 73.9645C38.4692 74.2256 38.7345 74.4857 39.0009 74.7447C39.3881 75.1212 39.772 75.5008 40.1553 75.8812C40.2753 75.9968 40.3953 76.1123 40.5189 76.2314C40.8473 76.5615 40.8473 76.5615 41.3203 77.1484C41.2319 77.9276 40.8445 78.2783 40.2942 78.8177C40.1274 78.9827 39.9606 79.1476 39.7887 79.3175C39.5257 79.5731 39.5257 79.5731 39.2573 79.834C39.0812 80.0075 38.9051 80.1809 38.7236 80.3596C38.2884 80.788 37.8519 81.2149 37.4141 81.6406C36.6321 81.2819 36.1016 80.7634 35.5098 80.1514C35.4108 80.0507 35.3119 79.95 35.2099 79.8462C34.9672 79.5989 34.7257 79.3503 34.4844 79.1016C33.3069 80.0751 32.2366 81.1339 31.1635 82.2204C30.9703 82.4153 30.777 82.6101 30.5837 82.8049C30.17 83.2219 29.7565 83.6392 29.3432 84.0566C28.6899 84.7163 28.0354 85.3749 27.3806 86.0331C27.156 86.259 26.9314 86.4848 26.7067 86.7107C26.5943 86.8237 26.4819 86.9367 26.3661 87.0532C24.8434 88.5843 23.3216 90.1163 21.8026 91.651C20.7754 92.6888 19.7465 93.7249 18.7156 94.7589C18.1707 95.3057 17.6266 95.8534 17.0847 96.4032C16.5762 96.9191 16.0655 97.4327 15.5529 97.9446C15.2751 98.2232 14.9998 98.5043 14.7245 98.7854C14.5594 98.9495 14.3944 99.1135 14.2243 99.2825C14.0813 99.4266 13.9383 99.5707 13.791 99.7192C13.3906 100 13.3906 100 12.9826 99.9771C12.3468 99.6834 11.8937 99.1735 11.406 98.6833C11.2282 98.508 11.2282 98.508 11.0468 98.3291C10.6554 97.9423 10.2663 97.5534 9.87729 97.1642C9.6065 96.8948 9.33565 96.6254 9.06475 96.3561C8.49749 95.7915 7.9314 95.2257 7.36603 94.6592C6.64005 93.9321 5.91056 93.2086 5.18008 92.486C4.61995 91.9309 4.06207 91.3736 3.50481 90.8156C3.23668 90.5478 2.96777 90.2808 2.69808 90.0145C2.32203 89.6428 1.9492 89.2681 1.57703 88.8925C1.46433 88.7824 1.35162 88.6723 1.2355 88.5588C0.930974 88.2477 0.930974 88.2477 0.5 87.6953C0.541462 86.9329 0.983198 86.5539 1.50477 86.0341C1.67924 85.8589 1.85371 85.6836 2.03346 85.503C2.22827 85.3103 2.42311 85.1176 2.61797 84.9249C2.82209 84.7209 3.02609 84.5168 3.22996 84.3126C3.7839 83.7585 4.33962 83.2063 4.89568 82.6543C5.47645 82.0772 6.05557 81.4984 6.63486 80.9198C7.73214 79.8244 8.83089 78.7304 9.93019 77.637C11.1816 76.3921 12.4314 75.1456 13.681 73.8989C16.2516 71.3344 18.8243 68.772 21.3984 66.2109C21.2137 65.9937 21.0288 65.7767 20.8437 65.5597C20.7407 65.4388 20.6377 65.318 20.5316 65.1934C20.1318 64.7351 19.7077 64.3061 19.2744 63.8794C19.0456 63.6532 19.0456 63.6532 18.8121 63.4224C18.6988 63.3114 18.5855 63.2003 18.4688 63.0859C19.3251 62.0602 20.2282 61.107 21.1787 60.1685C21.3132 60.0349 21.4476 59.9013 21.5861 59.7637C21.9137 59.4384 22.2418 59.1135 22.5703 58.7891Z" fill="#F6884B"/>
<path d="M21.3984 66.2109C22.0366 66.2958 22.3549 66.5067 22.8094 66.9539C22.9862 67.1261 22.9862 67.1261 23.1666 67.3017C23.2913 67.4264 23.4161 67.5511 23.5446 67.6796C23.7387 67.8715 23.7387 67.8715 23.9367 68.0672C24.2095 68.3379 24.4815 68.6093 24.7528 68.8815C25.1696 69.2985 25.5904 69.7111 26.0116 70.1237C26.2759 70.387 26.54 70.6506 26.8039 70.9145C26.9306 71.038 27.0573 71.1615 27.1879 71.2888C27.3027 71.4054 27.4175 71.522 27.5358 71.6422C27.689 71.7948 27.689 71.7948 27.8454 71.9505C28.0391 72.2656 28.0391 72.2656 27.9879 72.6372C27.8243 73.1021 27.6418 73.3211 27.2938 73.6673C27.1769 73.785 27.0599 73.9028 26.9394 74.0241C26.8105 74.151 26.6815 74.2778 26.5486 74.4085C26.4133 74.5439 26.278 74.6793 26.1387 74.8187C25.6909 75.2661 25.2411 75.7114 24.7912 76.1566C24.4805 76.4663 24.1699 76.7761 23.8594 77.086C23.0415 77.9016 22.222 78.7154 21.402 79.5288C20.5658 80.3591 19.7311 81.191 18.8964 82.0229C17.2581 83.6549 15.6179 85.2851 13.9766 86.9141C13.7618 86.7319 13.5473 86.5493 13.3329 86.3667C13.2134 86.2651 13.094 86.1635 12.9709 86.0588C12.3962 85.5555 11.8597 85.0166 11.3223 84.4742C11.2072 84.3588 11.0921 84.2434 10.9735 84.1245C10.6109 83.7609 10.249 83.3966 9.88721 83.0322C9.63942 82.7835 9.3916 82.5347 9.14372 82.2861C8.5406 81.6808 7.9381 81.075 7.33594 80.4688C8.12392 79.5258 8.94615 78.6318 9.81177 77.7599C9.93642 77.6337 10.0611 77.5074 10.1895 77.3774C10.5973 76.9648 11.0058 76.553 11.4146 76.1414C11.5548 76.0002 11.6949 75.8589 11.8394 75.7135C12.5792 74.9684 13.3197 74.2241 14.0608 73.4802C14.674 72.8644 15.2858 72.2471 15.8964 71.6286C16.6352 70.8802 17.3763 70.1342 18.1192 69.39C18.4017 69.1061 18.6835 68.8213 18.9644 68.5358C19.3557 68.1383 19.7499 67.744 20.145 67.3504C20.2609 67.2313 20.3768 67.1122 20.4962 66.9895C20.823 66.6676 20.823 66.6676 21.3984 66.2109Z" fill="#F79863"/>
<path d="M22.5703 58.7891C23.1709 59.0569 23.5826 59.3622 24.0461 59.8268C24.1785 59.9585 24.3109 60.0903 24.4473 60.2261C24.5885 60.3687 24.7297 60.5113 24.8752 60.6583C25.0225 60.8057 25.1699 60.9532 25.3218 61.1051C25.6336 61.4176 25.9451 61.7306 26.256 62.044C26.7281 62.5196 27.2017 62.9936 27.6755 63.4674C27.9791 63.772 28.2827 64.0766 28.5861 64.3814C28.7261 64.5216 28.8661 64.6619 29.0104 64.8064C29.787 65.5902 30.5319 66.3914 31.25 67.2293C31.7462 67.7973 32.277 68.3288 32.812 68.8599C32.9139 68.9625 33.0157 69.0651 33.1206 69.1708C33.654 69.7028 34.1979 70.2112 34.7712 70.7001C35.9654 71.7352 37.0827 72.8526 38.2048 73.9645C38.4692 74.2256 38.7345 74.4857 39.0009 74.7447C39.3881 75.1212 39.772 75.5008 40.1553 75.8812C40.2753 75.9968 40.3953 76.1123 40.5189 76.2314C40.8473 76.5615 40.8473 76.5615 41.3203 77.1484C41.2319 77.9276 40.8445 78.2783 40.2942 78.8177C40.1274 78.9827 39.9606 79.1476 39.7887 79.3175C39.6134 79.4879 39.438 79.6584 39.2573 79.834C39.0812 80.0075 38.9051 80.1809 38.7236 80.3596C38.2884 80.788 37.8519 81.2149 37.4141 81.6406C36.6305 81.2798 36.0943 80.7625 35.4976 80.1514C35.4008 80.0544 35.3039 79.9575 35.2042 79.8576C34.6879 79.3353 34.1961 78.8006 33.7212 78.2403C32.6872 77.0554 31.5632 75.957 30.4507 74.8466C30.2112 74.607 29.9716 74.3673 29.7321 74.1275C29.2323 73.6273 28.732 73.1275 28.2316 72.628C27.5937 71.9913 26.9568 71.3537 26.3201 70.7158C25.8263 70.2213 25.332 69.7273 24.8376 69.2334C24.6027 68.9986 24.368 68.7637 24.1334 68.5286C22.4775 66.8699 22.4775 66.8699 20.7325 65.306C20.2451 64.8871 19.7989 64.4346 19.3477 63.9771C19.1805 63.8081 19.0133 63.6392 18.8411 63.4651C18.6568 63.2774 18.6568 63.2774 18.4688 63.0859C19.3251 62.0602 20.2282 61.107 21.1787 60.1685C21.3132 60.0349 21.4476 59.9013 21.5861 59.7637C21.9137 59.4384 22.2418 59.1135 22.5703 58.7891Z" fill="#F57732"/>
<path d="M59.6797 33.3984C61.6777 33.3984 63.6758 33.3984 65.7344 33.3984C65.87 34.4832 65.9573 35.4901 65.9519 36.5726C65.9519 36.7253 65.9519 36.8779 65.9519 37.0352C65.9518 37.5339 65.9503 38.0327 65.9488 38.5315C65.9484 38.8796 65.9481 39.2277 65.9479 39.5757C65.9472 40.4876 65.9453 41.3995 65.9431 42.3114C65.9411 43.2436 65.9402 44.1758 65.9392 45.108C65.9371 46.934 65.9337 48.76 65.9297 50.5859C63.8672 50.5859 61.8047 50.5859 59.6797 50.5859C59.6797 44.9141 59.6797 39.2422 59.6797 33.3984Z" fill="#EA5A0B"/>
<path d="M7.14062 80.4688C7.70809 80.7253 8.11067 81.0001 8.54844 81.4416C8.66569 81.5589 8.78294 81.6762 8.90374 81.797C9.02788 81.9231 9.15201 82.0493 9.27991 82.1793C9.40886 82.3088 9.53781 82.4383 9.67066 82.5717C10.0815 82.9847 10.491 83.3991 10.9004 83.8135C11.179 84.0941 11.4578 84.3746 11.7366 84.655C12.4192 85.3419 13.1005 86.03 13.7812 86.7188C13.5154 87.3136 13.2162 87.7223 12.7546 88.1804C12.6256 88.3093 12.4966 88.4383 12.3637 88.5712C12.2247 88.7082 12.0857 88.8451 11.9426 88.9862C11.8001 89.1282 11.6576 89.2701 11.5107 89.4164C11.0559 89.869 10.5998 90.3203 10.1436 90.7715C9.83473 91.0784 9.52599 91.3853 9.21735 91.6924C8.46102 92.4444 7.70359 93.1953 6.94531 93.9453C5.66907 92.8734 4.47856 91.7303 3.29465 90.5583C3.05738 90.3243 2.81907 90.0914 2.57977 89.8595C2.23205 89.5224 1.88759 89.1823 1.5437 88.8412C1.4359 88.7379 1.32811 88.6345 1.21704 88.528C0.922287 88.2316 0.922287 88.2316 0.5 87.6953C0.55779 87.025 0.841357 86.6962 1.30914 86.2337C1.43817 86.1047 1.5672 85.9757 1.70013 85.8429C1.84011 85.7059 1.98008 85.569 2.1243 85.4279C2.33847 85.2149 2.33847 85.2149 2.55698 84.9977C3.01335 84.5446 3.47173 84.0936 3.93018 83.6426C4.23994 83.3358 4.54956 83.0288 4.85905 82.7217C5.61805 81.9692 6.3787 81.2183 7.14062 80.4688Z" fill="#F57732"/>
<path d="M13.7812 86.9141C14.6771 87.6632 15.5286 88.4387 16.3501 89.2685C16.4565 89.3752 16.563 89.4819 16.6726 89.5919C17.0073 89.9277 17.3413 90.2641 17.6753 90.6006C17.9043 90.8305 18.1333 91.0604 18.3623 91.2903C18.9192 91.8493 19.4754 92.4088 20.0312 92.9688C19.7696 93.5488 19.4798 93.9621 19.0349 94.4155C18.9124 94.5412 18.7898 94.6669 18.6635 94.7964C18.5313 94.9297 18.399 95.063 18.2628 95.2003C18.1264 95.3384 17.9901 95.4765 17.8497 95.6188C17.5616 95.9097 17.2729 96.2001 16.9838 96.49C16.5406 96.9354 16.1013 97.3844 15.6619 97.8336C15.3816 98.1158 15.1011 98.3977 14.8204 98.6794C14.6889 98.8146 14.5575 98.9499 14.422 99.0893C14.2363 99.2732 14.2363 99.2732 14.0468 99.4608C13.9387 99.5699 13.8306 99.6791 13.7192 99.7915C13.3906 100 13.3906 100 12.997 99.9699C12.5672 99.7867 12.3282 99.5944 12.0007 99.2626C11.8307 99.0925 11.8307 99.0925 11.6573 98.919C11.5374 98.7961 11.4176 98.6732 11.2941 98.5466C11.1695 98.4212 11.0448 98.2957 10.9164 98.1665C10.5191 97.7658 10.1238 97.3632 9.72852 96.9604C9.45933 96.6883 9.19002 96.4163 8.92056 96.1445C8.26059 95.4781 7.60248 94.8098 6.94531 94.1406C7.21116 93.5457 7.51041 93.137 7.97194 92.679C8.10095 92.55 8.22996 92.4211 8.36288 92.2882C8.50185 92.1512 8.64082 92.0143 8.784 91.8732C8.99776 91.6602 8.99776 91.6602 9.21584 91.443C9.67065 90.9904 10.1268 90.5391 10.583 90.0879C10.8918 89.781 11.2006 89.4741 11.5092 89.167C12.2655 88.415 13.023 87.6641 13.7812 86.9141Z" fill="#EA5A0B"/>
<path d="M32.1406 68.5547C32.6897 68.8066 33.1064 69.0753 33.546 69.4885C33.6673 69.6023 33.7887 69.716 33.9138 69.8332C34.1116 70.0221 34.1116 70.0221 34.3135 70.2148C34.5223 70.4136 34.5223 70.4136 34.7353 70.6163C35.2394 71.0991 35.7409 71.5846 36.2422 72.0703C36.4606 72.281 36.6791 72.4917 36.8976 72.7024C37.4847 73.2696 38.0685 73.8399 38.6506 74.4123C38.8842 74.6414 39.1187 74.8697 39.3539 75.0971C39.6868 75.4195 40.0163 75.7449 40.3453 76.0712C40.4468 76.1683 40.5484 76.2654 40.653 76.3655C41.3159 77.0324 41.3159 77.0324 41.3355 77.5509C41.0536 78.0581 40.7088 78.4113 40.2942 78.8177C40.044 79.0651 40.044 79.0651 39.7887 79.3175C39.6134 79.4879 39.438 79.6584 39.2573 79.834C39.0812 80.0075 38.9051 80.1809 38.7236 80.3596C38.2884 80.788 37.8519 81.2149 37.4141 81.6406C36.6305 81.2798 36.0943 80.7625 35.4976 80.1514C35.4008 80.0544 35.3039 79.9575 35.2042 79.8576C34.6747 79.322 34.1708 78.7726 33.6818 78.1998C32.679 77.043 31.5788 75.9799 30.4927 74.9023C30.273 74.6837 30.0534 74.465 29.8339 74.2462C29.3012 73.7157 28.768 73.1858 28.2344 72.6562C29.0621 71.6668 29.9285 70.7421 30.8467 69.8364C30.9718 69.7122 31.0969 69.5879 31.2259 69.4599C31.5303 69.1577 31.8353 68.856 32.1406 68.5547Z" fill="#EA5A0B"/>
<path d="M65.3437 25.7813C66.1216 26.5246 66.479 27.1794 66.5889 28.2593C66.5724 29.2512 66.1776 29.924 65.539 30.6641C64.4835 31.5624 63.462 31.5764 62.099 31.5315C61.1589 31.409 60.5347 31.1534 59.875 30.4688C59.1356 29.4779 58.937 28.5587 59.0937 27.3438C59.5619 26.4421 60.2008 25.6047 61.2017 25.2754C62.6318 25.0097 64.0891 25.0131 65.3437 25.7813Z" fill="#F57732"/>
<path d="M59.6797 33.3984C61.6777 33.3984 63.6758 33.3984 65.7343 33.3984C65.8699 34.4832 65.9572 35.4901 65.9518 36.5726C65.9519 36.7253 65.9519 36.8779 65.9519 37.0352C65.9518 37.5339 65.9503 38.0327 65.9487 38.5315C65.9484 38.8796 65.9481 39.2277 65.9479 39.5757C65.9472 40.4876 65.9452 41.3995 65.9431 42.3114C65.9411 43.2436 65.9402 44.1758 65.9392 45.108C65.9371 46.934 65.9338 48.76 65.9297 50.5859C65.8652 50.5859 65.8008 50.5859 65.7343 50.5859C65.6699 45.5586 65.6054 40.5312 65.539 35.3516C61.7749 38.0428 61.7749 38.0428 59.7921 42.0378C59.4514 44.8641 59.6261 47.7575 59.875 50.5859C59.8105 50.5859 59.7461 50.5859 59.6797 50.5859C59.6797 44.9141 59.6797 39.2422 59.6797 33.3984Z" fill="#F57732"/>
</g>
<defs>
<clipPath id="clip0_2260_9596">
<rect width="100" height="100" fill="white" transform="translate(0.5)"/>
</clipPath>
</defs>
</svg>
