<svg width="101" height="100" viewBox="0 0 101 100" fill="none" xmlns="http://www.w3.org/2000/svg">
<g clip-path="url(#clip0_2260_9570)">
<path d="M50.4634 -0.0854436C50.7713 -0.0830125 50.7713 -0.0830125 51.0854 -0.0805322C54.6381 -0.00356826 57.5701 1.38018 60.0703 3.90626C60.2746 4.10075 60.2746 4.10075 60.4831 4.29917C62.0646 5.91146 62.9735 8.01284 63.5859 10.1563C64.5527 10.2207 65.5195 10.2852 66.5156 10.3516C66.5156 12.3496 66.5156 14.3477 66.5156 16.4063C65.6133 16.4063 64.7109 16.4063 63.7812 16.4063C63.7812 19.7578 63.7812 23.1094 63.7812 26.5625C66.2305 26.5625 68.6797 26.5625 71.2031 26.5625C71.2031 28.5606 71.2031 30.5586 71.2031 32.6172C69.6562 32.6172 68.1094 32.6172 66.5156 32.6172C66.5156 48.6016 66.5156 64.5859 66.5156 81.0547C67.4824 80.4102 68.4492 79.7656 69.4453 79.1016C72.446 77.5854 75.9864 77.1017 79.272 78.0518C81.1269 78.7565 82.7275 79.7774 84.2997 80.9713C85.9422 82.1958 87.6041 82.1789 89.5625 82.0313C90.9616 81.7426 92.1229 80.706 93.2692 79.8987C95.6663 78.2266 97.5508 77.7344 100.5 77.7344C100.5 85.082 100.5 92.4297 100.5 100C67.5 100 34.5 100 0.5 100C0.5 92.6523 0.5 85.3047 0.5 77.7344C4.08924 77.7344 6.49799 78.8438 9.2997 80.9713C10.9422 82.1958 12.6041 82.1789 14.5625 82.0313C15.9616 81.7426 17.1229 80.706 18.2692 79.8987C21.3203 77.7703 24.6097 77.2865 28.2735 77.7939C30.6162 78.2734 32.5676 79.7129 34.4844 81.0547C34.4844 65.0703 34.4844 49.0859 34.4844 32.6172C32.9375 32.6172 31.3906 32.6172 29.7969 32.6172C29.7969 30.6191 29.7969 28.6211 29.7969 26.5625C32.2461 26.5625 34.6953 26.5625 37.2188 26.5625C37.2188 23.2109 37.2188 19.8594 37.2188 16.4063C36.3164 16.4063 35.4141 16.4063 34.4844 16.4063C34.4844 14.4082 34.4844 12.4102 34.4844 10.3516C35.4512 10.2871 36.418 10.2227 37.4141 10.1563C37.551 9.74537 37.688 9.33448 37.8291 8.91114C38.585 6.75926 39.7238 5.14526 41.3203 3.51563C41.4937 3.33171 41.4937 3.33171 41.6705 3.14408C42.4855 2.35071 43.4038 1.83184 44.4087 1.31836C44.5336 1.25401 44.6585 1.18965 44.7872 1.12334C46.6261 0.226253 48.4262 -0.106341 50.4634 -0.0854436Z" fill="#ECF4FE"/>
<path d="M0.5 77.7344C4.08924 77.7344 6.49799 78.8438 9.2997 80.9713C10.9422 82.1958 12.6041 82.1789 14.5625 82.0313C15.9616 81.7426 17.1229 80.706 18.2692 79.8987C21.3203 77.7704 24.6097 77.2865 28.2735 77.7939C30.7356 78.2979 33.3081 79.8735 35.0703 81.6406C36.4892 82.492 38.1305 82.4167 39.7235 82.1259C41.05 81.7214 42.0517 80.9392 43.1361 80.1077C46.0229 77.922 49.1066 77.4264 52.6484 77.7344C54.8711 78.0926 56.6921 79.135 58.462 80.4924C60.1002 81.7393 61.6803 82.5012 63.7812 82.2266C64.2943 82.1015 64.7917 81.9549 65.2926 81.7879C65.6976 81.6529 66.1004 81.5432 66.5156 81.4453C66.5156 81.3164 66.5156 81.1875 66.5156 81.0547C66.9527 80.7215 67.3873 80.4153 67.8462 80.1148C67.9794 80.027 68.1126 79.9393 68.2498 79.8489C71.3944 77.8162 74.9255 77.1086 78.6387 77.8687C80.7592 78.4818 82.5584 79.649 84.2997 80.9713C85.9422 82.1958 87.6041 82.1789 89.5625 82.0313C90.9616 81.7426 92.1229 80.706 93.2692 79.8987C95.6663 78.2266 97.5508 77.7344 100.5 77.7344C100.5 85.0821 100.5 92.4297 100.5 100C67.5 100 34.5 100 0.5 100C0.5 92.6524 0.5 85.3047 0.5 77.7344Z" fill="#A05AD3"/>
<path d="M50.4634 -0.0854436C50.7713 -0.0830125 50.7713 -0.0830125 51.0854 -0.0805322C54.6381 -0.00356826 57.5701 1.38018 60.0703 3.90626C60.2746 4.10075 60.2746 4.10075 60.4831 4.29917C62.0646 5.91146 62.9735 8.01284 63.5859 10.1563C64.5527 10.2207 65.5195 10.2852 66.5156 10.3516C66.5156 12.3496 66.5156 14.3477 66.5156 16.4063C65.6133 16.4063 64.7109 16.4063 63.7812 16.4063C63.7812 19.7578 63.7812 23.1094 63.7812 26.5625C66.2305 26.5625 68.6797 26.5625 71.2031 26.5625C71.2031 28.5606 71.2031 30.5586 71.2031 32.6172C69.6562 32.6172 68.1094 32.6172 66.5156 32.6172C66.6131 33.2282 66.7105 33.8393 66.8109 34.4688C67.5565 40.4933 67.5565 40.4933 66.1649 42.4972C64.2646 44.5628 61.6073 45.8623 59.1373 47.1213C57.8574 47.7784 56.6809 48.5612 55.5049 49.3866C54.998 49.7424 54.4861 50.0909 53.9752 50.441C53.4193 50.8241 52.8638 51.2078 52.3093 51.593C52.0402 51.7781 52.0402 51.7781 51.7657 51.9669C51.6064 52.0772 51.4471 52.1875 51.2829 52.3011C50.8906 52.5391 50.8906 52.5391 50.5 52.5391C50.5 45.9004 50.5 39.2617 50.5 32.4219C45.4404 32.4858 45.4404 32.4858 40.3808 32.5504C36.8525 32.5948 33.3255 32.629 29.7969 32.6172C29.7969 30.6191 29.7969 28.6211 29.7969 26.5625C32.2461 26.5625 34.6953 26.5625 37.2188 26.5625C37.2188 23.2109 37.2188 19.8594 37.2188 16.4063C36.3164 16.4063 35.4141 16.4063 34.4844 16.4063C34.4844 14.4082 34.4844 12.4102 34.4844 10.3516C35.4512 10.2871 36.418 10.2227 37.4141 10.1563C37.551 9.74537 37.688 9.33448 37.8291 8.91114C38.585 6.75926 39.7238 5.14526 41.3203 3.51563C41.4359 3.39302 41.5514 3.27041 41.6705 3.14408C42.4855 2.35071 43.4038 1.83184 44.4087 1.31836C44.5336 1.25401 44.6585 1.18965 44.7872 1.12334C46.6261 0.226253 48.4262 -0.106341 50.4634 -0.0854436Z" fill="#A05AD3"/>
<path d="M0.5 89.4531C3.84014 89.4531 6.47275 90.6756 9.09714 92.6728C10.7222 93.8933 12.1648 94.1311 14.1719 93.9453C15.7576 93.6557 16.8884 92.7831 18.1361 91.8264C20.9769 89.6755 23.9691 89.1803 27.4531 89.4531C28.355 89.6147 29.1521 89.872 29.9922 90.2343C30.2785 90.3552 30.2785 90.3552 30.5705 90.4785C31.8522 91.0705 32.9776 91.8208 34.0971 92.6728C35.7222 93.8933 37.1648 94.1311 39.1719 93.9453C40.7576 93.6557 41.8884 92.7831 43.1361 91.8264C45.9801 89.6731 48.967 89.1857 52.4531 89.4531C54.8576 89.7928 56.8127 91.0104 58.7275 92.4194C60.4807 93.6989 61.9777 94.2195 64.1719 93.9453C65.5727 93.6238 66.6118 92.9528 67.7607 92.1142C70.9453 89.8653 73.9689 88.9607 77.8743 89.5126C80.1104 89.9544 81.9234 91.0919 83.7275 92.4194C85.4807 93.6989 86.9777 94.2195 89.1719 93.9453C90.5727 93.6238 91.6118 92.9528 92.7607 92.1142C94.0494 91.2041 95.2873 90.3658 96.7891 89.8437C96.9212 89.7969 97.0534 89.75 97.1896 89.7018C98.3346 89.3576 99.2356 89.4531 100.5 89.4531C100.5 92.9335 100.5 96.414 100.5 99.9999C67.5 99.9999 34.5 99.9999 0.5 99.9999C0.5 96.5195 0.5 93.039 0.5 89.4531Z" fill="#522076"/>
<path d="M50.5 77.7344C53.0156 77.7344 53.0156 77.7344 54.2109 78.1372C54.344 78.1807 54.4772 78.2242 54.6143 78.269C56.0644 78.7702 57.2496 79.5626 58.462 80.4924C60.1002 81.7393 61.6803 82.5012 63.7812 82.2266C64.2943 82.1015 64.7917 81.9549 65.2926 81.7879C65.6976 81.6529 66.1004 81.5432 66.5156 81.4453C66.5156 81.3164 66.5156 81.1875 66.5156 81.0547C66.9527 80.7215 67.3873 80.4153 67.8462 80.1148C68.046 79.9832 68.046 79.9832 68.2498 79.8489C71.3944 77.8162 74.9255 77.1086 78.6387 77.8687C80.7592 78.4818 82.5584 79.649 84.2997 80.9713C85.9422 82.1958 87.6041 82.1789 89.5625 82.0313C90.9616 81.7426 92.1229 80.706 93.2692 79.8987C95.6663 78.2266 97.5508 77.7344 100.5 77.7344C100.5 81.6016 100.5 85.4688 100.5 89.4531C98.9531 89.6465 98.9531 89.6465 97.375 89.8438C95.4754 90.5021 93.9195 91.4686 92.2755 92.6087C90.4774 93.8432 89.0322 94.3864 86.8281 94.1406C85.4281 93.8241 84.396 93.1491 83.2515 92.3096C80.1172 90.0892 77.178 89.3495 73.3516 89.6485C71.0348 90.0599 69.1365 91.2415 67.2725 92.6148C65.5194 93.8943 64.0222 94.4149 61.8281 94.1406C60.4283 93.8198 59.3973 93.15 58.2515 92.3096C56.885 91.3415 55.624 90.545 54.0156 90.0391C53.8769 89.9945 53.7382 89.95 53.5952 89.904C52.5632 89.6118 51.5871 89.5619 50.5 89.4531C50.5 85.586 50.5 81.7188 50.5 77.7344Z" fill="#8A35C5"/>
<path d="M0.5 4.6875C1.81838 5.12696 1.81838 5.12696 2.43639 5.40113C2.57643 5.46295 2.71646 5.52476 2.86075 5.58845C3.01048 5.6552 3.16021 5.72194 3.31448 5.79071C3.47522 5.86185 3.63596 5.933 3.80158 6.0063C4.33295 6.24164 4.86398 6.47775 5.39502 6.71387C5.7711 6.8806 6.14719 7.04728 6.52331 7.21393C8.81506 8.22977 11.1052 9.2492 13.3957 10.268C13.6662 10.3883 13.6662 10.3883 13.9421 10.511C14.3082 10.6738 14.6742 10.8367 15.0402 10.9995C17.5225 12.1039 20.0072 13.2025 22.4953 14.2938C22.9913 14.5114 23.4872 14.7293 23.983 14.9472C25.4367 15.5858 26.8912 16.2224 28.3495 16.8508C28.9771 17.1216 29.6041 17.3939 30.2311 17.6664C30.525 17.7936 30.8193 17.9201 31.114 18.0458C31.516 18.2174 31.9169 18.3915 32.3176 18.5661C32.5438 18.6634 32.7701 18.7607 33.0031 18.861C33.5078 19.1406 33.5078 19.1406 33.7031 19.7266C33.5916 19.7794 33.4801 19.8322 33.3651 19.8866C30.3986 21.2932 27.4559 22.7426 24.5234 24.2188C22.0371 25.4704 19.546 26.7073 17.0317 27.9019C14.891 28.9217 12.7741 29.9886 10.6562 31.0547C8.27629 32.2527 5.8938 33.4435 3.49072 34.5947C3.30276 34.6849 3.1148 34.775 2.92114 34.8679C2.7458 34.9515 2.57046 35.0351 2.3898 35.1212C2.15993 35.2307 2.15993 35.2307 1.92541 35.3425C1.45683 35.5559 0.978044 35.7463 0.5 35.9375C0.5 25.625 0.5 15.3125 0.5 4.6875Z" fill="#F57732"/>
<path d="M100.5 4.49219C100.5 14.8047 100.5 25.1172 100.5 35.7422C95.1774 33.5245 95.1774 33.5245 92.5788 32.3406C91.744 31.9606 90.9081 31.5832 90.0721 31.2057C89.9004 31.1282 89.7286 31.0506 89.5517 30.9707C87.7258 30.1475 85.892 29.3428 84.0571 28.54C81.148 27.2669 78.243 25.9849 75.3413 24.6948C75.1613 24.6148 74.9812 24.5348 74.7957 24.4524C72.2929 23.34 69.7937 22.2196 67.2969 21.0938C67.2969 20.9648 67.2969 20.8359 67.2969 20.7031C68.0488 20.3247 68.801 19.9468 69.5535 19.5694C69.8071 19.4422 70.0606 19.3148 70.314 19.1872C71.9701 18.3536 73.6356 17.5421 75.31 16.7458C77.6684 15.6232 80.0031 14.4556 82.3359 13.2812C84.8249 12.0283 87.3187 10.7901 89.8357 9.5945C92.1271 8.50302 94.3901 7.35506 96.655 6.20999C97.2194 5.92486 97.7843 5.64067 98.3493 5.3566C98.5211 5.26935 98.693 5.1821 98.8701 5.09221C99.0276 5.01311 99.1851 4.93402 99.3474 4.85253C99.4857 4.78268 99.6239 4.71283 99.7664 4.64086C100.109 4.49219 100.109 4.49219 100.5 4.49219Z" fill="#EA5A0B"/>
<path d="M47.5703 21.2891C49.5039 21.2891 51.4375 21.2891 53.4297 21.2891C53.4297 23.0293 53.4297 24.7695 53.4297 26.5625C59.2949 26.5625 65.1602 26.5625 71.2031 26.5625C71.2031 28.5605 71.2031 30.5586 71.2031 32.6172C69.6562 32.6172 68.1094 32.6172 66.5156 32.6172C66.6618 33.5338 66.6618 33.5338 66.8109 34.4688C67.5565 40.4933 67.5565 40.4933 66.1649 42.4972C64.2646 44.5628 61.6073 45.8623 59.1373 47.1213C57.8574 47.7784 56.6809 48.5612 55.5049 49.3866C54.998 49.7424 54.4861 50.0909 53.9752 50.441C53.4193 50.8241 52.8638 51.2078 52.3093 51.593C52.1299 51.7164 51.9505 51.8398 51.7657 51.9669C51.6064 52.0772 51.4471 52.1875 51.2829 52.3011C50.8906 52.5391 50.8906 52.5391 50.5 52.5391C50.5 45.9004 50.5 39.2617 50.5 32.4219C45.4404 32.4858 45.4404 32.4858 40.3808 32.5504C36.8525 32.5948 33.3255 32.629 29.7969 32.6172C29.7969 30.6191 29.7969 28.6211 29.7969 26.5625C35.6621 26.5625 41.5273 26.5625 47.5703 26.5625C47.5703 24.8223 47.5703 23.082 47.5703 21.2891Z" fill="#522076"/>
<path d="M0.5 89.4531C3.84014 89.4531 6.47275 90.6756 9.09714 92.6728C10.7222 93.8933 12.1648 94.1311 14.1719 93.9453C15.7576 93.6558 16.8884 92.7831 18.1361 91.8264C20.9769 89.6755 23.9691 89.1804 27.4531 89.4531C28.355 89.6147 29.1521 89.872 29.9922 90.2343C30.2785 90.3552 30.2785 90.3552 30.5705 90.4785C31.8522 91.0706 32.9776 91.8208 34.0971 92.6728C35.7222 93.8933 37.1648 94.1311 39.1719 93.9453C40.7576 93.6558 41.8884 92.7831 43.1361 91.8264C45.4452 90.0781 47.6033 89.4531 50.5 89.4531C50.5 92.9335 50.5 96.414 50.5 100C34 100 17.5 100 0.5 100C0.5 96.5195 0.5 93.039 0.5 89.4531Z" fill="#6D2A9C"/>
<path d="M34.4844 32.4219C39.7695 32.4219 45.0547 32.4219 50.5 32.4219C50.8369 37.264 50.8369 37.264 50.9101 39.3658C50.9599 40.7895 51.018 42.2086 51.1336 43.6286C51.72 51.032 51.72 51.032 50.1418 53.2342C48.2529 55.3033 45.6952 56.5765 43.2218 57.8109C41.5065 58.6826 39.937 59.7856 38.3522 60.8711C37.5834 61.3943 36.8052 61.9031 36.027 62.4123C35.893 62.5006 35.759 62.589 35.6208 62.6801C34.7025 63.2812 34.7025 63.2812 34.4844 63.2812C34.4844 53.0977 34.4844 42.9141 34.4844 32.4219Z" fill="#8935C5"/>
<path d="M66.5156 41.9922C68.0203 60.8718 68.0203 60.8718 65.2974 64.1085C63.5253 65.7553 61.2841 66.6205 59.0166 67.3711C57.5335 67.8788 56.3424 68.7275 55.0974 69.6597C54.5819 70.0419 54.0508 70.3982 53.519 70.7573C53.3383 70.8806 53.1577 71.004 52.9716 71.131C52.4625 71.478 51.9531 71.8244 51.4422 72.1687C51.2321 72.3106 51.2321 72.3106 51.0178 72.4553C50.6953 72.6562 50.6953 72.6562 50.5 72.6562C50.3909 70.0877 50.3079 67.5197 50.2571 64.9493C50.2328 63.7553 50.1998 62.5629 50.1464 61.3698C49.8018 53.4597 49.8018 53.4597 50.9056 51.8371C51.9372 50.7508 53.1617 50.2055 54.5454 49.6817C55.5928 49.2452 56.4685 48.5901 57.3863 47.9317C57.7406 47.6906 58.0956 47.4507 58.4514 47.2118C58.984 46.8516 59.5165 46.4914 60.049 46.1309C66.1639 41.9922 66.1639 41.9922 66.5156 41.9922Z" fill="#D7E8FE"/>
<path d="M66.5156 62.1094C66.5156 68.4902 66.5156 74.8711 66.5156 81.4453C64.488 82.3465 62.8154 82.8132 60.6562 82.1182C59.6844 81.65 58.841 81.0025 57.9714 80.3687C56.9566 79.6299 55.9718 78.9759 54.7969 78.5156C54.6503 78.4542 54.5038 78.3928 54.3528 78.3295C51.4686 77.3286 47.9978 77.7119 45.2784 78.9551C44.1996 79.5038 43.2435 80.1808 42.2725 80.896C40.2905 82.3392 38.8825 82.5158 36.4375 82.4219C36.6626 81.7467 36.7893 81.677 37.3664 81.3022C37.5228 81.1994 37.6793 81.0967 37.8405 80.9908C38.0119 80.8805 38.1834 80.7701 38.3601 80.6564C38.6262 80.4824 38.6262 80.4824 38.8977 80.3049C39.2787 80.056 39.6601 79.8079 40.042 79.5603C41.0316 78.9188 42.018 78.2724 43.0049 77.6268C43.1988 77.5002 43.3928 77.3735 43.5926 77.243C45.4497 76.0293 47.285 74.7862 49.1145 73.5313C49.7925 73.0664 50.4739 72.6072 51.1584 72.1519C52.7508 71.093 54.3343 70.0208 55.9191 68.9505C57.3944 67.9545 58.8708 66.9599 60.347 65.9651C60.8149 65.6497 61.2826 65.3342 61.7503 65.0186C62.3836 64.5913 63.0175 64.1649 63.652 63.7393C63.8754 63.5893 64.0985 63.439 64.3215 63.2884C64.6233 63.0845 64.9259 62.8819 65.2285 62.6793C65.394 62.5681 65.5594 62.4568 65.7298 62.3422C66.125 62.1094 66.125 62.1094 66.5156 62.1094Z" fill="#522076"/>
<path d="M37.2188 16.2109C45.9844 16.2109 54.75 16.2109 63.7812 16.2109C63.7812 19.627 63.7812 23.043 63.7812 26.5625C60.3652 26.5625 56.9492 26.5625 53.4297 26.5625C53.4297 24.8223 53.4297 23.082 53.4297 21.2891C51.4961 21.2891 49.5625 21.2891 47.5703 21.2891C47.5703 23.0293 47.5703 24.7695 47.5703 26.5625C44.1543 26.5625 40.7383 26.5625 37.2188 26.5625C37.2188 23.1465 37.2188 19.7305 37.2188 16.2109Z" fill="#D7E8FE"/>
<path d="M47.5703 21.2891C49.5039 21.2891 51.4375 21.2891 53.4297 21.2891C53.4297 23.0293 53.4297 24.7695 53.4297 26.5625C52.4629 26.5625 51.4961 26.5625 50.5 26.5625C50.5 28.4961 50.5 30.4297 50.5 32.4219C48.4928 32.4477 46.4856 32.4732 44.4783 32.4983C43.5458 32.5099 42.6132 32.5217 41.6806 32.5337C37.7191 32.5848 33.7588 32.6304 29.7969 32.6172C29.7969 30.6191 29.7969 28.6211 29.7969 26.5625C35.6621 26.5625 41.5273 26.5625 47.5703 26.5625C47.5703 24.8223 47.5703 23.082 47.5703 21.2891Z" fill="#8935C5"/>
<path d="M50.5 26.5625C57.332 26.5625 64.1641 26.5625 71.2031 26.5625C71.2031 28.5605 71.2031 30.5586 71.2031 32.6172C67.0579 32.6311 62.9143 32.5801 58.7695 32.5266C57.8344 32.5147 56.8993 32.503 55.9642 32.4913C54.1428 32.4685 52.3214 32.4453 50.5 32.4219C50.5 30.4883 50.5 28.5547 50.5 26.5625Z" fill="#6D2A9C"/>
<path d="M37.2188 16.2109C41.6016 16.2109 45.9844 16.2109 50.5 16.2109C50.5 17.8867 50.5 19.5625 50.5 21.2891C49.5332 21.2891 48.5664 21.2891 47.5703 21.2891C47.5703 23.0293 47.5703 24.7695 47.5703 26.5625C44.1543 26.5625 40.7383 26.5625 37.2188 26.5625C37.2188 23.1465 37.2188 19.7305 37.2188 16.2109Z" fill="#ECF4FE"/>
<path d="M50.5 0C54.0837 0 57.0105 0.934852 59.627 3.4584C59.8465 3.68009 59.8465 3.68009 60.0703 3.90625C60.2065 4.03591 60.3427 4.16557 60.4831 4.29916C62.1253 5.97331 63.0256 8.11022 63.5859 10.3516C59.2676 10.3516 54.9492 10.3516 50.5 10.3516C50.5 6.93555 50.5 3.51953 50.5 0Z" fill="#6D2A9C"/>
<path d="M50.5 0C50.5 3.41602 50.5 6.83203 50.5 10.3516C46.1816 10.3516 41.8633 10.3516 37.4141 10.3516C38.3582 7.28297 39.3445 5.5011 41.5156 3.32031C41.6803 3.14546 41.6803 3.14546 41.8483 2.96707C44.1238 0.757409 47.4795 0 50.5 0Z" fill="#A05AD3"/>
<path d="M34.4844 10.3516C39.7051 10.3516 44.9258 10.3516 50.3047 10.3516C50.5 12.6953 50.5 12.6953 50.5 16.2109C45.2148 16.2754 39.9297 16.3398 34.4844 16.4062C34.4844 14.4082 34.4844 12.4102 34.4844 10.3516Z" fill="#8935C5"/>
<path d="M34.4844 32.4219C38.9961 32.4219 43.5078 32.4219 48.1562 32.4219C47.5061 33.072 46.8913 33.5549 46.1306 34.0469C45.8671 34.22 45.6037 34.3933 45.3403 34.5667C45.1971 34.6607 45.0539 34.7548 44.9064 34.8517C44.0545 35.4144 43.2093 35.987 42.3633 36.5585C41.9954 36.8067 41.6275 37.055 41.2597 37.3032C40.8852 37.5559 40.5107 37.8087 40.1362 38.0615C39.5689 38.4444 39.0016 38.8273 38.4343 39.2101C38.0845 39.4461 37.7347 39.6822 37.385 39.9183C37.0755 40.1272 36.7659 40.3358 36.456 40.544C36.1982 40.7182 35.9412 40.8937 35.6857 41.0711C34.9161 41.6016 34.9161 41.6016 34.4844 41.6016C34.4844 38.5723 34.4844 35.543 34.4844 32.4219Z" fill="#EDF4FE"/>
<path d="M50.3047 72.6562C50.3691 72.6562 50.4336 72.6562 50.5 72.6562C50.5 74.332 50.5 76.0078 50.5 77.7344C50.069 77.7787 49.6379 77.823 49.1938 77.8687C46.5811 78.193 44.4821 79.2964 42.377 80.8395C40.3838 82.2952 38.9056 82.5167 36.4375 82.4219C36.6626 81.7467 36.7893 81.677 37.3664 81.3022C37.5228 81.1994 37.6792 81.0967 37.8404 80.9908C38.0119 80.8805 38.1834 80.7701 38.3601 80.6564C38.5376 80.5404 38.7151 80.4243 38.898 80.3047C39.2791 80.0558 39.6606 79.8076 40.0425 79.56C41.0292 78.9204 42.0126 78.2759 42.9965 77.6321C43.19 77.5058 43.3835 77.3794 43.5828 77.2492C45.1301 76.2381 46.6662 75.2118 48.1929 74.1699C48.3905 74.0353 48.5882 73.9007 48.7918 73.762C49.584 73.254 49.584 73.254 50.3047 72.6562Z" fill="#8935C5"/>
<path d="M47.5703 21.2891C49.5039 21.2891 51.4375 21.2891 53.4297 21.2891C53.4297 23.0293 53.4297 24.7695 53.4297 26.5625C51.4961 26.5625 49.5625 26.5625 47.5703 26.5625C47.5703 24.8223 47.5703 23.082 47.5703 21.2891Z" fill="#A05AD3"/>
<path d="M50.5 21.4844C51.4668 21.4844 52.4336 21.4844 53.4297 21.4844C53.4297 23.1602 53.4297 24.8359 53.4297 26.5625C52.4629 26.5625 51.4961 26.5625 50.5 26.5625C50.5 24.8867 50.5 23.2109 50.5 21.4844Z" fill="#522076"/>
</g>
<defs>
<clipPath id="clip0_2260_9570">
<rect width="100" height="100" fill="white" transform="translate(0.5)"/>
</clipPath>
</defs>
</svg>
