<svg width="101" height="100" viewBox="0 0 101 100" fill="none" xmlns="http://www.w3.org/2000/svg">
<g clip-path="url(#clip0_2260_9532)">
<path d="M0.5 7.22656C33.5 7.22656 66.5 7.22656 100.5 7.22656C100.5 35.457 100.5 63.6875 100.5 92.7734C67.5 92.7734 34.5 92.7734 0.5 92.7734C0.5 64.543 0.5 36.3125 0.5 7.22656Z" fill="#D7E8FE"/>
<path d="M0.5 28.9062C17 28.9062 33.5 28.9062 50.5 28.9062C50.5 32.1289 50.5 35.3516 50.5 38.6719C54.1094 38.6719 57.7188 38.6719 61.4375 38.6719C61.4375 40.6055 61.4375 42.5391 61.4375 44.5312C57.8281 44.5312 54.2188 44.5312 50.5 44.5312C50.5 46.4648 50.5 48.3984 50.5 50.3906C54.1094 50.3906 57.7188 50.3906 61.4375 50.3906C61.4375 52.3242 61.4375 54.2578 61.4375 56.25C57.8281 56.25 54.2188 56.25 50.5 56.25C50.5 58.1836 50.5 60.1172 50.5 62.1094C54.0449 62.1094 57.5898 62.1094 61.2422 62.1094C61.2422 69.1992 61.2422 76.2891 61.2422 83.5938C57.6973 83.5938 54.1523 83.5938 50.5 83.5938C50.5 86.5586 50.5 89.5234 50.5 92.5781C34 92.5781 17.5 92.5781 0.5 92.5781C0.5 71.5664 0.5 50.5547 0.5 28.9062Z" fill="#EDF4FE"/>
<path d="M0.5 7.22656C33.5 7.22656 66.5 7.22656 100.5 7.22656C100.5 14.3164 100.5 21.4062 100.5 28.7109C67.5 28.7109 34.5 28.7109 0.5 28.7109C0.5 21.6211 0.5 14.5313 0.5 7.22656Z" fill="#8935C5"/>
<path d="M50.5 7.22656C67 7.22656 83.5 7.22656 100.5 7.22656C100.5 14.3164 100.5 21.4062 100.5 28.7109C84 28.7109 67.5 28.7109 50.5 28.7109C50.5 26.1973 50.5 23.6836 50.5 21.0938C64.5508 21.0938 78.6016 21.0938 93.0781 21.0938C93.0781 19.0957 93.0781 17.0977 93.0781 15.0391C79.0273 15.0391 64.9766 15.0391 50.5 15.0391C50.5 12.4609 50.5 9.88281 50.5 7.22656Z" fill="#522076"/>
<path d="M66.9062 38.6719C73.9961 38.6719 81.0859 38.6719 88.3906 38.6719C88.3906 45.7617 88.3906 52.8516 88.3906 60.1562C81.3008 60.1562 74.2109 60.1562 66.9062 60.1562C66.9062 53.0664 66.9062 45.9766 66.9062 38.6719Z" fill="#EA5A0B"/>
<path d="M12.6094 38.6719C19.6992 38.6719 26.7891 38.6719 34.0938 38.6719C34.0938 45.7617 34.0938 52.8516 34.0938 60.1562C27.0039 60.1562 19.9141 60.1562 12.6094 60.1562C12.6094 53.0664 12.6094 45.9766 12.6094 38.6719Z" fill="#F57732"/>
<path d="M46.9844 15.2344C62.1953 15.2344 77.4062 15.2344 93.0781 15.2344C93.0781 17.168 93.0781 19.1016 93.0781 21.0938C77.8672 21.0938 62.6562 21.0938 46.9844 21.0938C46.9844 19.1602 46.9844 17.2266 46.9844 15.2344Z" fill="#8935C5"/>
<path d="M50.5 62.1094C54.0449 62.1094 57.5898 62.1094 61.2422 62.1094C61.2422 69.1992 61.2422 76.2891 61.2422 83.5938C57.6973 83.5938 54.1523 83.5938 50.5 83.5938C50.5 76.5039 50.5 69.4141 50.5 62.1094Z" fill="#EA5A0B"/>
<path d="M39.7578 62.1094C43.3027 62.1094 46.8477 62.1094 50.5 62.1094C50.5 69.1992 50.5 76.2891 50.5 83.5938C46.9551 83.5938 43.4102 83.5938 39.7578 83.5938C39.7578 76.5039 39.7578 69.4141 39.7578 62.1094Z" fill="#F57732"/>
<path d="M66.7109 77.7344C73.9297 77.7344 81.1484 77.7344 88.5859 77.7344C88.5859 79.668 88.5859 81.6016 88.5859 83.5938C81.3672 83.5938 74.1484 83.5938 66.7109 83.5938C66.7109 81.6602 66.7109 79.7266 66.7109 77.7344Z" fill="#522076"/>
<path d="M66.7109 66.0156C73.9297 66.0156 81.1484 66.0156 88.5859 66.0156C88.5859 67.9492 88.5859 69.8828 88.5859 71.875C81.3672 71.875 74.1484 71.875 66.7109 71.875C66.7109 69.9414 66.7109 68.0078 66.7109 66.0156Z" fill="#522076"/>
<path d="M12.4141 77.7344C19.5684 77.7344 26.7227 77.7344 34.0938 77.7344C34.0938 79.668 34.0938 81.6016 34.0938 83.5938C26.9395 83.5938 19.7852 83.5938 12.4141 83.5938C12.4141 81.6602 12.4141 79.7266 12.4141 77.7344Z" fill="#8935C5"/>
<path d="M12.4141 66.0156C19.5684 66.0156 26.7227 66.0156 34.0938 66.0156C34.0938 67.9492 34.0938 69.8828 34.0938 71.875C26.9395 71.875 19.7852 71.875 12.4141 71.875C12.4141 69.9414 12.4141 68.0078 12.4141 66.0156Z" fill="#8935C5"/>
<path d="M39.7578 50.3906C46.9121 50.3906 54.0664 50.3906 61.4375 50.3906C61.4375 52.3242 61.4375 54.2578 61.4375 56.25C54.2832 56.25 47.1289 56.25 39.7578 56.25C39.7578 54.3164 39.7578 52.3828 39.7578 50.3906Z" fill="#522076"/>
<path d="M39.7578 38.6719C46.9121 38.6719 54.0664 38.6719 61.4375 38.6719C61.4375 40.6055 61.4375 42.5391 61.4375 44.5312C54.2832 44.5312 47.1289 44.5312 39.7578 44.5312C39.7578 42.5977 39.7578 40.6641 39.7578 38.6719Z" fill="#522076"/>
<path d="M39.7578 50.3906C43.3027 50.3906 46.8477 50.3906 50.5 50.3906C50.5 52.3242 50.5 54.2578 50.5 56.25C46.9551 56.25 43.4102 56.25 39.7578 56.25C39.7578 54.3164 39.7578 52.3828 39.7578 50.3906Z" fill="#8935C5"/>
<path d="M39.7578 38.6719C43.3027 38.6719 46.8477 38.6719 50.5 38.6719C50.5 40.6055 50.5 42.5391 50.5 44.5312C46.9551 44.5312 43.4102 44.5312 39.7578 44.5312C39.7578 42.5977 39.7578 40.6641 39.7578 38.6719Z" fill="#8935C5"/>
<path d="M27.2578 15.0391C28.2206 15.0351 29.1833 15.031 30.1753 15.0269C30.6315 15.0242 30.6315 15.0242 31.0969 15.0215C31.453 15.0208 31.453 15.0208 31.8164 15.02C32.0608 15.019 32.3053 15.018 32.5571 15.0169C33.1172 15.0391 33.1172 15.0391 33.3125 15.2344C33.3297 15.6677 33.3334 16.1016 33.3316 16.5352C33.3311 16.7726 33.3306 17.0101 33.3301 17.2547C33.3283 17.5588 33.3265 17.8629 33.3247 18.1763C33.3207 19.1391 33.3167 20.1018 33.3125 21.0938C31.3145 21.0938 29.3164 21.0938 27.2578 21.0938C27.2578 19.0957 27.2578 17.0977 27.2578 15.0391Z" fill="#B882DD"/>
<path d="M17.4922 15.2344C19.4902 15.2344 21.4883 15.2344 23.5469 15.2344C23.5469 17.168 23.5469 19.1016 23.5469 21.0938C21.5488 21.0938 19.5508 21.0938 17.4922 21.0938C17.4922 19.1602 17.4922 17.2266 17.4922 15.2344Z" fill="#B882DD"/>
<path d="M7.72656 15.2344C9.72461 15.2344 11.7227 15.2344 13.7812 15.2344C13.7812 17.168 13.7812 19.1016 13.7812 21.0938C11.7832 21.0938 9.78516 21.0938 7.72656 21.0938C7.72656 19.1602 7.72656 17.2266 7.72656 15.2344Z" fill="#B882DD"/>
<path d="M46.9844 15.2344C48.1445 15.2344 49.3047 15.2344 50.5 15.2344C50.5 17.1035 50.5 18.9727 50.5 20.8984C49.3398 20.8984 48.1797 20.8984 46.9844 20.8984C46.9844 19.0293 46.9844 17.1602 46.9844 15.2344Z" fill="#6D2A9C"/>
</g>
<defs>
<clipPath id="clip0_2260_9532">
<rect width="100" height="100" fill="white" transform="translate(0.5)"/>
</clipPath>
</defs>
</svg>
