<svg width="101" height="100" viewBox="0 0 101 100" fill="none" xmlns="http://www.w3.org/2000/svg">
<path d="M21.7891 0C40.7383 0 59.6875 0 79.2109 0C79.2109 33 79.2109 66 79.2109 100C60.2617 100 41.3125 100 21.7891 100C21.7891 67 21.7891 34 21.7891 0Z" fill="#EDF4FE"/>
<path d="M21.7891 11.1328C21.8535 11.1328 21.918 11.1328 21.9844 11.1328C21.9844 34.4648 21.9844 57.7969 21.9844 81.8359C31.3945 81.8359 40.8047 81.8359 50.5 81.8359C50.5 76.4219 50.5 71.0078 50.5 65.4297C55.9785 65.4297 61.457 65.4297 67.1016 65.4297C67.1016 63.4961 67.1016 61.5625 67.1016 59.5703C61.623 59.5703 56.1445 59.5703 50.5 59.5703C50.5 57.6367 50.5 55.7031 50.5 53.7109C55.9785 53.7109 61.457 53.7109 67.1016 53.7109C67.1016 51.7773 67.1016 49.8438 67.1016 47.8516C61.623 47.8516 56.1445 47.8516 50.5 47.8516C50.5 45.918 50.5 43.9844 50.5 41.9922C55.9785 41.9922 61.457 41.9922 67.1016 41.9922C67.1016 40.0586 67.1016 38.125 67.1016 36.1328C61.623 36.1328 56.1445 36.1328 50.5 36.1328C50.5 34.1992 50.5 32.2656 50.5 30.2734C55.9785 30.2734 61.457 30.2734 67.1016 30.2734C67.1016 28.3398 67.1016 26.4062 67.1016 24.4141C61.623 24.4141 56.1445 24.4141 50.5 24.4141C50.5 20.0312 50.5 15.6484 50.5 11.1328C59.9746 11.1328 69.4492 11.1328 79.2109 11.1328C79.2109 40.459 79.2109 69.7852 79.2109 100C60.2617 100 41.3125 100 21.7891 100C21.7891 70.6738 21.7891 41.3477 21.7891 11.1328Z" fill="#D6E8FE"/>
<path d="M21.7891 82.0312C40.7383 82.0312 59.6875 82.0312 79.2109 82.0312C79.2109 87.9609 79.2109 93.8906 79.2109 100C60.2617 100 41.3125 100 21.7891 100C21.7891 94.0703 21.7891 88.1406 21.7891 82.0312Z" fill="#522076"/>
<path d="M21.7891 0C40.7383 0 59.6875 0 79.2109 0C79.2109 3.67383 79.2109 7.34766 79.2109 11.1328C60.2617 11.1328 41.3125 11.1328 21.7891 11.1328C21.7891 7.45898 21.7891 3.78516 21.7891 0Z" fill="#6D2A9C"/>
<path d="M21.7891 82.0312C31.2637 82.0312 40.7383 82.0312 50.5 82.0312C50.5 84.0938 50.5 86.1562 50.5 88.2812C48.9375 88.8672 48.9375 88.8672 48.3516 89.0625C48.1237 89.4368 48.1237 89.4368 47.9609 89.8438C47.8965 89.9727 47.832 90.1016 47.7656 90.2344C47.6553 91.3144 47.6964 92.0679 48.3516 92.9688C48.3516 93.0977 48.3516 93.2266 48.3516 93.3594C49.0627 93.6522 49.767 93.8963 50.5 94.1406C50.5 96.0742 50.5 98.0078 50.5 100C41.0254 100 31.5508 100 21.7891 100C21.7891 94.0703 21.7891 88.1406 21.7891 82.0312Z" fill="#6D2A9C"/>
<path d="M50.5 0C59.9746 0 69.4492 0 79.2109 0C79.2109 3.60938 79.2109 7.21875 79.2109 10.9375C69.7363 10.9375 60.2617 10.9375 50.5 10.9375C50.5 7.32812 50.5 3.71875 50.5 0Z" fill="#522076"/>
<path d="M45.6172 59.5703C52.707 59.5703 59.7969 59.5703 67.1016 59.5703C67.1016 61.5039 67.1016 63.4375 67.1016 65.4297C60.0117 65.4297 52.9219 65.4297 45.6172 65.4297C45.6172 63.4961 45.6172 61.5625 45.6172 59.5703Z" fill="#EA5A0B"/>
<path d="M45.6172 47.8516C52.707 47.8516 59.7969 47.8516 67.1016 47.8516C67.1016 49.7852 67.1016 51.7188 67.1016 53.7109C60.0117 53.7109 52.9219 53.7109 45.6172 53.7109C45.6172 51.7773 45.6172 49.8438 45.6172 47.8516Z" fill="#EA5A0B"/>
<path d="M45.6172 36.1328C52.707 36.1328 59.7969 36.1328 67.1016 36.1328C67.1016 38.0664 67.1016 40 67.1016 41.9922C60.0117 41.9922 52.9219 41.9922 45.6172 41.9922C45.6172 40.0586 45.6172 38.125 45.6172 36.1328Z" fill="#EA5A0B"/>
<path d="M45.6172 24.4141C52.707 24.4141 59.7969 24.4141 67.1016 24.4141C67.1016 26.3477 67.1016 28.2812 67.1016 30.2734C60.0117 30.2734 52.9219 30.2734 45.6172 30.2734C45.6172 28.3398 45.6172 26.4062 45.6172 24.4141Z" fill="#EA5A0B"/>
<path d="M33.8984 59.5703C35.832 59.5703 37.7656 59.5703 39.7578 59.5703C39.7578 61.5039 39.7578 63.4375 39.7578 65.4297C37.8242 65.4297 35.8906 65.4297 33.8984 65.4297C33.8984 63.4961 33.8984 61.5625 33.8984 59.5703Z" fill="#F57732"/>
<path d="M33.8984 47.8516C35.832 47.8516 37.7656 47.8516 39.7578 47.8516C39.7578 49.7852 39.7578 51.7188 39.7578 53.7109C37.8242 53.7109 35.8906 53.7109 33.8984 53.7109C33.8984 51.7773 33.8984 49.8438 33.8984 47.8516Z" fill="#F57732"/>
<path d="M33.8984 36.1328C35.832 36.1328 37.7656 36.1328 39.7578 36.1328C39.7578 38.0664 39.7578 40 39.7578 41.9922C37.8242 41.9922 35.8906 41.9922 33.8984 41.9922C33.8984 40.0586 33.8984 38.125 33.8984 36.1328Z" fill="#F57732"/>
<path d="M33.8984 24.4141C35.832 24.4141 37.7656 24.4141 39.7578 24.4141C39.7578 26.3477 39.7578 28.2812 39.7578 30.2734C37.8242 30.2734 35.8906 30.2734 33.8984 30.2734C33.8984 28.3398 33.8984 26.4062 33.8984 24.4141Z" fill="#F57732"/>
<path d="M45.6172 59.5703C47.2285 59.5703 48.8398 59.5703 50.5 59.5703C50.5 61.5039 50.5 63.4375 50.5 65.4297C48.8887 65.4297 47.2773 65.4297 45.6172 65.4297C45.6172 63.4961 45.6172 61.5625 45.6172 59.5703Z" fill="#F57732"/>
<path d="M45.6172 47.8516C47.2285 47.8516 48.8398 47.8516 50.5 47.8516C50.5 49.7852 50.5 51.7188 50.5 53.7109C48.8887 53.7109 47.2773 53.7109 45.6172 53.7109C45.6172 51.7773 45.6172 49.8438 45.6172 47.8516Z" fill="#F57732"/>
<path d="M45.6172 36.1328C47.2285 36.1328 48.8398 36.1328 50.5 36.1328C50.5 38.0664 50.5 40 50.5 41.9922C48.8887 41.9922 47.2773 41.9922 45.6172 41.9922C45.6172 40.0586 45.6172 38.125 45.6172 36.1328Z" fill="#F57732"/>
<path d="M45.6172 24.4141C47.2285 24.4141 48.8398 24.4141 50.5 24.4141C50.5 26.3477 50.5 28.2812 50.5 30.2734C48.8887 30.2734 47.2773 30.2734 45.6172 30.2734C45.6172 28.3398 45.6172 26.4062 45.6172 24.4141Z" fill="#F57732"/>
<path d="M50.5 88.2812C51.969 88.5261 51.969 88.5261 52.6484 89.0625C53.3213 90.0081 53.5615 90.611 53.4297 91.7969C53.1996 92.6754 52.7456 93.1622 52.0625 93.75C51.4786 94.0419 51.1549 94.1406 50.5 94.1406C50.5 92.207 50.5 90.2734 50.5 88.2812Z" fill="#522076"/>
</svg>
