<svg width="101" height="100" viewBox="0 0 101 100" fill="none" xmlns="http://www.w3.org/2000/svg">
<path d="M15.7344 0C35.5859 0 55.4375 0 75.8906 0C75.8906 16.4355 75.8906 32.8711 75.8906 49.8047C76.5352 49.7402 77.1797 49.6758 77.8438 49.6094C79.7467 49.6922 81.6535 50.4968 83.0806 51.7578C84.7422 53.5787 85.2838 55.7838 85.3312 58.1659C85.3356 58.3583 85.34 58.5506 85.3446 58.7487C85.3833 60.5319 85.4057 62.3154 85.4233 64.0989C85.4353 65.2933 85.4525 66.4871 85.4826 67.6812C85.7274 77.634 85.7274 77.634 82.8968 81.1601C82.2167 82.054 81.6917 83.045 81.1396 84.021C80.9151 84.4048 80.6901 84.7884 80.4644 85.1715C79.6693 86.5383 78.9134 87.926 78.1645 89.3186C78.028 89.5721 78.028 89.5721 77.8888 89.8308C77.809 89.9799 77.7292 90.1291 77.6471 90.2828C77.4531 90.625 77.4531 90.625 77.2578 90.8203C77.1934 93.8496 77.1289 96.8789 77.0625 100C56.8242 100 36.5859 100 15.7344 100C15.7344 67 15.7344 34 15.7344 0Z" fill="#EA5A0B"/>
<path d="M15.7344 0C35.5859 0 55.4375 0 75.8906 0C75.8906 16.5 75.8906 33 75.8906 50C75.5443 49.4805 75.3656 49.0779 75.1582 48.4985C74.4124 46.608 73.1228 45.125 71.2642 44.2749C70.1933 43.8241 69.2761 43.7192 68.1147 43.7256C67.9807 43.7248 67.8466 43.7241 67.7085 43.7233C67.0284 43.7246 66.4554 43.7627 65.7832 43.9049C65.1484 43.9453 65.1484 43.9453 64.7128 43.5783C64.5867 43.4054 64.4605 43.2324 64.3306 43.0542C63.2715 41.7585 61.9089 40.9712 60.2656 40.625C59.9984 40.6099 59.7306 40.6039 59.463 40.6059C59.3157 40.6066 59.1684 40.6072 59.0167 40.6078C58.8649 40.6095 58.7131 40.6111 58.5566 40.6128C58.4018 40.6137 58.247 40.6146 58.0874 40.6155C57.7067 40.6178 57.326 40.6213 56.9453 40.625C56.9442 40.4039 56.9442 40.4039 56.9432 40.1784C56.9357 38.7821 56.9246 37.3859 56.9094 35.9896C56.9017 35.2719 56.8954 34.5543 56.8924 33.8367C56.8894 33.1426 56.8826 32.4487 56.8734 31.7547C56.8691 31.3642 56.8687 30.9737 56.8683 30.5832C56.8314 28.2597 56.2345 26.4894 54.6016 24.8047C52.8627 23.3288 50.8966 22.7024 48.6308 22.7768C46.4376 23.0216 44.7106 24.1155 43.3345 25.8095C42.4144 27.1102 41.86 28.5456 41.8519 30.1446C41.8497 30.3894 41.8475 30.6342 41.8453 30.8865C41.8448 31.1553 41.8444 31.424 41.844 31.6928C41.8422 31.9778 41.8402 32.2627 41.838 32.5477C41.8327 33.3191 41.8297 34.0906 41.8272 34.8621C41.8241 35.6691 41.8189 36.4761 41.8139 37.2832C41.8048 38.8104 41.7976 40.3377 41.7911 41.865C41.7837 43.6041 41.774 45.3433 41.7642 47.0824C41.744 50.6591 41.7266 54.2358 41.7109 57.8125C41.4957 57.671 41.4957 57.671 41.2762 57.5267C41.0858 57.4033 40.8954 57.2798 40.6993 57.1526C40.5115 57.0301 40.3237 56.9076 40.1302 56.7813C38.6404 55.8995 37.064 55.6292 35.3694 55.9509C33.3653 56.4705 31.7825 57.618 30.7238 59.3956C29.3222 62.3111 30.4757 65.3755 31.457 68.2129C31.5759 68.5701 31.6945 68.9274 31.8126 69.2848C32.7705 72.154 33.879 74.9548 35.0703 77.7344C28.6895 77.7344 22.3086 77.7344 15.7344 77.7344C15.7344 52.082 15.7344 26.4297 15.7344 0Z" fill="#EDF4FE"/>
<path d="M49.377 22.6441C49.7471 22.6467 49.7471 22.6467 50.1246 22.6494C50.313 22.6517 50.5013 22.6539 50.6953 22.6563C50.6953 22.7207 50.6953 22.7852 50.6953 22.8516C50.2441 22.8516 49.793 22.8516 49.3281 22.8516C49.3281 48.3106 49.3281 73.7696 49.3281 100C38.2422 100 27.1562 100 15.7344 100C15.7344 92.6524 15.7344 85.3047 15.7344 77.7344C22.0508 77.6699 28.3672 77.6055 34.875 77.5391C34.3594 76.3789 33.8438 75.2188 33.3125 74.0235C33.022 73.249 32.7427 72.4833 32.4832 71.6995C32.4165 71.5026 32.3498 71.3057 32.2811 71.1028C32.074 70.49 31.8693 69.8764 31.6646 69.2627C31.5229 68.8431 31.3811 68.4234 31.2392 68.0039C30.9825 67.2426 30.726 66.4814 30.4717 65.7193C30.4214 65.5686 30.371 65.4179 30.3191 65.2626C29.7519 63.4577 29.6541 61.1686 30.4919 59.4345C31.6573 57.5712 33.216 56.2623 35.3839 55.7358C37.1078 55.4715 38.8979 55.6969 40.3539 56.7295C40.5609 56.8877 40.5609 56.8877 40.7721 57.0491C40.9815 57.2084 40.9815 57.2084 41.195 57.3709C41.3537 57.4928 41.3537 57.4928 41.5156 57.6172C41.5159 57.4712 41.5162 57.3252 41.5165 57.1748C41.5237 53.6159 41.5353 50.0571 41.5515 46.4982C41.5593 44.7771 41.5656 43.0561 41.5686 41.335C41.5711 39.8342 41.5764 38.3334 41.5849 36.8326C41.5893 36.0386 41.5924 35.2446 41.5922 34.4506C41.592 33.7017 41.5956 32.953 41.6018 32.2042C41.6034 31.9307 41.6038 31.6573 41.6027 31.3839C41.5934 28.7349 42.1606 26.7474 44.0181 24.8299C45.5867 23.3593 47.2394 22.6243 49.377 22.6441Z" fill="#F57732"/>
<path d="M49.3281 0C58.0938 0 66.8594 0 75.8906 0C75.8906 16.5 75.8906 33 75.8906 50C75.5443 49.4805 75.3656 49.0779 75.1582 48.4985C74.4124 46.608 73.1228 45.125 71.2642 44.2749C70.1933 43.8241 69.2761 43.7192 68.1147 43.7256C67.9807 43.7248 67.8466 43.7241 67.7085 43.7233C67.0284 43.7246 66.4554 43.7627 65.7832 43.9049C65.1484 43.9453 65.1484 43.9453 64.7128 43.5783C64.5867 43.4054 64.4605 43.2324 64.3306 43.0542C63.2715 41.7585 61.9089 40.9712 60.2656 40.625C59.9984 40.6099 59.7306 40.6039 59.463 40.6059C59.3157 40.6066 59.1684 40.6072 59.0167 40.6078C58.8649 40.6095 58.7131 40.6111 58.5566 40.6128C58.4018 40.6137 58.247 40.6146 58.0874 40.6155C57.7067 40.6178 57.326 40.6213 56.9453 40.625C56.9442 40.4039 56.9442 40.4039 56.9432 40.1784C56.9357 38.7821 56.9246 37.3859 56.9094 35.9896C56.9017 35.2719 56.8954 34.5543 56.8924 33.8367C56.8894 33.1426 56.8826 32.4487 56.8734 31.7547C56.8691 31.3642 56.8687 30.9737 56.8683 30.5832C56.8314 28.2597 56.2345 26.4894 54.6016 24.8047C53.062 23.4979 51.3006 22.938 49.3281 22.6562C49.3281 21.4316 49.3281 20.207 49.3281 18.9453C52.765 19.0947 55.6567 20.1453 58.0546 22.6974C60.0381 25.0816 60.8516 27.3774 60.8516 30.4688C62.7852 30.4688 64.7188 30.4688 66.7109 30.4688C66.5879 25.9173 65.1448 21.9356 62.0234 18.5547C61.9094 18.4273 61.7953 18.2999 61.6778 18.1686C59.5953 15.9544 56.689 14.5145 53.7959 13.6841C53.6633 13.6452 53.5308 13.6062 53.3942 13.5661C52.0154 13.202 50.8127 13.192 49.3281 13.0859C49.3281 8.76758 49.3281 4.44922 49.3281 0Z" fill="#D7E8FE"/>
<path d="M15.7344 77.7343C20.5261 77.6618 20.5261 77.6618 25.4146 77.5879C26.4218 77.5665 27.429 77.5452 28.4667 77.5232C29.7003 77.5126 29.7003 77.5126 30.2785 77.5106C30.6809 77.5071 31.0832 77.4988 31.4854 77.4869C34.8915 77.391 34.8915 77.391 35.8253 78.2481C36.1802 78.8515 36.4135 79.4154 36.6328 80.0781C36.8505 80.451 36.8505 80.451 37.0891 80.751C37.2205 80.9237 37.3519 81.0964 37.4873 81.2744C38.1967 82.1986 38.9476 83.0717 39.7372 83.9279C40.0998 84.3221 40.4487 84.7238 40.7954 85.1318C41.4902 85.9318 42.2422 86.6695 42.9955 87.4136C43.6799 88.0926 44.33 88.7904 44.9527 89.5271C45.2245 89.8414 45.5187 90.1358 45.8125 90.4297C45.8125 93.5879 45.8125 96.7461 45.8125 100C35.8867 100 25.9609 100 15.7344 100C15.7344 92.6523 15.7344 85.3047 15.7344 77.7343Z" fill="#6D2A9C"/>
<path d="M60.2534 16.6992C60.5864 16.9884 60.9162 17.2811 61.2422 17.5781C61.3799 17.7 61.5176 17.8218 61.6595 17.9474C64.3 20.4167 66.6287 24.5435 66.7575 28.2097C66.7709 28.9659 66.7376 29.7102 66.7109 30.4687C64.7773 30.4687 62.8438 30.4687 60.8516 30.4687C60.8073 30.0377 60.7629 29.6067 60.7173 29.1626C60.41 26.7063 59.5047 24.7564 57.9219 22.8516C57.7693 22.6623 57.7693 22.6623 57.6136 22.4693C55.6553 20.2786 52.6571 19.2596 49.7981 19.0674C48.0174 18.9961 46.4754 19.1715 44.8359 19.9219C44.6584 20.0002 44.4809 20.0785 44.2981 20.1591C41.2648 21.6477 39.4415 24.0633 38.3052 27.185C37.9298 28.3078 37.9189 29.2126 37.8047 30.4687C35.8711 30.4687 33.9375 30.4687 31.9453 30.4687C31.9453 26.1547 33.1839 22.7495 35.8516 19.3359C35.9387 19.2163 36.0258 19.0967 36.1155 18.9735C38.5229 15.8647 42.663 13.7631 46.4732 13.1866C51.4923 12.5617 56.2492 13.5167 60.2534 16.6992Z" fill="#EA5A0B"/>
<path d="M40.4429 56.7512C40.8887 57.0827 41.3178 57.4194 41.7109 57.8125C41.7298 58.1783 41.7347 58.5448 41.7344 58.9111C41.7347 59.1497 41.7349 59.3882 41.7352 59.634C41.7345 59.9008 41.7338 60.1676 41.7331 60.4344C41.733 60.7134 41.7331 60.9924 41.7332 61.2715C41.7332 62.0313 41.7321 62.7911 41.7307 63.551C41.7295 64.3442 41.7294 65.1374 41.7291 65.9306C41.7285 67.4337 41.7269 68.9368 41.725 70.4399C41.7228 72.1507 41.7217 73.8615 41.7207 75.5723C41.7187 79.0924 41.7153 82.6126 41.7109 86.1328C41.4921 85.9468 41.2735 85.7606 41.055 85.5743C40.9332 85.4706 40.8114 85.3669 40.686 85.2601C37.6676 82.6218 35.2684 78.7356 33.7351 75.0633C33.6688 74.9049 33.6025 74.7465 33.5341 74.5833C32.75 72.6757 32.109 70.7218 31.4692 68.7622C31.3464 68.3905 31.2234 68.0188 31.1003 67.6471C30.8781 66.9739 30.6559 66.3006 30.4358 65.6265C30.3924 65.4937 30.349 65.3609 30.3042 65.2241C29.7528 63.4278 29.6599 61.1564 30.4919 59.4345C31.6573 57.5711 33.2159 56.2623 35.3838 55.7357C37.1856 55.4595 38.8802 55.7752 40.4429 56.7512Z" fill="#F79863"/>
<path d="M49.3281 13.0859C49.3281 15.0195 49.3281 16.9531 49.3281 18.9453C48.6191 19.0097 47.9102 19.0742 47.1797 19.1406C44.3051 19.8016 41.5353 21.4232 39.8761 23.9067C38.5667 26.0266 38.0308 27.9814 37.8047 30.4687C35.8711 30.4687 33.9375 30.4687 31.9453 30.4687C31.9453 26.1547 33.1839 22.7495 35.8516 19.3359C35.9387 19.2163 36.0258 19.0967 36.1155 18.9735C38.6215 15.7373 42.6806 13.9085 46.5899 13.1798C47.4967 13.0714 48.4149 13.0859 49.3281 13.0859Z" fill="#F57732"/>
</svg>
