<svg width="101" height="100" viewBox="0 0 101 100" fill="none" xmlns="http://www.w3.org/2000/svg">
<g clip-path="url(#clip0_2260_9474)">
<path d="M74.0962 26.8433C77.3951 30.2965 78.9062 34.7295 78.8203 39.4531C78.5578 44.1456 76.5486 48.1451 73.1761 51.3939C69.8201 54.3694 65.4892 55.83 61.0277 55.6473C58.8526 55.5113 56.566 55.0838 54.6016 54.1016C54.5592 54.324 54.5168 54.5465 54.4732 54.7757C54.1415 56.2614 53.6241 57.695 53.1398 59.1363C53.0293 59.4673 52.9189 59.7983 52.8085 60.1294C52.5713 60.8406 52.3335 61.5516 52.0952 62.2625C51.7164 63.3929 51.3388 64.5237 50.9613 65.6546C50.3619 67.4502 49.7616 69.2455 49.1609 71.0407C48.0914 74.2371 47.0233 77.434 45.9556 80.631C45.5824 81.7483 45.2088 82.8655 44.8349 83.9826C43.4429 88.142 42.0686 92.3061 40.7344 96.4844C40.0431 96.4844 39.9802 96.3975 39.4893 95.9473C39.3518 95.8224 39.2143 95.6975 39.0727 95.5689C38.9121 95.4198 38.7514 95.2708 38.5859 95.1172C38.3912 94.9381 38.1964 94.7591 38.0015 94.5801C37.5687 94.1819 37.1367 93.7828 36.7053 93.383C35.2315 92.0176 33.7484 90.6627 32.2528 89.3212C31.679 88.8031 31.1102 88.2799 30.5415 87.7564C29.7217 87.0021 28.8917 86.2639 28.0391 85.5469C27.4653 85.8036 27.0824 86.0713 26.6589 86.5341C26.5491 86.653 26.4393 86.7719 26.3262 86.8943C26.2106 87.0217 26.0951 87.1491 25.9761 87.2803C25.855 87.4119 25.7339 87.5436 25.6092 87.6792C25.2462 88.0743 24.8848 88.4707 24.5234 88.8672C24.3321 89.0759 24.1406 89.2844 23.9489 89.4928C23.6001 89.8726 23.2517 90.2528 22.9037 90.6334C22.0479 91.5692 21.1863 92.4998 20.3256 93.4312C20.0363 93.7445 19.7472 94.0581 19.4583 94.3718C19.2668 94.5796 19.0753 94.7874 18.8838 94.9951C18.7422 95.1488 18.7422 95.1488 18.5978 95.3056C18.052 95.897 17.5037 96.4859 16.9528 97.0726C16.8293 97.2043 16.7057 97.336 16.5785 97.4717C16.3386 97.7273 16.0983 97.9826 15.8577 98.2375C15.3261 98.8039 14.8141 99.3623 14.3672 100C13.6364 99.8862 13.2783 99.5841 12.7437 99.0845C12.5724 98.9259 12.4012 98.7673 12.2249 98.6038C12.0275 98.4182 11.8301 98.2326 11.6328 98.0469C11.403 97.8326 11.1731 97.6185 10.9431 97.4045C10.4433 96.939 9.94414 96.4728 9.44547 96.006C8.76912 95.3735 8.09 94.744 7.40918 94.1162C7.25399 93.9731 7.25399 93.9731 7.09566 93.8271C6.78519 93.5409 6.47464 93.2548 6.16406 92.9688C5.95755 92.7786 5.75105 92.5883 5.54456 92.3981C5.38986 92.2556 5.38986 92.2556 5.23204 92.1102C4.91923 91.8216 4.60704 91.5323 4.29486 91.243C3.80657 90.791 3.31439 90.3435 2.82086 89.8972C2.55177 89.6515 2.28271 89.4059 2.01367 89.1602C1.8213 88.988 1.8213 88.988 1.62505 88.8124C1.50656 88.7036 1.38807 88.5948 1.26599 88.4827C1.10766 88.3394 1.10766 88.3394 0.946129 88.1932C0.644226 87.829 0.545051 87.5798 0.5 87.1094C0.81476 86.7255 1.11221 86.4146 1.47656 86.084C2.25314 85.3539 2.96818 84.6084 3.66429 83.8011C4.23596 83.146 4.83438 82.5165 5.43164 81.8848C6.48679 80.7641 7.53371 79.6369 8.5719 78.5004C9.03273 77.9964 9.49489 77.4938 9.95821 76.9921C10.1536 76.7805 10.3487 76.5688 10.5437 76.3569C11.0603 75.7958 11.5807 75.2388 12.1066 74.6865C12.2153 74.5714 12.3239 74.4563 12.4359 74.3377C12.6451 74.1163 12.8555 73.8959 13.0671 73.6768C13.6622 73.0775 13.6622 73.0775 13.7812 72.2656C13.4601 71.9096 13.4601 71.9096 13.0122 71.5454C12.0634 70.7199 11.1425 69.8708 10.229 69.0064C9.93964 68.7332 9.65023 68.4601 9.36078 68.187C9.21771 68.052 9.07464 67.917 8.92724 67.7778C8.29701 67.1843 7.66405 66.5937 7.03076 66.0034C6.85539 65.8397 6.85539 65.8397 6.67647 65.6727C6.02348 65.0632 5.36943 64.4548 4.71448 63.8474C4.42862 63.5814 4.14277 63.3154 3.85693 63.0493C3.65524 62.8629 3.65524 62.8629 3.44948 62.6728C3.32487 62.5566 3.20026 62.4404 3.07187 62.3207C2.96164 62.2185 2.85141 62.1162 2.73784 62.0108C2.45312 61.7188 2.45312 61.7188 2.0625 61.1328C6.4823 59.5812 10.9071 58.0459 15.3438 56.543C18.547 55.4578 21.7445 54.358 24.9361 53.2391C28.0048 52.1637 31.0821 51.1149 34.1618 50.0717C38.1854 48.7082 42.1968 47.3117 46.2031 45.8985C46.1645 45.7711 46.1259 45.6437 46.0861 45.5124C44.6329 40.6973 44.221 35.7388 46.5594 31.0997C48.7528 27.0103 52.3009 23.7524 56.7889 22.3908C63.1646 20.6367 69.3455 22.3006 74.0962 26.8433Z" fill="#D7E9FE"/>
<path d="M58.1172 42.1875C57.8224 42.878 57.4219 43.3224 56.8932 43.8513C56.7172 44.0283 56.5413 44.2052 56.36 44.3876C56.1635 44.5832 55.967 44.7788 55.7705 44.9744C55.5627 45.1827 55.3549 45.3911 55.1472 45.5996C54.5756 46.1728 54.0027 46.7449 53.4296 47.3167C52.8121 47.9334 52.1957 48.5512 51.5791 49.1688C50.3709 50.3788 49.1616 51.5877 47.952 52.7962C46.9692 53.7781 45.9868 54.7603 45.0047 55.7429C44.8651 55.8826 44.7254 56.0223 44.5816 56.1662C44.298 56.4499 44.0143 56.7337 43.7307 57.0174C41.0696 59.6797 38.4073 62.3407 35.7446 65.0013C33.4581 67.2861 31.1726 69.5718 28.8879 71.8584C26.2367 74.5117 23.5848 77.1644 20.9319 79.816C20.6493 80.0986 20.3666 80.3811 20.0839 80.6637C19.9448 80.8027 19.8058 80.9417 19.6625 81.085C18.6806 82.0664 17.6993 83.0484 16.7181 84.0305C15.5231 85.2266 14.3274 86.422 13.1308 87.6165C12.5199 88.2264 11.9093 88.8366 11.2995 89.4476C10.742 90.0063 10.1835 90.5641 9.62434 91.1212C9.42159 91.3236 9.21917 91.5262 9.01712 91.7292C8.74361 92.0039 8.4688 92.2773 8.19391 92.5506C8.04127 92.7031 7.88863 92.8557 7.73137 93.0129C7.33594 93.3594 7.33594 93.3594 6.75 93.5547C6.66271 93.4723 6.57543 93.3899 6.4855 93.305C4.88402 91.7939 3.28119 90.2847 1.65952 88.7953C1.26661 88.4343 0.877364 88.0727 0.5 87.6953C0.537549 86.8965 1.04449 86.512 1.59863 85.9863C2.32911 85.2896 2.99961 84.5681 3.66 83.8045C4.23403 83.1491 4.83314 82.5178 5.43164 81.8848C6.48679 80.764 7.53371 79.6368 8.5719 78.5004C9.03273 77.9964 9.49489 77.4938 9.95821 76.9921C10.1536 76.7805 10.3487 76.5688 10.5437 76.3568C11.0603 75.7958 11.5807 75.2388 12.1066 74.6864C12.2153 74.5714 12.3239 74.4563 12.4359 74.3377C12.6451 74.1163 12.8555 73.8959 13.0671 73.6767C13.6622 73.0775 13.6622 73.0775 13.7812 72.2656C13.4601 71.9096 13.4601 71.9096 13.0122 71.5454C12.0634 70.7199 11.1425 69.8708 10.229 69.0063C9.93964 68.7332 9.65023 68.46 9.36078 68.187C9.21771 68.0519 9.07464 67.9169 8.92724 67.7778C8.29701 67.1843 7.66405 66.5937 7.03076 66.0034C6.85539 65.8397 6.85539 65.8397 6.67647 65.6727C6.02348 65.0632 5.36943 64.4548 4.71448 63.8474C4.42862 63.5814 4.14277 63.3153 3.85693 63.0493C3.65524 62.8629 3.65524 62.8629 3.44948 62.6728C3.32487 62.5566 3.20026 62.4404 3.07187 62.3207C2.96164 62.2184 2.85141 62.1162 2.73784 62.0108C2.45312 61.7188 2.45312 61.7188 2.0625 61.1328C6.4823 59.5812 10.9071 58.0459 15.3438 56.543C18.547 55.4578 21.7445 54.358 24.9361 53.2391C28.0071 52.1629 31.0867 51.1131 34.1689 50.0693C36.9409 49.1302 39.7073 48.1769 42.4678 47.2046C45.6612 46.08 48.8672 44.9972 52.0823 43.9365C52.9085 43.6637 53.7331 43.3863 54.5565 43.1053C54.7492 43.0398 54.9419 42.9744 55.1404 42.9069C55.483 42.7902 55.8253 42.6727 56.1673 42.5541C56.8595 42.3195 57.3781 42.1875 58.1172 42.1875Z" fill="#ECF4FE"/>
<path d="M74.0962 26.8432C77.3951 30.2964 78.9062 34.7295 78.8203 39.4531C78.5578 44.1455 76.5486 48.145 73.1761 51.3939C69.8201 54.3694 65.4892 55.83 61.0277 55.6473C58.9141 55.5151 56.9828 54.9988 54.9922 54.2969C54.7735 53.5038 54.8305 53.0279 55.0943 52.2537C55.1641 52.0451 55.2339 51.8365 55.3057 51.6217C55.383 51.3985 55.4603 51.1752 55.54 50.9453C55.6178 50.7144 55.6957 50.4835 55.7759 50.2457C55.9828 49.6331 56.1918 49.0212 56.4018 48.4097C56.6971 47.5478 56.9884 46.6845 57.2805 45.8215C57.4362 45.3625 57.5924 44.9036 57.7493 44.4449C57.8203 44.237 57.8913 44.029 57.9645 43.8148C58.0271 43.6321 58.0897 43.4494 58.1542 43.2612C58.2908 42.8404 58.4074 42.4228 58.5078 41.9922C58.2932 42.0656 58.2932 42.0656 58.0743 42.1405C56.7267 42.6012 55.3789 43.0612 54.0308 43.5201C53.3376 43.7561 52.6447 43.9924 51.9519 44.2295C51.2835 44.4582 50.6149 44.6861 49.946 44.9133C49.6907 45.0002 49.4355 45.0875 49.1804 45.175C48.8235 45.2974 48.4661 45.4187 48.1087 45.5398C47.8036 45.6439 47.8036 45.6439 47.4923 45.7501C46.9844 45.8984 46.9844 45.8984 46.3984 45.8984C44.6511 41.21 44.2496 36.5789 46.2031 31.8359C48.1903 27.5555 51.6189 24.4166 55.9687 22.6562C62.4897 20.4136 69.1797 22.1419 74.0962 26.8432Z" fill="#722DA4"/>
<path d="M73.5469 26.7578C75.649 27.6195 76.8158 30.451 77.6484 32.4219C79.2415 36.5204 79.2663 41.2831 77.5065 45.3384C75.4833 49.7118 72.1383 52.8674 67.6875 54.6875C63.442 56.2057 59.1573 55.7656 54.9922 54.2969C54.7693 53.4932 54.8367 53.0004 55.0937 52.2123C55.1636 51.9945 55.2335 51.7767 55.3055 51.5524C55.3834 51.3188 55.4613 51.0852 55.5415 50.8446C55.6209 50.6026 55.7003 50.3605 55.7821 50.1112C55.9506 49.5989 56.121 49.0873 56.2925 48.576C56.5106 47.9253 56.723 47.2729 56.9339 46.6198C57.1376 45.9924 57.347 45.3669 57.5557 44.7411C57.6304 44.5087 57.7051 44.2763 57.7821 44.0368C57.8569 43.8172 57.9318 43.5976 58.0088 43.3713C58.1041 43.0843 58.1041 43.0843 58.2012 42.7915C58.9099 41.3954 60.1619 40.3099 61.2642 39.2167C61.3955 39.0857 61.5269 38.9546 61.6622 38.8196C61.9444 38.5382 62.2268 38.2569 62.5094 37.9759C62.9563 37.5315 63.4027 37.0864 63.8488 36.6412C64.7942 35.6981 65.7403 34.7557 66.6865 33.8135C67.7874 32.7172 68.888 31.6206 69.9877 30.5232C70.428 30.0842 70.8689 29.6457 71.3098 29.2073C71.5779 28.9399 71.8459 28.6725 72.114 28.4051C72.2987 28.2219 72.2987 28.2219 72.4872 28.0349C73.0907 27.4525 73.0907 27.4525 73.5469 26.7578Z" fill="#522076"/>
<path d="M81.3255 53.9285C81.9224 54.1719 82.2635 54.5451 82.7172 55.0023C82.8106 55.0956 82.9041 55.189 83.0004 55.2852C83.3083 55.5935 83.614 55.9038 83.9198 56.2141C84.1331 56.4286 84.3465 56.6428 84.5601 56.857C85.1214 57.4205 85.6809 57.9858 86.24 58.5514C86.8111 59.1285 87.3839 59.7039 87.9565 60.2795C89.0794 61.4086 90.2004 62.5397 91.3203 63.6719C90.9963 64.36 90.6237 64.8045 90.0797 65.3412C89.9136 65.5061 89.7474 65.671 89.5762 65.8409C89.4025 66.0114 89.2288 66.1818 89.0498 66.3574C88.8745 66.5309 88.6993 66.7044 88.5188 66.8831C88.0863 67.311 87.6529 67.7379 87.2187 68.1641C86.5009 67.8616 86.0367 67.4256 85.4851 66.8809C85.3932 66.7907 85.3013 66.7004 85.2067 66.6074C84.9046 66.31 84.604 66.0111 84.3035 65.712C84.094 65.5042 83.8845 65.2964 83.6749 65.0887C83.2367 64.6537 82.7993 64.2178 82.3624 63.7815C81.8016 63.2217 81.2377 62.6652 80.673 62.1094C80.2396 61.6818 79.8084 61.252 79.3777 60.8216C79.1707 60.6153 78.9628 60.4099 78.7542 60.2053C78.4632 59.9196 78.1756 59.631 77.8885 59.3415C77.7239 59.1779 77.5592 59.0143 77.3896 58.8457C77.0625 58.3984 77.0625 58.3984 77.0866 57.9759C77.5171 57.0737 78.3779 56.3974 79.0766 55.7007C79.2462 55.5256 79.4158 55.3505 79.5905 55.1701C79.7545 55.0055 79.9185 54.841 80.0875 54.6715C80.2377 54.52 80.3878 54.3684 80.5425 54.2123C80.9687 53.9062 80.9687 53.9062 81.3255 53.9285Z" fill="#EA5A0B"/>
<path d="M86.8281 9.17969C87.5163 9.50364 87.9607 9.87628 88.4974 10.4202C88.7448 10.6695 88.7448 10.6695 88.9972 10.9238C89.2528 11.1843 89.2528 11.1843 89.5137 11.4502C89.6871 11.6254 89.8606 11.8007 90.0393 11.9812C90.4672 12.4137 90.8942 12.8471 91.3203 13.2812C91.0178 13.9991 90.5818 14.4633 90.0371 15.0149C89.9469 15.1068 89.8567 15.1986 89.7637 15.2933C89.4663 15.5954 89.1674 15.896 88.8682 16.1964C88.6604 16.406 88.4527 16.6155 88.2449 16.8251C87.8099 17.2633 87.3741 17.7007 86.9377 18.1376C86.378 18.6984 85.8215 19.2623 85.2657 19.827C84.838 20.2604 84.4082 20.6916 83.9778 21.1222C83.7716 21.3293 83.5662 21.5372 83.3616 21.7458C83.0759 22.0367 82.7873 22.3244 82.4978 22.6115C82.3341 22.7761 82.1705 22.9407 82.0019 23.1103C81.5547 23.4375 81.5547 23.4375 81.1321 23.4134C80.23 22.9828 79.5536 22.1221 78.8569 21.4233C78.6818 21.2538 78.5067 21.0842 78.3263 20.9095C78.1618 20.7455 77.9972 20.5814 77.8277 20.4124C77.6762 20.2623 77.5247 20.1122 77.3686 19.9575C77.0625 19.5312 77.0625 19.5312 77.0847 19.1744C77.3281 18.5775 77.7014 18.2364 78.1585 17.7828C78.2519 17.6893 78.3453 17.5959 78.4415 17.4996C78.7497 17.1917 79.06 16.886 79.3704 16.5802C79.5848 16.3669 79.7991 16.1534 80.0133 15.9398C80.5768 15.3786 81.142 14.8191 81.7077 14.2599C82.2847 13.6888 82.8602 13.1161 83.4357 12.5435C84.5649 11.4206 85.6959 10.2996 86.8281 9.17969Z" fill="#F57732"/>
<path d="M36.4375 9.17969C37.1553 9.48219 37.6195 9.91816 38.1711 10.4629C38.263 10.5531 38.3549 10.6433 38.4495 10.7363C38.7516 11.0337 39.0523 11.3326 39.3527 11.6318C39.5622 11.8395 39.7718 12.0473 39.9813 12.2551C40.4196 12.6901 40.8569 13.1259 41.2938 13.5623C41.8546 14.122 42.4185 14.6785 42.9832 15.2343C43.4166 15.662 43.8479 16.0918 44.2785 16.5222C44.4855 16.7284 44.6934 16.9338 44.9021 17.1384C45.193 17.4241 45.4807 17.7127 45.7677 18.0022C45.9323 18.1659 46.097 18.3295 46.2666 18.4981C46.5938 18.9453 46.5938 18.9453 46.5696 19.3679C46.1391 20.27 45.2783 20.9464 44.5796 21.6431C44.41 21.8182 44.2405 21.9933 44.0658 22.1737C43.9017 22.3382 43.7377 22.5028 43.5687 22.6723C43.4186 22.8238 43.2684 22.9753 43.1137 23.1314C42.6875 23.4375 42.6875 23.4375 42.3307 23.4153C41.7338 23.1719 41.3927 22.7986 40.939 22.3415C40.8456 22.2481 40.7521 22.1547 40.6558 22.0585C40.348 21.7503 40.0422 21.44 39.7365 21.1296C39.5231 20.9152 39.3097 20.7009 39.0961 20.4867C38.5348 19.9232 37.9753 19.358 37.4162 18.7923C36.8451 18.2153 36.2723 17.6398 35.6997 17.0643C34.5768 15.9351 33.4558 14.8041 32.3359 13.6719C32.6599 12.9837 33.0325 12.5393 33.5765 12.0026C33.7426 11.8377 33.9088 11.6727 34.08 11.5028C34.2537 11.3324 34.4275 11.1619 34.6064 10.9863C34.7817 10.8129 34.9569 10.6394 35.1375 10.4607C35.5699 10.0328 36.0033 9.60583 36.4375 9.17969Z" fill="#F57732"/>
<path d="M88.1222 35.5234C88.4651 35.524 88.4651 35.524 88.8149 35.5247C89.0035 35.5246 89.0035 35.5246 89.196 35.5246C89.6134 35.5247 90.0308 35.5263 90.4483 35.5278C90.737 35.5282 91.0257 35.5284 91.3145 35.5286C92.0758 35.5294 92.8371 35.5313 93.5984 35.5335C94.5111 35.5358 95.4238 35.5367 96.3365 35.5378C97.7244 35.5397 99.1122 35.5435 100.5 35.5469C100.5 37.5449 100.5 39.543 100.5 41.6016C96.1816 41.6016 91.8633 41.6016 87.4141 41.6016C87.4141 35.5558 87.4141 35.5558 88.1222 35.5234Z" fill="#EA5A0B"/>
<path d="M58.8984 0C60.8965 0 62.8945 0 64.9531 0C64.961 3.20923 64.961 3.20923 64.9627 4.57268C64.9638 5.50459 64.9652 6.43651 64.9679 7.36842C64.97 8.11938 64.9711 8.87035 64.9717 9.62131C64.972 9.90844 64.9727 10.1956 64.9738 10.4827C64.9752 10.8835 64.9754 11.2843 64.9753 11.6851C64.9757 11.9137 64.9762 12.1423 64.9766 12.3778C64.9531 12.8906 64.9531 12.8906 64.7578 13.0859C62.8242 13.0859 60.8906 13.0859 58.8984 13.0859C58.8984 8.76758 58.8984 4.44922 58.8984 0Z" fill="#F57732"/>
<path d="M58.8984 64.2578C60.832 64.2578 62.7656 64.2578 64.7578 64.2578C65.1121 64.6121 64.9781 65.161 64.9784 65.6376C64.979 65.8911 64.9796 66.1446 64.9803 66.4058C64.9799 66.6847 64.9795 66.9636 64.9791 67.2424C64.9792 67.5263 64.9794 67.8102 64.9796 68.0941C64.9799 68.6898 64.9795 69.2855 64.9786 69.8812C64.9775 70.6463 64.9781 71.4115 64.9793 72.1767C64.98 72.7631 64.9798 73.3496 64.9793 73.936C64.9791 74.2182 64.9793 74.5004 64.9797 74.7826C64.9802 75.1764 64.9794 75.5702 64.9784 75.964C64.9782 76.1885 64.9781 76.413 64.9779 76.6443C64.9531 77.1484 64.9531 77.1484 64.7578 77.3438C62.8242 77.3438 60.8906 77.3438 58.8984 77.3438C58.8984 73.0254 58.8984 68.707 58.8984 64.2578Z" fill="#EA5A0B"/>
<path d="M24.536 35.5216C24.7896 35.521 25.0431 35.5203 25.3043 35.5197C25.5831 35.5201 25.862 35.5205 26.1409 35.5209C26.4248 35.5208 26.7086 35.5206 26.9925 35.5203C27.5882 35.5201 28.1839 35.5205 28.7796 35.5214C29.5448 35.5225 30.31 35.5219 31.0752 35.5207C31.6616 35.52 32.248 35.5202 32.8344 35.5207C33.1166 35.5208 33.3989 35.5207 33.6811 35.5202C34.0749 35.5197 34.4686 35.5206 34.8624 35.5216C35.1992 35.5218 35.1992 35.5218 35.5427 35.5221C36.0469 35.5469 36.0469 35.5469 36.2422 35.7422C36.2422 37.6758 36.2422 39.6094 36.2422 41.6015C31.9238 41.6015 27.6055 41.6015 23.1562 41.6015C23.1562 35.5225 23.1562 35.5225 24.536 35.5216Z" fill="#F57732"/>
<path d="M88.9766 11.3281C89.6508 11.6166 90.08 11.9996 90.5879 12.5244C90.7259 12.6659 90.8638 12.8074 91.006 12.9532C91.1097 13.0614 91.2134 13.1697 91.3203 13.2812C91.0178 13.9991 90.5818 14.4633 90.0371 15.0149C89.9469 15.1068 89.8567 15.1986 89.7637 15.2933C89.4663 15.5954 89.1674 15.896 88.8682 16.1964C88.6604 16.406 88.4527 16.6155 88.2449 16.8251C87.8099 17.2633 87.3741 17.7007 86.9377 18.1376C86.378 18.6984 85.8215 19.2623 85.2657 19.827C84.838 20.2604 84.4082 20.6916 83.9778 21.1222C83.7716 21.3293 83.5662 21.5372 83.3616 21.7458C83.0759 22.0367 82.7873 22.3244 82.4978 22.6115C82.2523 22.8584 82.2523 22.8584 82.0019 23.1103C81.5547 23.4375 81.5547 23.4375 81.1313 23.414C80.6349 23.1756 80.322 22.8463 79.9434 22.4487C79.7364 22.2338 79.7364 22.2338 79.5253 22.0146C79.4215 21.9041 79.3178 21.7936 79.2109 21.6797C79.5111 20.9666 79.9386 20.5152 80.4855 19.9733C80.5748 19.8843 80.664 19.7952 80.756 19.7035C81.0501 19.4107 81.3455 19.1193 81.6409 18.8278C81.8458 18.6242 82.0506 18.4204 82.2553 18.2165C82.7935 17.6809 83.3327 17.1464 83.8724 16.6122C84.737 15.756 85.6003 14.8985 86.463 14.0403C86.7647 13.7406 87.0671 13.4416 87.3696 13.1426C87.5521 12.9613 87.7346 12.7801 87.9226 12.5934C88.0841 12.4335 88.2455 12.2737 88.4119 12.109C88.7912 11.746 88.7912 11.746 88.9766 11.3281Z" fill="#EA5A0B"/>
</g>
<defs>
<clipPath id="clip0_2260_9474">
<rect width="100" height="100" fill="white" transform="translate(0.5)"/>
</clipPath>
</defs>
</svg>
