<svg width="101" height="100" viewBox="0 0 101 100" fill="none" xmlns="http://www.w3.org/2000/svg">
<g clip-path="url(#clip0_2260_9557)">
<path d="M52.5565 6.78537C52.8889 6.78484 53.2213 6.78415 53.5538 6.7833C54.4476 6.78154 55.3414 6.7822 56.2352 6.78345C57.1762 6.78445 58.1171 6.78352 59.058 6.78291C60.6374 6.7822 62.2167 6.78313 63.796 6.78499C65.615 6.78712 67.4339 6.78643 69.2528 6.78428C70.8221 6.7825 72.3913 6.78226 73.9605 6.78328C74.8945 6.78388 75.8284 6.78398 76.7623 6.78268C77.6409 6.78154 78.5194 6.78235 79.3979 6.78459C79.718 6.7851 80.038 6.78497 80.358 6.7841C86.3797 6.76923 91.3632 8.32982 95.7186 12.5908C99.435 16.4971 100.609 21.3097 100.554 26.5358C100.484 29.188 99.7919 31.4406 98.5469 33.789C98.4489 33.9832 98.351 34.1773 98.2501 34.3773C97.3552 36.043 96.1666 37.3486 94.8359 38.6719C94.701 38.8068 94.566 38.9418 94.427 39.0808C91.1307 42.1536 87.0995 43.2423 82.7265 43.5547C82.7265 54.3828 82.7265 65.2109 82.7265 76.3672C84.3379 76.3672 85.9492 76.3672 87.6094 76.3672C87.7079 81.1228 87.4434 85.0197 84.1639 88.7779C81.6101 91.4374 78.062 93.0567 74.3691 93.1826C73.7145 93.1903 73.0601 93.1919 72.4054 93.1915C72.1544 93.1921 71.9034 93.1926 71.6447 93.1932C70.951 93.1948 70.2572 93.1952 69.5635 93.1953C68.814 93.1957 68.0645 93.1971 67.3151 93.1984C65.6774 93.2011 64.0398 93.2023 62.4022 93.2031C61.3783 93.2037 60.3545 93.2045 59.3307 93.2054C56.4926 93.2078 53.6545 93.2098 50.8164 93.2104C50.5441 93.2105 50.5441 93.2105 50.2664 93.2106C49.9936 93.2106 49.9936 93.2106 49.7152 93.2107C49.3466 93.2108 48.978 93.2109 48.6095 93.211C48.3352 93.211 48.3352 93.211 48.0555 93.2111C45.0961 93.2119 42.1367 93.2153 39.1773 93.2198C36.1344 93.2245 33.0915 93.2269 30.0485 93.2271C28.3419 93.2273 26.6353 93.2284 24.9287 93.232C23.4748 93.235 22.021 93.236 20.5671 93.2344C19.8266 93.2336 19.0861 93.2337 18.3456 93.2365C12.7634 93.2561 8.34108 92.8964 4.07741 88.9396C1.65853 86.4637 0.421549 83.1246 0.44849 79.7031C0.453399 79.4603 0.458309 79.2175 0.463367 78.9673C0.466011 78.7161 0.468654 78.465 0.471378 78.2062C0.478215 77.5932 0.488722 76.9802 0.499988 76.3672C2.11132 76.3672 3.72264 76.3672 5.3828 76.3672C5.3828 58.8359 5.3828 41.3047 5.3828 23.2422C14.1484 23.2422 22.9141 23.2422 31.9453 23.2422C32.1387 22.2109 32.332 21.1797 32.5312 20.1172C34.0364 15.2146 37.0863 11.3826 41.5889 8.91111C45.0617 7.10542 48.7084 6.7749 52.5565 6.78537Z" fill="#ECF4FE"/>
<path d="M52.5565 6.78537C52.8889 6.78484 53.2213 6.78415 53.5538 6.7833C54.4476 6.78154 55.3414 6.7822 56.2353 6.78345C57.1762 6.78445 58.1171 6.78352 59.0581 6.78291C60.6374 6.7822 62.2167 6.78313 63.796 6.78499C65.615 6.78712 67.4339 6.78643 69.2528 6.78428C70.8221 6.7825 72.3913 6.78226 73.9605 6.78328C74.8945 6.78388 75.8284 6.78398 76.7623 6.78268C77.6409 6.78154 78.5194 6.78235 79.3979 6.78459C79.718 6.7851 80.038 6.78497 80.358 6.7841C86.3797 6.76923 91.3632 8.32982 95.7186 12.5908C99.4351 16.4971 100.609 21.3097 100.554 26.5358C100.484 29.188 99.7919 31.4406 98.5469 33.789C98.4489 33.9832 98.351 34.1773 98.2501 34.3773C97.3552 36.043 96.1666 37.3486 94.8359 38.6719C94.701 38.8068 94.566 38.9418 94.427 39.0808C91.3279 41.9698 86.886 43.6344 82.6614 43.5545C82.3794 43.55 82.0974 43.5457 81.8154 43.5414C81.594 43.5377 81.594 43.5377 81.368 43.5339C80.4088 43.5199 79.4494 43.5189 78.49 43.5156C77.6519 43.5119 76.8143 43.5038 75.9763 43.4857C71.5559 43.2073 71.5559 43.2073 67.7043 44.9684C67.3857 45.2911 67.0888 45.6202 66.7996 45.9693C66.3186 46.5109 65.7404 46.9216 65.1606 47.3511C63.9868 48.2633 62.841 49.2081 61.6964 50.1566C60.8227 50.8788 59.9398 51.5869 59.0449 52.2827C58.1442 52.9832 57.2638 53.7025 56.396 54.4433C53.5907 56.8359 53.5907 56.8359 53.0391 56.8359C53.0391 52.4531 53.0391 48.0703 53.0391 43.5547C51.6211 43.5547 50.2031 43.5547 48.7422 43.5547C44.3833 42.8982 40.9435 41.3882 37.6094 38.4765C37.4847 38.3685 37.3601 38.2605 37.2317 38.1492C33.8449 34.997 32.1255 30.2116 31.8957 25.6897C31.7252 20.6845 33.4677 16.4436 36.6816 12.6587C40.9618 8.08969 46.4998 6.76889 52.5565 6.78537Z" fill="#722DA4"/>
<path d="M0.5 76.3672C29.2461 76.3672 57.9922 76.3672 87.6094 76.3672C87.6094 81.5742 87.3484 85.4617 83.7031 89.2578C80.5926 92.2867 76.6104 93.1945 72.4054 93.1915C72.1544 93.1921 71.9034 93.1927 71.6447 93.1933C70.951 93.1948 70.2572 93.1952 69.5635 93.1953C68.814 93.1957 68.0645 93.1972 67.3151 93.1985C65.6774 93.2011 64.0398 93.2023 62.4022 93.2032C61.3784 93.2037 60.3545 93.2045 59.3307 93.2054C56.4926 93.2078 53.6545 93.2098 50.8164 93.2105C50.5442 93.2105 50.5442 93.2105 50.2664 93.2106C49.9936 93.2107 49.9936 93.2107 49.7152 93.2107C49.3466 93.2108 48.9781 93.2109 48.6095 93.211C48.3353 93.211 48.3353 93.211 48.0555 93.2111C45.0961 93.2119 42.1367 93.2153 39.1773 93.2198C36.1344 93.2245 33.0915 93.2269 30.0485 93.2271C28.3419 93.2273 26.6353 93.2284 24.9287 93.232C23.4748 93.235 22.021 93.236 20.5671 93.2344C19.8266 93.2336 19.0861 93.2338 18.3456 93.2365C12.7634 93.2561 8.34109 92.8964 4.07742 88.9397C0.629221 85.4101 0.5 81.1873 0.5 76.3672Z" fill="#722DA4"/>
<path d="M44.0547 42.3828C46.375 42.8662 46.375 42.8662 48.7422 43.3594C50.1602 43.4238 51.5781 43.4883 53.0391 43.5547C53.0391 47.9375 53.0391 52.3203 53.0391 56.8359C55.1565 55.2091 55.1565 55.2091 57.2261 53.5278C58.2443 52.6825 59.2696 51.8497 60.3145 51.0376C61.1994 50.3496 62.0633 49.6429 62.9146 48.9136C64.1456 47.8597 65.4226 46.8829 66.7109 45.8984C67.6777 45.125 68.6445 44.3516 69.6406 43.5547C73.959 43.5547 78.2773 43.5547 82.7266 43.5547C82.7266 54.3828 82.7266 65.2109 82.7266 76.3672C69.9648 76.3672 57.2031 76.3672 44.0547 76.3672C44.0547 65.1523 44.0547 53.9375 44.0547 42.3828Z" fill="#D7E9FE"/>
<path d="M66.125 6.83592C70.2969 6.82025 70.2969 6.82025 72.0916 6.81685C73.3105 6.81452 74.5293 6.81179 75.7482 6.80645C76.7322 6.80217 77.7162 6.79986 78.7002 6.79886C79.0733 6.79814 79.4465 6.79675 79.8197 6.79462C86.0624 6.76047 91.1768 8.14749 95.7187 12.5908C99.4351 16.4971 100.609 21.3097 100.554 26.5358C100.484 29.188 99.7919 31.4406 98.5469 33.789C98.4489 33.9832 98.351 34.1773 98.2501 34.3773C97.3552 36.043 96.1667 37.3486 94.8359 38.6719C94.701 38.8068 94.566 38.9418 94.427 39.0808C91.3279 41.9698 86.886 43.6344 82.6614 43.5545C82.3794 43.55 82.0974 43.5457 81.8154 43.5415C81.594 43.5377 81.594 43.5377 81.3681 43.5339C80.4088 43.5199 79.4494 43.5189 78.49 43.5156C77.6519 43.5119 76.8143 43.5038 75.9763 43.4857C71.5154 43.2117 71.5154 43.2117 67.644 45.0348C67.2469 45.4394 66.8828 45.8562 66.5156 46.289C66.3867 46.289 66.2578 46.289 66.125 46.289C66.125 40.4238 66.125 34.5586 66.125 28.5156C66.7695 28.1933 67.4141 27.8711 68.0781 27.539C68.6681 26.9069 68.9011 26.4352 68.9448 25.5859C68.8873 24.5811 68.5447 23.8967 67.8218 23.1933C67.2234 22.7722 67.2234 22.7722 66.125 22.4609C66.125 17.3047 66.125 12.1484 66.125 6.83592Z" fill="#522076"/>
<path d="M87.6094 76.3672C87.6175 76.7438 87.6255 77.1204 87.6335 77.4971C87.638 77.7068 87.6424 77.9166 87.6471 78.1327C87.728 82.4212 86.7596 86.0748 83.7031 89.2578C82.655 90.2785 81.4937 90.9999 80.1997 91.6626C80.0146 91.758 80.0146 91.758 79.8258 91.8554C77.6879 92.8976 75.6188 93.0525 73.2744 93.0352C72.9565 93.0351 72.6387 93.0352 72.3209 93.0355C71.4643 93.0357 70.6078 93.0322 69.7512 93.0281C68.8538 93.0245 67.9563 93.0241 67.0588 93.0234C65.3621 93.0216 63.6654 93.0168 61.9687 93.0109C59.674 93.0031 57.3792 93 55.0845 92.9966C51.473 92.9911 47.8615 92.9794 44.25 92.9687C44.25 87.5547 44.25 82.1406 44.25 76.5625C49.1824 76.5369 54.1148 76.5114 59.0472 76.4861C61.3379 76.4743 63.6286 76.4625 65.9192 76.4506C67.9181 76.4402 69.9169 76.4299 71.9157 76.4197C72.972 76.4143 74.0283 76.4089 75.0846 76.4033C83.5312 76.3591 83.5312 76.3591 87.6094 76.3672Z" fill="#522076"/>
<path d="M67.7005 22.8973C68.373 23.4421 68.8688 23.9372 69.0547 24.8047C69.1428 25.7301 69.1536 26.1693 68.7373 27.002C68.0932 27.7477 67.5952 28.2338 66.5965 28.4088C65.621 28.4676 64.9348 28.423 64.1597 27.7954C63.4232 27.0378 63.1819 26.3727 63.0854 25.3296C63.1051 24.3515 63.5256 23.8402 64.2001 23.1644C65.2167 22.2869 66.5334 22.2002 67.7005 22.8973Z" fill="#F57732"/>
<path d="M77.0625 22.6563C78.0074 23.1112 78.5539 23.6683 79.0156 24.6094C79.1806 25.5471 79.1143 26.1834 78.6616 27.0264C77.6358 28.2573 77.6358 28.2573 76.5765 28.3737C74.9031 28.4339 74.9031 28.4339 74.2305 27.9053C73.4311 26.986 73.0348 26.211 73.0883 24.9909C73.2483 24.0922 73.797 23.5646 74.4502 22.9736C75.3443 22.5432 76.087 22.5006 77.0625 22.6563Z" fill="#EA5A0B"/>
<path d="M56.5547 22.6562C57.4444 23.0607 57.9359 23.5861 58.3728 24.4415C58.6881 25.2895 58.5846 25.9657 58.2759 26.7944C57.7676 27.5832 57.2498 28.0235 56.3594 28.3203C55.5264 28.4354 54.7439 28.5039 53.9882 28.093C53.1658 27.4192 52.749 26.8284 52.5866 25.7683C52.5149 24.8667 52.608 24.346 53.1977 23.645C54.2258 22.5713 55.117 22.4935 56.5547 22.6562Z" fill="#F57732"/>
<path d="M66.125 22.6562C67.3963 22.6562 67.5382 22.7161 68.3749 23.5085C69.0427 24.2467 69.1454 24.993 69.1157 25.9789C68.9695 26.9091 68.4033 27.434 67.6997 28.0029C67.1016 28.3203 67.1016 28.3203 66.125 28.3203C66.125 26.4512 66.125 24.582 66.125 22.6562Z" fill="#EA5A0B"/>
</g>
<defs>
<clipPath id="clip0_2260_9557">
<rect width="100" height="100" fill="white" transform="translate(0.5)"/>
</clipPath>
</defs>
</svg>
