<svg width="101" height="100" viewBox="0 0 101 100" fill="none" xmlns="http://www.w3.org/2000/svg">
<path d="M50.6012 0.00681253C51.1675 0.227009 51.4732 0.481598 51.9038 0.909418C52.0552 1.05914 52.2065 1.20887 52.3624 1.36313C52.5213 1.5256 52.6801 1.68807 52.8438 1.85546C53.0084 2.02259 53.173 2.18972 53.3426 2.36191C56.7128 5.84025 61.2422 11.6579 61.2422 16.7969C72.5859 16.7969 83.9297 16.7969 95.6172 16.7969C95.6172 39.6777 95.6172 62.5586 95.6172 86.1328C85.8203 86.1328 76.0234 86.1328 65.9297 86.1328C65.9297 88.7754 65.9297 91.418 65.9297 94.1406C68.5078 94.1406 71.0859 94.1406 73.7422 94.1406C73.7422 96.0742 73.7422 98.0078 73.7422 100C58.4023 100 43.0625 100 27.2578 100C27.2578 98.0664 27.2578 96.1328 27.2578 94.1406C29.7715 94.1406 32.2852 94.1406 34.875 94.1406C34.875 91.498 34.875 88.8555 34.875 86.1328C25.1426 86.1328 15.4102 86.1328 5.38281 86.1328C5.38281 63.2519 5.38281 40.3711 5.38281 16.7969C16.6621 16.7324 27.9414 16.668 39.5625 16.6016C40.0459 14.958 40.0459 14.958 40.5391 13.2812C40.7669 12.6732 40.9894 12.0969 41.2593 11.5112C41.3248 11.3671 41.3903 11.2231 41.4578 11.0746C42.1899 9.5111 43.0723 8.05841 44.0547 6.64062C44.1318 6.52908 44.2088 6.41755 44.2882 6.30264C45.4499 4.65724 46.8262 3.21046 48.2295 1.77001C48.3992 1.5927 48.5688 1.4154 48.7436 1.23271C48.9058 1.06988 49.068 0.907049 49.235 0.739282C49.3799 0.592012 49.5248 0.444743 49.674 0.29301C50.1094 -6.24079e-06 50.1094 -6.24405e-06 50.6012 0.00681253Z" fill="#EDF4FE"/>
<path d="M5.38281 65.2344C35.1602 65.2344 64.9375 65.2344 95.6172 65.2344C95.6172 72.1309 95.6172 79.0273 95.6172 86.1328C85.8203 86.1328 76.0234 86.1328 65.9297 86.1328C65.9297 88.7754 65.9297 91.418 65.9297 94.1406C68.5078 94.1406 71.0859 94.1406 73.7422 94.1406C73.7422 96.0742 73.7422 98.0078 73.7422 100C58.4023 100 43.0625 100 27.2578 100C27.2578 98.0664 27.2578 96.1328 27.2578 94.1406C29.7715 94.1406 32.2852 94.1406 34.875 94.1406C34.875 91.498 34.875 88.8555 34.875 86.1328C25.1426 86.1328 15.4102 86.1328 5.38281 86.1328C5.38281 79.2363 5.38281 72.3398 5.38281 65.2344Z" fill="#6D2A9C"/>
<path d="M61.2422 16.7969C72.5859 16.7969 83.9297 16.7969 95.6172 16.7969C95.6172 32.7812 95.6172 48.7656 95.6172 65.2344C80.7285 65.2344 65.8398 65.2344 50.5 65.2344C50.7197 62.5977 50.7197 62.5977 50.8968 61.6922C50.9364 61.4863 50.976 61.2804 51.0169 61.0682C51.058 60.8609 51.0992 60.6536 51.1416 60.4401C51.1798 60.2428 51.218 60.0455 51.2574 59.8422C51.3983 59.1165 51.5413 58.3913 51.6841 57.666C52.0023 56.0386 52.3206 54.4111 52.6484 52.7344C57.0312 52.7344 61.4141 52.7344 65.9297 52.7344C65.6733 50.6016 65.6733 50.6016 65.4155 48.4691C65.3834 48.1997 65.3513 47.9302 65.3193 47.6608C65.3025 47.5234 65.2856 47.3861 65.2682 47.2445C65.1765 46.4656 65.1313 45.706 65.1484 44.9219C66.917 45.7458 68.5389 46.727 70.1817 47.7723C70.9727 48.2711 71.7718 48.7567 72.5703 49.2432C72.7258 49.338 72.8813 49.4328 73.0415 49.5306C73.4052 49.7523 73.769 49.9738 74.1328 50.1953C74.1112 50.0432 74.0896 49.891 74.0673 49.7343C73.9664 49.0213 73.8662 48.3083 73.7666 47.5952C73.7485 47.466 73.7305 47.3368 73.7119 47.2036C73.4953 45.6479 73.2944 44.093 73.144 42.5293C72.7128 38.2034 71.6895 34.4777 68.8594 31.0547C68.7103 30.8573 68.5613 30.6599 68.4077 30.4565C67.4434 29.4025 66.3754 28.5233 65.0851 27.9007C62.8658 26.7772 62.8658 26.7772 62.4158 25.7148C62.0966 24.3884 62.099 23.0402 62.0234 21.6797C61.7656 20.0684 61.5078 18.457 61.2422 16.7969Z" fill="#D7E8FE"/>
<path d="M50.6012 0.00681253C51.1675 0.227009 51.4732 0.481598 51.9038 0.909418C52.0552 1.05914 52.2065 1.20887 52.3624 1.36313C52.5213 1.5256 52.6801 1.68807 52.8438 1.85546C53.0084 2.02259 53.173 2.18972 53.3426 2.36191C58.7586 7.9518 61.2211 14.3406 62.2554 21.9727C62.2731 22.102 62.2908 22.2313 62.3091 22.3646C62.3602 22.7404 62.4096 23.1164 62.4591 23.4924C62.4881 23.7121 62.5171 23.9318 62.547 24.1581C62.6121 24.8333 62.62 25.4939 62.6094 26.1719C62.739 26.2154 62.8687 26.259 63.0023 26.3039C63.7696 26.6439 64.4248 27.0968 65.1118 27.5757C65.2514 27.6729 65.3911 27.77 65.5349 27.8702C69.3199 30.5321 72.0446 34.3555 72.8572 38.9702C73.1811 40.8398 73.4046 42.7204 73.6177 44.6053C73.682 45.1736 73.748 45.7416 73.8143 46.3097C73.8562 46.6741 73.8981 47.0385 73.9398 47.403C73.9593 47.5712 73.9788 47.7394 73.999 47.9128C74.0848 48.6777 74.1576 49.424 74.1328 50.1953C73.3438 49.9075 72.6621 49.5273 71.947 49.0883C71.8325 49.0184 71.7181 48.9485 71.6002 48.8765C71.2355 48.6535 70.8714 48.4296 70.5073 48.2056C70.0312 47.9135 69.5548 47.6219 69.0783 47.3305C68.9623 47.2594 68.8463 47.1884 68.7268 47.1152C67.6087 46.4325 66.4785 45.7718 65.3438 45.1172C65.4544 46.755 65.6219 48.3714 65.8511 49.9962C65.9421 50.9047 65.9297 51.8213 65.9297 52.7344C61.5469 52.7344 57.1641 52.7344 52.6484 52.7344C52.584 53.4434 52.5195 54.1523 52.4531 54.8828C52.3993 55.2402 52.3401 55.597 52.2696 55.9514C52.2344 56.1312 52.1992 56.3109 52.163 56.496C52.1255 56.6815 52.0881 56.8669 52.0495 57.0579C52.0108 57.2543 51.972 57.4507 51.9321 57.653C51.8098 58.272 51.6859 58.8906 51.562 59.5093C51.4781 59.9323 51.3943 60.3554 51.3106 60.7784C51.1067 61.8082 50.9015 62.8378 50.6953 63.8672C50.5664 63.8027 50.4375 63.7383 50.3047 63.6719C50.1652 63.1349 50.1652 63.1349 50.0377 62.4161C50.0143 62.2875 49.9909 62.159 49.9668 62.0266C49.8908 61.6068 49.817 61.1867 49.7432 60.7666C49.6402 60.194 49.536 59.6216 49.4319 59.0492C49.4064 58.9081 49.3809 58.767 49.3546 58.6217C49.1217 57.3413 48.8574 56.0686 48.5699 54.7994C48.4101 54.0762 48.3516 53.4865 48.3516 52.7344C43.9043 52.7344 39.457 52.7344 34.875 52.7344C35.107 50.8783 35.3397 49.0226 35.583 47.168C35.6092 46.9678 35.6354 46.7677 35.6624 46.5614C35.7253 46.08 35.7884 45.5986 35.8516 45.1172C35.0374 45.5967 34.2236 46.0769 33.4102 46.5576C33.2902 46.6285 33.1703 46.6993 33.0467 46.7723C31.4594 47.7104 29.8797 48.658 28.3313 49.6592C27.4934 50.1953 27.4934 50.1953 27.0625 50.1953C27.1452 49.3385 27.2304 48.482 27.3181 47.6257C27.4076 46.7506 27.4925 45.8752 27.5747 44.9994C27.6346 44.3705 27.6973 43.742 27.7604 43.1134C27.7911 42.8022 27.8206 42.4908 27.849 42.1793C28.2392 37.9181 29.4081 34.0895 32.3359 30.8594C32.483 30.6919 32.63 30.5245 32.7815 30.352C33.6197 29.453 34.2938 28.773 35.4129 28.2646C37.2124 27.4023 37.2124 27.4023 38.3322 25.8143C38.8811 23.8679 38.9609 21.7926 39.104 19.7849C39.181 18.7541 39.3382 17.7473 39.5503 16.7358C39.5816 16.5862 39.6128 16.4366 39.645 16.2824C40.9061 10.647 44.2588 5.83954 48.2295 1.77001C48.4839 1.50417 48.4839 1.50417 48.7435 1.23295C48.9057 1.07004 49.0679 0.90713 49.235 0.739282C49.3799 0.592012 49.5248 0.444743 49.674 0.29301C50.1094 -6.24079e-06 50.1094 -6.24405e-06 50.6012 0.00681253Z" fill="#FBC8AC"/>
<path d="M5.38281 65.2344C35.1602 65.2344 64.9375 65.2344 95.6172 65.2344C95.6172 65.2988 95.6172 65.3633 95.6172 65.4297C80.7285 65.4297 65.8398 65.4297 50.5 65.4297C50.5 72.1973 50.5 78.9648 50.5 85.9375C40.0494 86.1085 29.6038 86.1503 19.1523 86.145C18.9828 86.1449 18.8132 86.1449 18.6386 86.1448C17.4524 86.1442 16.2663 86.1435 15.0801 86.1427C14.8562 86.1426 14.8562 86.1426 14.6278 86.1424C11.5461 86.1404 8.46446 86.1364 5.38281 86.1328C5.38281 79.2363 5.38281 72.3398 5.38281 65.2344Z" fill="#8935C5"/>
<path d="M39.3672 17.5781C39.7078 17.7515 39.7078 17.7515 40.0554 17.9283C43.5472 19.6681 46.4847 20.3016 50.5 20.7031C50.5 25.2793 50.5 29.8555 50.5 34.5703C49.8555 34.7637 49.2109 34.957 48.5469 35.1562C47.4131 35.7766 46.4914 36.6702 46.0078 37.8906C45.8345 39.7313 46.1046 41.4958 46.4778 43.293C46.5255 43.5339 46.5732 43.7748 46.6223 44.0231C46.7476 44.6546 46.8751 45.2857 47.0037 45.9166C47.1856 46.81 47.3639 47.7041 47.5418 48.5983C47.6363 49.0724 47.7319 49.5463 47.8287 50.0199C47.8717 50.2339 47.9147 50.4479 47.959 50.6684C47.9972 50.8557 48.0354 51.0431 48.0747 51.2361C48.1562 51.7578 48.1562 51.7578 48.1562 52.7344C43.7734 52.7344 39.3906 52.7344 34.875 52.7344C35.107 50.8783 35.3397 49.0226 35.583 47.168C35.6092 46.9678 35.6354 46.7677 35.6624 46.5614C35.7253 46.08 35.7884 45.5986 35.8516 45.1172C35.0374 45.5967 34.2236 46.0769 33.4102 46.5576C33.2902 46.6285 33.1703 46.6993 33.0467 46.7723C31.4594 47.7104 29.8797 48.658 28.3313 49.6593C27.4934 50.1953 27.4934 50.1953 27.0625 50.1953C27.1452 49.3385 27.2304 48.482 27.3181 47.6257C27.4076 46.7506 27.4925 45.8752 27.5747 44.9994C27.6346 44.3705 27.6973 43.742 27.7604 43.1134C27.7911 42.8022 27.8206 42.4908 27.849 42.1793C28.2392 37.9181 29.4081 34.0895 32.3359 30.8594C32.5565 30.6082 32.5565 30.6082 32.7815 30.352C33.6197 29.453 34.2938 28.773 35.4129 28.2646C37.2227 27.3997 37.2227 27.3997 38.3364 25.7961C38.8846 23.8331 39.0044 21.7504 39.1189 19.7236C39.1684 18.9966 39.2545 18.2971 39.3672 17.5781Z" fill="#FCD8C5"/>
<path d="M50.6012 0.00681253C51.1675 0.227009 51.4732 0.481598 51.9038 0.909418C52.0552 1.05914 52.2065 1.20887 52.3624 1.36313C52.5213 1.5256 52.6801 1.68807 52.8438 1.85546C53.0084 2.02259 53.173 2.18972 53.3426 2.36191C57.2494 6.39415 61.0459 11.9977 61.4375 17.7734C58.0086 19.568 54.8884 20.7825 50.9639 20.7642C50.7217 20.7632 50.4796 20.7622 50.2302 20.7612C46.3581 20.7118 42.9045 19.729 39.5625 17.7734C39.7593 11.673 44.1671 5.93673 48.2295 1.77001C48.4839 1.50412 48.4839 1.50412 48.7435 1.23286C48.9057 1.06998 49.0679 0.907097 49.235 0.739282C49.3799 0.592012 49.5248 0.444743 49.674 0.29301C50.1094 -6.24079e-06 50.1094 -6.24405e-06 50.6012 0.00681253Z" fill="#F57732"/>
<path d="M27.2578 94.1406C42.5977 94.1406 57.9375 94.1406 73.7422 94.1406C73.7422 96.0742 73.7422 98.0078 73.7422 100C58.4023 100 43.0625 100 27.2578 100C27.2578 98.0664 27.2578 96.1328 27.2578 94.1406Z" fill="#6D2A9C"/>
<path d="M53.2343 35.3516C54.2528 36.2349 55.0554 37.1974 55.2582 38.5621C55.3093 40.9486 54.7294 43.2666 54.2597 45.5933C54.1636 46.0783 54.0678 46.5634 53.9722 47.0485C53.8215 47.813 53.6705 48.5774 53.5184 49.3415C53.1308 51.2876 52.7507 53.2351 52.3745 55.1834C52.3474 55.3235 52.3204 55.4636 52.2925 55.608C52.1584 56.3024 52.0245 56.9969 51.8905 57.6913C51.6385 58.9976 51.3854 60.3036 51.1324 61.6097C51.0471 62.0505 50.9617 62.4914 50.8763 62.9323C50.816 63.2439 50.7556 63.5556 50.6953 63.8672C50.5664 63.8027 50.4375 63.7383 50.3046 63.6719C50.1682 63.1504 50.1682 63.1504 50.0445 62.4504C50.0213 62.3231 49.9982 62.1958 49.9743 62.0646C49.8997 61.6525 49.8274 61.2401 49.7553 60.8276C49.6614 60.2983 49.5664 59.7691 49.4707 59.24C49.4325 59.0283 49.4325 59.0283 49.3935 58.8124C49.1756 57.6213 48.9319 56.4362 48.6826 55.2513C48.1579 52.7559 47.651 50.2571 47.1593 47.755C47.0278 47.0855 46.8951 46.4163 46.7602 45.7475C46.6263 45.084 46.495 44.42 46.3655 43.7557C46.2936 43.3904 46.2192 43.0256 46.1447 42.6608C45.3526 38.5511 45.3526 38.5511 46.2153 37.0117C48.0365 34.6226 50.5063 33.882 53.2343 35.3516Z" fill="#8935C5"/>
<path d="M62.6094 26.1719C63.2256 26.4036 63.7667 26.6509 64.31 27.0226C64.5048 27.1555 64.5048 27.1555 64.7036 27.2911C64.8383 27.385 64.973 27.4789 65.1118 27.5757C65.2514 27.6729 65.3911 27.7701 65.5349 27.8702C69.3199 30.5321 72.0446 34.3555 72.8572 38.9702C73.1811 40.8398 73.4046 42.7204 73.6177 44.6054C73.682 45.1736 73.748 45.7416 73.8143 46.3097C73.8562 46.6741 73.8981 47.0385 73.9398 47.403C73.9593 47.5712 73.9788 47.7395 73.9989 47.9128C74.0848 48.6777 74.1576 49.424 74.1328 50.1953C73.3473 49.9083 72.6667 49.5312 71.9539 49.0952C71.8399 49.0257 71.7259 48.9563 71.6085 48.8847C71.2451 48.6631 70.8823 48.4405 70.5195 48.2178C70.1637 48.0005 69.8077 47.7834 69.4517 47.5663C69.2157 47.4219 68.98 47.2769 68.7446 47.1314C68.1546 46.7667 67.5618 46.4105 66.9581 46.0688C66.7834 45.9676 66.7834 45.9676 66.6051 45.8643C66.2855 45.6797 65.964 45.4983 65.6424 45.3172C64.751 44.6039 64.7184 43.66 64.5946 42.5712C64.579 42.4227 64.5633 42.2742 64.5472 42.1211C64.5293 41.9611 64.5113 41.8011 64.4928 41.6362C64.4539 41.2893 64.4156 40.9425 64.3778 40.5955C64.2756 39.66 64.1692 38.725 64.0628 37.7899C64.0405 37.594 64.0183 37.3981 63.9954 37.1962C63.7299 34.8737 63.4329 32.5553 63.1343 30.2368C63.0948 29.9296 63.0948 29.9296 63.0545 29.6163C62.9068 28.4681 62.7584 27.3199 62.6094 26.1719Z" fill="#EA5A0B"/>
<path d="M50.5 0.195312C51.3001 0.395342 51.477 0.510056 52.0373 1.06201C52.1805 1.20291 52.3236 1.34381 52.4711 1.48897C52.6223 1.64214 52.7734 1.79531 52.9292 1.95312C53.0855 2.11108 53.2419 2.26903 53.4029 2.43177C57.2924 6.43056 61.0489 12.0419 61.4375 17.7734C57.7339 19.7118 54.7845 20.7031 50.5 20.7031C50.5 13.9355 50.5 7.16797 50.5 0.195312Z" fill="#EA5A0B"/>
<path d="M38.1953 26.3672C38.0797 28.395 37.8909 30.4057 37.646 32.4219C37.6115 32.7098 37.5771 32.9978 37.5427 33.2857C37.2214 35.9624 36.8985 38.6407 36.5243 41.3105C36.4642 41.7828 36.4179 42.257 36.3828 42.7319C36.2228 44.502 36.2228 44.502 35.7397 45.1187C35.3371 45.4287 34.9346 45.6634 34.4844 45.8984C34.1848 46.0838 33.8857 46.27 33.5872 46.4569C33.2682 46.6459 32.9488 46.8341 32.6289 47.0215C31.2039 47.8644 29.7925 48.7237 28.4003 49.6199C27.495 50.1953 27.495 50.1953 27.0625 50.1953C27.1452 49.3385 27.2304 48.482 27.3181 47.6257C27.4076 46.7506 27.4925 45.8752 27.5747 44.9994C27.6346 44.3705 27.6973 43.742 27.7604 43.1134C27.7911 42.8022 27.8206 42.4908 27.849 42.1793C28.2392 37.9184 29.4079 34.0892 32.3359 30.8594C32.4852 30.6897 32.6345 30.52 32.7884 30.3452C33.8495 29.2079 36.5467 26.3672 38.1953 26.3672Z" fill="#F57732"/>
<path d="M27.2578 94.1406C34.9277 94.1406 42.5977 94.1406 50.5 94.1406C50.5 96.0742 50.5 98.0078 50.5 100C42.8301 100 35.1602 100 27.2578 100C27.2578 98.0664 27.2578 96.1328 27.2578 94.1406Z" fill="#8935C5"/>
<path d="M34.875 85.9375C40.0312 85.9375 45.1875 85.9375 50.5 85.9375C50.5 88.6445 50.5 91.3516 50.5 94.1406C45.3438 94.1406 40.1875 94.1406 34.875 94.1406C34.875 91.4336 34.875 88.7266 34.875 85.9375Z" fill="#A05AD3"/>
<path d="M50.5 85.9375C55.5918 85.9375 60.6836 85.9375 65.9297 85.9375C65.9297 88.6445 65.9297 91.3516 65.9297 94.1406C60.8379 94.1406 55.7461 94.1406 50.5 94.1406C50.5 91.4336 50.5 88.7266 50.5 85.9375Z" fill="#522076"/>
<path d="M50.5 34.5703C50.8125 34.6273 51.1248 34.6859 51.4369 34.745C51.6978 34.7937 51.6978 34.7937 51.9639 34.8433C53.2089 35.1426 54.0893 36.0842 54.7969 37.1094C55.6541 38.9104 55.1729 41.0726 54.7862 42.9512C54.7438 43.1674 54.7014 43.3836 54.6577 43.6064C54.5191 44.3099 54.3773 45.0126 54.2354 45.7153C54.138 46.2059 54.0409 46.6965 53.944 47.1871C53.7942 47.945 53.6443 48.7029 53.4934 49.4606C53.1441 51.2145 52.8063 52.9705 52.4753 54.7279C52.3864 55.1983 52.2974 55.6686 52.2085 56.1389C52.081 56.814 51.9538 57.4892 51.8277 58.1646C51.7116 58.7855 51.5939 59.406 51.4758 60.0266C51.4419 60.2103 51.408 60.3941 51.3731 60.5835C51.3409 60.7513 51.3087 60.919 51.2755 61.0919C51.2482 61.2374 51.2208 61.383 51.1926 61.5329C51.086 61.9141 51.086 61.9141 50.6953 62.5C50.4368 61.9828 50.476 61.5963 50.4765 61.0169C50.4763 60.7847 50.476 60.5524 50.4757 60.3131C50.4764 60.057 50.4771 59.8009 50.4779 59.537C50.4779 59.2657 50.4779 58.9943 50.4778 58.7229C50.4777 57.9849 50.4789 57.2469 50.4802 56.5088C50.4814 55.738 50.4816 54.9672 50.4818 54.1964C50.4824 52.7362 50.484 51.276 50.486 49.8158C50.4881 48.1537 50.4892 46.4915 50.4902 44.8294C50.4922 41.4097 50.4957 37.99 50.5 34.5703Z" fill="#6D2A9C"/>
<path d="M50.5 73.0469C51.3379 73.0469 52.1758 73.0469 53.0391 73.0469C53.0391 74.916 53.0391 76.7852 53.0391 78.7109C52.2012 78.7109 51.3633 78.7109 50.5 78.7109C50.5 76.8418 50.5 74.9727 50.5 73.0469Z" fill="#8935C5"/>
<path d="M47.9609 73.0469C48.7988 73.0469 49.6367 73.0469 50.5 73.0469C50.5 74.916 50.5 76.7852 50.5 78.7109C49.6621 78.7109 48.8242 78.7109 47.9609 78.7109C47.9609 76.8418 47.9609 74.9727 47.9609 73.0469Z" fill="#6D2A9C"/>
</svg>
