<svg width="64" height="64" viewBox="0 0 64 64" fill="none" xmlns="http://www.w3.org/2000/svg">
<path d="M36.9947 54.9389C37.0805 54.9731 37.1574 54.9902 37.2254 54.9902C37.2938 54.9902 37.3709 54.9731 37.4567 54.9389L53.1434 50.0822C53.0069 49.4773 52.7249 49.0133 52.2974 48.6902C51.8698 48.3671 51.386 48.2056 50.846 48.2056H37.7867C36.6231 48.2056 35.6345 48.1611 34.8207 48.0722C34.0069 47.9833 33.1709 47.7885 32.3127 47.4876L28.128 46.1182C27.5903 45.9471 27.2038 45.6053 26.9687 45.0929C26.7331 44.58 26.7009 44.0578 26.872 43.5262C27.0427 42.9942 27.3734 42.6045 27.864 42.3569C28.3547 42.1089 28.87 42.0705 29.41 42.2416L32.8767 43.4569C33.6838 43.7133 34.5865 43.8953 35.5847 44.0029C36.5829 44.1105 37.8767 44.178 39.466 44.2056H40.1794C40.1794 43.5456 40.0307 42.9762 39.7334 42.4976C39.436 42.0189 39.0445 41.6958 38.5587 41.5282L23.0874 35.8462C23.0358 35.8293 22.9887 35.8167 22.946 35.8082C22.9034 35.7993 22.8565 35.7949 22.8054 35.7949H17.872V49.5389L36.9947 54.9389ZM35.954 58.8569L17.872 53.6722C17.5676 54.7762 16.9487 55.6625 16.0154 56.3309C15.082 56.9993 14.094 57.3336 13.0514 57.3336H9.35936C8.03359 57.3336 6.8987 56.8616 5.9547 55.9176C5.0107 54.9736 4.5387 53.8387 4.5387 52.5129V36.6156C4.5387 35.2902 5.0107 34.1556 5.9547 33.2116C6.8987 32.2676 8.03359 31.7956 9.35936 31.7956H22.7754C23.0549 31.7956 23.3383 31.8262 23.6254 31.8876C23.9129 31.9493 24.1796 32.0211 24.4254 32.1029L39.964 37.8262C41.1743 38.2738 42.1794 39.066 42.9794 40.2029C43.7794 41.3398 44.1794 42.674 44.1794 44.2056H50.846C52.7607 44.2056 54.3205 44.8236 55.5254 46.0596C56.7307 47.2951 57.3334 48.8993 57.3334 50.8722C57.3334 51.6278 57.1334 52.2362 56.7334 52.6976C56.3334 53.1593 55.7283 53.5251 54.918 53.7949L38.7387 58.8156C38.3009 58.9591 37.8409 59.0351 37.3587 59.0436C36.8769 59.0525 36.4087 58.9902 35.954 58.8569ZM8.5387 52.5129C8.5387 52.7525 8.61558 52.9491 8.76936 53.1029C8.92314 53.2567 9.11981 53.3336 9.35936 53.3336H13.0514C13.2905 53.3336 13.4871 53.2696 13.6414 53.1416C13.7951 53.0131 13.872 52.8036 13.872 52.5129V35.7949H9.35936C9.11981 35.7949 8.92314 35.872 8.76936 36.0262C8.61558 36.18 8.5387 36.3765 8.5387 36.6156V52.5129ZM36.662 6.63623C37.1474 6.63623 37.624 6.70979 38.092 6.8569C38.5605 7.00401 39.0136 7.22957 39.4514 7.53357L52.6307 16.9389C53.2734 17.3762 53.7734 17.9429 54.1307 18.6389C54.488 19.3345 54.6667 20.0753 54.6667 20.8616V36.3596C54.6667 36.9262 54.4749 37.4011 54.0914 37.7842C53.7078 38.1678 53.2327 38.3596 52.666 38.3596C52.0989 38.3596 51.624 38.1678 51.2414 37.7842C50.8583 37.4011 50.6667 36.9262 50.6667 36.3596V20.7949C50.6667 20.6585 50.6367 20.5302 50.5767 20.4102C50.5171 20.2907 50.4274 20.1882 50.3074 20.1029L37.128 10.8976C36.9916 10.7949 36.8378 10.7436 36.6667 10.7436C36.4956 10.7436 36.3418 10.7949 36.2054 10.8976L23.0254 20.1029C22.9058 20.1882 22.816 20.2907 22.756 20.4102C22.6965 20.5302 22.6667 20.6585 22.6667 20.7949V23.9489C22.6667 24.5156 22.4749 24.9907 22.0914 25.3742C21.7078 25.7573 21.2327 25.9489 20.666 25.9489C20.0989 25.9489 19.624 25.7573 19.2414 25.3742C18.8583 24.9907 18.6667 24.5156 18.6667 23.9489V20.8616C18.6667 20.0753 18.8454 19.3345 19.2027 18.6389C19.56 17.9429 20.06 17.3762 20.7027 16.9389L33.882 7.53357C34.3198 7.22957 34.7711 7.00401 35.236 6.8569C35.7014 6.70979 36.1767 6.63623 36.662 6.63623ZM34 21.9236C34.3214 21.9236 34.6025 21.8029 34.8434 21.5616C35.0847 21.3207 35.2054 21.0396 35.2054 20.7182C35.2054 20.3969 35.0847 20.1158 34.8434 19.8749C34.6025 19.6336 34.3214 19.5129 34 19.5129C33.6787 19.5129 33.3976 19.6336 33.1567 19.8749C32.9154 20.1158 32.7947 20.3969 32.7947 20.7182C32.7947 21.0396 32.9154 21.3207 33.1567 21.5616C33.3976 21.8029 33.6787 21.9236 34 21.9236ZM39.3334 21.9236C39.6547 21.9236 39.9358 21.8029 40.1767 21.5616C40.418 21.3207 40.5387 21.0396 40.5387 20.7182C40.5387 20.3969 40.418 20.1158 40.1767 19.8749C39.9358 19.6336 39.6547 19.5129 39.3334 19.5129C39.012 19.5129 38.7309 19.6336 38.49 19.8749C38.2487 20.1158 38.128 20.3969 38.128 20.7182C38.128 21.0396 38.2487 21.3207 38.49 21.5616C38.7309 21.8029 39.012 21.9236 39.3334 21.9236ZM34 27.2569C34.3214 27.2569 34.6025 27.1362 34.8434 26.8949C35.0847 26.654 35.2054 26.3729 35.2054 26.0516C35.2054 25.7302 35.0847 25.4491 34.8434 25.2082C34.6025 24.9669 34.3214 24.8462 34 24.8462C33.6787 24.8462 33.3976 24.9669 33.1567 25.2082C32.9154 25.4491 32.7947 25.7302 32.7947 26.0516C32.7947 26.3729 32.9154 26.654 33.1567 26.8949C33.3976 27.1362 33.6787 27.2569 34 27.2569ZM39.3334 27.2569C39.6547 27.2569 39.9358 27.1362 40.1767 26.8949C40.418 26.654 40.5387 26.3729 40.5387 26.0516C40.5387 25.7302 40.418 25.4491 40.1767 25.2082C39.9358 24.9669 39.6547 24.8462 39.3334 24.8462C39.012 24.8462 38.7309 24.9669 38.49 25.2082C38.2487 25.4491 38.128 25.7302 38.128 26.0516C38.128 26.3729 38.2487 26.654 38.49 26.8949C38.7309 27.1362 39.012 27.2569 39.3334 27.2569Z" fill="#EA5A0B"/>
</svg>
