<svg width="64" height="64" viewBox="0 0 64 64" fill="none" xmlns="http://www.w3.org/2000/svg">
<path d="M32 23.8458C29.6955 23.8458 27.7349 23.0374 26.118 21.4205C24.5011 19.8031 23.6926 17.8425 23.6926 15.5385C23.6926 13.234 24.5011 11.2734 26.118 9.65647C27.7349 8.03913 29.6955 7.23047 32 7.23047C34.3044 7.23047 36.2651 8.03913 37.882 9.65647C39.4989 11.2734 40.3073 13.234 40.3073 15.5385C40.3073 17.8425 39.4989 19.8031 37.882 21.4205C36.2651 23.0374 34.3044 23.8458 32 23.8458ZM32 19.8458C33.1964 19.8458 34.2135 19.4271 35.0513 18.5898C35.8891 17.752 36.308 16.7349 36.308 15.5385C36.308 14.3416 35.8891 13.3245 35.0513 12.4871C34.2135 11.6494 33.1964 11.2305 32 11.2305C30.8035 11.2305 29.7864 11.6494 28.9486 12.4871C28.1109 13.3245 27.692 14.3416 27.692 15.5385C27.692 16.7349 28.1109 17.752 28.9486 18.5898C29.7864 19.4271 30.8035 19.8458 32 19.8458ZM29.1233 53.4818L16.718 41.0765C15.9318 40.2902 15.342 39.3971 14.9486 38.3971C14.5558 37.3971 14.3593 36.3045 14.3593 35.1191C14.3593 32.7876 15.1602 30.8216 16.762 29.2211C18.3642 27.6207 20.3324 26.8205 22.6666 26.8205C23.8093 26.8205 24.8633 27.0349 25.8286 27.4638C26.794 27.8931 27.6784 28.5094 28.482 29.3125L32 32.8305L35.518 29.3125C36.3042 28.5262 37.1862 27.9142 38.164 27.4765C39.1418 27.0391 40.202 26.8205 41.3446 26.8205C43.6686 26.8205 45.6324 27.6207 47.236 29.2211C48.8391 30.8216 49.6406 32.7876 49.6406 35.1191C49.6406 36.3045 49.4442 37.3971 49.0513 38.3971C48.658 39.3971 48.0682 40.2902 47.282 41.0765L34.8766 53.4818C34.4633 53.8956 34.0086 54.2016 33.5126 54.3998C33.0171 54.598 32.5129 54.6971 32 54.6971C31.4871 54.6971 30.9829 54.598 30.4873 54.3998C29.9913 54.2016 29.5366 53.8956 29.1233 53.4818ZM32 50.6565L44.39 38.2665C44.8242 37.8322 45.1413 37.3467 45.3413 36.8098C45.5413 36.2734 45.6413 35.7169 45.6413 35.1405C45.6413 33.9885 45.2293 32.9805 44.4053 32.1165C43.5813 31.2525 42.5564 30.8205 41.3306 30.8205C40.7649 30.8205 40.2535 30.9056 39.7966 31.0758C39.3393 31.2465 38.8942 31.5509 38.4613 31.9891L32 38.4511L25.59 32.0405C25.2944 31.7356 24.9129 31.456 24.4453 31.2018C23.9773 30.9476 23.3882 30.8205 22.678 30.8205C21.4464 30.8205 20.4186 31.2502 19.5946 32.1098C18.7706 32.9698 18.3586 33.9729 18.3586 35.1191C18.3586 35.6925 18.4655 36.2382 18.6793 36.7565C18.8931 37.2742 19.2033 37.7502 19.61 38.1845L32 50.6565Z" fill="#EA5A0B"/>
</svg>
