<svg width="64" height="64" viewBox="0 0 64 64" fill="none" xmlns="http://www.w3.org/2000/svg">
<path d="M13.528 55.3332C12.1813 55.3332 11.0413 54.8665 10.108 53.9332C9.17462 52.9998 8.70795 51.8596 8.70795 50.5125V29.2098C7.63417 28.3281 6.82817 27.1836 6.28995 25.7765C5.75128 24.3698 5.74017 22.8512 6.25662 21.2205L8.95395 12.4098C9.30951 11.2885 9.91284 10.3843 10.764 9.69717C11.6155 9.01006 12.6326 8.6665 13.8153 8.6665H50.2153C51.3984 8.6665 52.4086 8.99473 53.246 9.65117C54.0837 10.3076 54.694 11.2103 55.0766 12.3592L57.8253 21.2205C58.3417 22.8512 58.3306 24.3647 57.792 25.7612C57.2537 27.1581 56.4477 28.3247 55.374 29.2612V50.5125C55.374 51.8596 54.9073 52.9998 53.974 53.9332C53.0406 54.8665 51.9006 55.3332 50.554 55.3332H13.528ZM37.908 27.3332C39.3644 27.3332 40.4593 26.8878 41.1926 25.9972C41.926 25.1065 42.226 24.1501 42.0926 23.1278L40.472 12.6665H34.0406V23.1998C34.0406 24.3212 34.4202 25.2905 35.1793 26.1078C35.9384 26.9247 36.848 27.3332 37.908 27.3332ZM25.908 27.3332C27.1351 27.3332 28.1306 26.9247 28.8946 26.1078C29.6591 25.2905 30.0413 24.3212 30.0413 23.1998V12.6665H23.61L21.99 23.2305C21.846 24.1776 22.1433 25.0983 22.882 25.9925C23.6206 26.8863 24.6293 27.3332 25.908 27.3332ZM14.0413 27.3332C15.0293 27.3332 15.8788 26.9887 16.59 26.2998C17.3011 25.6109 17.7404 24.7452 17.908 23.7025L19.4766 12.6665H13.8153C13.5246 12.6665 13.294 12.7305 13.1233 12.8585C12.9522 12.9869 12.824 13.1794 12.7386 13.4358L10.174 22.1125C9.82195 23.2578 9.98795 24.4143 10.672 25.5818C11.3555 26.7494 12.4786 27.3332 14.0413 27.3332ZM50.0413 27.3332C51.484 27.3332 52.5882 26.7665 53.354 25.6332C54.1197 24.4998 54.3044 23.3263 53.908 22.1125L51.21 13.3845C51.1246 13.1281 50.9966 12.9443 50.826 12.8332C50.6548 12.7221 50.424 12.6665 50.1333 12.6665H44.6053L46.174 23.7025C46.3415 24.7452 46.7808 25.6109 47.492 26.2998C48.2031 26.9887 49.0528 27.3332 50.0413 27.3332ZM13.528 51.3332H50.554C50.7931 51.3332 50.9895 51.2563 51.1433 51.1025C51.2975 50.9487 51.3746 50.7521 51.3746 50.5125V31.0972C51.084 31.2034 50.8411 31.2692 50.646 31.2945C50.4513 31.3203 50.2497 31.3332 50.0413 31.3332C48.8413 31.3332 47.7857 31.1161 46.8746 30.6818C45.9635 30.2476 45.0804 29.5518 44.2253 28.5945C43.4768 29.4287 42.5915 30.0938 41.5693 30.5898C40.5471 31.0854 39.3813 31.3332 38.072 31.3332C36.9404 31.3332 35.8737 31.0981 34.872 30.6278C33.8702 30.1581 32.9266 29.4803 32.0413 28.5945C31.2173 29.4803 30.284 30.1581 29.2413 30.6278C28.1982 31.0981 27.1417 31.3332 26.072 31.3332C24.8684 31.3332 23.7402 31.1152 22.6873 30.6792C21.6344 30.2432 20.708 29.5483 19.908 28.5945C18.7862 29.7158 17.7526 30.4527 16.8073 30.8052C15.8624 31.1572 14.9404 31.3332 14.0413 31.3332C13.8324 31.3332 13.6168 31.3203 13.3946 31.2945C13.1724 31.2692 12.9433 31.2034 12.7073 31.0972V50.5125C12.7073 50.7521 12.7844 50.9487 12.9386 51.1025C13.0924 51.2563 13.2888 51.3332 13.528 51.3332Z" fill="#EA5A0B"/>
</svg>
