<svg width="64" height="64" viewBox="0 0 64 64" fill="none" xmlns="http://www.w3.org/2000/svg">
<path d="M12.6 52.6668C10.0871 52.6668 7.95045 51.7797 6.19001 50.0055C4.42912 48.2308 3.52134 46.0699 3.46667 43.5228C3.46667 43.1468 3.48467 42.7759 3.52067 42.4102C3.55667 42.0444 3.61912 41.6702 3.70801 41.2875L9.30801 18.8875C9.89156 16.6399 11.0796 14.8191 12.872 13.4248C14.6645 12.0306 16.7071 11.3335 19 11.3335H45C47.2929 11.3335 49.3356 12.0306 51.128 13.4248C52.9205 14.8191 54.1085 16.6399 54.692 18.8875L60.292 41.2875C60.3809 41.6702 60.4545 42.0555 60.5127 42.4435C60.5709 42.8315 60.6 43.2135 60.6 43.5895C60.6 46.1366 59.7018 48.2864 57.9053 50.0388C56.1085 51.7908 53.9407 52.6668 51.402 52.6668C49.6536 52.6668 48.0393 52.2079 46.5593 51.2902C45.0789 50.3719 43.9558 49.1282 43.19 47.5588L41.2973 43.6668C41.024 43.1113 40.6138 42.6946 40.0667 42.4168C39.5196 42.139 38.9418 42.0002 38.3333 42.0002H25.6667C25.0627 42.0002 24.486 42.1368 23.9367 42.4102C23.3873 42.6839 22.976 43.1028 22.7027 43.6668L20.81 47.5588C20.0616 49.1455 18.9413 50.3935 17.4493 51.3028C15.9573 52.2122 14.3409 52.6668 12.6 52.6668ZM12.8067 48.6668C13.7662 48.6668 14.646 48.4104 15.446 47.8975C16.246 47.3846 16.8496 46.6993 17.2567 45.8415L19.1233 42.0155C19.7371 40.7582 20.6376 39.7746 21.8247 39.0648C23.0118 38.3551 24.2925 38.0002 25.6667 38.0002H38.3333C39.7182 38.0002 41.0011 38.3702 42.182 39.1102C43.3633 39.8506 44.2838 40.8277 44.9433 42.0415L46.81 45.8415C47.2171 46.6993 47.8207 47.3846 48.6207 47.8975C49.4207 48.4104 50.3062 48.6668 51.2773 48.6668C52.7089 48.6668 53.936 48.1873 54.9587 47.2282C55.9813 46.2695 56.5062 45.0824 56.5333 43.6668C56.5333 43.6428 56.4805 43.1693 56.3747 42.2462L50.7747 19.9128C50.4293 18.5759 49.7258 17.4786 48.664 16.6208C47.6027 15.7626 46.3813 15.3335 45 15.3335H19C17.6005 15.3335 16.3633 15.7626 15.2887 16.6208C14.214 17.4786 13.5262 18.5759 13.2253 19.9128L7.62534 42.2462C7.55379 42.4786 7.5009 42.9299 7.46667 43.6002C7.46667 45.0331 7.99067 46.2357 9.03868 47.2082C10.0862 48.1806 11.3422 48.6668 12.8067 48.6668ZM36 29.0255C36.6529 29.0255 37.2093 28.7957 37.6693 28.3362C38.1289 27.8762 38.3587 27.3197 38.3587 26.6668C38.3587 26.0139 38.1289 25.4575 37.6693 24.9975C37.2093 24.5379 36.6529 24.3082 36 24.3082C35.3471 24.3082 34.7907 24.5379 34.3307 24.9975C33.8711 25.4575 33.6413 26.0139 33.6413 26.6668C33.6413 27.3197 33.8711 27.8762 34.3307 28.3362C34.7907 28.7957 35.3471 29.0255 36 29.0255ZM41.3333 23.6922C41.9862 23.6922 42.5427 23.4624 43.0027 23.0028C43.4622 22.5428 43.692 21.9864 43.692 21.3335C43.692 20.6806 43.4622 20.1242 43.0027 19.6642C42.5427 19.2046 41.9862 18.9748 41.3333 18.9748C40.6805 18.9748 40.124 19.2046 39.664 19.6642C39.2045 20.1242 38.9747 20.6806 38.9747 21.3335C38.9747 21.9864 39.2045 22.5428 39.664 23.0028C40.124 23.4624 40.6805 23.6922 41.3333 23.6922ZM41.3333 34.3588C41.9862 34.3588 42.5427 34.1291 43.0027 33.6695C43.4622 33.2095 43.692 32.653 43.692 32.0002C43.692 31.3473 43.4622 30.7908 43.0027 30.3308C42.5427 29.8713 41.9862 29.6415 41.3333 29.6415C40.6805 29.6415 40.124 29.8713 39.664 30.3308C39.2045 30.7908 38.9747 31.3473 38.9747 32.0002C38.9747 32.653 39.2045 33.2095 39.664 33.6695C40.124 34.1291 40.6805 34.3588 41.3333 34.3588ZM46.6667 29.0255C47.3196 29.0255 47.876 28.7957 48.336 28.3362C48.7956 27.8762 49.0253 27.3197 49.0253 26.6668C49.0253 26.0139 48.7956 25.4575 48.336 24.9975C47.876 24.5379 47.3196 24.3082 46.6667 24.3082C46.0138 24.3082 45.4573 24.5379 44.9973 24.9975C44.5378 25.4575 44.308 26.0139 44.308 26.6668C44.308 27.3197 44.5378 27.8762 44.9973 28.3362C45.4573 28.7957 46.0138 29.0255 46.6667 29.0255ZM22.6653 32.9235C23.1245 32.9235 23.5045 32.7733 23.8053 32.4728C24.1062 32.1724 24.2567 31.7926 24.2567 31.3335V28.2568H27.3333C27.7925 28.2568 28.1722 28.1066 28.4727 27.8062C28.7731 27.5062 28.9233 27.1268 28.9233 26.6682C28.9233 26.2091 28.7731 25.8291 28.4727 25.5282C28.1722 25.2273 27.7925 25.0768 27.3333 25.0768H24.2567V22.0002C24.2567 21.5411 24.1065 21.1613 23.806 20.8608C23.506 20.5604 23.1267 20.4102 22.668 20.4102C22.2089 20.4102 21.8289 20.5604 21.528 20.8608C21.2271 21.1613 21.0767 21.5411 21.0767 22.0002V25.0768H18C17.5409 25.0768 17.1611 25.227 16.8607 25.5275C16.5602 25.8275 16.41 26.2068 16.41 26.6655C16.41 27.1246 16.5602 27.5046 16.8607 27.8055C17.1611 28.1064 17.5409 28.2568 18 28.2568H21.0767V31.3335C21.0767 31.7926 21.2269 32.1724 21.5273 32.4728C21.8273 32.7733 22.2067 32.9235 22.6653 32.9235Z" fill="#EA5A0B"/>
</svg>
