<svg width="64" height="64" viewBox="0 0 64 64" fill="none" xmlns="http://www.w3.org/2000/svg">
<path d="M15.584 52.154C13.5022 52.154 11.7349 51.426 10.282 49.97C8.82914 48.514 8.10269 46.7462 8.10269 44.6667H6.00003C5.31736 44.6667 4.74492 44.4358 4.28269 43.974C3.82092 43.5118 3.59003 42.9393 3.59003 42.2567V16.8207C3.59003 15.4736 4.05669 14.3333 4.99003 13.4C5.92336 12.4667 7.06336 12 8.41003 12H39.8974C41.2231 12 42.358 12.472 43.302 13.416C44.246 14.36 44.718 15.4949 44.718 16.8207V22.154H49.3847C50.1478 22.154 50.8709 22.3247 51.554 22.666C52.2367 23.0073 52.7989 23.4793 53.2407 24.082L59.928 33.036C60.0889 33.2369 60.2096 33.4578 60.29 33.6987C60.37 33.94 60.41 34.2011 60.41 34.482V42.2567C60.41 42.9393 60.1791 43.5118 59.7174 43.974C59.2551 44.4358 58.6827 44.6667 58 44.6667H55.59C55.59 46.7462 54.8614 48.514 53.404 49.97C51.9471 51.426 50.178 52.154 48.0967 52.154C46.0154 52.154 44.248 51.426 42.7947 49.97C41.3418 48.514 40.6154 46.7462 40.6154 44.6667H23.0767C23.0767 46.752 22.3482 48.5211 20.8914 49.974C19.4345 51.4273 17.6654 52.154 15.584 52.154ZM15.59 48.154C16.5678 48.154 17.3934 47.8171 18.0667 47.1433C18.74 46.47 19.0767 45.6444 19.0767 44.6667C19.0767 43.6889 18.74 42.8631 18.0667 42.1893C17.3934 41.516 16.5678 41.1793 15.59 41.1793C14.6122 41.1793 13.7865 41.516 13.1127 42.1893C12.4394 42.8631 12.1027 43.6889 12.1027 44.6667C12.1027 45.6444 12.4394 46.47 13.1127 47.1433C13.7865 47.8171 14.6122 48.154 15.59 48.154ZM7.59003 40.6667H9.51803C10.0856 39.6787 10.9051 38.8504 11.9767 38.182C13.0487 37.5136 14.2531 37.1793 15.59 37.1793C16.8923 37.1793 18.0878 37.5093 19.1767 38.1693C20.2656 38.8293 21.0938 39.6618 21.6614 40.6667H40.718V16.8207C40.718 16.5811 40.6411 16.3844 40.4874 16.2307C40.3336 16.0769 40.1369 16 39.8974 16H8.41003C8.20514 16 8.01714 16.0856 7.84603 16.2567C7.67536 16.4273 7.59003 16.6153 7.59003 16.8207V40.6667ZM48.1027 48.154C49.0805 48.154 49.906 47.8171 50.5794 47.1433C51.2531 46.47 51.59 45.6444 51.59 44.6667C51.59 43.6889 51.2531 42.8631 50.5794 42.1893C49.906 41.516 49.0805 41.1793 48.1027 41.1793C47.1249 41.1793 46.2991 41.516 45.6254 42.1893C44.952 42.8631 44.6154 43.6889 44.6154 44.6667C44.6154 45.6444 44.952 46.47 45.6254 47.1433C46.2991 47.8171 47.1249 48.154 48.1027 48.154ZM44.718 35.3333H56.6667L50 26.4873C49.9147 26.3847 49.8165 26.3033 49.7054 26.2433C49.5943 26.1838 49.4703 26.154 49.3334 26.154H44.718V35.3333Z" fill="#EA5A0B"/>
</svg>
