<svg width="64" height="64" viewBox="0 0 64 64" fill="none" xmlns="http://www.w3.org/2000/svg">
<path d="M15.3333 43.3331V27.3331C15.3333 26.7664 15.5251 26.2913 15.9086 25.9078C16.2922 25.5247 16.7673 25.3331 17.334 25.3331C17.9011 25.3331 18.3762 25.5247 18.7593 25.9078C19.142 26.2913 19.3333 26.7664 19.3333 27.3331V43.3331C19.3333 43.8998 19.1415 44.3749 18.758 44.7584C18.3744 45.1416 17.8993 45.3331 17.3326 45.3331C16.7655 45.3331 16.2906 45.1416 15.908 44.7584C15.5249 44.3749 15.3333 43.8998 15.3333 43.3331ZM30 43.3331V27.3331C30 26.7664 30.1918 26.2913 30.5753 25.9078C30.9589 25.5247 31.434 25.3331 32.0006 25.3331C32.5678 25.3331 33.0426 25.5247 33.4253 25.9078C33.8084 26.2913 34 26.7664 34 27.3331V43.3331C34 43.8998 33.8082 44.3749 33.4246 44.7584C33.0411 45.1416 32.566 45.3331 31.9993 45.3331C31.4322 45.3331 30.9573 45.1416 30.5746 44.7584C30.1915 44.3749 30 43.8998 30 43.3331ZM9.38464 54.6664C8.81798 54.6664 8.34309 54.4747 7.95998 54.0911C7.57642 53.7076 7.38464 53.2324 7.38464 52.6658C7.38464 52.0987 7.57642 51.6238 7.95998 51.2411C8.34309 50.858 8.81798 50.6664 9.38464 50.6664H54.6153C55.182 50.6664 55.6569 50.8582 56.04 51.2418C56.4235 51.6253 56.6153 52.1004 56.6153 52.6671C56.6153 53.2342 56.4235 53.7091 56.04 54.0918C55.6569 54.4749 55.182 54.6664 54.6153 54.6664H9.38464ZM44.6666 43.3331V27.3331C44.6666 26.7664 44.8584 26.2913 45.242 25.9078C45.6255 25.5247 46.1006 25.3331 46.6673 25.3331C47.2344 25.3331 47.7093 25.5247 48.092 25.9078C48.4751 26.2913 48.6666 26.7664 48.6666 27.3331V43.3331C48.6666 43.8998 48.4749 44.3749 48.0913 44.7584C47.7078 45.1416 47.2326 45.3331 46.666 45.3331C46.0989 45.3331 45.6238 45.1416 45.2406 44.7584C44.858 44.3749 44.6666 43.8998 44.6666 43.3331ZM54.718 19.9998H9.09264C8.61798 19.9998 8.21464 19.834 7.88264 19.5024C7.55064 19.1713 7.38464 18.7689 7.38464 18.2951V17.2538C7.38464 16.9067 7.47153 16.6073 7.64531 16.3558C7.81953 16.1047 8.04887 15.9004 8.33331 15.7431L29.882 5.19977C30.5478 4.87844 31.2526 4.71777 31.9966 4.71777C32.7406 4.71777 33.4478 4.87844 34.118 5.19977L55.5586 15.6764C55.8938 15.8476 56.1535 16.0869 56.338 16.3944C56.5229 16.7024 56.6153 17.0331 56.6153 17.3864V18.1091C56.6153 18.6549 56.4366 19.1064 56.0793 19.4638C55.722 19.8211 55.2682 19.9998 54.718 19.9998ZM16.8406 15.9998H47.1593L32.3593 8.82044C32.2393 8.76888 32.1195 8.74311 32 8.74311C31.8804 8.74311 31.7606 8.76888 31.6406 8.82044L16.8406 15.9998Z" fill="#EA5A0B"/>
</svg>
