<svg width="64" height="64" viewBox="0 0 64 64" fill="none" xmlns="http://www.w3.org/2000/svg">
<path d="M31.9993 55.3332C31.4322 55.3332 30.9573 55.1414 30.5747 54.7579C30.1916 54.3748 30 53.8999 30 53.3332V34.1692C27.3267 34.1692 24.7642 33.6632 22.3127 32.6512C19.8616 31.6392 17.6958 30.193 15.8153 28.3125C13.9353 26.4321 12.5004 24.2663 11.5107 21.8152C10.5209 19.3641 10.026 16.8017 10.026 14.1279V12.4872C10.026 11.8117 10.2544 11.2452 10.7113 10.7879C11.1682 10.331 11.7347 10.1025 12.4107 10.1025H14.0513C16.6669 10.1025 19.1993 10.6128 21.6487 11.6332C24.0984 12.6537 26.2633 14.1041 28.1433 15.9845C29.5384 17.3797 30.6829 18.9379 31.5767 20.6592C32.4709 22.3805 33.1111 24.2088 33.4973 26.1439C33.8049 25.6105 34.1476 25.1052 34.5253 24.6279C34.9031 24.151 35.3247 23.6801 35.79 23.2152C37.6647 21.3379 39.8309 19.8883 42.2887 18.8665C44.7464 17.8443 47.3082 17.3332 49.974 17.3332H51.6153C52.2909 17.3332 52.8571 17.5619 53.314 18.0192C53.7713 18.4761 54 19.0423 54 19.7179V21.3585C54 24.0248 53.4889 26.5868 52.4667 29.0445C51.4449 31.5023 49.9953 33.6685 48.118 35.5432C46.2376 37.4236 44.0829 38.8588 41.654 39.8485C39.2247 40.8383 36.6733 41.3332 34 41.3332V53.3332C34 53.8999 33.8082 54.3748 33.4247 54.7579C33.0411 55.1414 32.566 55.3332 31.9993 55.3332ZM30.026 30.1025C30.026 27.9692 29.6149 25.9359 28.7927 24.0025C27.9704 22.0692 26.8038 20.347 25.2927 18.8359C23.7816 17.3248 22.0593 16.1581 20.126 15.3359C18.1927 14.5136 16.1593 14.1025 14.026 14.1025C14.026 16.2359 14.426 18.2803 15.226 20.2359C16.026 22.1914 17.1816 23.9248 18.6927 25.4359C20.2038 26.947 21.9371 28.1025 23.8927 28.9025C25.8482 29.7025 27.8927 30.1025 30.026 30.1025ZM34 37.3332C36.1333 37.3332 38.1667 36.9332 40.1 36.1332C42.0333 35.3332 43.7556 34.1777 45.2667 32.6665C46.7778 31.1554 47.9444 29.4221 48.7667 27.4665C49.5889 25.511 50 23.4665 50 21.3332C47.8667 21.3332 45.8222 21.7443 43.8667 22.5665C41.9111 23.3888 40.1778 24.5554 38.6667 26.0665C37.1556 27.5777 36 29.2999 35.2 31.2332C34.4 33.1665 34 35.1999 34 37.3332Z" fill="#EA5A0B"/>
</svg>
