<svg width="64" height="64" viewBox="0 0 64 64" fill="none" xmlns="http://www.w3.org/2000/svg">
<path d="M17.1847 44.8867C16.3985 44.4494 15.7822 43.8591 15.336 43.116C14.8898 42.3729 14.6667 41.5394 14.6667 40.6154V29.046L9.34402 26.1027C8.90624 25.8529 8.58491 25.5491 8.38002 25.1914C8.17469 24.834 8.07202 24.4367 8.07202 23.9994C8.07202 23.562 8.17469 23.1649 8.38002 22.808C8.58491 22.4507 8.90624 22.1472 9.34402 21.8974L29.704 10.804C30.0654 10.6031 30.4376 10.4556 30.8207 10.3614C31.2038 10.2676 31.5969 10.2207 32 10.2207C32.4031 10.2207 32.7962 10.2676 33.1794 10.3614C33.5625 10.4556 33.9351 10.6029 34.2974 10.8034L57.292 23.318C57.7022 23.5403 58.0169 23.8407 58.236 24.2194C58.4547 24.5985 58.564 25.0074 58.564 25.446V41.1794C58.564 41.746 58.3722 42.2211 57.9887 42.6047C57.6051 42.9878 57.13 43.1794 56.5634 43.1794C55.9962 43.1794 55.5214 42.9878 55.1387 42.6047C54.7556 42.2211 54.564 41.746 54.564 41.1794V26.2154L49.3334 29.046V40.6154C49.3334 41.5394 49.1102 42.3729 48.664 43.116C48.2178 43.8591 47.6016 44.4494 46.8154 44.8867L34.3027 51.6514C33.9369 51.8563 33.5625 52.0058 33.1794 52.1C32.7962 52.1938 32.4031 52.2407 32 52.2407C31.5969 52.2407 31.2038 52.1938 30.8207 52.1C30.4376 52.0058 30.0631 51.8563 29.6974 51.6514L17.1847 44.8867ZM31.692 33.7127C31.812 33.7811 31.9189 33.8154 32.0127 33.8154C32.1069 33.8154 32.2138 33.7811 32.3334 33.7127L50.2414 24L32.3334 14.3127C32.2138 14.2443 32.1069 14.21 32.0127 14.21C31.9189 14.21 31.812 14.2443 31.692 14.3127L13.7587 24L31.692 33.7127ZM31.6667 48.1894C31.7862 48.2578 31.8974 48.292 32 48.292C32.1027 48.292 32.2138 48.2578 32.3334 48.1894L44.9487 41.374C45.0856 41.2887 45.1838 41.1905 45.2434 41.0794C45.3034 40.9683 45.3334 40.8271 45.3334 40.656V31.1794L34.3434 37.2154C33.9776 37.4203 33.5982 37.5698 33.2054 37.664C32.812 37.7583 32.4102 37.8054 32 37.8054C31.5898 37.8054 31.188 37.7583 30.7947 37.664C30.4018 37.5698 30.0225 37.4203 29.6567 37.2154L18.6667 31.1794V40.656C18.6667 40.7929 18.6967 40.9256 18.7567 41.054C18.8162 41.182 18.9145 41.2887 19.0514 41.374L31.6667 48.1894Z" fill="#EA5A0B"/>
</svg>
