<svg width="210" height="42" viewBox="0 0 210 42" fill="none" xmlns="http://www.w3.org/2000/svg">
<path d="M24.7581 35.9251C24.7581 37.3054 24.3347 38.3263 23.3682 39.2929C23.1105 39.5506 22.825 39.7749 22.5186 39.9629C21.5116 40.5813 20.2817 40.8125 19.1174 40.573C18.616 40.4699 18.102 40.2554 17.6299 39.9671C16.9474 39.5492 16.3471 38.9782 15.9892 38.3639C15.0783 36.7998 15.1326 34.7927 16.1452 33.2745C16.7524 32.3553 17.8291 31.6087 18.9154 31.3427C20.8389 30.8733 22.9002 31.6742 23.967 33.2745C24.5186 34.1033 24.7581 34.9125 24.7581 35.9251Z" fill="#4D4D4D"/>
<path d="M8.08287 3.9668L11.3072 38.1078C4.61484 34.8583 0.00195312 27.9959 0.00195312 20.0567C0.00195312 13.4687 3.17749 7.62297 8.08287 3.9668Z" fill="#4D4D4D"/>
<path d="M20.0562 0C22.0297 0 23.9364 0.28553 25.7373 0.816197C25.5465 2.88176 25.1356 7.24967 24.6565 12.2485C24.0033 19.1779 23.4615 24.8648 23.4615 24.8912C23.4615 24.9191 21.9336 24.9386 20.0562 24.9386C18.1787 24.9386 16.6508 24.9191 16.6508 24.8912C16.6508 24.8634 16.1174 19.1779 15.4558 12.2569C14.9836 7.25246 14.5686 2.87758 14.375 0.816197C16.1759 0.28553 18.0826 0 20.0562 0Z" fill="#4D4D4D"/>
<path d="M40.1148 20.0569C40.1148 28.0002 35.4977 34.8654 28.7998 38.1135L32.0241 3.95996C36.935 7.61613 40.1148 13.4646 40.1148 20.0569Z" fill="#4D4D4D"/>
<path d="M48.9229 17.066L51.3874 17.066L51.3874 17.5233L51.0745 17.5811C51.3056 17.7688 51.4163 18.0239 51.4163 18.3416C51.4163 18.6304 51.3296 18.8663 51.1467 19.0444C50.9686 19.2273 50.6798 19.314 50.2803 19.314L48.9229 19.314L48.9229 18.7941L50.2273 18.7941C50.468 18.7941 50.6509 18.746 50.7761 18.6497C50.9012 18.5534 50.9638 18.4138 50.9638 18.2213C50.9638 18.0239 50.8916 17.8699 50.7472 17.7544C50.6028 17.6437 50.4006 17.5859 50.1455 17.5859L48.9229 17.5859L48.9229 17.066Z" fill="#4D4D4D"/>
<path d="M48.9229 20.857L49.409 20.857L49.409 21.088C49.409 21.3047 49.4812 21.4587 49.6208 21.555C49.7604 21.6512 49.9385 21.6994 50.1503 21.6994L51.3874 21.6994L51.3874 22.2192L48.9229 22.2192L48.9229 21.7571L49.2935 21.6994C49.178 21.632 49.0913 21.5405 49.0239 21.425C48.9565 21.3143 48.9229 21.1651 48.9229 20.9725L48.9229 20.857Z" fill="#4D4D4D"/>
<path d="M49.38 24.9241L49.38 25.3525L48.9227 25.3525L48.9227 24.9241L48.2344 24.9241L48.2344 24.3995L48.9227 24.3995L48.9227 23.8074L49.38 23.8074L49.38 24.3995L50.6652 24.3995C50.7615 24.3995 50.8337 24.3802 50.8722 24.3417C50.9107 24.3032 50.93 24.2406 50.93 24.1443L50.93 23.7496L51.3873 23.7496L51.3873 24.2502C51.3873 24.4861 51.3343 24.6594 51.2236 24.7653C51.1177 24.8712 50.9492 24.9241 50.7182 24.9241L49.38 24.9241Z" fill="#4D4D4D"/>
<path d="M207.072 37.0255C207.084 37.2361 207.168 37.4046 207.325 37.531C207.481 37.6573 207.686 37.7175 207.944 37.7175C208.155 37.7175 208.33 37.6754 208.462 37.5851C208.594 37.4949 208.666 37.3685 208.666 37.206C208.666 37.0977 208.624 37.0075 208.552 36.9413C208.48 36.8751 208.372 36.821 208.239 36.7848C208.107 36.7487 207.896 36.7006 207.62 36.6404C207.343 36.5923 207.108 36.5261 206.922 36.4419C206.729 36.3576 206.579 36.2373 206.458 36.0748C206.338 35.9124 206.284 35.6958 206.284 35.425C206.284 35.1843 206.35 34.9617 206.482 34.7692C206.615 34.5766 206.801 34.4262 207.042 34.3179C207.283 34.2096 207.553 34.1494 207.854 34.1494C208.161 34.1494 208.438 34.2096 208.685 34.3239C208.931 34.4382 209.124 34.5947 209.268 34.7932C209.413 34.9978 209.485 35.2204 209.491 35.4731H208.606C208.582 35.2926 208.51 35.1482 208.378 35.0399C208.245 34.9316 208.071 34.8715 207.854 34.8715C207.65 34.8715 207.493 34.9136 207.373 34.9978C207.253 35.082 207.192 35.2024 207.192 35.3588C207.192 35.4731 207.228 35.5634 207.301 35.6236C207.373 35.6837 207.475 35.7379 207.608 35.774C207.74 35.8101 207.944 35.8582 208.221 35.9064C208.498 35.9605 208.739 36.0267 208.931 36.1049C209.124 36.1832 209.274 36.3035 209.395 36.4599C209.515 36.6164 209.575 36.827 209.575 37.0917C209.575 37.3504 209.503 37.5791 209.364 37.7837C209.22 37.9882 209.028 38.1447 208.775 38.259C208.522 38.3793 208.245 38.4335 207.932 38.4335C207.595 38.4335 207.295 38.3733 207.03 38.253C206.765 38.1327 206.561 37.9582 206.416 37.7415C206.266 37.5249 206.188 37.2843 206.188 37.0135L207.072 37.0255Z" fill="black"/>
<path d="M199.134 38.3974V34.1855H199.952L201.739 36.839V34.1855H202.63V38.3974H201.805L200.018 35.7439V38.3974H199.134Z" fill="black"/>
<path d="M195.314 37.3926C195.134 37.7175 194.887 37.9762 194.574 38.1567C194.255 38.3432 193.894 38.4335 193.491 38.4335C193.082 38.4335 192.721 38.3432 192.408 38.1567C192.089 37.9762 191.843 37.7175 191.668 37.3926C191.488 37.0676 191.403 36.7006 191.403 36.2915C191.403 35.8883 191.488 35.5213 191.668 35.1964C191.843 34.8715 192.089 34.6127 192.408 34.4262C192.721 34.2457 193.082 34.1494 193.491 34.1494C193.894 34.1494 194.255 34.2457 194.574 34.4262C194.887 34.6127 195.134 34.8715 195.314 35.1964C195.489 35.5213 195.579 35.8883 195.579 36.2915C195.579 36.7006 195.489 37.0676 195.314 37.3926ZM192.468 37.0015C192.565 37.2121 192.697 37.3745 192.877 37.4949C193.052 37.6152 193.257 37.6693 193.491 37.6693C193.72 37.6693 193.918 37.6152 194.099 37.4949C194.273 37.3745 194.412 37.2121 194.508 37.0015C194.604 36.7969 194.652 36.5562 194.652 36.2915C194.652 36.0267 194.604 35.792 194.508 35.5815C194.412 35.3769 194.273 35.2144 194.099 35.0941C193.918 34.9737 193.72 34.9136 193.491 34.9136C193.257 34.9136 193.052 34.9737 192.877 35.0941C192.697 35.2144 192.565 35.3769 192.468 35.5815C192.372 35.792 192.324 36.0267 192.324 36.2915C192.324 36.5562 192.372 36.7969 192.468 37.0015Z" fill="black"/>
<path d="M186.947 34.1855H187.85V38.3974H186.947V34.1855Z" fill="black"/>
<path d="M180.114 34.1855H183.448V34.9617H182.232V38.3974H181.33V34.9617H180.114V34.1855Z" fill="black"/>
<path d="M174.088 34.1855V36.6284C174.088 36.9714 174.154 37.2301 174.287 37.3986C174.419 37.5731 174.624 37.6573 174.912 37.6573C175.195 37.6573 175.406 37.5731 175.538 37.3986C175.671 37.2301 175.743 36.9714 175.743 36.6284V34.1855H176.645V36.5803C176.645 37.182 176.495 37.6453 176.2 37.9582C175.905 38.2771 175.478 38.4335 174.912 38.4335C174.347 38.4335 173.914 38.2771 173.625 37.9582C173.33 37.6453 173.186 37.182 173.186 36.5803V34.1855H174.088Z" fill="black"/>
<path d="M167.445 38.3974V34.1855H168.348V37.6212H170.021V38.3974H167.445Z" fill="black"/>
<path d="M163.625 37.3926C163.444 37.7175 163.198 37.9762 162.885 38.1567C162.566 38.3432 162.205 38.4335 161.802 38.4335C161.393 38.4335 161.032 38.3432 160.719 38.1567C160.4 37.9762 160.153 37.7175 159.979 37.3926C159.798 37.0676 159.714 36.7006 159.714 36.2915C159.714 35.8883 159.798 35.5213 159.979 35.1964C160.153 34.8715 160.4 34.6127 160.719 34.4262C161.032 34.2457 161.393 34.1494 161.802 34.1494C162.205 34.1494 162.566 34.2457 162.885 34.4262C163.198 34.6127 163.444 34.8715 163.625 35.1964C163.799 35.5213 163.89 35.8883 163.89 36.2915C163.89 36.7006 163.799 37.0676 163.625 37.3926ZM160.779 37.0015C160.875 37.2121 161.008 37.3745 161.188 37.4949C161.363 37.6152 161.567 37.6693 161.802 37.6693C162.03 37.6693 162.229 37.6152 162.409 37.4949C162.584 37.3745 162.722 37.2121 162.819 37.0015C162.915 36.7969 162.963 36.5562 162.963 36.2915C162.963 36.0267 162.915 35.792 162.819 35.5815C162.722 35.3769 162.584 35.2144 162.409 35.0941C162.229 34.9737 162.03 34.9136 161.802 34.9136C161.567 34.9136 161.363 34.9737 161.188 35.0941C161.008 35.2144 160.875 35.3769 160.779 35.5815C160.683 35.792 160.634 36.0267 160.634 36.2915C160.634 36.5562 160.683 36.7969 160.779 37.0015Z" fill="black"/>
<path d="M153.83 37.0255C153.842 37.2361 153.926 37.4046 154.083 37.531C154.239 37.6573 154.444 37.7175 154.702 37.7175C154.913 37.7175 155.087 37.6754 155.22 37.5851C155.352 37.4949 155.424 37.3685 155.424 37.206C155.424 37.0977 155.382 37.0075 155.31 36.9413C155.238 36.8751 155.129 36.821 154.997 36.7848C154.865 36.7487 154.654 36.7006 154.377 36.6404C154.101 36.5923 153.866 36.5261 153.679 36.4419C153.487 36.3576 153.336 36.2373 153.216 36.0748C153.096 35.9124 153.042 35.6958 153.042 35.425C153.042 35.1843 153.108 34.9617 153.24 34.7692C153.373 34.5766 153.559 34.4262 153.8 34.3179C154.04 34.2096 154.311 34.1494 154.612 34.1494C154.919 34.1494 155.196 34.2096 155.442 34.3239C155.689 34.4382 155.882 34.5947 156.026 34.7932C156.17 34.9978 156.243 35.2204 156.249 35.4731H155.364C155.34 35.2926 155.268 35.1482 155.135 35.0399C155.003 34.9316 154.829 34.8715 154.612 34.8715C154.407 34.8715 154.251 34.9136 154.131 34.9978C154.01 35.082 153.95 35.2024 153.95 35.3588C153.95 35.4731 153.986 35.5634 154.058 35.6236C154.131 35.6837 154.233 35.7379 154.365 35.774C154.498 35.8101 154.702 35.8582 154.979 35.9064C155.256 35.9605 155.497 36.0267 155.689 36.1049C155.882 36.1832 156.032 36.3035 156.152 36.4599C156.273 36.6164 156.333 36.827 156.333 37.0917C156.333 37.3504 156.261 37.5791 156.122 37.7837C155.978 37.9882 155.785 38.1447 155.533 38.259C155.28 38.3793 155.003 38.4335 154.69 38.4335C154.353 38.4335 154.052 38.3733 153.788 38.253C153.523 38.1327 153.318 37.9582 153.174 37.7415C153.024 37.5249 152.945 37.2843 152.945 37.0135L153.83 37.0255Z" fill="black"/>
<path d="M141.497 34.1914H142.4V36.0807L144.084 34.1914H145.179L143.633 35.9243L145.282 38.3973H144.199L142.995 36.6223L142.4 37.2901V38.3973H141.497V34.1914Z" fill="black"/>
<path d="M135.444 37.0255C135.456 37.2361 135.54 37.4046 135.697 37.531C135.853 37.6573 136.058 37.7175 136.317 37.7175C136.527 37.7175 136.702 37.6754 136.834 37.5851C136.966 37.4949 137.039 37.3685 137.039 37.206C137.039 37.0977 136.996 37.0075 136.924 36.9413C136.852 36.8751 136.744 36.821 136.611 36.7848C136.479 36.7487 136.268 36.7006 135.992 36.6404C135.715 36.5923 135.48 36.5261 135.294 36.4419C135.101 36.3576 134.951 36.2373 134.83 36.0748C134.71 35.9124 134.656 35.6958 134.656 35.425C134.656 35.1843 134.722 34.9617 134.854 34.7692C134.987 34.5766 135.173 34.4262 135.414 34.3179C135.655 34.2096 135.925 34.1494 136.226 34.1494C136.533 34.1494 136.81 34.2096 137.057 34.3239C137.303 34.4382 137.496 34.5947 137.64 34.7932C137.785 34.9978 137.857 35.2204 137.863 35.4731H136.978C136.954 35.2926 136.882 35.1482 136.75 35.0399C136.617 34.9316 136.443 34.8715 136.226 34.8715C136.022 34.8715 135.865 34.9136 135.745 34.9978C135.625 35.082 135.564 35.2024 135.564 35.3588C135.564 35.4731 135.601 35.5634 135.673 35.6236C135.745 35.6837 135.847 35.7379 135.98 35.774C136.112 35.8101 136.317 35.8582 136.593 35.9064C136.87 35.9605 137.111 36.0267 137.303 36.1049C137.496 36.1832 137.646 36.3035 137.767 36.4599C137.887 36.6164 137.947 36.827 137.947 37.0917C137.947 37.3504 137.875 37.5791 137.737 37.7837C137.592 37.9882 137.4 38.1447 137.147 38.259C136.894 38.3793 136.617 38.4335 136.304 38.4335C135.968 38.4335 135.667 38.3733 135.402 38.253C135.137 38.1327 134.933 37.9582 134.788 37.7415C134.638 37.5249 134.56 37.2843 134.56 37.0135L135.444 37.0255Z" fill="black"/>
<path d="M130.104 34.1855H131.006V38.3974H130.104V34.1855Z" fill="black"/>
<path d="M124.949 34.1855C125.25 34.1855 125.521 34.2457 125.755 34.36C125.99 34.4744 126.171 34.6368 126.303 34.8474C126.429 35.064 126.496 35.3107 126.496 35.5875C126.496 35.8583 126.429 36.0989 126.303 36.3035C126.171 36.5081 125.996 36.6645 125.774 36.7728L126.604 38.3974H125.605L124.901 36.9834H124.137V38.3974H123.234V34.1855H124.949ZM124.137 36.2313H124.877C125.088 36.2313 125.256 36.1772 125.382 36.0568C125.509 35.9425 125.575 35.7861 125.575 35.5875C125.575 35.3889 125.509 35.2325 125.382 35.1122C125.256 34.9978 125.088 34.9377 124.877 34.9377H124.137V36.2313Z" fill="black"/>
<path d="M199.136 19.8811C199.194 20.5453 199.511 21.0652 200.089 21.4695C200.666 21.8739 201.389 22.076 202.313 22.076C203.179 22.076 203.843 21.9605 204.363 21.6717C204.854 21.3829 205.114 20.9785 205.114 20.4587C205.114 20.0832 204.999 19.7944 204.768 19.5922C204.537 19.4189 204.19 19.2745 203.786 19.1879C203.352 19.1013 202.659 18.9857 201.706 18.8702C200.378 18.6969 199.309 18.4947 198.443 18.2059C197.576 17.946 196.883 17.5128 196.363 16.9351C195.843 16.3575 195.583 15.6066 195.583 14.6246C195.583 13.6715 195.843 12.834 196.363 12.0831C196.883 11.3321 197.634 10.7545 198.616 10.3502C199.569 9.94582 200.666 9.74365 201.937 9.74365C203.959 9.77253 205.576 10.2058 206.818 11.0433C208.06 11.9098 208.724 13.065 208.84 14.5669H204.97C204.912 14.0181 204.594 13.556 204.074 13.2094C203.555 12.8629 202.861 12.6607 202.053 12.6607C201.273 12.6607 200.638 12.8051 200.175 13.0939C199.713 13.3827 199.482 13.7871 199.482 14.2492C199.482 14.5957 199.598 14.8557 199.858 15.029C200.089 15.2023 200.435 15.3467 200.84 15.4044C201.244 15.4911 201.908 15.5777 202.861 15.6644C204.854 15.8954 206.385 16.3286 207.454 16.964C208.522 17.5994 209.071 18.668 209.071 20.1699C209.071 21.1518 208.782 21.9894 208.205 22.7114C207.627 23.4624 206.847 24.0111 205.836 24.4154C204.825 24.8198 203.67 24.9931 202.342 24.9931C200.262 24.9931 198.587 24.5599 197.316 23.6356C196.017 22.7114 195.323 21.4695 195.266 19.8811H199.136Z" fill="#4D4D4D"/>
<path d="M183.303 9.97461L186.913 20.6319L190.437 9.97461H194.798L188.213 26.928C187.866 27.8522 187.52 28.5454 187.231 29.0653C186.913 29.5851 186.509 29.9606 186.047 30.2205C185.585 30.4805 184.978 30.596 184.227 30.596H180.27V27.1591H182.523C183.043 27.1591 183.418 27.0724 183.65 26.8992C183.881 26.7259 184.083 26.4082 184.314 25.8883L184.689 24.9063L178.971 9.97461H183.303Z" fill="#4D4D4D"/>
<path d="M168.619 19.8811C168.677 20.5453 168.995 21.0652 169.572 21.4695C170.15 21.8739 170.872 22.076 171.796 22.076C172.663 22.076 173.327 21.9605 173.847 21.6717C174.338 21.3829 174.598 20.9785 174.598 20.4587C174.598 20.0832 174.482 19.7944 174.251 19.5922C174.02 19.4189 173.673 19.2745 173.269 19.1879C172.836 19.1013 172.143 18.9857 171.19 18.8702C169.861 18.6969 168.792 18.4947 167.926 18.2059C167.06 17.946 166.366 17.5128 165.847 16.9351C165.327 16.3575 165.067 15.6066 165.067 14.6246C165.067 13.6715 165.327 12.834 165.847 12.0831C166.366 11.3321 167.117 10.7545 168.099 10.3502C169.052 9.94582 170.15 9.74365 171.421 9.74365C173.442 9.77253 175.06 10.2058 176.302 11.0433C177.544 11.9098 178.208 13.065 178.323 14.5669H174.453C174.395 14.0181 174.078 13.556 173.558 13.2094C173.038 12.8629 172.345 12.6607 171.536 12.6607C170.756 12.6607 170.121 12.8051 169.659 13.0939C169.197 13.3827 168.966 13.7871 168.966 14.2492C168.966 14.5957 169.081 14.8557 169.341 15.029C169.572 15.2023 169.919 15.3467 170.323 15.4044C170.727 15.4911 171.392 15.5777 172.345 15.6644C174.338 15.8954 175.868 16.3286 176.937 16.964C178.006 17.5994 178.554 18.668 178.554 20.1699C178.554 21.1518 178.266 21.9894 177.688 22.7114C177.11 23.4624 176.33 24.0111 175.32 24.4154C174.309 24.8198 173.154 24.9931 171.825 24.9931C169.746 24.9931 168.07 24.5599 166.8 23.6356C165.5 22.7114 164.807 21.4695 164.749 19.8811H168.619Z" fill="#4D4D4D"/>
<path d="M148.975 13.4115C149.61 12.2562 150.477 11.3898 151.603 10.7544C152.73 10.119 154.029 9.80127 155.531 9.80127C157.033 9.80127 158.333 10.119 159.488 10.6966C160.643 11.2742 161.538 12.1118 162.174 13.1804C162.809 14.249 163.156 15.4909 163.185 16.935C163.185 17.4549 163.127 17.917 163.069 18.3213H152.296V18.4368C152.383 19.5343 152.73 20.3719 153.336 20.9784C153.914 21.6138 154.751 21.9026 155.791 21.9026C156.6 21.9026 157.293 21.7293 157.842 21.3827C158.39 21.0362 158.766 20.4874 158.939 19.7943H162.954C162.78 20.7762 162.405 21.6716 161.827 22.4514C161.221 23.26 160.441 23.8665 159.459 24.3287C158.477 24.7908 157.351 24.9929 156.08 24.9929C154.405 24.9929 152.99 24.7041 151.776 24.0687C150.563 23.4622 149.639 22.5958 149.004 21.4405C148.368 20.2852 148.051 18.9567 148.051 17.426C148.051 15.8953 148.34 14.5667 148.975 13.4115ZM159.112 15.6642C158.968 14.7689 158.593 14.0757 157.986 13.5847C157.379 13.0938 156.629 12.8338 155.704 12.8338C154.809 12.8338 154.058 13.0938 153.452 13.6136C152.845 14.1335 152.499 14.7978 152.383 15.6642H159.112Z" fill="black"/>
<path d="M144.358 11.4186C145.485 12.5161 146.062 14.2778 146.062 16.7616V24.8196H141.99V16.9349C141.99 15.7219 141.73 14.7688 141.239 14.1334C140.719 13.498 139.968 13.1515 138.986 13.1515C137.947 13.1515 137.109 13.5269 136.532 14.2201C135.954 14.9421 135.665 15.9241 135.665 17.1949V24.8196H131.593V4.60254H135.665V11.794C136.763 10.4655 138.207 9.80121 140.055 9.80121C141.788 9.80121 143.232 10.35 144.358 11.4186Z" fill="black"/>
<path d="M122.252 13.4113H119.797V9.97436H122.252V5.81543H126.324V9.97436H129.703V13.4113H126.324V19.9096C126.324 20.4295 126.411 20.8049 126.642 21.036C126.873 21.267 127.248 21.3825 127.768 21.3825H129.877V24.8194H126.497C123.667 24.8194 122.252 23.4043 122.252 20.5739V13.4113Z" fill="black"/>
<path d="M107.156 24.0687C105.972 23.4333 105.047 22.538 104.412 21.3827C103.777 20.2275 103.459 18.8989 103.459 17.3971C103.459 15.8953 103.777 14.5667 104.412 13.4115C105.047 12.2562 105.972 11.3898 107.156 10.7544C108.34 10.119 109.726 9.80127 111.286 9.80127C112.845 9.80127 114.203 10.119 115.387 10.7544C116.571 11.3898 117.495 12.2562 118.131 13.4115C118.766 14.5667 119.113 15.8953 119.113 17.3971C119.113 18.9278 118.766 20.2564 118.131 21.4116C117.495 22.5669 116.571 23.4333 115.387 24.0687C114.203 24.7041 112.845 24.9929 111.286 24.9929C109.726 24.9929 108.34 24.7041 107.156 24.0687ZM113.972 20.4874C114.636 19.7076 114.983 18.6679 114.983 17.3971C114.983 16.1263 114.636 15.1155 113.972 14.3068C113.308 13.527 112.412 13.1226 111.286 13.1226C110.159 13.1226 109.264 13.527 108.6 14.3068C107.936 15.1155 107.618 16.1263 107.618 17.3971C107.618 18.6679 107.936 19.7076 108.6 20.4874C109.264 21.2961 110.159 21.6716 111.286 21.6716C112.412 21.6716 113.308 21.2961 113.972 20.4874Z" fill="black"/>
<path d="M98.4539 10.7544C99.4936 11.3898 100.302 12.2562 100.88 13.4115C101.458 14.5667 101.775 15.9241 101.775 17.426C101.775 18.9567 101.458 20.2852 100.88 21.4116C100.302 22.5669 99.4936 23.4333 98.4539 24.0687C97.4141 24.7041 96.23 24.9929 94.9015 24.9929C92.9953 24.9929 91.4934 24.3287 90.4248 22.9423V30.5959H86.3525V9.97456H89.905L90.3093 12.0251C90.8003 11.3609 91.4357 10.8121 92.2155 10.4078C92.9953 10.0034 93.8906 9.80127 94.9303 9.80127C96.2589 9.80127 97.4141 10.119 98.4539 10.7544ZM96.6343 20.4874C97.2986 19.6787 97.6452 18.639 97.6452 17.3682C97.6452 16.0974 97.2986 15.0866 96.6343 14.3068C95.9412 13.527 95.0747 13.1226 93.9772 13.1226C92.8798 13.1226 91.9844 13.527 91.349 14.3068C90.6848 15.0866 90.3671 16.0974 90.3671 17.3682C90.3671 18.6679 90.6848 19.7076 91.349 20.4874C91.9844 21.2961 92.8798 21.6716 93.9772 21.6716C95.0747 21.6716 95.9412 21.2961 96.6343 20.4874Z" fill="black"/>
<path d="M73.4748 9.97461L77.085 20.6319L80.6085 9.97461H84.9696L78.3847 26.928C78.0381 27.8522 77.6915 28.5454 77.4027 29.0653C77.085 29.5851 76.6806 29.9606 76.2185 30.2205C75.7564 30.4805 75.1499 30.596 74.399 30.596H70.4422V27.1591H72.695C73.2149 27.1591 73.5903 27.0724 73.8214 26.8992C74.0524 26.7259 74.2546 26.4082 74.4857 25.8883L74.8611 24.9063L69.1426 9.97461H73.4748Z" fill="black"/>
<path d="M66.8242 11.4186C67.9506 12.5161 68.5282 14.2778 68.5282 16.7616V24.8196H64.4559V16.9349C64.4559 15.7219 64.196 14.7688 63.705 14.1334C63.1851 13.498 62.4342 13.1515 61.4523 13.1515C60.4125 13.1515 59.575 13.5269 58.9973 14.2201C58.4197 14.9421 58.1309 15.9241 58.1309 17.1949V24.8196H54.0586V4.60254H58.1309V11.794C59.2284 10.4655 60.6725 9.80121 62.5209 9.80121C64.2538 9.80121 65.6978 10.35 66.8242 11.4186Z" fill="black"/>
</svg>
