<svg width="169" height="50" viewBox="0 0 169 50" fill="none" xmlns="http://www.w3.org/2000/svg">
<g clip-path="url(#clip0_2081_1031)">
<path fill-rule="evenodd" clip-rule="evenodd" d="M25.9651 4.88065V23.1425L40.5409 11.625C36.5537 7.29666 31.8174 5.09434 25.9651 4.88065ZM40.9036 37.7497C39.2716 35.9508 37.6503 34.141 35.9924 32.3682C33.4171 29.6142 30.179 28.5785 26.576 29.8257C23.04 31.049 21.1468 33.8684 21.0022 37.5971C20.9828 39.8757 20.9806 42.15 20.9806 44.4265C17.6151 43.6066 14.526 41.9058 12.0111 39.5007C10.7741 38.2229 9.67746 36.7881 8.75784 35.2596C7.19276 32.6582 6.05511 29.6317 5.84355 26.5768C5.45929 21.0034 7.11936 15.7483 10.8367 11.5836C13.4315 8.67692 17.1424 6.2849 20.9784 5.52172V21.0906C20.9784 21.4111 20.972 21.7317 20.9806 22.0544C21.0346 24.4748 21.3605 26.6618 23.7373 27.8262C26.004 28.9339 28.0073 28.0508 29.8444 26.5811C34.0712 23.2013 38.2699 19.7823 42.4773 16.3785C42.7428 16.1648 43.0083 15.9489 43.2717 15.7331C45.4434 19.1717 45.8557 23.8838 45.2793 27.8371C44.7655 31.3695 43.358 35.1157 40.9036 37.7497ZM26.045 44.9868C30.2416 44.8996 33.9567 43.624 37.3611 41.1491C35.6362 39.2259 33.9438 37.2678 32.124 35.4318C31.0187 34.3154 29.6004 34.0145 28.1131 34.4462C27.0121 34.7668 26.1616 35.5736 26.0968 36.7729C25.9457 39.5094 26.0277 42.2503 26.045 44.9868ZM25.8593 -0.0429527C39.4896 -0.0276891 50.3826 11.2717 50.3739 24.9785C50.3653 38.816 39.3083 49.9323 25.6132 49.8952C11.6376 49.8581 0.919475 38.6088 0.934586 24.5772C0.949697 10.8095 12.3672 -0.0582163 25.8593 -0.0429527Z" fill="black"/>
<path fill-rule="evenodd" clip-rule="evenodd" d="M160.454 11.7236C161.426 11.6865 162.391 11.7279 163.353 11.8479C164.316 11.9678 165.29 12.2033 166.281 12.5565C166.244 12.8705 166.225 13.1017 166.225 13.2499C166.225 13.3982 166.225 13.625 166.225 13.9303C166.225 14.2355 166.216 14.6978 166.197 15.3171C166.179 15.9363 166.132 16.8761 166.058 18.1343C165.471 17.8944 164.793 17.672 164.025 17.4671C163.256 17.2643 162.55 17.116 161.909 17.0222C161.542 16.9852 161.19 16.9939 160.851 17.0506C160.513 17.1051 160.215 17.2359 159.958 17.4387C159.757 17.6415 159.725 17.8552 159.861 18.0776C159.999 18.3 160.167 18.4745 160.37 18.6053L163.502 19.6323C164.163 19.8351 164.767 20.1229 165.316 20.4936C165.866 20.8643 166.341 21.2939 166.745 21.7845C167.149 22.2751 167.464 22.8159 167.693 23.409C167.921 24.0021 168.036 24.63 168.036 25.2973C168.055 26.2785 167.904 27.1616 167.582 27.9488C167.261 28.736 166.818 29.4206 166.25 30.0028C165.683 30.585 165.001 31.0582 164.204 31.418C163.407 31.78 162.542 32.0155 161.607 32.1267C161.48 32.1463 161.288 32.1594 161.031 32.1681C160.774 32.1768 160.5 32.1812 160.206 32.1812C159.656 32.1986 159.124 32.1899 158.613 32.1528C158.099 32.1158 157.633 32.0503 157.212 31.9588C156.718 31.8475 156.208 31.708 155.686 31.5423C155.163 31.3766 154.49 31.1345 153.665 30.8205L154.984 24.8525C155.258 24.944 155.535 25.0422 155.809 25.1446C156.083 25.2471 156.359 25.354 156.633 25.463L157.924 25.934C158.345 26.0997 158.762 26.2567 159.174 26.405C159.586 26.5533 160.031 26.6274 160.506 26.6274C160.8 26.6078 161.046 26.5402 161.249 26.4181C161.449 26.2981 161.568 26.0801 161.605 25.7661C161.605 25.5437 161.54 25.3453 161.413 25.1686C161.285 24.9942 161.123 24.8459 160.931 24.7238C160.739 24.6039 160.532 24.5014 160.314 24.4185C160.094 24.3357 159.884 24.2659 159.681 24.2114C158.82 24.0086 158.032 23.6706 157.318 23.1974C156.603 22.7265 155.986 22.1791 155.463 21.5599C154.941 20.9406 154.529 20.269 154.226 19.5473C153.924 18.8255 153.773 18.1038 153.773 17.382C153.773 16.7889 153.855 16.2154 154.021 15.6616C154.185 15.1056 154.447 14.5931 154.805 14.12C155.161 13.649 155.61 13.2325 156.152 12.8705C156.692 12.5107 157.339 12.236 158.088 12.0528C158.915 11.8348 159.703 11.7236 160.454 11.7236Z" fill="black"/>
<path fill-rule="evenodd" clip-rule="evenodd" d="M146.166 19.2528C146.166 18.7077 145.981 18.2454 145.607 17.8682C145.234 17.491 144.778 17.3034 144.236 17.3034H142.894V21.2305H144.236C144.778 21.2305 145.234 21.0365 145.607 20.6505C145.981 20.2646 146.166 19.7979 146.166 19.2528ZM153.914 32.1898H147.593C146.754 30.9469 146.061 29.9526 145.51 29.209C144.96 28.4655 144.513 27.9051 144.167 27.5279C143.822 27.1506 143.565 26.926 143.399 26.8497C143.231 26.7734 143.114 26.7843 143.049 26.8781C142.984 26.9718 142.952 27.1136 142.952 27.3011C142.952 27.4886 142.952 27.65 142.952 27.7808V32.1876H137.078V11.7061H144.77C145.666 11.7061 146.546 11.9219 147.412 12.3558C148.28 12.7898 149.029 13.3349 149.664 13.9956C150.41 14.7479 150.963 15.6048 151.328 16.5664C151.691 17.5258 151.863 18.5071 151.846 19.5036C151.827 20.5022 151.617 21.4857 151.218 22.456C150.816 23.4263 150.244 24.2963 149.497 25.0682L153.914 32.1898Z" fill="black"/>
<path fill-rule="evenodd" clip-rule="evenodd" d="M136.227 26.2588V32.1898H122.158V11.7104H136.227V17.6414H128.032V19.4774H134.884V24.449H128.032V26.2588H136.227Z" fill="black"/>
<path fill-rule="evenodd" clip-rule="evenodd" d="M115.155 11.7104H121.65L116.171 32.1898H108.942L103.463 11.7104H109.959L112.555 21.9501L115.155 11.7104Z" fill="black"/>
<path fill-rule="evenodd" clip-rule="evenodd" d="M99.5614 21.924C99.5614 21.3243 99.4492 20.7618 99.2247 20.2363C99.0002 19.7108 98.6979 19.255 98.3223 18.8756C97.9445 18.494 97.4955 18.1909 96.9753 17.9642C96.4529 17.7374 95.8959 17.624 95.3044 17.624C94.7108 17.624 94.1538 17.7374 93.6336 17.9642C93.1133 18.1909 92.6578 18.494 92.2714 18.8756C91.885 19.2572 91.5784 19.7108 91.3539 20.2363C91.1294 20.7639 91.0172 21.3265 91.0172 21.924C91.0172 22.5236 91.1294 23.0862 91.3539 23.6117C91.5784 24.1394 91.885 24.5973 92.2714 24.9876C92.6578 25.3779 93.1111 25.6875 93.6336 25.9143C94.156 26.1411 94.7129 26.2545 95.3044 26.2545C95.8981 26.2545 96.455 26.1411 96.9753 25.9143C97.4955 25.6875 97.9467 25.3779 98.3223 24.9876C98.7001 24.5973 99.0002 24.1394 99.2247 23.6117C99.4492 23.084 99.5614 22.5214 99.5614 21.924ZM95.2224 11.7104C96.6234 11.7104 97.9402 11.9787 99.1729 12.5129C100.403 13.0493 101.478 13.7798 102.396 14.7043C103.313 15.631 104.036 16.7147 104.565 17.9598C105.096 19.2027 105.36 20.5328 105.36 21.9501C105.36 23.3675 105.094 24.6954 104.565 25.9405C104.034 27.1834 103.311 28.2693 102.396 29.1938C101.478 30.1205 100.406 30.851 99.1729 31.3874C97.9424 31.9238 96.6256 32.1898 95.2224 32.1898C93.8214 32.1898 92.5045 31.9216 91.2719 31.3874C90.0414 30.851 88.9664 30.1205 88.0489 29.1938C87.1314 28.2671 86.4083 27.1834 85.8794 25.9405C85.3483 24.6976 85.085 23.3675 85.085 21.9501C85.085 20.5328 85.3505 19.2049 85.8794 17.9598C86.4104 16.7169 87.1336 15.631 88.0489 14.7043C88.9664 13.7776 90.0393 13.0471 91.2719 12.5129C92.5024 11.9787 93.8192 11.7104 95.2224 11.7104Z" fill="black"/>
<path fill-rule="evenodd" clip-rule="evenodd" d="M84.213 21.924C84.213 21.3243 84.1008 20.7618 83.8762 20.2363C83.6517 19.7108 83.3495 19.255 82.9739 18.8756C82.5961 18.494 82.1471 18.1909 81.6269 17.9642C81.1044 17.7374 80.5475 17.624 79.956 17.624C79.3623 17.624 78.8054 17.7374 78.2851 17.9642C77.7627 18.1909 77.3094 18.494 76.923 18.8756C76.5366 19.2572 76.23 19.7108 76.0055 20.2363C75.781 20.7639 75.6687 21.3265 75.6687 21.924C75.6687 22.5236 75.781 23.0862 76.0055 23.6117C76.23 24.1394 76.5366 24.5973 76.923 24.9876C77.3094 25.3779 77.7627 25.6875 78.2851 25.9143C78.8054 26.1411 79.3645 26.2545 79.956 26.2545C80.5496 26.2545 81.1066 26.1411 81.6269 25.9143C82.1493 25.6875 82.5983 25.3779 82.9739 24.9876C83.3517 24.5973 83.6517 24.1394 83.8762 23.6117C84.1008 23.084 84.213 22.5214 84.213 21.924ZM79.8718 11.7104C81.2728 11.7104 82.5896 11.9787 83.8223 12.5129C85.0528 13.0493 86.1278 13.7798 87.0431 14.7043C87.9606 15.631 88.6838 16.7147 89.2148 17.9598C89.7459 19.2027 90.0092 20.5328 90.0092 21.9501C90.0092 23.3675 89.7437 24.6954 89.2148 25.9405C88.6838 27.1834 87.9606 28.2693 87.0431 29.1938C86.1257 30.1205 85.0528 30.851 83.8223 31.3874C82.5918 31.9238 81.275 32.1898 79.8718 32.1898C78.4708 32.1898 77.1539 31.9216 75.9213 31.3874C74.6908 30.851 73.6158 30.1205 72.6983 29.1938C71.7809 28.2671 71.0577 27.1834 70.5288 25.9405C69.9977 24.6976 69.7344 23.3675 69.7344 21.9501C69.7344 20.5328 69.9999 19.2049 70.5288 17.9598C71.0598 16.7169 71.783 15.631 72.6983 14.7043C73.6158 13.7776 74.6887 13.0471 75.9213 12.5129C77.1539 11.9787 78.4708 11.7104 79.8718 11.7104Z" fill="black"/>
<path fill-rule="evenodd" clip-rule="evenodd" d="M72.753 11.7104L67.5223 21.9349L72.753 32.1898H66.1256L62.404 24.9026V32.1898H56.5322V11.7104H62.404V18.9977L66.1256 11.7104H72.753Z" fill="black"/>
<path d="M58.5043 40.8681V36.0775H56.9004V35.6479H60.594V36.0775H58.99V40.8681H58.5043Z" fill="black"/>
<path d="M61.1426 40.8681V35.6479H61.5808V37.6889C61.719 37.4643 61.8917 37.2942 62.0967 37.1787C62.3018 37.0631 62.5393 37.0042 62.8091 37.0042C63.0574 37.0042 63.2797 37.0522 63.4762 37.146C63.6726 37.2397 63.8216 37.3706 63.9252 37.5363C63.9792 37.6257 64.018 37.7369 64.0418 37.8655C64.0655 37.9964 64.0763 38.2319 64.0763 38.5742V40.8659H63.6381V38.5807C63.6381 38.1097 63.5712 37.7958 63.4373 37.6366C63.3035 37.4774 63.066 37.3967 62.7249 37.3967C62.3774 37.3967 62.0989 37.5101 61.8917 37.7347C61.6844 37.9593 61.5808 38.2624 61.5808 38.644V40.8659H61.1426V40.8681Z" fill="black"/>
<path d="M65.281 39.0669V39.0887C65.281 39.5488 65.3911 39.9152 65.6113 40.1899C65.8315 40.4625 66.1251 40.5998 66.4964 40.5998C66.7878 40.5998 67.0339 40.5192 67.2303 40.36C67.4268 40.2008 67.5455 39.9828 67.5887 39.7058H68.0204C67.9729 40.0896 67.811 40.3949 67.5282 40.626C67.2476 40.8571 66.8936 40.9705 66.4683 40.9705C65.961 40.9705 65.5638 40.7961 65.2745 40.4494C64.9874 40.1027 64.8428 39.6208 64.8428 39.0037C64.8428 38.3757 64.9874 37.8851 65.2767 37.534C65.566 37.183 65.9675 37.0063 66.4813 37.0063C66.9821 37.0063 67.3707 37.1742 67.6513 37.5122C67.9298 37.848 68.0701 38.319 68.0701 38.9252V39.0669H65.281ZM65.2896 38.7159L67.6254 38.7202C67.606 38.3038 67.4959 37.9789 67.2908 37.7412C67.0857 37.5035 66.8137 37.3858 66.4748 37.3858C66.1337 37.3858 65.8552 37.5057 65.6415 37.7477C65.4278 37.9876 65.3091 38.3103 65.2896 38.7159Z" fill="black"/>
<path d="M70.5969 39.2872H71.0697C71.074 39.6993 71.2035 40.0176 71.4561 40.2444C71.7086 40.4712 72.0648 40.5846 72.5225 40.5846C72.924 40.5846 73.2413 40.493 73.4723 40.3098C73.7033 40.1267 73.8177 39.8737 73.8177 39.5532C73.8177 39.2545 73.7378 39.0277 73.5759 38.8729C73.414 38.7159 73.0924 38.5763 72.611 38.452L72.1188 38.3277C71.5899 38.1904 71.2251 38.0159 71.0222 37.8044C70.8192 37.5929 70.7178 37.2964 70.7178 36.9126C70.7178 36.4896 70.871 36.1516 71.1776 35.8965C71.4841 35.6413 71.8943 35.5127 72.4059 35.5127C72.9477 35.5127 73.373 35.6522 73.6774 35.9314C73.9818 36.2105 74.1394 36.6008 74.1458 37.1001H73.6644C73.658 36.7294 73.5436 36.4438 73.3212 36.241C73.0989 36.0382 72.7858 35.9379 72.3843 35.9379C72.0044 35.9379 71.7129 36.0251 71.5036 36.1974C71.2963 36.3696 71.1905 36.6139 71.1905 36.9278C71.1905 37.1655 71.2575 37.3552 71.3935 37.4926C71.5295 37.63 71.754 37.7412 72.067 37.8197L72.6714 37.9723C73.2672 38.1228 73.686 38.3146 73.9278 38.5458C74.1696 38.7769 74.2883 39.0953 74.2883 39.503C74.2883 39.9718 74.1307 40.3404 73.8134 40.6086C73.4961 40.8789 73.0622 41.012 72.5138 41.012C71.8986 41.012 71.4258 40.8659 71.0934 40.5737C70.7609 40.2815 70.5947 39.865 70.5947 39.3221V39.2872H70.5969Z" fill="black"/>
<path d="M75.0996 40.868V37.1023H75.5033V37.7259C75.6285 37.4948 75.7926 37.316 75.9955 37.1917C76.1984 37.0674 76.4272 37.0063 76.6863 37.0063C76.9648 37.0063 77.1957 37.0718 77.3792 37.2004C77.5627 37.3291 77.6858 37.5122 77.7462 37.7477C77.8693 37.5079 78.0355 37.3225 78.2384 37.1961C78.4435 37.0696 78.6788 37.0063 78.9443 37.0063C79.348 37.0063 79.6502 37.1088 79.851 37.3138C80.0518 37.5188 80.1511 37.8284 80.1511 38.2449V40.8702H79.7128V38.2798C79.7128 37.9636 79.6524 37.7368 79.5315 37.5994C79.4106 37.4621 79.2098 37.3945 78.9314 37.3945C78.6011 37.3945 78.3377 37.497 78.1391 37.7019C77.9405 37.9069 77.8412 38.1773 77.8412 38.5109V40.8702H77.4095V38.3234C77.4095 38.0116 77.3447 37.7804 77.2173 37.6278C77.09 37.4773 76.8914 37.401 76.6258 37.401C76.2999 37.401 76.0343 37.5057 75.8336 37.7172C75.6307 37.9265 75.5314 38.2035 75.5314 38.5436V40.8724H75.0996V40.868Z" fill="black"/>
<path d="M83.5205 40.321C83.324 40.5368 83.1103 40.696 82.8815 40.8028C82.6527 40.9097 82.4066 40.962 82.141 40.962C81.7654 40.962 81.4654 40.8617 81.2409 40.6633C81.0185 40.4649 80.9062 40.201 80.9062 39.8696C80.9062 39.6537 80.9581 39.4662 81.0595 39.307C81.161 39.1457 81.3099 39.0192 81.5042 38.9276C81.7266 38.8251 82.0979 38.7553 82.616 38.7139C82.7174 38.7074 82.793 38.7008 82.8448 38.6965C82.875 38.6899 82.916 38.6812 82.9678 38.6725C83.324 38.5983 83.501 38.4435 83.501 38.208C83.501 37.9158 83.4298 37.7065 83.2852 37.58C83.1405 37.4536 82.9052 37.3903 82.5749 37.3903C82.2403 37.3903 81.9835 37.4601 81.8064 37.6019C81.6294 37.7414 81.5323 37.9507 81.5193 38.2277L81.0941 38.2233C81.1027 37.8483 81.2409 37.5517 81.5042 37.3315C81.7676 37.1134 82.1259 37.0044 82.5749 37.0044C83.0218 37.0044 83.3607 37.1003 83.5917 37.2944C83.8227 37.4885 83.9393 37.7719 83.9393 38.1448V40.201C83.9393 40.3558 83.9587 40.454 83.9954 40.491C84.0321 40.5281 84.1033 40.5477 84.207 40.5477C84.2393 40.5477 84.2674 40.5477 84.2911 40.5455C84.3149 40.5434 84.3386 40.5434 84.3645 40.5412V40.8661C84.3106 40.877 84.2566 40.8857 84.2026 40.8922C84.1487 40.8988 84.099 40.901 84.0558 40.901C83.8788 40.901 83.745 40.8574 83.6565 40.7701C83.568 40.6829 83.5226 40.5521 83.5226 40.3798V40.321H83.5205ZM83.4924 38.8949C83.378 38.9385 83.2312 38.9712 83.052 38.9974C82.8729 39.0235 82.5857 39.0475 82.1864 39.0672C81.9101 39.1413 81.7028 39.2438 81.5625 39.379C81.4222 39.5142 81.3509 39.6755 81.3509 39.8652C81.3509 40.0811 81.4265 40.2512 81.5776 40.3798C81.7287 40.5085 81.9338 40.5717 82.1929 40.5717C82.5879 40.5717 82.9031 40.4692 83.1384 40.2621C83.3737 40.0549 83.4903 39.7736 83.4903 39.416V38.8949H83.4924Z" fill="black"/>
<path d="M84.9443 40.8683V37.1025H85.3631V37.7589C85.4711 37.5059 85.62 37.3162 85.81 37.1919C85.9999 37.0676 86.2352 37.0044 86.5137 37.0044H86.5634V37.4623H86.5072C86.1359 37.4623 85.8575 37.5735 85.6697 37.7959C85.484 38.0183 85.3912 38.3498 85.3912 38.7924V40.8683H84.9443Z" fill="black"/>
<path d="M87.7193 36.0205V37.102H88.4101V37.4574H87.7193V40.2027C87.7193 40.3641 87.7388 40.4687 87.7798 40.5211C87.8186 40.5734 87.8899 40.5996 87.9935 40.5996C88.0388 40.5996 88.0885 40.5952 88.1446 40.5865C88.2007 40.5777 88.2892 40.5603 88.408 40.5341L88.4123 40.8808C88.3065 40.9092 88.2115 40.9288 88.1252 40.9419C88.0388 40.955 87.9568 40.9615 87.8791 40.9615C87.6632 40.9615 87.5121 40.907 87.4236 40.7958C87.3351 40.6868 87.2897 40.4862 87.2897 40.1983V37.4531H86.7803V37.0976H87.2897V36.0161H87.7193V36.0205Z" fill="black"/>
<path d="M89.3494 39.0669V39.0887C89.3494 39.5488 89.4594 39.9152 89.6796 40.1899C89.8998 40.4625 90.1934 40.5998 90.5647 40.5998C90.8561 40.5998 91.1022 40.5192 91.2987 40.36C91.4951 40.2008 91.6139 39.9828 91.657 39.7058H92.0888C92.0413 40.0896 91.8772 40.3949 91.5966 40.626C91.3159 40.8571 90.9619 40.9705 90.5366 40.9705C90.0293 40.9705 89.6321 40.7961 89.3429 40.4494C89.0558 40.1027 88.9111 39.6208 88.9111 39.0037C88.9111 38.3757 89.0558 37.8851 89.345 37.534C89.6343 37.183 90.0358 37.0063 90.5496 37.0063C91.0504 37.0063 91.4412 37.1742 91.7196 37.5122C91.9981 37.848 92.1384 38.319 92.1384 38.9252V39.0669H89.3494ZM89.358 38.7159L91.6937 38.7202C91.6743 38.3038 91.5642 37.9789 91.3591 37.7412C91.154 37.5035 90.882 37.3858 90.5431 37.3858C90.202 37.3858 89.9236 37.5057 89.7099 37.7477C89.4961 37.9876 89.3774 38.3103 89.358 38.7159Z" fill="black"/>
<path d="M92.9062 40.8683V37.1025H93.3229V37.7589C93.4308 37.5059 93.5798 37.3162 93.7697 37.1919C93.9597 37.0676 94.195 37.0044 94.4735 37.0044H94.5231V37.4623H94.467C94.0957 37.4623 93.8172 37.5735 93.6294 37.7959C93.4438 38.0183 93.3509 38.3498 93.3509 38.7924V40.8683H92.9062Z" fill="black"/>
<path d="M97.1182 40.8681V35.6479H100.501V36.0775H97.5931V37.9811H100.253V38.3954H97.5931V40.4407H100.589V40.8703H97.1182V40.8681Z" fill="black"/>
<path d="M100.889 40.868L102.197 38.9361L100.945 37.1001H101.484L102.462 38.6025L103.423 37.1001H103.945L102.724 38.9295L104.081 40.868H103.537L102.467 39.2697L101.4 40.868H100.889Z" fill="black"/>
<path d="M104.587 42.3837V37.1003H105.025V37.7763C105.165 37.5146 105.342 37.3206 105.554 37.1941C105.768 37.0676 106.025 37.0044 106.327 37.0044C106.838 37.0044 107.242 37.181 107.538 37.5343C107.834 37.8875 107.98 38.3716 107.98 38.9887C107.98 39.6057 107.831 40.0898 107.534 40.4409C107.236 40.7919 106.828 40.9686 106.307 40.9686C106.02 40.9686 105.77 40.9053 105.561 40.781C105.349 40.6568 105.172 40.4671 105.027 40.2141V42.3837H104.587ZM105.006 38.9887C105.006 39.488 105.116 39.8783 105.338 40.1596C105.561 40.4409 105.867 40.5826 106.26 40.5826C106.666 40.5826 106.979 40.4452 107.199 40.1683C107.417 39.8914 107.527 39.4989 107.527 38.9887C107.527 38.4784 107.417 38.0837 107.197 37.8068C106.977 37.5299 106.666 37.3903 106.26 37.3903C105.858 37.3903 105.548 37.5277 105.33 37.8046C105.114 38.0816 105.006 38.4762 105.006 38.9887Z" fill="black"/>
<path d="M108.994 39.0669V39.0887C108.994 39.5488 109.104 39.9152 109.324 40.1899C109.544 40.4625 109.838 40.5998 110.209 40.5998C110.5 40.5998 110.747 40.5192 110.943 40.36C111.139 40.2008 111.258 39.9828 111.301 39.7058H111.733C111.686 40.0896 111.524 40.3949 111.243 40.626C110.962 40.8571 110.608 40.9705 110.183 40.9705C109.676 40.9705 109.279 40.7961 108.989 40.4494C108.702 40.1027 108.558 39.6208 108.558 39.0037C108.558 38.3757 108.702 37.8851 108.992 37.534C109.281 37.183 109.682 37.0063 110.196 37.0063C110.697 37.0063 111.088 37.1742 111.366 37.5122C111.645 37.848 111.785 38.319 111.785 38.9252V39.0669H108.994ZM109.002 38.7159L111.338 38.7202C111.319 38.3038 111.209 37.9789 111.003 37.7412C110.798 37.5035 110.526 37.3858 110.187 37.3858C109.846 37.3858 109.568 37.5057 109.354 37.7477C109.14 37.9876 109.022 38.3103 109.002 38.7159Z" fill="black"/>
<path d="M112.549 40.8683V37.1025H112.965V37.7589C113.073 37.5059 113.222 37.3162 113.412 37.1919C113.602 37.0676 113.838 37.0044 114.116 37.0044H114.166V37.4623H114.11C113.738 37.4623 113.46 37.5735 113.272 37.7959C113.086 38.0183 112.994 38.3498 112.994 38.7924V40.8683H112.549Z" fill="black"/>
<path d="M114.799 36.3043V35.6479H115.226V36.3043H114.799ZM114.799 40.8681V37.1023H115.226V40.8681H114.799Z" fill="black"/>
<path d="M116.488 39.0669V39.0887C116.488 39.5488 116.598 39.9152 116.818 40.1899C117.039 40.4625 117.332 40.5998 117.703 40.5998C117.995 40.5998 118.241 40.5192 118.437 40.36C118.634 40.2008 118.753 39.9828 118.796 39.7058H119.227C119.18 40.0896 119.016 40.3949 118.735 40.626C118.455 40.8571 118.101 40.9705 117.675 40.9705C117.168 40.9705 116.771 40.7961 116.482 40.4494C116.194 40.1027 116.05 39.6208 116.05 39.0037C116.05 38.3757 116.194 37.8851 116.484 37.534C116.773 37.183 117.175 37.0063 117.688 37.0063C118.189 37.0063 118.58 37.1742 118.858 37.5122C119.137 37.848 119.277 38.319 119.277 38.9252V39.0669H116.488ZM116.495 38.7159L118.83 38.7202C118.811 38.3038 118.701 37.9789 118.496 37.7412C118.291 37.5035 118.019 37.3858 117.68 37.3858C117.339 37.3858 117.06 37.5057 116.846 37.7477C116.633 37.9876 116.516 38.3103 116.495 38.7159Z" fill="black"/>
<path d="M120.041 40.868V37.1023H120.458V37.7041C120.598 37.473 120.771 37.2985 120.978 37.1808C121.183 37.063 121.423 37.0063 121.695 37.0063C121.951 37.0063 122.178 37.0521 122.372 37.1437C122.567 37.2353 122.716 37.3661 122.817 37.5362C122.871 37.6234 122.91 37.7303 122.934 37.8524C122.957 37.9767 122.968 38.1795 122.968 38.4629V38.572V40.8637H122.524V38.5283C122.524 38.0857 122.457 37.787 122.323 37.63C122.189 37.473 121.951 37.3945 121.613 37.3945C121.265 37.3945 120.989 37.5057 120.786 37.7303C120.583 37.9527 120.481 38.258 120.481 38.6417V40.8637H120.041V40.868Z" fill="black"/>
<path d="M126.48 39.5665H126.912C126.873 39.9982 126.714 40.3406 126.439 40.5892C126.163 40.8377 125.805 40.962 125.362 40.962C124.857 40.962 124.46 40.7876 124.168 40.4365C123.877 40.0876 123.732 39.6101 123.732 39.0083C123.732 38.3847 123.879 37.894 124.177 37.5386C124.473 37.181 124.879 37.0044 125.392 37.0044C125.811 37.0044 126.155 37.1221 126.427 37.3598C126.696 37.5975 126.843 37.9093 126.863 38.2974H126.448C126.414 38.0227 126.299 37.8046 126.107 37.6389C125.915 37.4732 125.675 37.3903 125.392 37.3903C125.021 37.3903 124.725 37.5321 124.507 37.8155C124.289 38.099 124.179 38.485 124.179 38.9712C124.179 39.4706 124.289 39.8652 124.512 40.1552C124.732 40.4452 125.03 40.5913 125.401 40.5913C125.69 40.5913 125.932 40.4998 126.126 40.3188C126.316 40.1356 126.435 39.887 126.48 39.5665Z" fill="black"/>
<path d="M127.877 39.0669V39.0887C127.877 39.5488 127.987 39.9152 128.207 40.1899C128.427 40.4625 128.721 40.5998 129.092 40.5998C129.383 40.5998 129.63 40.5192 129.826 40.36C130.022 40.2008 130.141 39.9828 130.184 39.7058H130.616C130.569 40.0896 130.405 40.3949 130.124 40.626C129.843 40.8571 129.489 40.9705 129.064 40.9705C128.557 40.9705 128.159 40.7961 127.87 40.4494C127.583 40.1027 127.438 39.6208 127.438 39.0037C127.438 38.3757 127.583 37.8851 127.872 37.534C128.162 37.183 128.563 37.0063 129.077 37.0063C129.578 37.0063 129.969 37.1742 130.247 37.5122C130.525 37.848 130.666 38.319 130.666 38.9252V39.0669H127.877ZM127.883 38.7159L130.219 38.7202C130.199 38.3038 130.089 37.9789 129.884 37.7412C129.679 37.5035 129.407 37.3858 129.068 37.3858C128.727 37.3858 128.449 37.5057 128.235 37.7477C128.021 37.9876 127.905 38.3103 127.883 38.7159Z" fill="black"/>
<path d="M133.388 36.3043V35.6479H133.815V36.3043H133.388ZM133.388 40.8681V37.1023H133.815V40.8681H133.388Z" fill="black"/>
<path d="M134.82 40.868V37.1023H135.237V37.7041C135.377 37.473 135.55 37.2985 135.757 37.1808C135.962 37.063 136.202 37.0063 136.474 37.0063C136.731 37.0063 136.957 37.0521 137.152 37.1437C137.346 37.2353 137.495 37.3661 137.596 37.5362C137.65 37.6234 137.689 37.7303 137.713 37.8524C137.737 37.9767 137.748 38.1795 137.748 38.4629V38.572V40.8637H137.303V38.5283C137.303 38.0857 137.236 37.787 137.102 37.63C136.968 37.473 136.731 37.3945 136.392 37.3945C136.044 37.3945 135.768 37.5057 135.565 37.7303C135.362 37.9527 135.261 38.258 135.261 38.6417V40.8637H134.82V40.868Z" fill="black"/>
<path d="M144.321 39.1626H144.787C144.748 39.7405 144.546 40.194 144.183 40.5211C143.82 40.8482 143.332 41.0117 142.726 41.0117C142.031 41.0117 141.482 40.7653 141.081 40.2725C140.679 39.7797 140.479 39.1059 140.479 38.2468C140.479 37.3964 140.681 36.727 141.087 36.2407C141.493 35.7545 142.044 35.5103 142.741 35.5103C143.326 35.5103 143.799 35.6607 144.159 35.9616C144.52 36.2625 144.714 36.6659 144.74 37.1718H144.274C144.235 36.788 144.077 36.4871 143.803 36.2669C143.529 36.0467 143.175 35.9355 142.741 35.9355C142.182 35.9355 141.748 36.1361 141.435 36.5395C141.124 36.9429 140.969 37.5076 140.969 38.2381C140.969 38.9729 141.126 39.5486 141.443 39.9629C141.761 40.3793 142.199 40.5865 142.758 40.5865C143.214 40.5865 143.581 40.46 143.857 40.2071C144.133 39.9585 144.289 39.6096 144.321 39.1626Z" fill="black"/>
<path d="M148.031 40.321C147.835 40.5368 147.621 40.696 147.392 40.8028C147.163 40.9097 146.915 40.962 146.652 40.962C146.276 40.962 145.976 40.8617 145.752 40.6633C145.527 40.4649 145.417 40.201 145.417 39.8696C145.417 39.6537 145.469 39.4662 145.57 39.307C145.672 39.1457 145.821 39.0192 146.015 38.9276C146.237 38.8251 146.609 38.7553 147.127 38.7139C147.228 38.7074 147.304 38.7008 147.356 38.6965C147.386 38.6899 147.427 38.6812 147.479 38.6725C147.835 38.5983 148.012 38.4435 148.012 38.208C148.012 37.9158 147.941 37.7065 147.796 37.58C147.651 37.4536 147.416 37.3903 147.086 37.3903C146.751 37.3903 146.494 37.4601 146.317 37.6019C146.14 37.7414 146.043 37.9507 146.03 38.2277L145.605 38.2233C145.613 37.8483 145.752 37.5517 146.015 37.3315C146.278 37.1134 146.637 37.0044 147.086 37.0044C147.533 37.0044 147.871 37.1003 148.102 37.2944C148.333 37.4885 148.45 37.7719 148.45 38.1448V40.201C148.45 40.3558 148.469 40.454 148.506 40.491C148.543 40.5281 148.614 40.5477 148.718 40.5477C148.75 40.5477 148.778 40.5477 148.802 40.5455C148.826 40.5434 148.849 40.5434 148.875 40.5412V40.8661C148.821 40.877 148.767 40.8857 148.713 40.8922C148.659 40.8988 148.61 40.901 148.567 40.901C148.39 40.901 148.256 40.8574 148.167 40.7701C148.079 40.6829 148.033 40.5521 148.033 40.3798V40.321H148.031ZM148.003 38.8949C147.889 38.9385 147.742 38.9712 147.563 38.9974C147.384 39.0235 147.096 39.0475 146.697 39.0672C146.421 39.1413 146.214 39.2438 146.073 39.379C145.933 39.5142 145.864 39.6755 145.864 39.8652C145.864 40.0811 145.939 40.2512 146.091 40.3798C146.242 40.5085 146.447 40.5717 146.706 40.5717C147.101 40.5717 147.416 40.4692 147.651 40.2621C147.887 40.0549 148.003 39.7736 148.003 39.416V38.8949Z" fill="black"/>
<path d="M149.457 40.8683V37.1025H149.874V37.7589C149.982 37.5059 150.131 37.3162 150.321 37.1919C150.511 37.0676 150.746 37.0044 151.024 37.0044H151.074V37.4623H151.018C150.646 37.4623 150.368 37.5735 150.18 37.7959C149.995 38.0183 149.902 38.3498 149.902 38.7924V40.8683H149.457Z" fill="black"/>
<path d="M157.291 39.1631H157.757C157.718 39.7409 157.516 40.1945 157.153 40.5216C156.79 40.8486 156.302 41.0122 155.696 41.0122C155.001 41.0122 154.452 40.7658 154.051 40.273C153.649 39.7802 153.446 39.1064 153.446 38.2473C153.446 37.3969 153.649 36.7275 154.055 36.2412C154.461 35.755 155.011 35.5107 155.709 35.5107C156.294 35.5107 156.766 35.6612 157.127 35.9621C157.487 36.263 157.682 36.6664 157.708 37.1723H157.241C157.202 36.7885 157.045 36.4876 156.771 36.2674C156.497 36.0471 156.143 35.9359 155.709 35.9359C155.15 35.9359 154.716 36.1366 154.403 36.5399C154.092 36.9433 153.936 37.5081 153.936 38.2386C153.936 38.9734 154.094 39.5491 154.411 39.9634C154.729 40.3798 155.167 40.587 155.726 40.587C156.181 40.587 156.548 40.4605 156.825 40.2076C157.103 39.959 157.259 39.6101 157.291 39.1631Z" fill="black"/>
<path d="M161.002 40.321C160.805 40.5368 160.592 40.696 160.363 40.8028C160.134 40.9097 159.886 40.962 159.622 40.962C159.247 40.962 158.947 40.8617 158.722 40.6633C158.498 40.4649 158.388 40.201 158.388 39.8696C158.388 39.6537 158.439 39.4662 158.541 39.307C158.642 39.1457 158.791 39.0192 158.986 38.9276C159.208 38.8251 159.579 38.7553 160.097 38.7139C160.199 38.7074 160.274 38.7008 160.326 38.6965C160.356 38.6899 160.397 38.6812 160.449 38.6725C160.805 38.5983 160.982 38.4435 160.982 38.208C160.982 37.9158 160.911 37.7065 160.767 37.58C160.622 37.4536 160.387 37.3903 160.056 37.3903C159.722 37.3903 159.465 37.4601 159.288 37.6019C159.111 37.7414 159.014 37.9507 159.001 38.2277L158.576 38.2233C158.584 37.8483 158.722 37.5517 158.986 37.3315C159.249 37.1134 159.607 37.0044 160.056 37.0044C160.503 37.0044 160.842 37.1003 161.073 37.2944C161.304 37.4885 161.421 37.7719 161.421 38.1448V40.201C161.421 40.3558 161.44 40.454 161.477 40.491C161.514 40.5281 161.585 40.5477 161.688 40.5477C161.721 40.5477 161.749 40.5477 161.773 40.5455C161.796 40.5434 161.82 40.5434 161.846 40.5412V40.8661C161.792 40.877 161.738 40.8857 161.684 40.8922C161.63 40.8988 161.58 40.901 161.537 40.901C161.36 40.901 161.226 40.8574 161.138 40.7701C161.049 40.6829 161.004 40.5521 161.004 40.3798V40.321H161.002ZM160.974 38.8949C160.859 38.9385 160.713 38.9712 160.533 38.9974C160.354 39.0235 160.067 39.0475 159.668 39.0672C159.392 39.1413 159.184 39.2438 159.044 39.379C158.904 39.5142 158.832 39.6755 158.832 39.8652C158.832 40.0811 158.908 40.2512 159.059 40.3798C159.21 40.5085 159.415 40.5717 159.674 40.5717C160.069 40.5717 160.385 40.4692 160.62 40.2621C160.855 40.0549 160.972 39.7736 160.972 39.416V38.8949H160.974Z" fill="black"/>
<path d="M162.426 40.8683V37.1025H162.842V37.7589C162.95 37.5059 163.099 37.3162 163.289 37.1919C163.479 37.0676 163.715 37.0044 163.993 37.0044H164.043V37.4623H163.987C163.615 37.4623 163.337 37.5735 163.149 37.7959C162.963 38.0183 162.87 38.3498 162.87 38.7924V40.8683H162.426Z" fill="black"/>
<path d="M164.885 39.0669V39.0887C164.885 39.5488 164.995 39.9152 165.216 40.1899C165.436 40.4625 165.729 40.5998 166.101 40.5998C166.392 40.5998 166.638 40.5192 166.835 40.36C167.031 40.2008 167.15 39.9828 167.193 39.7058H167.625C167.577 40.0896 167.415 40.3949 167.135 40.626C166.854 40.8571 166.5 40.9705 166.075 40.9705C165.567 40.9705 165.17 40.7961 164.881 40.4494C164.594 40.1027 164.449 39.6208 164.449 39.0037C164.449 38.3757 164.594 37.8851 164.883 37.534C165.172 37.183 165.574 37.0063 166.088 37.0063C166.589 37.0063 166.979 37.1742 167.258 37.5122C167.536 37.848 167.677 38.319 167.677 38.9252V39.0669H164.885ZM164.894 38.7159L167.23 38.7202C167.21 38.3038 167.1 37.9789 166.895 37.7412C166.69 37.5035 166.418 37.3858 166.079 37.3858C165.738 37.3858 165.46 37.5057 165.246 37.7477C165.032 37.9876 164.913 38.3103 164.894 38.7159Z" fill="black"/>
</g>
<defs>
<clipPath id="clip0_2081_1031">
<rect width="167.086" height="49.9338" fill="white" transform="translate(0.957031 0.0356445)"/>
</clipPath>
</defs>
</svg>
