<svg width="159" height="50" viewBox="0 0 159 50" fill="none" xmlns="http://www.w3.org/2000/svg">
<g clip-path="url(#clip0_2081_1025)">
<path d="M26.5529 38.6062C24.0177 38.6062 21.7964 38.0498 19.889 36.9371C18.0057 35.8244 16.5209 34.2883 15.4344 32.329C14.3721 30.3454 13.8408 28.0595 13.8408 25.4712C13.8408 22.8829 14.3721 20.6091 15.4344 18.6496C16.5209 16.6661 18.0057 15.118 19.889 14.0052C21.7964 12.8925 24.0177 12.3362 26.5529 12.3362C29.064 12.3362 31.2731 12.8925 33.1805 14.0052C35.0879 15.118 36.5728 16.6661 37.6351 18.6496C38.6976 20.6091 39.2287 22.8829 39.2287 25.4712C39.2287 28.0595 38.6976 30.3454 37.6351 32.329C36.5728 34.2883 35.0879 35.8244 33.1805 36.9371C31.2731 38.0498 29.064 38.6062 26.5529 38.6062ZM26.5529 34.4335C28.9673 34.4335 30.8869 33.6353 32.3114 32.0387C33.76 30.4422 34.4844 28.2531 34.4844 25.4712C34.4844 22.6893 33.76 20.5002 32.3114 18.9037C30.8869 17.3071 28.9673 16.5089 26.5529 16.5089C24.1385 16.5089 22.2069 17.3071 20.7583 18.9037C19.3096 20.5002 18.5853 22.6893 18.5853 25.4712C18.5853 28.2531 19.3096 30.4422 20.7583 32.0387C22.2069 33.6353 24.1385 34.4335 26.5529 34.4335ZM51.6878 38.6062C50.3357 38.6062 49.1526 38.3522 48.1386 37.8442C47.1245 37.3363 46.3036 36.6227 45.6759 35.7035L45.1689 38.1708H41.0401V12.0459H45.6759V22.7498C46.2553 21.9516 47.0159 21.2501 47.9575 20.6453C48.9233 20.0406 50.1668 19.7382 51.6878 19.7382C53.3779 19.7382 54.887 20.1495 56.2149 20.9719C57.5428 21.7944 58.5931 22.9192 59.3657 24.3464C60.1383 25.7736 60.5247 27.3942 60.5247 29.2085C60.5247 31.0228 60.1383 32.6434 59.3657 34.0706C58.5931 35.4736 57.5428 36.5864 56.2149 37.4088C54.887 38.2071 53.3779 38.6062 51.6878 38.6062ZM50.7099 34.5424C52.1827 34.5424 53.4021 34.0464 54.3678 33.0547C55.3336 32.0629 55.8165 30.7809 55.8165 29.2085C55.8165 27.6361 55.3336 26.3421 54.3678 25.326C53.4021 24.3101 52.1827 23.8021 50.7099 23.8021C49.213 23.8021 47.9817 24.3101 47.0159 25.326C46.0742 26.3178 45.6034 27.5999 45.6034 29.1722C45.6034 30.7446 46.0742 32.0387 47.0159 33.0547C47.9817 34.0464 49.213 34.5424 50.7099 34.5424ZM66.4617 38.1708L59.8702 20.1737H64.7232L69.2865 33.7803L73.8498 20.1737H78.7029L72.0753 38.1708H66.4617Z" fill="black"/>
<path d="M98.6345 38.6058C96.8961 38.6058 95.3268 38.2067 93.9264 37.4084C92.5502 36.6101 91.4516 35.5095 90.6306 34.1065C89.8339 32.6793 89.4355 31.0344 89.4355 29.1718C89.4355 27.3092 89.846 25.6763 90.6669 24.2733C91.4878 22.8461 92.5864 21.7335 93.9626 20.9351C95.363 20.1369 96.9324 19.7378 98.6708 19.7378C100.385 19.7378 101.93 20.1369 103.307 20.9351C104.707 21.7335 105.805 22.8461 106.602 24.2733C107.423 25.6763 107.834 27.3092 107.834 29.1718C107.834 31.0344 107.423 32.6793 106.602 34.1065C105.805 35.5095 104.707 36.6101 103.307 37.4084C101.906 38.2067 100.349 38.6058 98.6345 38.6058ZM98.6345 34.5781C99.8417 34.5781 100.892 34.1307 101.785 33.2356C102.679 32.3165 103.125 30.9618 103.125 29.1718C103.125 27.3818 102.679 26.0392 101.785 25.1442C100.892 24.225 99.8539 23.7654 98.6708 23.7654C97.4394 23.7654 96.377 24.225 95.4837 25.1442C94.6145 26.0392 94.1799 27.3818 94.1799 29.1718C94.1799 30.9618 94.6145 32.3165 95.4837 33.2356C96.377 34.1307 97.4273 34.5781 98.6345 34.5781ZM127.117 20.1732V38.1704H123.024L122.663 35.1224C122.107 36.1868 121.298 37.0334 120.236 37.6624C119.198 38.2914 117.966 38.6058 116.542 38.6058C114.321 38.6058 112.594 37.9043 111.363 36.5013C110.131 35.0983 109.516 33.0422 109.516 30.3329V20.1732H114.151V29.8974C114.151 31.4456 114.465 32.6309 115.093 33.4533C115.721 34.2759 116.699 34.687 118.027 34.687C119.33 34.687 120.393 34.2275 121.214 33.3083C122.059 32.389 122.481 31.1069 122.481 29.4621V20.1732H127.117ZM137.091 38.6058C135.497 38.6058 134.097 38.3518 132.89 37.8438C131.682 37.3116 130.717 36.586 129.993 35.6667C129.268 34.7475 128.833 33.6832 128.689 32.4737H133.36C133.506 33.1752 133.892 33.7799 134.52 34.2879C135.171 34.7717 136.004 35.0136 137.019 35.0136C138.033 35.0136 138.769 34.808 139.227 34.3968C139.711 33.9856 139.952 33.5138 139.952 32.9817C139.952 32.2076 139.614 31.6875 138.938 31.4215C138.262 31.1312 137.32 30.853 136.113 30.5869C135.341 30.4176 134.556 30.212 133.759 29.9701C132.963 29.7282 132.225 29.4258 131.55 29.0629C130.898 28.6759 130.366 28.1921 129.956 27.6115C129.545 27.0068 129.34 26.269 129.34 25.3982C129.34 23.8017 129.969 22.4592 131.224 21.3706C132.503 20.2821 134.29 19.7378 136.584 19.7378C138.708 19.7378 140.399 20.2337 141.654 21.2255C142.934 22.2173 143.695 23.584 143.936 25.3256H139.554C139.288 23.9952 138.286 23.3299 136.547 23.3299C135.679 23.3299 135.002 23.4993 134.52 23.838C134.061 24.1766 133.831 24.5999 133.831 25.1079C133.831 25.6401 134.181 26.0634 134.882 26.3779C135.582 26.6924 136.511 26.9826 137.67 27.2487C138.926 27.539 140.073 27.8655 141.111 28.2283C142.173 28.5671 143.018 29.0872 143.646 29.7886C144.274 30.4659 144.587 31.4456 144.587 32.7277C144.612 33.8404 144.322 34.8443 143.719 35.7393C143.115 36.6343 142.246 37.3358 141.111 37.8438C139.977 38.3518 138.637 38.6058 137.091 38.6058Z" fill="black"/>
<path fill-rule="evenodd" clip-rule="evenodd" d="M86.9309 19.959H80.8721L81.8819 38.1695H85.9211L86.9309 19.959ZM83.8845 46.1646C85.4124 46.1646 86.6511 44.9237 86.6511 43.3929C86.6511 41.8621 85.4124 40.6211 83.8845 40.6211C82.3566 40.6211 81.118 41.8621 81.118 43.3929C81.118 44.9237 82.3566 46.1646 83.8845 46.1646Z" fill="black"/>
</g>
<defs>
<clipPath id="clip0_2081_1025">
<rect width="158.539" height="48.5614" fill="white" transform="translate(0.0917969 0.737305)"/>
</clipPath>
</defs>
</svg>
