<svg width="142" height="83" viewBox="0 0 142 83" fill="none" xmlns="http://www.w3.org/2000/svg">
<path fill-rule="evenodd" clip-rule="evenodd" d="M69.0737 67.2796C68.6583 67.1412 66.5925 66.2495 64.5988 66.2495C60.6721 66.2495 58.191 68.1049 56.2637 68.1049C54.4028 68.1049 54.1259 67.3461 54.1259 66.7978C54.1259 66.388 54.3308 65.8342 55.0895 65.8342C55.7763 65.8342 56.1917 66.0391 56.5683 66.3824L56.6735 66.2772C56.2969 65.5572 55.3665 65.0034 54.8126 65.0034C54.2643 65.0034 52.6084 65.6237 52.6084 67.0637C52.6084 68.5756 53.777 70.0875 56.0532 70.0875C58.9442 70.0875 62.7324 67.0637 65.6289 67.0637C67.2128 67.0637 68.3149 67.479 69.0737 67.6119V67.2796ZM70.6576 68.6531C70.3807 68.93 69.0848 69.7497 67.7445 71.4057C66.5704 72.8456 66.5039 74.2246 66.5039 76.2184C66.5039 77.1821 66.443 78.2842 66.299 78.8325C66.0664 79.7297 65.4738 80.0675 65.0584 80.3776L65.1249 80.4829C66.8473 79.9346 68.5697 78.8325 68.5697 76.2904C68.5697 75.3268 68.2928 74.7065 68.2928 73.333C68.2928 70.7189 70.3142 69.4839 70.6576 69.1405V68.6531ZM69.6275 68.3762C67.5617 68.9965 66.3212 69.8882 65.2855 70.9183C64.1834 71.9816 63.0813 74.0142 62.533 75.5261C61.7742 77.6584 60.8826 77.7248 60.3287 77.7248C60.0518 77.7248 59.7085 77.5864 59.4316 76.4898C59.1879 75.5261 58.9497 75.1163 58.5343 75.1163C57.9805 75.1163 57.6372 75.8363 57.5375 76.2516L57.6427 76.3569C57.7479 76.2516 57.9196 76.2184 58.0581 76.2184C58.4734 76.2184 58.6783 76.4953 59.0217 77.1821C59.6088 78.3506 60.1903 78.9709 61.0875 78.9709C62.4665 78.9709 63.6683 77.8688 64.5988 75.3267C65.5624 72.7127 66.3876 71.4057 67.5617 70.0986C68.11 69.4783 69.3506 68.8636 69.6275 68.7251V68.3762ZM69.0737 67.8944C68.6583 67.8279 68.3149 67.7559 67.9051 67.7559C64.9421 67.7559 62.3281 69.2014 60.6057 70.9183C58.1245 73.3939 57.0224 73.7373 56.3357 73.7373C55.8538 73.7373 55.6101 73.6708 55.4385 73.632L55.3332 73.7373C55.6101 74.1471 56.4686 74.6289 57.0889 74.6289C58.191 74.6289 60.1183 73.8702 63.2862 70.8463C64.6652 69.5393 66.0387 68.3042 67.9716 68.3042C68.1765 68.3042 68.5198 68.2378 69.0737 68.2378V67.8944ZM72.9283 67.2796C73.3437 67.1412 75.4095 66.2495 77.4032 66.2495C81.3299 66.2495 83.811 68.1049 85.7383 68.1049C87.5992 68.1049 87.8761 67.3461 87.8761 66.7978C87.8761 66.388 87.6712 65.8342 86.9124 65.8342C86.2257 65.8342 85.8103 66.0391 85.4337 66.3824L85.3285 66.2772C85.7051 65.5572 86.6355 65.0034 87.1894 65.0034C87.7432 65.0034 89.3936 65.6237 89.3936 67.0637C89.3936 68.5756 88.225 70.0875 85.9488 70.0875C83.0578 70.0875 79.2696 67.0637 76.3731 67.0637C74.7892 67.0637 73.6871 67.479 72.9283 67.6119V67.2796ZM71.3444 68.6531C71.6213 68.93 73.0612 69.7497 74.4015 71.4057C75.5756 72.8511 75.6421 74.2246 75.6421 76.2184C75.6421 77.1821 75.703 78.2842 75.847 78.8325C76.0796 79.7297 76.6722 80.0675 77.0875 80.3776L77.0211 80.4829C75.2987 79.9346 73.5763 78.8325 73.5763 76.2904C73.5763 75.3268 73.8532 74.7065 73.8532 73.333C73.8532 70.7189 71.6877 69.4839 71.3444 69.1405V68.6531ZM72.3745 68.3762C74.4403 68.9965 75.6808 69.8882 76.7165 70.9183C77.8186 71.9816 78.9207 74.0142 79.469 75.5261C80.2278 77.6584 81.1194 77.7248 81.6732 77.7248C81.9501 77.7248 82.2935 77.5864 82.5704 76.4898C82.8141 75.5261 83.0523 75.1163 83.4676 75.1163C84.0159 75.1163 84.3648 75.8363 84.4645 76.2516L84.3593 76.3569C84.2541 76.2516 84.0824 76.2184 83.9439 76.2184C83.5286 76.2184 83.3236 76.4953 82.9803 77.1821C82.3932 78.3506 81.8117 78.9709 80.9145 78.9709C79.5355 78.9709 78.3337 77.8688 77.4032 75.3267C76.4396 72.7127 75.6144 71.4057 74.4403 70.0986C73.892 69.4783 72.6514 68.8636 72.3745 68.7251V68.3762ZM72.9283 67.8944C73.3437 67.8279 73.6871 67.7559 74.0969 67.7559C77.0599 67.7559 79.6739 69.2014 81.3963 70.9183C83.8775 73.3939 84.9796 73.7373 85.6663 73.7373C86.1482 73.7373 86.3918 73.6708 86.5635 73.632L86.6688 73.7373C86.3918 74.1471 85.5334 74.6289 84.9131 74.6289C83.811 74.6289 81.8837 73.8702 78.7158 70.8463C77.3368 69.5393 75.9633 68.3042 74.0304 68.3042C73.8255 68.3042 73.4821 68.2378 72.9283 68.2378V67.8944ZM71.4773 70.226C71.7874 71.3613 72.3856 73.0837 72.3856 76.1796C72.3856 79.2755 71.5548 82.7536 71.0065 82.7536C70.4582 82.7536 69.6275 79.2811 69.6275 76.1796C69.6275 73.0837 70.2256 71.3558 70.5358 70.226H71.4773ZM71.001 68.2378C71.8262 68.1658 72.164 67.8224 72.164 67.0027H71.001H70.9955H69.8324C69.8324 67.8279 70.1758 68.1713 71.001 68.2378Z" fill="#333333"/>
<path fill-rule="evenodd" clip-rule="evenodd" d="M50.4158 68.043C47.547 67.0516 42.0087 66.7083 39.4888 68.1538C38.0876 67.2178 37.2624 67.0406 35.5954 67.9378C31.2147 67.8768 10.712 67.4116 0.000976562 67.4006V66.6529C11.1772 66.3483 31.1205 66.0603 35.5234 65.9994C37.3787 67.0129 38.0046 66.9575 39.5276 65.9717C42.917 67.035 46.8769 67.1292 50.4158 66.0105V68.043Z" fill="#333333"/>
<path fill-rule="evenodd" clip-rule="evenodd" d="M91.585 68.043C94.4538 67.0516 99.9921 66.7083 102.512 68.1538C103.913 67.2178 104.738 67.0406 106.405 67.9378C110.786 67.8768 131.289 67.4116 142 67.4006V66.6529C130.824 66.3483 110.88 66.0603 106.477 65.9994C104.622 67.0129 103.996 66.9575 102.473 65.9717C99.0838 67.035 95.1239 67.1292 91.585 66.0105V68.043Z" fill="#333333"/>
<path d="M136.644 45.2437C136.804 45.2437 136.959 45.2713 137.103 45.3323C137.247 45.3932 137.375 45.4763 137.485 45.5926C137.596 45.7033 137.679 45.8307 137.735 45.9692C137.795 46.1132 137.823 46.2627 137.823 46.4233C137.823 46.5839 137.795 46.7334 137.735 46.8774C137.679 47.0159 137.591 47.1433 137.48 47.254C137.364 47.3703 137.236 47.4534 137.092 47.5143C136.948 47.5753 136.799 47.603 136.644 47.603C136.483 47.603 136.333 47.5753 136.195 47.5143C136.051 47.4534 135.924 47.3703 135.813 47.254C135.702 47.1433 135.613 47.0159 135.552 46.8719C135.492 46.7279 135.464 46.5784 135.464 46.4233C135.464 46.2682 135.492 46.1187 135.552 45.9747C135.613 45.8307 135.702 45.6978 135.813 45.5815C135.924 45.4707 136.045 45.3876 136.184 45.3267C136.333 45.2713 136.483 45.2437 136.644 45.2437ZM137.696 46.4288C137.696 46.2848 137.668 46.1519 137.618 46.0245C137.568 45.8972 137.491 45.7864 137.397 45.6867C137.297 45.587 137.181 45.5095 137.053 45.4596C136.926 45.4043 136.788 45.3821 136.644 45.3821C136.505 45.3821 136.372 45.4098 136.245 45.4596C136.117 45.5095 136.007 45.587 135.907 45.6867C135.807 45.7919 135.73 45.9082 135.674 46.0356C135.619 46.163 135.591 46.2959 135.591 46.4344C135.591 46.5728 135.619 46.7058 135.669 46.8331C135.724 46.9605 135.796 47.0713 135.901 47.1765C136.001 47.2762 136.117 47.3537 136.245 47.4036C136.372 47.459 136.505 47.4811 136.644 47.4811C136.782 47.4811 136.915 47.4534 137.048 47.398C137.175 47.3427 137.291 47.2651 137.397 47.1654C137.496 47.0713 137.568 46.9605 137.618 46.8387C137.668 46.7057 137.696 46.5728 137.696 46.4288ZM136.677 45.7255C136.865 45.7255 137.009 45.7587 137.103 45.8196C137.197 45.8805 137.242 45.9747 137.242 46.1021C137.242 46.1962 137.214 46.2793 137.153 46.3402C137.092 46.4067 137.015 46.4454 136.92 46.4565L137.225 47.0824H136.992L136.704 46.4842H136.389V47.0824H136.184V45.7255H136.677ZM136.644 45.8639H136.389V46.3513H136.644C136.788 46.3513 136.887 46.3347 136.948 46.2959C137.004 46.2572 137.037 46.1962 137.037 46.1132C137.037 46.0245 137.004 45.9581 136.943 45.9193C136.876 45.8861 136.776 45.8639 136.644 45.8639Z" fill="black"/>
<path d="M133.148 55.6054C133.031 54.9851 132.871 54.5199 132.66 54.2097C132.012 53.2793 130.883 52.8141 129.265 52.8141C130.351 53.0744 131.187 53.4787 131.769 54.038C132.129 54.3759 132.411 54.8965 132.605 55.6109C132.605 56.4139 132.311 57.0675 131.73 57.5714C131.198 58.0367 130.539 58.3136 129.753 58.4077C130.617 58.4188 131.381 58.1862 132.04 57.7099C132.777 57.1727 133.148 56.4749 133.148 55.6054ZM129.985 44.551C128.379 44.551 127.05 44.8223 125.987 45.3651C124.575 46.0906 123.871 47.2038 123.871 48.6991C123.871 49.696 124.287 50.5545 125.112 51.28C125.743 51.8338 126.53 52.2547 127.46 52.5427C126.325 52.0498 125.516 51.4572 125.034 50.7594C124.635 50.1779 124.431 49.4911 124.431 48.7047C124.431 47.6303 124.802 46.7663 125.538 46.1072C126.463 45.2709 127.942 44.7559 129.985 44.551ZM135.38 54.1322C135.38 55.7217 134.671 56.9788 133.247 57.8982C132.035 58.6736 130.622 59.0612 129.016 59.0612C127.881 59.0612 126.762 58.9505 125.671 58.7289C124.58 58.5074 123.578 58.1585 122.675 57.6822L123.76 53.6836L124.093 53.7999C124.259 55.0294 124.785 56.0983 125.666 57.0121C126.546 57.9259 127.549 58.38 128.673 58.38C129.592 58.38 130.362 58.1585 130.982 57.721C131.708 57.217 132.068 56.5136 132.068 55.6054C132.068 54.9574 131.719 54.3759 131.021 53.8608C130.246 53.2904 129.144 52.9415 127.726 52.8141C126.961 52.8141 126.114 52.4984 125.184 51.8615C123.965 51.0363 123.362 49.9785 123.362 48.6991C123.362 47.1706 124.082 46.0297 125.516 45.2654C126.64 44.6728 127.992 44.3737 129.57 44.3737C130.19 44.3737 130.8 44.4236 131.392 44.5288C131.985 44.634 133.092 44.9054 134.71 45.3429L133.702 49.0868L133.391 48.9871C133.225 47.9016 132.799 46.9878 132.112 46.2512C131.364 45.4482 130.467 45.0494 129.437 45.0494C128.689 45.0494 128.041 45.2765 127.499 45.7362C126.956 46.1958 126.685 46.8272 126.685 47.6247C126.685 48.2561 126.906 48.7324 127.355 49.0425C127.803 49.3526 128.789 49.6683 130.312 49.9951C132.112 50.3717 133.336 50.776 134.001 51.219C134.914 51.8449 135.38 52.8141 135.38 54.1322ZM107.655 54.542V47.5416C107.655 46.8438 107.506 46.2678 107.201 45.8137C106.896 45.3596 106.459 45.1325 105.894 45.1325C106.348 45.2377 106.669 45.4869 106.852 45.8802C107.04 46.2734 107.134 46.8272 107.134 47.5361V54.5365C107.134 55.6884 107.024 56.5746 106.802 57.1948C106.542 57.9204 106.121 58.2803 105.539 58.2803C106.304 58.2803 106.858 57.9204 107.206 57.1948C107.511 56.5746 107.655 55.6884 107.655 54.542ZM114.794 48.2561C114.794 47.2481 114.406 46.5171 113.631 46.0629C113.022 45.714 112.208 45.5368 111.189 45.5368H110.12V50.9311H111.189C112.169 50.9311 112.977 50.7428 113.614 50.3662C114.401 49.9009 114.794 49.1976 114.794 48.2561ZM120.521 58.6348H115.459L114.412 55.262C114.013 54.1488 113.636 53.3457 113.288 52.8584C112.706 52.0332 112.008 51.6178 111.194 51.6178H110.125V54.5642C110.125 55.8435 110.214 56.7518 110.397 57.2779C110.629 57.948 111.056 58.2859 111.676 58.2859V58.6348H105.024L105.002 58.2859C105.584 58.2859 106.005 57.9259 106.265 57.2004C106.47 56.6078 106.575 55.7217 106.575 54.542V47.5416C106.575 46.8327 106.487 46.2789 106.315 45.8857C106.138 45.4925 105.827 45.2433 105.373 45.138V44.8057H113.753C115.359 44.8057 116.577 45.1048 117.408 45.6974C118.244 46.29 118.66 47.093 118.66 48.101C118.66 49.2807 118.073 50.1502 116.893 50.7206C116.001 51.1471 114.916 51.363 113.636 51.363C114.888 51.5956 115.791 51.9169 116.334 52.3322C116.943 52.7975 117.458 53.6116 117.884 54.7746C118.416 56.1703 118.848 57.0896 119.186 57.5271C119.485 57.9148 119.928 58.1917 120.526 58.3634V58.6348H120.521ZM91.943 54.5586V47.5583C91.943 46.733 91.8378 46.1405 91.6329 45.7915C91.3726 45.354 90.9018 45.1325 90.2151 45.1325C90.6692 45.2377 90.9738 45.4759 91.1344 45.8525C91.2951 46.2291 91.3781 46.794 91.3781 47.5583V54.5586C91.3781 55.694 91.295 56.5136 91.1234 57.001C90.8907 57.6877 90.4255 58.1142 89.7277 58.2803C90.5806 58.2803 91.1843 57.8982 91.5332 57.1339C91.8101 56.5579 91.943 55.6995 91.943 54.5586ZM103.623 53.8442L102.111 58.6182H89.1905V58.2859C89.8994 58.2859 90.3757 57.9037 90.6083 57.1395C90.7634 56.6466 90.8409 55.7881 90.8409 54.5586V47.5583C90.8409 46.794 90.7578 46.2235 90.5861 45.8525C90.42 45.4759 90.1099 45.2377 89.6557 45.1325V44.8002H101.375L102.305 48.5441H101.879C101.114 47.5859 100.261 46.8494 99.3089 46.3232C98.3563 45.7971 97.3761 45.5368 96.3681 45.5368H94.3909V50.9477H95.5927C96.6007 50.9477 97.4315 50.8037 98.0739 50.5212C98.9268 50.1446 99.4917 49.5188 99.7631 48.6382H100.134V53.9937H99.824C99.6301 53.2461 99.1483 52.6756 98.3785 52.299C97.6087 51.9169 96.6838 51.7286 95.5927 51.7286H94.3909V54.8688C94.3909 55.982 94.5571 56.7462 94.8949 57.1672C95.2327 57.5881 95.8752 57.7985 96.8333 57.7985C98.013 57.7985 99.2259 57.361 100.483 56.4804C101.491 55.7715 102.427 54.8466 103.296 53.7057L103.623 53.8442ZM74.6027 54.4036V47.8296C74.6027 46.7331 74.503 46.0075 74.3092 45.6586C74.1153 45.3097 73.6557 45.1325 72.9301 45.1325C73.3954 45.2599 73.7 45.4869 73.844 45.8026C73.988 46.1183 74.0599 46.794 74.0599 47.8296V54.4036C74.0599 55.478 73.9326 56.3586 73.6833 57.0398C73.4286 57.7265 73.0409 58.1142 72.5092 58.2028C73.2569 58.2028 73.8107 57.8262 74.1596 57.0785C74.4532 56.4361 74.6027 55.5444 74.6027 54.4036ZM87.6176 58.6126H81.1766V58.2028C81.7858 58.2028 82.1901 57.8705 82.4006 57.2115C82.5667 56.6964 82.6553 55.7826 82.6553 54.4756V51.723H77.0672V54.4811C77.0672 55.7992 77.1614 56.7518 77.3497 57.3333C77.538 57.9148 77.9201 58.2083 78.5016 58.2083V58.6182H71.8889V58.2083C72.4705 58.2083 72.8969 57.8317 73.1683 57.0841C73.4009 56.4361 73.5172 55.5444 73.5172 54.4091V47.8352C73.5172 46.7774 73.4507 46.0906 73.3234 45.786C73.196 45.4814 72.8748 45.2654 72.3708 45.138V44.8057H78.2469V45.138C77.7706 45.2433 77.4494 45.4592 77.2943 45.786C77.1392 46.1183 77.0617 46.7054 77.0617 47.5638V50.9366H82.6498V47.2869C82.6498 46.6001 82.5667 46.0961 82.4061 45.7749C82.2455 45.4537 81.9741 45.2377 81.6031 45.1325V44.8002H87.3463V45.1325C86.9087 45.2377 86.6152 45.4371 86.4712 45.7362C86.3272 46.0352 86.2552 46.6112 86.2552 47.4641V54.4091C86.2552 55.5444 86.2829 56.3253 86.3328 56.7352C86.4601 57.7154 86.8866 58.2083 87.6121 58.2083V58.6126H87.6176ZM62.1693 54.5863V46.9989C62.1693 46.6112 62.0308 46.29 61.7595 46.0241C61.4881 45.7638 61.1004 45.6365 60.5964 45.6365H60.5798C60.901 45.6365 61.1558 45.7639 61.3441 46.0131C61.5324 46.2678 61.6265 46.5946 61.6265 46.9933V54.5808C61.6265 55.7272 61.4604 56.6299 61.1336 57.3056C60.8013 57.9813 60.3693 58.3191 59.8266 58.3191C60.613 58.3191 61.2056 57.9979 61.5933 57.3555C61.9754 56.713 62.1693 55.7937 62.1693 54.5863ZM70.2773 48.6991H69.8121C69.3081 48.0013 68.6989 47.3533 67.99 46.7607C67.0983 46.0131 66.3396 45.6365 65.7193 45.6365C65.3316 45.6365 65.0547 45.7583 64.883 46.0075C64.7169 46.2512 64.6283 46.5835 64.6283 46.9989V54.5642C64.6283 55.8601 64.728 56.7739 64.9218 57.3167C65.1655 57.9868 65.603 58.3246 66.2233 58.3246H66.2621V58.6182H59.2783V58.2859L59.3171 58.3246C59.9263 58.3246 60.3694 57.9979 60.6463 57.3444C60.9232 56.6909 61.0616 55.766 61.0616 54.5586V46.9933C61.0616 46.5669 60.9841 46.2346 60.829 45.9965C60.674 45.7583 60.397 45.6365 59.9927 45.6365C59.3448 45.6365 58.5805 46.0075 57.7054 46.7441C57.0076 47.3256 56.3984 47.9792 55.8834 48.7047H55.4735L56.5036 44.7836H69.1918L70.2773 48.6991ZM50.0239 51.7673C50.0239 49.5299 49.6916 47.8241 49.0325 46.6555C48.3735 45.4869 47.4652 44.8999 46.3188 44.8999C45.1834 44.8999 44.2862 45.4869 43.6438 46.6555C42.9958 47.8241 42.6746 49.5299 42.6746 51.7673C42.6746 53.9771 42.9958 55.6497 43.6438 56.7739C44.2917 57.8982 45.1834 58.4631 46.3188 58.4631C47.4707 58.4631 48.3624 57.9204 48.9937 56.8349C49.6805 55.6663 50.0239 53.9771 50.0239 51.7673ZM46.7452 58.9062C44.7791 58.6348 43.1896 57.9647 41.9712 56.8902C40.5202 55.6109 39.8002 53.9051 39.8002 51.7673C39.8002 49.6074 40.5257 47.8684 41.9712 46.5503C43.2118 45.426 44.8013 44.7227 46.7452 44.4347C44.5964 44.4347 42.813 45.1103 41.3842 46.4617C39.9553 47.813 39.2408 49.5908 39.2408 51.7895C39.2408 53.8996 39.9331 55.6109 41.3177 56.929C42.6967 58.2471 44.5077 58.9062 46.7452 58.9062ZM53.9782 51.7673C53.9782 54.0436 53.1973 55.8546 51.63 57.2004C50.1955 58.441 48.4233 59.0612 46.3132 59.0612C44.2308 59.0612 42.4807 58.4465 41.0574 57.217C39.4901 55.8601 38.7092 54.0436 38.7092 51.7673C38.7092 49.48 39.4956 47.6358 41.074 46.2401C42.525 44.9608 44.2751 44.3184 46.3298 44.3184C48.4233 44.3184 50.19 44.9497 51.6244 46.218C53.1973 47.6026 53.9782 49.4523 53.9782 51.7673ZM25.3453 54.542V47.5416C25.3453 46.8438 25.1958 46.2678 24.8912 45.8137C24.5866 45.3596 24.1491 45.1325 23.5842 45.1325C24.0383 45.2377 24.3595 45.4869 24.5423 45.8802C24.7306 46.2734 24.8247 46.8272 24.8247 47.5361V54.5365C24.8247 55.6884 24.714 56.5746 24.4924 57.1948C24.2321 57.9204 23.8112 58.2803 23.2297 58.2803C23.994 58.2803 24.5478 57.9204 24.8967 57.1948C25.1958 56.5746 25.3453 55.6884 25.3453 54.542ZM32.4842 48.2561C32.4842 47.2481 32.0965 46.5171 31.3211 46.0629C30.7119 45.714 29.8978 45.5368 28.8787 45.5368H27.8099V50.9311H28.8787C29.859 50.9311 30.6676 50.7428 31.3045 50.3662C32.0909 49.9009 32.4842 49.1976 32.4842 48.2561ZM38.2107 58.6348H33.1488L32.102 55.262C31.7033 54.1488 31.3267 53.3457 30.9778 52.8584C30.3962 52.0332 29.6984 51.6178 28.8843 51.6178H27.8154V54.5642C27.8154 55.8435 27.904 56.7518 28.0868 57.2779C28.3194 57.948 28.7458 58.2859 29.3661 58.2859V58.6348H22.7147L22.6925 58.2859C23.274 58.2859 23.6949 57.9259 23.9552 57.2004C24.1601 56.6078 24.2654 55.7217 24.2654 54.542V47.5416C24.2654 46.8327 24.1768 46.2789 24.0051 45.8857C23.8278 45.4925 23.5177 45.2433 23.0636 45.138V44.8057H31.443C33.0491 44.8057 34.2675 45.1048 35.0982 45.6974C35.9345 46.29 36.3499 47.093 36.3499 48.101C36.3499 49.2807 35.7628 50.1502 34.5832 50.7206C33.6915 51.1471 32.606 51.363 31.3267 51.363C32.5839 51.5956 33.481 51.9169 34.0238 52.3322C34.633 52.7975 35.1481 53.6116 35.5745 54.7746C36.1062 56.1703 36.5382 57.0896 36.876 57.5271C37.1751 57.9148 37.6181 58.1917 38.2163 58.3634V58.6348H38.2107ZM17.337 54.6749C17.337 53.7168 17.0158 52.9802 16.3678 52.4652C15.6035 51.8559 14.3242 51.5513 12.5242 51.5513H11.688V54.5586C11.688 56.0706 11.8264 57.0121 12.0978 57.3831C12.3692 57.7542 13.0338 57.937 14.0971 57.937C15.1161 57.937 15.9137 57.6601 16.4841 57.1007C17.049 56.5469 17.337 55.7383 17.337 54.6749ZM9.24558 54.4423V47.6358C9.24558 46.8494 9.14035 46.2512 8.93543 45.8525C8.69175 45.3762 8.28192 45.1325 7.71148 45.1325C8.06039 45.2377 8.30961 45.4869 8.45914 45.8912C8.60868 46.29 8.68068 46.8715 8.68068 47.6358V54.4423C8.68068 55.5001 8.56437 56.3807 8.33176 57.0785C8.06039 57.8816 7.67271 58.2803 7.16872 58.2803C7.87762 58.2803 8.41484 57.8816 8.78036 57.0785C9.09051 56.4084 9.24558 55.5278 9.24558 54.4423ZM16.2681 48.1785V48.101C16.2681 47.1318 15.9524 46.4617 15.3266 46.0906C14.7008 45.7195 13.6928 45.5368 12.3082 45.5368H11.688V50.8923H12.3082C13.51 50.8923 14.4183 50.7372 15.022 50.4271C15.8527 50.0006 16.2681 49.253 16.2681 48.1785ZM21.0975 54.9685C21.0975 56.0152 20.6766 56.8349 19.8348 57.433C19.1757 57.8982 18.2453 58.2305 17.0435 58.4243C16.2293 58.5517 15.31 58.6182 14.2909 58.6182H6.62598V58.2859C7.12996 58.2859 7.5121 57.9093 7.7724 57.1505C8.0327 56.3918 8.16008 55.4946 8.16008 54.4423V47.6358C8.16008 46.8715 8.08808 46.29 7.93854 45.8912C7.78901 45.4925 7.52318 45.2377 7.1355 45.1325V44.8002H14.2965C15.7586 44.8002 16.9438 44.9553 17.8465 45.2654C19.2698 45.7583 19.9787 46.6112 19.9787 47.8241C19.9787 48.976 19.508 49.8179 18.561 50.344C17.9296 50.704 16.9549 50.9698 15.6534 51.1415C17.049 51.1692 18.2342 51.4406 19.2034 51.9556C20.4661 52.6313 21.0975 53.6337 21.0975 54.9685Z" fill="black"/>
<path d="M95.8966 34.1386V27.1326C95.8966 26.3684 95.7415 25.7868 95.4314 25.3881C95.1213 24.9893 94.6727 24.7844 94.0911 24.7844C94.5674 24.8896 94.8997 25.1112 95.0825 25.4545C95.2653 25.7979 95.3539 26.3573 95.3539 27.1326V34.1386C95.3539 35.0413 95.2265 35.8609 94.9662 36.5809C94.6284 37.5114 94.1798 37.9766 93.6093 37.9766C94.4124 37.9766 95.0216 37.5169 95.4314 36.5975C95.7415 35.8997 95.8966 35.0801 95.8966 34.1386ZM107.128 33.4961L105.749 38.2701H93.061V37.9766C93.6813 37.9766 94.1465 37.5169 94.4567 36.5975C94.6893 35.8997 94.8056 35.0801 94.8056 34.133V27.1271C94.8056 26.3628 94.717 25.809 94.5342 25.4601C94.3514 25.1112 94.0302 24.8841 93.565 24.7789V24.4466H99.7346L99.7125 24.7789C99.2196 24.8841 98.8762 25.1167 98.6768 25.4878C98.4775 25.8588 98.3778 26.4293 98.3778 27.2046V34.5207C98.3778 35.5951 98.5273 36.3705 98.8319 36.8468C99.1365 37.3231 99.6682 37.5667 100.432 37.5667C101.607 37.5667 102.808 37.1015 104.021 36.1711C104.952 35.4622 105.866 34.5041 106.757 33.3023L107.128 33.4961ZM79.9132 34.2161V27.2102C79.9132 26.385 79.808 25.7924 79.603 25.4435C79.3427 25.0059 78.872 24.7844 78.1852 24.7844C78.6394 24.8896 78.944 25.1278 79.1046 25.5044C79.2652 25.881 79.3483 26.4459 79.3483 27.2102V34.2161C79.3483 35.3514 79.2652 36.1711 79.0935 36.6585C78.8609 37.3452 78.3957 37.7717 77.6979 37.9378C78.5508 37.9378 79.1544 37.5557 79.5033 36.7914C79.7747 36.2099 79.9132 35.3514 79.9132 34.2161ZM91.5878 33.4961L90.0759 38.2701H77.1551V37.9378C77.864 37.9378 78.3403 37.5557 78.5729 36.7914C78.728 36.2985 78.8055 35.44 78.8055 34.2105V27.2046C78.8055 26.4404 78.7224 25.8699 78.5508 25.4989C78.3846 25.1222 78.0745 24.8841 77.6203 24.7789V24.4466H89.3393L90.2697 28.1904H89.8433C89.079 27.2323 88.2261 26.4957 87.2735 25.9696C86.3209 25.4435 85.3407 25.1832 84.3327 25.1832H82.3556V30.5941H83.5574C84.5653 30.5941 85.3961 30.4501 86.0385 30.1676C86.8914 29.791 87.4563 29.1652 87.7277 28.2846H88.0987V33.6401H87.7886C87.5948 32.8924 87.1129 32.322 86.3431 31.9454C85.5733 31.5633 84.6484 31.375 83.5574 31.375H82.3556V34.5152C82.3556 35.6283 82.5217 36.3926 82.8595 36.8135C83.1974 37.2344 83.8398 37.4449 84.7979 37.4449C85.972 37.4449 87.1905 37.0074 88.4477 36.1268C89.4556 35.4179 90.3916 34.493 91.2611 33.3521L91.5878 33.4961ZM67.4188 34.2382V26.6508C67.4188 26.2631 67.2804 25.9419 67.009 25.6761C66.7376 25.4158 66.35 25.2884 65.846 25.2884H65.8294C66.1506 25.2884 66.4053 25.4158 66.5936 25.665C66.7819 25.9198 66.8761 26.2465 66.8761 26.6453V34.2327C66.8761 35.3791 66.7099 36.2819 66.3832 36.9575C66.0509 37.6332 65.6189 37.971 65.0762 37.971C65.8626 37.971 66.4552 37.6498 66.8429 37.0074C67.225 36.3705 67.4188 35.4511 67.4188 34.2382ZM75.5269 28.3566H75.0617C74.5577 27.6588 73.9485 27.0108 73.2396 26.4182C72.3479 25.6705 71.5892 25.2939 70.9689 25.2939C70.5812 25.2939 70.3043 25.4158 70.1326 25.665C69.9664 25.9087 69.8778 26.241 69.8778 26.6563V34.2216C69.8778 35.5176 69.9775 36.4314 70.1714 36.9741C70.415 37.6443 70.8526 37.9821 71.4729 37.9821H71.5116V38.2756H64.5279V37.9433L64.5666 37.9821C65.1758 37.9821 65.6189 37.6554 65.8958 37.0018C66.1727 36.3483 66.3112 35.4234 66.3112 34.2161V26.6508C66.3112 26.2244 66.2337 25.8921 66.0786 25.6539C65.9235 25.4158 65.6466 25.2939 65.2423 25.2939C64.5943 25.2939 63.83 25.665 62.955 26.4016C62.2572 26.9831 61.648 27.6366 61.1329 28.3621H60.7231L61.7532 24.441H74.4414L75.5269 28.3566ZM57.7546 36.8745C57.7546 36.6142 57.6549 36.2209 57.461 35.6893C57.4112 35.5619 57.2838 35.2628 57.09 34.7976L53.4015 26.9997L53.1246 27.5646L56.5417 34.7976C56.7078 35.1853 56.8629 35.5785 57.0014 35.9828C57.1398 36.3816 57.2063 36.6806 57.2063 36.8745C57.2063 37.2234 57.1066 37.4781 56.9127 37.6332C56.7854 37.7218 56.5251 37.827 56.1374 37.9433C56.7854 37.9433 57.2118 37.8713 57.4278 37.7218C57.6493 37.5667 57.7546 37.2843 57.7546 36.8745ZM54.631 32.0617L52.8864 28.1461L51.0422 32.0617H54.631ZM62.3181 38.2701H55.5891V37.9378C56.0045 37.8326 56.2703 37.7384 56.3866 37.6443C56.5805 37.4892 56.6801 37.2289 56.6801 36.8689C56.6801 36.5975 56.5805 36.2043 56.3866 35.6837C56.3368 35.5563 56.2039 35.2573 55.9934 34.7921L54.9854 32.754H50.7376L49.9401 34.4598C49.7462 34.9527 49.6133 35.3348 49.5413 35.6062C49.4693 35.8776 49.4361 36.0825 49.4361 36.2265C49.4361 36.7194 49.5856 37.1071 49.8902 37.3895C50.145 37.6221 50.5271 37.8049 51.0422 37.9323V38.2646H46.0577V37.971C46.4067 37.9046 46.8386 37.5944 47.3592 37.0406C47.9407 36.4092 48.4835 35.6007 48.9875 34.6148L53.8169 24.8176C54.0384 24.3247 54.2045 24.0811 54.3208 24.0811C54.487 24.0811 54.6753 24.358 54.8857 24.9173L60.1637 35.3902C60.6179 36.2542 61.0166 36.88 61.3655 37.2511C61.6646 37.5612 61.9803 37.7606 62.3181 37.8547V38.2701ZM37.562 34.1939V27.1105C37.562 26.4016 37.4014 25.8311 37.0857 25.4158C36.7701 24.9949 36.3824 24.7844 35.9338 24.7844C36.3215 24.8896 36.5984 25.1167 36.759 25.4712C36.9196 25.8256 37.0027 26.3739 37.0027 27.1105V34.1939C37.0027 35.4345 36.8974 36.3262 36.6925 36.8689C36.4488 37.5169 36.0224 37.8713 35.4132 37.9378C36.1996 37.9378 36.7701 37.6 37.119 36.9298C37.4125 36.3483 37.562 35.4345 37.562 34.1939ZM44.5458 27.8692C44.5458 27.0053 44.2467 26.3517 43.6541 25.9087C43.0228 25.4324 42.0591 25.1887 40.7632 25.1887H39.9878V31.087H40.7632C41.9539 31.087 42.8788 30.8156 43.5489 30.2728C44.2135 29.7356 44.5458 28.9326 44.5458 27.8692ZM48.406 27.9468C48.406 29.0046 47.9795 29.8741 47.1266 30.5442C46.4399 31.0759 45.4984 31.4691 44.2966 31.7294C43.3772 31.9232 42.4357 32.0229 41.4665 32.0229C40.9238 32.0229 40.4309 31.9786 39.9933 31.8845V34.2105C39.9933 35.5674 40.0709 36.4812 40.2259 36.9465C40.4475 37.6055 40.8905 37.9378 41.5662 37.9378V38.2701H34.9147L34.876 37.9378C35.4852 37.9378 35.895 37.6221 36.1165 36.9963C36.3381 36.3705 36.4488 35.4345 36.4488 34.1939V27.1105C36.4488 26.3739 36.3713 25.8256 36.2162 25.4712C36.0612 25.1167 35.7898 24.8841 35.4021 24.7844V24.4521L42.037 24.4355C44.003 24.4355 45.5593 24.7401 46.7002 25.3549C47.8355 25.9751 48.406 26.8336 48.406 27.9468Z" fill="black"/>
<path fill-rule="evenodd" clip-rule="evenodd" d="M69.0737 15.6208C68.3149 15.7592 67.2128 16.1691 65.6289 16.1691C62.7379 16.1691 58.9497 13.1452 56.0532 13.1452C53.7825 13.1452 52.6084 14.6571 52.6084 16.1691C52.6084 17.6146 54.2588 18.2293 54.8126 18.2293C55.3609 18.2293 56.2913 17.681 56.6735 16.9555L56.5683 16.8503C56.1917 17.1937 55.7763 17.3986 55.0895 17.3986C54.3308 17.3986 54.1259 16.8503 54.1259 16.4349C54.1259 15.8866 54.4028 15.1279 56.2637 15.1279C58.191 15.1279 60.6721 16.9832 64.5988 16.9832C66.5981 16.9832 68.6638 16.0915 69.0737 15.9531V15.6208ZM70.6576 14.1088C70.3142 13.7655 68.2928 12.5249 68.2928 9.91637C68.2928 8.54288 68.5697 7.92259 68.5697 6.95893C68.5697 4.41687 66.8473 3.31475 65.1249 2.76646L65.0584 2.87169C65.4738 3.18183 66.0609 3.5252 66.299 4.41686C66.443 4.96515 66.5039 6.06727 66.5039 7.03093C66.5039 9.0247 66.5704 10.4037 67.7445 11.8437C69.0848 13.4941 70.3807 14.3193 70.6576 14.5962V14.1088ZM69.6275 14.5242C69.3506 14.3857 68.11 13.7655 67.5617 13.1507C66.3932 11.8437 65.5624 10.5367 64.5988 7.92259C63.6683 5.38052 62.461 4.27841 61.0875 4.27841C60.1903 4.27841 59.6088 4.8987 59.0217 6.06727C58.6783 6.75402 58.4679 7.03093 58.0581 7.03093C57.9196 7.03093 57.7479 6.9977 57.6427 6.89247L57.5375 6.9977C57.6427 7.40753 57.9861 8.13304 58.5343 8.13304C58.9497 8.13304 59.1879 7.72321 59.4316 6.75955C59.7085 5.65744 60.0518 5.52452 60.3287 5.52452C60.877 5.52452 61.7742 5.59098 62.533 7.72321C63.0868 9.23516 64.1834 11.2622 65.2855 12.3311C66.3212 13.3612 67.5562 14.2584 69.6275 14.8731V14.5242ZM69.0737 15.0005C68.5198 15.0005 68.1765 14.934 67.9716 14.934C66.0442 14.934 64.6652 13.699 63.2862 12.392C60.1183 9.36808 58.191 8.60933 57.0889 8.60933C56.4686 8.60933 55.6101 9.09116 55.3332 9.501L55.4385 9.60622C55.6101 9.57299 55.8538 9.501 56.3357 9.501C57.0224 9.501 58.1245 9.84437 60.6057 12.32C62.3281 14.0368 64.9477 15.4823 67.9051 15.4823C68.3205 15.4823 68.6638 15.4159 69.0737 15.3439V15.0005ZM72.9283 15.6208C73.6871 15.7592 74.7892 16.1691 76.3731 16.1691C79.2641 16.1691 83.0523 13.1452 85.9488 13.1452C88.2195 13.1452 89.3936 14.6571 89.3936 16.1691C89.3936 17.6146 87.7432 18.2293 87.1894 18.2293C86.6355 18.2293 85.7106 17.681 85.3285 16.9555L85.4337 16.8503C85.8103 17.1937 86.2257 17.3986 86.9124 17.3986C87.6712 17.3986 87.8761 16.8503 87.8761 16.4349C87.8761 15.8866 87.5992 15.1279 85.7383 15.1279C83.811 15.1279 81.3299 16.9832 77.4032 16.9832C75.4039 16.9832 73.3381 16.0915 72.9283 15.9531V15.6208ZM71.3444 14.1088C71.6877 13.7655 73.8532 12.5249 73.8532 9.91637C73.8532 8.54288 73.5763 7.92259 73.5763 6.95893C73.5763 4.41687 75.2987 3.31475 77.0211 2.76646L77.0875 2.87169C76.6722 3.18183 76.0851 3.5252 75.847 4.41686C75.703 4.96515 75.6421 6.06727 75.6421 7.03093C75.6421 9.0247 75.5756 10.4037 74.4015 11.8437C73.0612 13.4941 71.6157 14.3193 71.3444 14.5962V14.1088ZM72.3745 14.5242C72.6514 14.3857 73.892 13.7655 74.4403 13.1507C75.6088 11.8437 76.4396 10.5367 77.4032 7.92259C78.3337 5.38052 79.541 4.27841 80.9145 4.27841C81.8117 4.27841 82.3932 4.8987 82.9803 6.06727C83.3236 6.75402 83.5286 7.03093 83.9439 7.03093C84.0824 7.03093 84.2541 6.9977 84.3593 6.89247L84.4645 6.9977C84.3593 7.40753 84.0159 8.13304 83.4676 8.13304C83.0523 8.13304 82.8141 7.72321 82.5704 6.75955C82.2935 5.65744 81.9501 5.52452 81.6732 5.52452C81.1194 5.52452 80.2278 5.59098 79.469 7.72321C78.9207 9.23516 77.8186 11.2622 76.7165 12.3311C75.6808 13.3612 74.4458 14.2584 72.3745 14.8731V14.5242ZM72.9283 15.0005C73.4766 15.0005 73.8255 14.934 74.0304 14.934C75.9577 14.934 77.3368 13.699 78.7158 12.392C81.8837 9.36808 83.811 8.60933 84.9131 8.60933C85.5334 8.60933 86.3918 9.09116 86.6688 9.501L86.5635 9.60622C86.3918 9.57299 86.1482 9.501 85.6663 9.501C84.9796 9.501 83.8775 9.84437 81.3963 12.32C79.6739 14.0368 77.0543 15.4823 74.0969 15.4823C73.6815 15.4823 73.3381 15.4159 72.9283 15.3439V15.0005ZM70.5247 13.0178C70.2146 11.8825 69.6164 10.16 69.6164 7.06416C69.6164 3.96826 70.4472 0.490234 70.9955 0.490234C71.5437 0.490234 72.3745 3.96273 72.3745 7.06416C72.3745 10.16 71.7764 11.888 71.4662 13.0178H70.5247ZM71.001 15.0005C70.1703 15.0725 69.8324 15.4159 69.8324 16.2355H70.9955H71.001H72.164C72.1696 15.4159 71.8262 15.0725 71.001 15.0005Z" fill="#333333"/>
<path fill-rule="evenodd" clip-rule="evenodd" d="M50.4158 15.1977C47.547 16.189 42.0087 16.5324 39.4888 15.0869C38.0876 16.0229 37.2624 16.2001 35.5954 15.3029C31.2147 15.3638 10.712 15.829 0.000976562 15.8401V16.5878C11.1772 16.8924 31.1205 17.1804 35.5234 17.2413C37.3787 16.2278 38.0046 16.2832 39.5276 17.269C42.917 16.2056 46.8769 16.1115 50.4158 17.2302V15.1977Z" fill="#333333"/>
<path fill-rule="evenodd" clip-rule="evenodd" d="M91.585 15.1977C94.4538 16.189 99.9921 16.5324 102.512 15.0869C103.913 16.0229 104.738 16.2001 106.405 15.3029C110.786 15.3638 131.289 15.829 142 15.8401V16.5878C130.824 16.8924 110.88 17.1804 106.477 17.2413C104.622 16.2278 103.996 16.2832 102.473 17.269C99.0838 16.2056 95.1239 16.1115 91.585 17.2302V15.1977Z" fill="#333333"/>
</svg>
