<svg width="171" height="44" viewBox="0 0 171 44" fill="none" xmlns="http://www.w3.org/2000/svg">
<path fill-rule="evenodd" clip-rule="evenodd" d="M36.454 39.8574C34.8937 40.9621 32.839 41.1275 31.2486 40.4097C31.2486 40.4097 30.8145 40.2442 30.4104 39.8015C30.0622 39.3867 21.2719 29.9172 21.2719 29.9172L21.2418 29.8893C23.9606 30.36 26.9394 29.1177 28.474 26.8524C30.0042 24.6989 29.9483 21.6341 28.5019 19.4806C26.7675 17.1337 23.3825 16.3621 20.5476 16.721C15.6324 17.383 12.1034 21.5525 11.0051 25.9154C9.87677 30.8844 10.687 35.5783 12.4515 39.9949C12.8556 40.9341 13.4058 41.8991 14.0721 42.7266C8.89458 40.5752 4.32534 36.5992 1.92466 31.2691C-0.736072 25.5264 -0.67805 18.2663 2.47485 12.4419C4.9615 7.94145 9.35666 3.772 14.7942 2.00534C20.4918 -0.229851 28.1559 0.238651 33.7073 3.21962C40.4451 6.42196 45.5366 14.402 45.5646 21.5245C45.7967 28.8963 42.3837 35.5783 36.454 39.8574Z" fill="black"/>
<path fill-rule="evenodd" clip-rule="evenodd" d="M18.2402 39.8506C16.0606 37.6002 14.3038 34.681 15.634 31.6425C16.8113 29.3213 17.8639 26.9517 18.3669 24.2709C18.5662 27.0709 20.3472 29.5598 21.1985 32.2405C21.5245 33.5334 21.5506 34.8729 21.0234 36.2123C20.4459 37.6728 19.5182 38.9173 18.4153 40.0425L18.2402 39.8506Z" fill="black"/>
<path fill-rule="evenodd" clip-rule="evenodd" d="M76.2582 43.1534L73.9866 43.2854L73.8871 43.2017V42.6507L73.835 42.6395C73.605 42.8725 73.3237 43.0604 72.9853 43.209C72.6492 43.3568 72.3024 43.4301 71.9458 43.4301C71.5762 43.4301 71.2181 43.3541 70.8731 43.2048C70.5286 43.0562 70.2264 42.8455 69.9714 42.5739C69.7128 42.2984 69.5045 41.9685 69.354 41.5822C69.2027 41.1948 69.1263 40.768 69.1263 40.3023C69.1263 39.8759 69.2074 39.4723 69.3694 39.0884C69.5342 38.7064 69.7572 38.3722 70.0439 38.0836C70.3121 37.8162 70.6408 37.604 71.0313 37.4435C71.4211 37.2837 71.8177 37.2046 72.2236 37.2046C72.5277 37.2046 72.8252 37.2394 73.1188 37.3088C73.4113 37.3798 73.6637 37.4674 73.8736 37.5758V35.525C73.8736 35.3567 73.8439 35.2036 73.781 35.0673C73.7204 34.928 73.6343 34.8239 73.524 34.7529C73.4001 34.6772 73.2354 34.6228 73.0258 34.5873C72.8167 34.5545 72.5906 34.531 72.3494 34.514V34.1428L75.0099 34.0062L75.1083 34.0957V42.0476C75.1083 42.1884 75.1377 42.3069 75.199 42.4049C75.2569 42.5013 75.3453 42.5847 75.4602 42.6518C75.5436 42.7016 75.6632 42.7294 75.8229 42.7413C75.9815 42.7525 76.1251 42.7622 76.2582 42.7664V43.1546V43.1534ZM170.914 43.1534L168.642 43.2854L168.542 43.2017V42.6507L168.491 42.6395C168.261 42.8725 167.979 43.0604 167.641 43.209C167.305 43.3568 166.958 43.4301 166.602 43.4301C166.232 43.4301 165.874 43.3541 165.529 43.2048C165.184 43.0562 164.882 42.8455 164.628 42.5739C164.368 42.2984 164.16 41.9685 164.01 41.5822C163.858 41.1948 163.782 40.768 163.782 40.3023C163.782 39.8759 163.863 39.4723 164.026 39.0884C164.19 38.7064 164.413 38.3722 164.699 38.0836C164.967 37.8162 165.297 37.604 165.686 37.4435C166.077 37.2837 166.474 37.2046 166.879 37.2046C167.184 37.2046 167.481 37.2394 167.774 37.3088C168.067 37.3798 168.319 37.4674 168.529 37.5758V35.525C168.529 35.3567 168.499 35.2036 168.437 35.0673C168.376 34.928 168.291 34.8239 168.18 34.7529C168.056 34.6772 167.892 34.6228 167.681 34.5873C167.472 34.5545 167.246 34.531 167.006 34.514V34.1428L169.665 34.0062L169.764 34.0957V42.0476C169.764 42.1884 169.793 42.3069 169.855 42.4049C169.913 42.5013 170.001 42.5847 170.115 42.6518C170.199 42.7016 170.319 42.7294 170.479 42.7413C170.637 42.7525 170.781 42.7622 170.914 42.7664V43.1534ZM162.703 41.8735C162.43 42.3451 162.065 42.719 161.607 42.9975C161.15 43.2777 160.622 43.4166 160.029 43.4166C159.504 43.4166 159.047 43.3329 158.653 43.1658C158.257 42.9975 157.933 42.7718 157.678 42.4836C157.423 42.1977 157.231 41.8608 157.105 41.4788C156.982 41.096 156.919 40.6916 156.919 40.2657C156.919 39.8833 156.986 39.5074 157.119 39.1382C157.255 38.7685 157.451 38.4382 157.712 38.1427C157.962 37.8606 158.274 37.6322 158.646 37.4581C159.017 37.2849 159.434 37.1973 159.896 37.1973C160.372 37.1973 160.779 37.2644 161.118 37.401C161.459 37.5361 161.734 37.7217 161.943 37.9567C162.146 38.1809 162.296 38.444 162.396 38.7469C162.495 39.0502 162.545 39.3793 162.545 39.7328V40.1283H158.232C158.232 40.5141 158.274 40.8649 158.355 41.1798C158.436 41.4958 158.564 41.7709 158.742 42.0124C158.913 42.2432 159.137 42.4249 159.413 42.5588C159.69 42.6919 160.022 42.7591 160.405 42.7591C160.798 42.7591 161.137 42.6754 161.42 42.5102C161.702 42.3451 161.977 42.0468 162.241 41.6162L162.703 41.8735ZM118.033 39.0872H117.577C117.485 38.6647 117.284 38.3221 116.977 38.057C116.674 37.7911 116.299 37.6588 115.86 37.6588C115.499 37.6588 115.215 37.7402 115.008 37.9034C114.8 38.0666 114.696 38.2646 114.696 38.4953C114.696 38.6748 114.73 38.8245 114.8 38.9449C114.868 39.0625 114.97 39.1652 115.107 39.2481C115.24 39.328 115.405 39.4033 115.605 39.4735C115.806 39.5426 116.054 39.6217 116.349 39.7092C116.64 39.7934 116.912 39.8918 117.17 40.0021C117.429 40.114 117.641 40.2383 117.807 40.3733C117.988 40.5157 118.128 40.6812 118.224 40.8691C118.321 41.0571 118.369 41.2859 118.369 41.5571C118.369 42.1035 118.143 42.5488 117.692 42.8965C117.242 43.2433 116.656 43.4166 115.939 43.4166C115.561 43.4166 115.21 43.3556 114.892 43.2306C114.573 43.1083 114.345 42.9941 114.208 42.8899L114.077 43.2796H113.581L113.515 41.2284H113.971C114.007 41.3835 114.082 41.5652 114.197 41.7709C114.309 41.9796 114.448 42.1676 114.611 42.335C114.783 42.5102 114.989 42.6564 115.229 42.7776C115.47 42.8965 115.738 42.957 116.038 42.957C116.462 42.957 116.786 42.8694 117.016 42.6962C117.244 42.5225 117.359 42.2752 117.359 41.9503C117.359 41.7836 117.323 41.6412 117.25 41.5182C117.176 41.3955 117.07 41.2897 116.931 41.1975C116.784 41.1061 116.606 41.0243 116.394 40.9506C116.182 40.8776 115.947 40.8039 115.689 40.7329C115.481 40.6747 115.251 40.5998 114.999 40.5014C114.744 40.4038 114.528 40.2896 114.347 40.1568C114.153 40.0183 113.996 39.8466 113.872 39.6448C113.748 39.4399 113.687 39.2018 113.687 38.9263C113.687 38.444 113.885 38.0346 114.282 37.6989C114.679 37.364 115.208 37.1973 115.873 37.1973C116.128 37.1973 116.39 37.2278 116.656 37.2872C116.922 37.3482 117.138 37.4203 117.307 37.5037L117.458 37.1911H117.934L118.033 39.0872ZM112.429 41.8735C112.157 42.3451 111.792 42.719 111.334 42.9975C110.876 43.2777 110.349 43.4166 109.757 43.4166C109.231 43.4166 108.773 43.3329 108.379 43.1658C107.984 42.9975 107.66 42.7718 107.404 42.4836C107.151 42.1977 106.959 41.8608 106.833 41.4788C106.709 41.096 106.645 40.6916 106.645 40.2657C106.645 39.8833 106.713 39.5074 106.846 39.1382C106.981 38.7685 107.177 38.4382 107.439 38.1427C107.689 37.8606 108 37.6322 108.372 37.4581C108.744 37.2849 109.161 37.1973 109.624 37.1973C110.099 37.1973 110.507 37.2644 110.846 37.401C111.185 37.5361 111.46 37.7217 111.67 37.9567C111.873 38.1809 112.024 38.444 112.124 38.7469C112.223 39.0502 112.272 39.3793 112.272 39.7328V40.1283H107.96C107.96 40.5141 108 40.8649 108.082 41.1798C108.162 41.4958 108.291 41.7709 108.469 42.0124C108.641 42.2432 108.863 42.4249 109.141 42.5588C109.418 42.6919 109.75 42.7591 110.133 42.7591C110.525 42.7591 110.863 42.6754 111.147 42.5102C111.429 42.3451 111.704 42.0468 111.968 41.6162L112.429 41.8735ZM89.8474 39.0872H89.3921C89.2995 38.6647 89.0989 38.3221 88.7925 38.057C88.4884 37.7911 88.1141 37.6588 87.6747 37.6588C87.3135 37.6588 87.0299 37.7402 86.8223 37.9034C86.6147 38.0666 86.5109 38.2646 86.5109 38.4953C86.5109 38.6748 86.5449 38.8245 86.6147 38.9449C86.683 39.0625 86.7841 39.1652 86.9214 39.2481C87.0546 39.328 87.2189 39.4033 87.4196 39.4735C87.6202 39.5426 87.8684 39.6217 88.1639 39.7092C88.4545 39.7934 88.7269 39.8918 88.9839 40.0021C89.2436 40.114 89.4554 40.2383 89.6221 40.3733C89.8019 40.5157 89.9424 40.6812 90.0392 40.8691C90.1361 41.0571 90.1831 41.2859 90.1831 41.5571C90.1831 42.1035 89.9582 42.5488 89.5071 42.8965C89.0568 43.2433 88.4703 43.4166 87.7538 43.4166C87.3745 43.4166 87.0252 43.3556 86.7069 43.2306C86.3874 43.1083 86.1598 42.9941 86.0216 42.8899L85.892 43.2796H85.3961L85.3302 41.2284H85.7859C85.8218 41.3835 85.8958 41.5652 86.0108 41.7709C86.1235 41.9796 86.2636 42.1676 86.4256 42.335C86.5973 42.5102 86.8045 42.6564 87.0434 42.7776C87.2849 42.8965 87.5531 42.957 87.8525 42.957C88.2766 42.957 88.6003 42.8694 88.8307 42.6962C89.0587 42.5225 89.1726 42.2752 89.1726 41.9503C89.1726 41.7836 89.1375 41.6412 89.0657 41.5182C88.9904 41.3955 88.8851 41.2897 88.745 41.1975C88.598 41.1061 88.4201 41.0243 88.2083 40.9506C87.9968 40.8776 87.763 40.8039 87.5029 40.7329C87.2953 40.6747 87.0658 40.5998 86.8126 40.5014C86.5587 40.4038 86.3423 40.2896 86.1621 40.1568C85.9684 40.0183 85.8098 39.8466 85.6863 39.6448C85.5625 39.4399 85.5023 39.2018 85.5023 38.9263C85.5023 38.444 85.7002 38.0346 86.0969 37.6989C86.4931 37.364 87.0229 37.1973 87.6882 37.1973C87.9428 37.1973 88.2037 37.2278 88.4703 37.2872C88.7365 37.3482 88.9526 37.4203 89.1216 37.5037L89.2721 37.1911H89.749L89.8474 39.0872ZM81.9404 42.4527C81.8347 42.553 81.7154 42.6607 81.5815 42.7737C81.4519 42.888 81.2979 42.9902 81.127 43.082C80.9287 43.1897 80.7369 43.2719 80.5524 43.3267C80.3665 43.3834 80.1052 43.41 79.7676 43.41C79.19 43.41 78.7512 43.241 78.4491 42.9007C78.1493 42.5588 77.9977 42.0634 77.9977 41.414V38.591C77.9977 38.4479 77.9672 38.3279 77.9078 38.2302C77.8491 38.1322 77.7615 38.0466 77.6465 37.9748C77.567 37.9281 77.4686 37.8934 77.3513 37.8714C77.2313 37.8486 77.1052 37.8343 76.9747 37.8259V37.4361L79.1456 37.2934L79.2451 37.3767V41.473C79.2451 41.9005 79.3505 42.2204 79.5623 42.4369C79.7745 42.6507 80.0269 42.7591 80.3225 42.7591C80.5629 42.7591 80.7797 42.724 80.9684 42.6564C81.1575 42.5901 81.3161 42.5102 81.4442 42.4184C81.5638 42.335 81.6672 42.2451 81.7579 42.1533C81.8485 42.0591 81.918 41.9712 81.9651 41.8921V38.549C81.9651 38.4178 81.9365 38.3016 81.8725 38.1998C81.8123 38.0971 81.7262 38.0118 81.6163 37.9405C81.5372 37.8911 81.4202 37.8625 81.262 37.8525C81.1065 37.8432 80.931 37.834 80.7369 37.8259V37.4361L83.1014 37.2934L83.2006 37.3767V42.0591C83.2006 42.1957 83.2326 42.3103 83.2928 42.4064C83.3553 42.5021 83.4421 42.5835 83.5517 42.6507C83.6312 42.6962 83.7258 42.724 83.8338 42.739C83.9445 42.7502 84.0657 42.7614 84.1988 42.7653V43.1534L82.0774 43.2854L81.979 43.2017V42.4527H81.9404ZM93.5104 37.3891H95.3787V37.9632H93.5216V41.2592C93.5216 41.5058 93.5324 41.7122 93.5525 41.8778C93.5706 42.0425 93.6184 42.1876 93.6948 42.3103C93.7643 42.4269 93.8704 42.5144 94.0105 42.5731C94.1521 42.6329 94.3415 42.663 94.5789 42.663C94.6888 42.663 94.8509 42.6553 95.0627 42.6368C95.2773 42.6179 95.4277 42.5959 95.5165 42.5669V43.0041C95.2294 43.1118 94.9589 43.2017 94.7046 43.2754C94.4473 43.3495 94.1367 43.3873 93.767 43.3873C93.2214 43.3873 92.8367 43.2619 92.6152 43.0118C92.3918 42.7633 92.2814 42.4122 92.2814 41.9569V37.9632H91.1049V37.3891H92.3061V35.5539H93.5104V37.3891ZM153.939 37.3891H155.808V37.9632H153.95V41.2592C153.95 41.5058 153.962 41.7122 153.982 41.8778C154 42.0425 154.047 42.1876 154.124 42.3103C154.194 42.4269 154.3 42.5144 154.439 42.5731C154.582 42.6329 154.771 42.663 155.008 42.663C155.118 42.663 155.28 42.6553 155.492 42.6368C155.706 42.6179 155.857 42.5959 155.945 42.5669V43.0041C155.659 43.1118 155.389 43.2017 155.134 43.2754C154.877 43.3495 154.565 43.3873 154.196 43.3873C153.651 43.3873 153.265 43.2619 153.044 43.0118C152.821 42.7633 152.711 42.4122 152.711 41.9569V37.9632H151.534V37.3891H152.735V35.5539H153.939V37.3891ZM63.999 43.2619H60.8095V42.8671C60.9106 42.8598 61.0144 42.8505 61.1224 42.8424C61.2309 42.8351 61.3231 42.8181 61.4045 42.7938C61.526 42.7591 61.619 42.6962 61.6765 42.6063C61.7383 42.5168 61.7672 42.3998 61.7672 42.2575V38.6157C61.7672 38.4787 61.7356 38.3541 61.67 38.2418C61.6075 38.1276 61.5168 38.0346 61.4045 37.9632C61.3212 37.9158 61.222 37.8807 61.1066 37.8587C60.9916 37.8363 60.8674 37.8216 60.7373 37.8135V37.4253L62.9032 37.2934L62.9962 37.3767V38.2075H63.0267C63.1328 38.1137 63.2659 37.9972 63.4245 37.8648C63.5819 37.7317 63.7324 37.6221 63.8725 37.538C64.0365 37.4423 64.2305 37.3621 64.4543 37.2992C64.6797 37.2363 64.932 37.2038 65.2137 37.2038C65.8376 37.2038 66.3026 37.381 66.604 37.7317C66.9065 38.0852 67.0554 38.5551 67.0554 39.1401V42.2077C67.0554 42.3493 67.0824 42.4612 67.1365 42.5469C67.1885 42.6329 67.2785 42.7004 67.4066 42.7467C67.5127 42.788 67.6026 42.8139 67.6797 42.8305C67.7561 42.8471 67.8646 42.8594 67.9989 42.8671V43.2619H64.8101V42.8671C64.9116 42.8598 65.0239 42.8505 65.1435 42.8424C65.2654 42.8351 65.3646 42.8181 65.4452 42.7938C65.5679 42.7591 65.6598 42.6962 65.7184 42.6063C65.7794 42.5168 65.8091 42.3998 65.8091 42.2575V39.2234C65.8091 38.8052 65.6984 38.4834 65.4823 38.2569C65.2631 38.03 64.9976 37.9158 64.6866 37.9158C64.4516 37.9158 64.2371 37.9482 64.0438 38.0138C63.852 38.0786 63.6784 38.1604 63.5294 38.2569C63.3859 38.3487 63.2682 38.4463 63.1833 38.5528C63.0977 38.6585 63.0336 38.7427 62.9962 38.8052V42.1977C62.9962 42.3331 63.0247 42.4454 63.088 42.533C63.1486 42.6209 63.2412 42.6877 63.3651 42.7348C63.4577 42.7753 63.5564 42.8046 63.6649 42.8247C63.7737 42.8444 63.8837 42.8594 63.999 42.8671V43.2619ZM138.558 43.2619H135.396V42.8671C135.497 42.8598 135.6 42.8505 135.709 42.8424C135.817 42.8351 135.91 42.8181 135.991 42.7938C136.112 42.7591 136.204 42.6962 136.264 42.6063C136.324 42.5168 136.354 42.3998 136.354 42.2575V38.591C136.354 38.4629 136.321 38.3487 136.256 38.2461C136.194 38.1469 136.103 38.0593 135.991 37.9868C135.907 37.9405 135.804 37.9011 135.68 37.8714C135.555 37.8405 135.429 37.8216 135.296 37.8135V37.4253L137.476 37.2934L137.569 37.3767V38.2202H137.613C137.724 38.1199 137.859 38.003 138.017 37.8668C138.175 37.7317 138.323 37.6221 138.459 37.538C138.614 37.4423 138.806 37.3621 139.038 37.2992C139.268 37.2363 139.518 37.2038 139.787 37.2038C140.21 37.2038 140.573 37.3076 140.877 37.5122C141.179 37.7174 141.398 37.9652 141.532 38.2569C141.689 38.1156 141.829 37.9933 141.951 37.8891C142.069 37.7834 142.23 37.6711 142.428 37.55C142.595 37.4462 142.793 37.3621 143.019 37.2992C143.246 37.2363 143.499 37.2038 143.776 37.2038C144.326 37.2038 144.761 37.3663 145.084 37.6935C145.404 38.0223 145.566 38.5239 145.566 39.2018V42.1977C145.566 42.337 145.59 42.4508 145.644 42.5407C145.696 42.6306 145.786 42.7004 145.915 42.7467C146.017 42.7838 146.116 42.8108 146.215 42.8282C146.315 42.8451 146.427 42.8594 146.548 42.8671V43.2619H143.373V42.8671C143.474 42.8598 143.575 42.8505 143.679 42.8424C143.783 42.8351 143.875 42.8181 143.954 42.7938C144.078 42.7591 144.168 42.6962 144.227 42.6063C144.287 42.5168 144.317 42.3998 144.317 42.2575V39.2142C144.317 38.7975 144.213 38.4787 144.004 38.2522C143.794 38.028 143.533 37.9158 143.222 37.9158C143.005 37.9158 142.803 37.9462 142.613 38.0053C142.424 38.0643 142.25 38.1488 142.092 38.2569C141.964 38.3445 141.858 38.4382 141.773 38.5397C141.684 38.6427 141.621 38.7261 141.576 38.7951V42.1977C141.576 42.337 141.603 42.4508 141.655 42.5407C141.709 42.6306 141.799 42.7004 141.926 42.7467C142.027 42.7838 142.12 42.8108 142.2 42.8282C142.281 42.8451 142.387 42.8594 142.521 42.8671V43.2619H139.41V42.8671C139.512 42.8598 139.611 42.8505 139.705 42.8424C139.8 42.8351 139.885 42.8181 139.965 42.7938C140.088 42.7591 140.178 42.6962 140.24 42.6063C140.298 42.5168 140.328 42.3998 140.328 42.2575V39.2142C140.328 38.7975 140.224 38.4787 140.014 38.2522C139.804 38.028 139.545 37.9158 139.232 37.9158C139.015 37.9158 138.814 37.9462 138.625 38.0076C138.436 38.0709 138.261 38.1542 138.102 38.2623C137.974 38.3502 137.869 38.4479 137.78 38.5586C137.693 38.669 137.625 38.7504 137.582 38.8052V42.1857C137.582 42.3207 137.611 42.435 137.675 42.5268C137.735 42.6186 137.827 42.6877 137.952 42.7348C138.044 42.7753 138.138 42.8046 138.235 42.8247C138.332 42.8444 138.441 42.8594 138.558 42.8671V43.2619ZM134.269 43.2619H131.12V42.8671C131.221 42.8598 131.325 42.8505 131.434 42.8424C131.542 42.8351 131.634 42.8181 131.713 42.7938C131.837 42.7591 131.929 42.6962 131.987 42.6063C132.046 42.5168 132.077 42.3998 132.077 42.2575V38.6157C132.077 38.4876 132.044 38.3711 131.981 38.2646C131.918 38.1585 131.828 38.0709 131.713 37.9991C131.629 37.9505 131.51 37.9092 131.349 37.8764C131.192 37.8428 131.047 37.8216 130.914 37.8135V37.4253L133.214 37.2934L133.307 37.3767V42.1857C133.307 42.3242 133.335 42.4411 133.394 42.533C133.453 42.6229 133.547 42.6919 133.675 42.7348C133.773 42.7718 133.867 42.8 133.959 42.8224C134.052 42.8424 134.153 42.8594 134.269 42.8671V43.2619ZM99.9222 43.2619H96.4893V42.8671C96.5907 42.8598 96.6941 42.8505 96.803 42.8424C96.9106 42.8351 97.0036 42.8181 97.0842 42.7938C97.2066 42.7591 97.2984 42.6962 97.3574 42.6063C97.418 42.5168 97.4477 42.3998 97.4477 42.2575V38.6157C97.4477 38.4911 97.4153 38.3711 97.3513 38.2503C97.2872 38.1299 97.1969 38.0346 97.0842 37.9632C97.0009 37.9158 96.9017 37.8807 96.7864 37.8587C96.6725 37.8363 96.5483 37.8216 96.4175 37.8135V37.4253L98.5837 37.2934L98.6755 37.3767V38.2075H98.7072C98.98 37.8849 99.2844 37.6399 99.6201 37.4728C99.9539 37.3057 100.261 37.2216 100.538 37.2216C100.815 37.2216 101.04 37.3034 101.214 37.4666C101.387 37.6298 101.475 37.8506 101.475 38.1241C101.475 38.3279 101.419 38.5073 101.311 38.667C101.2 38.8245 101.032 38.9013 100.802 38.9013C100.555 38.9013 100.366 38.8445 100.238 38.728C100.107 38.6138 100.042 38.4853 100.042 38.3464C100.042 38.2588 100.051 38.1785 100.065 38.1079C100.08 38.0346 100.096 37.9632 100.107 37.8911C99.9018 37.8911 99.6587 37.9663 99.3817 38.1176C99.1042 38.2704 98.8692 38.4853 98.6755 38.7647V42.1977C98.6755 42.337 98.7052 42.4508 98.7643 42.5372C98.8249 42.6248 98.9175 42.6919 99.0456 42.7348C99.1559 42.7753 99.2975 42.8046 99.4719 42.8247C99.6456 42.8444 99.7961 42.8594 99.9222 42.8671V43.2619ZM59.4802 43.2619H55.2577V42.8366C55.3777 42.8274 55.5483 42.8162 55.774 42.8C55.9994 42.7853 56.1572 42.7614 56.2494 42.7286C56.3933 42.6777 56.4991 42.6063 56.5674 42.5168C56.6326 42.4269 56.6646 42.3018 56.6646 42.1429V35.995C56.6646 35.8568 56.6418 35.7391 56.592 35.6461C56.5446 35.552 56.4296 35.474 56.2494 35.4092C56.1163 35.3621 55.9523 35.3174 55.7516 35.2745C55.5502 35.234 55.3866 35.209 55.2577 35.2009V34.7768H59.4802V35.2009C59.3425 35.2043 59.1804 35.2198 58.9902 35.246C58.8011 35.2703 58.6363 35.3054 58.4943 35.3444C58.328 35.393 58.215 35.4702 58.159 35.5767C58.1004 35.6847 58.0734 35.8055 58.0734 35.9359V42.0777C58.0734 42.2077 58.1042 42.3242 58.1679 42.4269C58.2308 42.5287 58.3415 42.6101 58.4943 42.6692C58.5869 42.7024 58.7382 42.7363 58.9481 42.7737C59.1557 42.8123 59.3328 42.8324 59.4802 42.8366V43.2619ZM150.797 43.2619H147.648V42.8671C147.75 42.8598 147.853 42.8505 147.961 42.8424C148.07 42.8351 148.162 42.8181 148.241 42.7938C148.365 42.7591 148.458 42.6962 148.516 42.6063C148.575 42.5168 148.606 42.3998 148.606 42.2575V38.6157C148.606 38.4876 148.573 38.3711 148.509 38.2646C148.446 38.1585 148.356 38.0709 148.241 37.9991C148.158 37.9505 148.038 37.9092 147.878 37.8764C147.72 37.8428 147.577 37.8216 147.443 37.8135V37.4253L149.742 37.2934L149.835 37.3767V42.1857C149.835 42.3242 149.864 42.4411 149.922 42.533C149.981 42.6229 150.076 42.6919 150.204 42.7348C150.301 42.7718 150.396 42.8 150.489 42.8224C150.581 42.8424 150.682 42.8594 150.797 42.8671V43.2619ZM105.519 43.2619H102.37V42.8671C102.471 42.8598 102.575 42.8505 102.683 42.8424C102.792 42.8351 102.884 42.8181 102.962 42.7938C103.087 42.7591 103.179 42.6962 103.238 42.6063C103.297 42.5168 103.328 42.3998 103.328 42.2575V38.6157C103.328 38.4876 103.294 38.3711 103.231 38.2646C103.168 38.1585 103.078 38.0709 102.962 37.9991C102.879 37.9505 102.759 37.9092 102.6 37.8764C102.442 37.8428 102.298 37.8216 102.164 37.8135V37.4253L104.464 37.2934L104.556 37.3767V42.1857C104.556 42.3242 104.586 42.4411 104.644 42.533C104.703 42.6229 104.798 42.6919 104.926 42.7348C105.023 42.7718 105.117 42.8 105.21 42.8224C105.302 42.8424 105.404 42.8594 105.519 42.8671V43.2619ZM130.113 43.2619H122.789V42.8366C122.895 42.8274 123.048 42.8139 123.249 42.7938C123.449 42.7753 123.589 42.7483 123.668 42.7166C123.799 42.6649 123.896 42.5901 123.954 42.4898C124.015 42.3894 124.044 42.2636 124.044 42.1078V36.032C124.044 35.8966 124.02 35.7769 123.968 35.6728C123.919 35.5682 123.817 35.4848 123.668 35.4219C123.566 35.3745 123.425 35.3278 123.242 35.2803C123.059 35.236 122.908 35.209 122.789 35.2009V34.7768H126.745V35.2009C126.621 35.2043 126.463 35.2236 126.267 35.2603C126.071 35.2969 125.929 35.3278 125.841 35.356C125.69 35.4034 125.589 35.4848 125.532 35.6014C125.478 35.7171 125.451 35.8398 125.451 35.9726V41.6713C125.451 41.9341 125.465 42.1386 125.494 42.2837C125.523 42.4292 125.589 42.5407 125.695 42.6229C125.797 42.6943 125.947 42.7406 126.148 42.7614C126.348 42.7838 126.627 42.7938 126.988 42.7938C127.153 42.7938 127.322 42.7923 127.498 42.7845C127.674 42.7753 127.84 42.7599 128.001 42.7355C128.153 42.7112 128.296 42.6784 128.427 42.6375C128.555 42.5943 128.652 42.5415 128.712 42.4778C128.893 42.2945 129.103 42.0167 129.344 41.6455C129.583 41.2724 129.75 40.9702 129.842 40.7395H130.311V40.7387V40.7395L130.113 43.2619ZM170.914 43.1534V43.1546V43.1534ZM73.8736 42.1178V38.669C73.8396 38.5652 73.781 38.454 73.7023 38.3344C73.6232 38.2136 73.524 38.1056 73.4044 38.0053C73.2782 37.9053 73.1273 37.8216 72.9556 37.7568C72.7847 37.6916 72.584 37.6588 72.3564 37.6588C72.0905 37.6588 71.8467 37.7197 71.6263 37.8444C71.4033 37.9663 71.2073 38.1446 71.0363 38.3757C70.8708 38.5995 70.7423 38.8831 70.6478 39.2277C70.5536 39.573 70.5058 39.9543 70.5058 40.3733C70.5058 40.7079 70.5424 41.0123 70.6119 41.2859C70.6817 41.5594 70.801 41.813 70.9681 42.0468C71.1236 42.2717 71.3196 42.4508 71.5611 42.5858C71.7996 42.7205 72.0836 42.79 72.4154 42.79C72.7665 42.79 73.0598 42.719 73.2898 42.5793C73.5221 42.4411 73.7161 42.286 73.8736 42.1178ZM168.529 42.1178V38.669C168.496 38.5652 168.437 38.454 168.358 38.3344C168.279 38.2136 168.18 38.1056 168.06 38.0053C167.934 37.9053 167.783 37.8216 167.611 37.7568C167.44 37.6916 167.239 37.6588 167.012 37.6588C166.746 37.6588 166.503 37.7197 166.282 37.8444C166.058 37.9663 165.862 38.1446 165.691 38.3757C165.526 38.5995 165.398 38.8831 165.304 39.2277C165.209 39.573 165.161 39.9543 165.161 40.3733C165.161 40.7079 165.197 41.0123 165.268 41.2859C165.337 41.5594 165.457 41.813 165.623 42.0468C165.779 42.2717 165.975 42.4508 166.216 42.5858C166.455 42.7205 166.739 42.79 167.07 42.79C167.422 42.79 167.715 42.719 167.945 42.5793C168.177 42.4411 168.372 42.286 168.529 42.1178ZM110.971 39.6259C110.971 39.4021 110.951 39.1629 110.908 38.9078C110.865 38.6528 110.8 38.4401 110.707 38.2681C110.606 38.0852 110.466 37.9362 110.29 37.8193C110.115 37.7032 109.887 37.646 109.61 37.646C109.148 37.646 108.764 37.8193 108.458 38.1689C108.152 38.5173 107.986 39.0039 107.96 39.6259H110.971ZM161.244 39.6259C161.244 39.4021 161.224 39.1629 161.181 38.9078C161.139 38.6528 161.073 38.4401 160.98 38.2681C160.879 38.0852 160.739 37.9362 160.564 37.8193C160.388 37.7032 160.16 37.646 159.883 37.646C159.42 37.646 159.038 37.8193 158.73 38.1689C158.424 38.5173 158.26 39.0039 158.232 39.6259H161.244ZM133.437 34.9686C133.437 35.1943 133.356 35.393 133.189 35.562C133.024 35.7314 132.822 35.8175 132.578 35.8175C132.354 35.8175 132.159 35.7357 131.994 35.5747C131.83 35.4135 131.746 35.2275 131.746 35.021C131.746 34.8015 131.83 34.6113 131.994 34.4484C132.159 34.2844 132.354 34.2026 132.578 34.2026C132.831 34.2026 133.036 34.2786 133.196 34.4318C133.356 34.5866 133.437 34.7641 133.437 34.9686ZM149.966 34.9686C149.966 35.1943 149.885 35.393 149.717 35.562C149.553 35.7314 149.351 35.8175 149.107 35.8175C148.884 35.8175 148.688 35.7357 148.523 35.5747C148.358 35.4135 148.275 35.2275 148.275 35.021C148.275 34.8015 148.358 34.6113 148.523 34.4484C148.688 34.2844 148.884 34.2026 149.107 34.2026C149.359 34.2026 149.564 34.2786 149.724 34.4318C149.885 34.5866 149.966 34.7641 149.966 34.9686ZM104.688 34.9686C104.688 35.1943 104.606 35.393 104.44 35.562C104.275 35.7314 104.072 35.8175 103.828 35.8175C103.606 35.8175 103.41 35.7357 103.244 35.5747C103.08 35.4135 102.997 35.2275 102.997 35.021C102.997 34.8015 103.08 34.6113 103.244 34.4484C103.41 34.2844 103.606 34.2026 103.828 34.2026C104.081 34.2026 104.286 34.2786 104.446 34.4318C104.606 34.5866 104.688 34.7641 104.688 34.9686ZM150.396 25.4972C148.227 25.4972 146.53 24.8089 145.301 23.4367C144.076 22.0654 143.465 20.2225 143.465 17.9093C143.465 16.9045 143.631 15.9638 143.957 15.0867C144.29 14.2104 144.766 13.4179 145.395 12.6994C145.991 12.0157 146.743 11.4608 147.646 11.0402C148.544 10.6188 149.529 10.407 150.592 10.407C152.061 10.407 153.26 10.7435 154.178 11.4168C155.102 12.0901 155.563 13.0069 155.563 14.1657C155.563 14.6507 155.443 15.0763 155.199 15.4487C154.956 15.8241 154.555 16.0085 153.996 16.0085C153.399 16.0085 152.938 15.8638 152.606 15.5717C152.278 15.285 152.113 14.9578 152.113 14.6009C152.113 14.1657 152.175 13.7196 152.294 13.2589C152.419 12.7989 152.486 12.4625 152.506 12.2487C152.326 11.9516 152.056 11.749 151.693 11.6495C151.335 11.5453 150.946 11.4959 150.53 11.4959C150.049 11.4959 149.582 11.5951 149.14 11.7934C148.699 11.9913 148.274 12.3583 147.858 12.8877C147.48 13.3735 147.18 14.0271 146.945 14.8486C146.713 15.6713 146.592 16.6514 146.592 17.7912C146.592 19.5936 147.013 21.0594 147.848 22.1985C148.683 23.3333 149.784 23.9029 151.138 23.9029C152.123 23.9029 152.948 23.6744 153.613 23.2195C154.271 22.7634 154.888 22.0843 155.455 21.1733L156.429 21.7829C155.76 22.9266 154.878 23.8288 153.784 24.4971C152.688 25.1658 151.558 25.4972 150.396 25.4972ZM90.0118 21.7532C89.3844 22.8977 88.5432 23.8041 87.4914 24.4824C86.4372 25.1604 85.2237 25.4972 83.8589 25.4972C82.6496 25.4972 81.597 25.2939 80.6894 24.888C79.7811 24.4824 79.0337 23.9322 78.4483 23.2342C77.8618 22.54 77.4204 21.7231 77.1306 20.7971C76.8443 19.866 76.7004 18.8855 76.7004 17.8502C76.7004 16.9242 76.8555 16.0132 77.1611 15.116C77.4721 14.2201 77.9243 13.4179 78.5263 12.6994C79.102 12.0157 79.8174 11.4608 80.6736 11.0402C81.5294 10.6188 82.4898 10.407 83.5537 10.407C84.6476 10.407 85.5864 10.5698 86.365 10.9021C87.148 11.2281 87.7819 11.6792 88.2646 12.2487C88.7304 12.7939 89.0776 13.4325 89.3065 14.1657C89.5349 14.9034 89.6491 15.701 89.6491 16.5576V17.5188H79.7244C79.7244 18.4545 79.8174 19.3069 80.0037 20.0686C80.1901 20.8368 80.4868 21.5051 80.8962 22.0901C81.291 22.6496 81.8046 23.0902 82.4432 23.4174C83.081 23.7389 83.8438 23.9029 84.7259 23.9029C85.6277 23.9029 86.4067 23.6991 87.0592 23.2986C87.709 22.8977 88.341 22.1742 88.9484 21.1285L90.0118 21.7532ZM170.914 21.7532C170.287 22.8977 169.446 23.8041 168.393 24.4824C167.34 25.1604 166.126 25.4972 164.762 25.4972C163.553 25.4972 162.5 25.2939 161.592 24.888C160.683 24.4824 159.936 23.9322 159.349 23.2342C158.764 22.54 158.323 21.7231 158.032 20.7971C157.747 19.866 157.601 18.8855 157.601 17.8502C157.601 16.9242 157.757 16.0132 158.064 15.116C158.375 14.2201 158.827 13.4179 159.428 12.6994C160.004 12.0157 160.719 11.4608 161.576 11.0402C162.432 10.6188 163.392 10.407 164.455 10.407C165.55 10.407 166.489 10.5698 167.266 10.9021C168.051 11.2281 168.684 11.6792 169.166 12.2487C169.633 12.7939 169.98 13.4325 170.208 14.1657C170.437 14.9034 170.551 15.701 170.551 16.5576V17.5188H160.626C160.626 18.4545 160.719 19.3069 160.906 20.0686C161.093 20.8368 161.389 21.5051 161.799 22.0901C162.194 22.6496 162.707 23.0902 163.344 23.4174C163.982 23.7389 164.746 23.9029 165.627 23.9029C166.531 23.9029 167.309 23.6991 167.963 23.2986C168.61 22.8977 169.244 22.1742 169.851 21.1285L170.914 21.7532ZM118.219 23.338C117.561 24.031 116.855 24.5658 116.097 24.9327C115.345 25.2989 114.437 25.4826 113.374 25.4826C112.248 25.4826 111.324 25.155 110.598 24.4971C109.872 23.838 109.509 22.9768 109.509 21.9164C109.509 21.362 109.592 20.8715 109.752 20.4359C109.918 20.0003 110.158 19.6082 110.484 19.2571C110.738 18.9696 111.07 18.7123 111.485 18.4838C111.9 18.2569 112.294 18.0733 112.658 17.939C113.114 17.7765 114.038 17.469 115.428 17.023C116.824 16.5769 117.763 16.2312 118.251 15.9784V14.5419C118.251 14.418 118.225 14.1753 118.167 13.8192C118.11 13.4626 117.991 13.1204 117.81 12.8036C117.607 12.4424 117.321 12.1302 116.948 11.8679C116.58 11.5993 116.056 11.4666 115.376 11.4666C114.909 11.4666 114.479 11.5403 114.079 11.6938C113.68 11.8432 113.395 12.0006 113.234 12.165C113.234 12.3583 113.28 12.6396 113.38 13.0212C113.477 13.3974 113.524 13.7443 113.524 14.0669C113.524 14.403 113.363 14.7105 113.047 14.9926C112.725 15.2754 112.284 15.4139 111.713 15.4139C111.21 15.4139 110.837 15.2407 110.598 14.8988C110.359 14.5565 110.241 14.1703 110.241 13.7443C110.241 13.2982 110.407 12.873 110.733 12.4667C111.066 12.0612 111.49 11.6989 112.021 11.3821C112.476 11.1096 113.026 10.882 113.674 10.6887C114.323 10.5004 114.956 10.407 115.574 10.407C116.424 10.407 117.166 10.4664 117.805 10.5745C118.437 10.684 119.008 10.9264 119.527 11.2933C120.046 11.6495 120.435 12.1345 120.705 12.7484C120.974 13.3638 121.109 14.156 121.109 15.1211C121.109 16.5078 121.094 17.7322 121.062 18.801C121.032 19.8714 121.016 21.0398 121.016 22.3077C121.016 22.6843 121.083 22.9814 121.223 23.2037C121.358 23.4271 121.571 23.6154 121.851 23.7736C122.007 23.8577 122.246 23.9079 122.572 23.9175C122.904 23.9268 123.241 23.9322 123.584 23.9322V24.8582C123.106 25.0215 122.691 25.155 122.334 25.2592C121.97 25.3587 121.566 25.4127 121.109 25.4127C120.315 25.4127 119.688 25.2345 119.215 24.8833C118.743 24.5268 118.443 24.0113 118.312 23.338H118.219ZM107.553 25.1206H100.368V24.1726C100.599 24.1537 100.835 24.134 101.082 24.1139C101.329 24.0946 101.54 24.0557 101.72 23.9958C102.004 23.9129 102.215 23.7605 102.348 23.5444C102.481 23.3283 102.554 23.0482 102.554 22.7044V13.943C102.554 13.6343 102.477 13.3538 102.332 13.0984C102.188 12.8433 101.982 12.6319 101.72 12.4602C101.53 12.3425 101.257 12.2441 100.892 12.1657C100.532 12.082 100.203 12.033 99.8991 12.0129V11.0803L105.146 10.7608L105.357 10.9626V22.5327C105.357 22.8672 105.424 23.1462 105.558 23.3677C105.692 23.5841 105.908 23.75 106.201 23.8538C106.422 23.9426 106.639 24.0109 106.849 24.0645C107.06 24.1139 107.291 24.154 107.553 24.1726V25.1206ZM64.3729 25.1206H55.252V24.0908C55.4958 24.0703 55.8493 24.0367 56.3108 23.987C56.7722 23.9426 57.0937 23.8778 57.2754 23.7987C57.5771 23.6744 57.7994 23.4915 57.9345 23.2492C58.0738 23.0057 58.142 22.6994 58.142 22.3231V7.43471C58.142 7.09284 58.0903 6.79611 57.9858 6.53373C57.8882 6.27096 57.6489 6.07263 57.2754 5.93873C57.0215 5.8496 56.6901 5.77127 56.2849 5.70104C55.8794 5.62696 55.5379 5.58258 55.252 5.56252V4.53227H65.2083C66.1213 4.53227 66.9767 4.62218 67.7762 4.80006C68.5742 4.97833 69.3015 5.2654 69.9505 5.6613C70.5776 6.04832 71.0815 6.55379 71.4546 7.17734C71.8285 7.80167 72.0199 8.5541 72.0199 9.43617C72.0199 10.2287 71.8906 10.9322 71.636 11.5403C71.3813 12.1499 71.0082 12.6751 70.5154 13.1204C70.059 13.5359 69.5083 13.8986 68.8709 14.2004C68.2331 14.5075 67.5269 14.7653 66.7599 14.9775C67.8229 16.3246 68.7046 17.4544 69.4107 18.3758C70.1161 19.2914 70.9765 20.4108 72.0041 21.7231C72.4501 22.3077 72.8495 22.7333 73.2138 23.0107C73.5715 23.2832 73.9288 23.512 74.2822 23.6845C74.5465 23.8087 74.873 23.9079 75.2723 23.9766C75.6667 24.0414 75.9943 24.0811 76.2582 24.0908V25.1206H70.4529C69.1669 23.1944 68.005 21.5302 66.9613 20.1284C65.9237 18.7269 64.7985 17.2803 63.5838 15.7905H61.379V22.3231C61.379 22.66 61.4361 22.9567 61.5453 23.2145C61.6542 23.4664 61.893 23.6656 62.2611 23.7987C62.4428 23.8681 62.7596 23.9322 63.2157 23.987C63.6722 24.0464 64.0565 24.0811 64.3729 24.0908V25.1206ZM98.4841 25.1206H91.4268V24.1984C91.6521 24.1787 91.8925 24.1552 92.1487 24.1313C92.4041 24.1124 92.6137 24.073 92.7796 24.0263C93.0547 23.9449 93.2596 23.796 93.395 23.5864C93.5305 23.3758 93.6053 23.1026 93.6007 22.7684L93.3703 7.4895C93.3684 7.31664 93.2893 6.81811 93.194 6.47469C93.1508 6.3188 93.1041 6.19379 93.0597 6.14555C93.013 6.09424 92.9972 6.04214 92.9316 5.98619C92.6781 5.76973 92.993 6.07031 92.756 5.86928C92.5998 5.73616 92.8205 5.81911 92.3517 5.72689C91.8867 5.63506 91.108 5.84034 90.8225 5.82143L90.797 4.81433L96.0598 4.54076L96.3102 4.74488L96.3307 22.601C96.3307 22.9262 96.3932 23.1929 96.5209 23.4039C96.6478 23.6131 96.852 23.7775 97.1371 23.887C97.352 23.9831 97.5623 24.0499 97.7726 24.0973C97.9837 24.1456 98.2233 24.1787 98.4841 24.1984V25.1206ZM132.414 25.1206H125.073V24.1649C125.306 24.1456 125.545 24.1255 125.793 24.1058C126.043 24.0857 126.256 24.0464 126.442 23.987C126.723 23.9029 126.935 23.7489 127.071 23.5313C127.211 23.3133 127.278 23.0312 127.278 22.6843V13.8481C127.278 13.5163 127.205 13.2141 127.055 12.9421C126.909 12.6647 126.702 12.4378 126.442 12.2638C126.25 12.1499 126.022 12.0658 125.757 12.011C125.493 11.9566 125.208 11.9223 124.906 11.9022V10.9615L129.892 10.6397L130.105 10.8422V12.858H130.178C130.421 12.6303 130.728 12.3479 131.09 12.0261C131.454 11.7039 131.802 11.4365 132.123 11.2343C132.502 11.0012 132.948 10.8075 133.462 10.6536C133.981 10.5004 134.562 10.4213 135.211 10.4213C136.647 10.4213 137.716 10.8519 138.411 11.7039C139.106 12.5613 139.448 13.7003 139.448 15.1211V22.5655C139.448 22.9066 139.512 23.1798 139.636 23.3877C139.755 23.5957 139.962 23.7589 140.258 23.8731C140.502 23.9719 140.709 24.0367 140.886 24.0753C141.063 24.1147 141.312 24.1456 141.623 24.1649V25.1206H134.282V24.1649C134.515 24.1456 134.774 24.1255 135.049 24.1058C135.33 24.0857 135.557 24.0464 135.745 23.987C136.025 23.9029 136.237 23.7489 136.373 23.5313C136.512 23.3133 136.58 23.0312 136.58 22.6843V15.3248C136.58 14.3092 136.326 13.5271 135.827 12.9768C135.324 12.427 134.712 12.1499 133.996 12.1499C133.457 12.1499 132.964 12.229 132.517 12.3872C132.077 12.5458 131.677 12.7438 131.335 12.9768C131.003 13.1995 130.733 13.4375 130.535 13.6953C130.339 13.9527 130.194 14.156 130.105 14.3092V22.54C130.105 22.8672 130.172 23.14 130.318 23.353C130.459 23.5652 130.67 23.7292 130.956 23.8434C131.169 23.9426 131.396 24.0113 131.646 24.0614C131.895 24.1101 132.149 24.1456 132.414 24.1649V25.1206ZM123.584 24.8582V24.8586V24.8582ZM118.282 17.1966C117.42 17.4389 116.663 17.6766 116.014 17.9093C115.366 18.1427 114.764 18.4294 114.209 18.7813C113.7 19.1089 113.301 19.4998 113.005 19.9497C112.714 20.3962 112.564 20.931 112.564 21.5499C112.564 22.3521 112.788 22.9463 113.228 23.3225C113.67 23.6991 114.23 23.8878 114.904 23.8878C115.626 23.8878 116.258 23.7192 116.808 23.3877C117.353 23.0555 117.815 22.66 118.188 22.2039L118.282 17.1966ZM86.6556 16.2999C86.6556 15.7554 86.6089 15.1762 86.5101 14.5565C86.4113 13.938 86.2605 13.4229 86.0486 13.0069C85.814 12.5613 85.4938 12.1993 85.0878 11.9169C84.6846 11.6348 84.1598 11.4959 83.522 11.4959C82.4582 11.4959 81.5765 11.9169 80.8704 12.7638C80.1654 13.6108 79.7865 14.7896 79.7244 16.2999H86.6556ZM167.557 16.2999C167.557 15.7554 167.511 15.1762 167.412 14.5565C167.313 13.938 167.163 13.4229 166.951 13.0069C166.717 12.5613 166.396 12.1993 165.992 11.9169C165.586 11.6348 165.063 11.4959 164.424 11.4959C163.36 11.4959 162.479 11.9169 161.773 12.7638C161.067 13.6108 160.689 14.7896 160.626 16.2999H167.557ZM63.9631 5.70683H61.379V14.5419H63.3716C64.7669 14.5419 65.9349 14.1163 66.8621 13.2589C67.797 12.4027 68.2636 11.2381 68.2639 9.76724C68.2639 8.51937 67.89 7.53388 67.1384 6.80113C66.391 6.07263 65.3272 5.70683 63.9631 5.70683ZM105.655 5.1674C105.655 5.71262 105.47 6.18877 105.09 6.59663C104.714 7.00371 104.251 7.21014 103.695 7.21014C103.186 7.21014 102.739 7.01412 102.363 6.62595C101.988 6.23816 101.797 5.79056 101.797 5.29473C101.797 4.76456 101.988 4.3077 102.363 3.91489C102.739 3.52209 103.186 3.32568 103.695 3.32568C104.272 3.32568 104.74 3.50742 105.105 3.87631C105.47 4.24866 105.655 4.67581 105.655 5.1674Z" fill="black"/>
</svg>
