<svg width="116" height="54" viewBox="0 0 116 54" fill="none" xmlns="http://www.w3.org/2000/svg">
<path d="M6.9818 47.4426H9.42971C9.78419 47.4426 10.0651 47.3613 10.2657 47.1988C10.4731 47.0363 10.5734 46.8128 10.5734 46.5352C10.5734 46.2576 10.4731 46.0274 10.2657 45.8649C10.0584 45.7023 9.7775 45.6279 9.42971 45.6279H6.83466L7.30953 45.0252V50.7944H6.24609V44.7002H9.53004C9.9514 44.7002 10.3259 44.7747 10.6403 44.9304C10.9613 45.0862 11.2088 45.2961 11.3894 45.5737C11.57 45.8513 11.6569 46.1696 11.6569 46.5352C11.6569 46.9009 11.57 47.2056 11.3894 47.4832C11.2088 47.7541 10.9613 47.9707 10.6403 48.1265C10.3193 48.2822 9.9514 48.3567 9.53004 48.3567H6.9818V47.4493V47.4426ZM8.17232 47.9369H9.41633L11.8107 50.7876H10.54L8.17232 47.9369Z" fill="black"/>
<path d="M19.6159 47.7409L19.1878 50.463L18.6795 49.8604H23.3479V50.788H18.0977L18.5792 47.7409L18.0977 44.6938H23.3078V45.6215H18.6795L19.1878 45.0189L19.6159 47.7409ZM23.1205 47.294V48.1878H18.9136V47.294H23.1205Z" fill="black"/>
<path d="M29.6551 48.8107H30.7319C30.7654 49.0544 30.8657 49.2711 31.0329 49.454C31.2001 49.6368 31.4275 49.779 31.7017 49.8805C31.9826 49.9821 32.3037 50.0295 32.6648 50.0295C33.2066 50.0295 33.6346 49.9415 33.949 49.7722C34.2633 49.6029 34.4239 49.3727 34.4239 49.0748C34.4239 48.8378 34.3302 48.6549 34.1496 48.5398C33.9691 48.4179 33.6413 48.3299 33.1598 48.269L31.8623 48.0997C31.1332 48.0049 30.6049 47.8221 30.2771 47.5512C29.9494 47.2804 29.7822 46.9012 29.7822 46.4069C29.7822 46.0344 29.8959 45.7094 30.1166 45.4386C30.3373 45.1677 30.6517 44.951 31.0597 44.8021C31.4676 44.6531 31.9425 44.5786 32.491 44.5786C33.0394 44.5786 33.5076 44.6599 33.9289 44.8224C34.3436 44.9849 34.678 45.2083 34.9255 45.4995C35.1729 45.7907 35.3067 46.1292 35.3335 46.522H34.2567C34.2299 46.3053 34.143 46.1157 33.9891 45.96C33.8353 45.8042 33.6346 45.6823 33.3738 45.5875C33.1197 45.4995 32.812 45.4521 32.4642 45.4521C31.9693 45.4521 31.5813 45.5334 31.2871 45.6959C30.9928 45.8584 30.8456 46.0818 30.8456 46.3595C30.8456 46.5761 30.9326 46.7454 31.1065 46.8605C31.2804 46.9757 31.5813 47.0637 32.0161 47.1246L33.3337 47.3142C33.8754 47.3887 34.3035 47.4903 34.6111 47.6189C34.9255 47.7476 35.1462 47.9169 35.28 48.1335C35.4137 48.3502 35.4806 48.6211 35.4806 48.9596C35.4806 49.3524 35.3602 49.691 35.1261 49.9821C34.892 50.2733 34.5576 50.5035 34.1363 50.6592C33.7082 50.8218 33.2133 50.8962 32.6448 50.8962C32.0763 50.8962 31.5546 50.8082 31.1132 50.6322C30.6717 50.4561 30.324 50.2123 30.0631 49.8941C29.809 49.5826 29.6685 49.217 29.6484 48.7971L29.6551 48.8107Z" fill="black"/>
<path d="M45.165 50.903C44.4828 50.903 43.8809 50.7676 43.3592 50.5035C42.8375 50.2394 42.4362 49.867 42.1486 49.393C41.861 48.919 41.7139 48.3705 41.7139 47.7408C41.7139 47.1111 41.861 46.5626 42.1486 46.0886C42.4362 45.6146 42.8442 45.2422 43.3592 44.9781C43.8809 44.714 44.4828 44.5786 45.165 44.5786C45.8472 44.5786 46.4492 44.714 46.9708 44.9781C47.4925 45.2422 47.8938 45.6146 48.1814 46.0886C48.469 46.5626 48.6162 47.1111 48.6162 47.7408C48.6162 48.3705 48.469 48.919 48.1814 49.393C47.8938 49.867 47.4858 50.2394 46.9708 50.5035C46.4492 50.7676 45.8472 50.903 45.165 50.903ZM45.165 49.9415C45.6533 49.9415 46.0746 49.8535 46.4224 49.6706C46.7769 49.4946 47.0511 49.2373 47.2451 48.9055C47.439 48.5737 47.5394 48.1877 47.5394 47.734C47.5394 47.2804 47.439 46.8944 47.2451 46.5626C47.0511 46.2308 46.7769 45.9803 46.4224 45.7974C46.0679 45.6214 45.6466 45.5266 45.165 45.5266C44.6835 45.5266 44.2621 45.6146 43.9076 45.7974C43.5531 45.9735 43.2789 46.2308 43.0783 46.5626C42.8843 46.8944 42.784 47.2804 42.784 47.734C42.784 48.1877 42.8843 48.5737 43.0783 48.9055C43.2722 49.2373 43.5465 49.4878 43.9076 49.6706C44.2621 49.8467 44.6835 49.9415 45.165 49.9415Z" fill="black"/>
<path d="M56.1805 48.1743C56.1805 48.5399 56.254 48.8514 56.3945 49.1155C56.5416 49.3796 56.749 49.5827 57.0165 49.7317C57.284 49.8807 57.6118 49.9484 57.9863 49.9484C58.3609 49.9484 58.6886 49.8739 58.9561 49.7317C59.2236 49.5895 59.431 49.3864 59.5714 49.1155C59.7186 48.8514 59.7855 48.5332 59.7855 48.1743V44.6938H60.8422V48.2149C60.8422 48.7499 60.7218 49.2238 60.481 49.6234C60.2403 50.0296 59.9058 50.3411 59.4778 50.5646C59.0497 50.788 58.5481 50.9031 57.9796 50.9031C57.4111 50.9031 56.9162 50.788 56.4814 50.5646C56.0534 50.3411 55.7123 50.0229 55.4715 49.6234C55.2307 49.2171 55.1104 48.7499 55.1104 48.2149V44.6938H56.1671V48.1743H56.1805Z" fill="black"/>
<path d="M68.4203 47.4426H70.8682C71.2227 47.4426 71.5036 47.3613 71.7042 47.1988C71.9116 47.0363 72.0119 46.8128 72.0119 46.5352C72.0119 46.2576 71.9116 46.0274 71.7042 45.8649C71.4969 45.7023 71.216 45.6279 70.8682 45.6279H68.2665L68.7413 45.0252V50.7944H67.6846V44.7002H70.9685C71.3899 44.7002 71.7644 44.7747 72.0788 44.9304C72.3931 45.0862 72.6473 45.2961 72.8279 45.5737C73.0084 45.8445 73.0954 46.1696 73.0954 46.5352C73.0954 46.9009 73.0084 47.2056 72.8279 47.4832C72.6473 47.7541 72.3998 47.9707 72.0788 48.1265C71.7577 48.2822 71.3899 48.3567 70.9685 48.3567H68.427V47.4493L68.4203 47.4426ZM69.6108 47.9369H70.8548L73.2492 50.7876H71.9784L69.6108 47.9369Z" fill="black"/>
<path d="M86.057 48.3773C86.0035 48.8784 85.8296 49.3185 85.542 49.6977C85.2477 50.0769 84.8665 50.3749 84.3983 50.5848C83.9302 50.7947 83.3884 50.903 82.7865 50.903C82.1109 50.903 81.5224 50.7676 81.0141 50.5035C80.5058 50.2394 80.1112 49.867 79.8236 49.393C79.5426 48.919 79.3955 48.3705 79.3955 47.7408C79.3955 47.1111 79.536 46.5626 79.8236 46.0886C80.1112 45.6146 80.5058 45.2422 81.0141 44.9781C81.5224 44.714 82.1109 44.5786 82.7865 44.5786C83.3884 44.5786 83.9302 44.687 84.3983 44.8969C84.8665 45.1068 85.2477 45.4047 85.542 45.7839C85.8363 46.1631 86.0035 46.6032 86.057 47.1111H84.9869C84.9267 46.7861 84.7996 46.5084 84.6057 46.2714C84.4117 46.0412 84.1576 45.8584 83.8499 45.7297C83.5422 45.6011 83.1811 45.5401 82.7731 45.5401C82.3049 45.5401 81.8969 45.6282 81.5491 45.811C81.2013 45.9938 80.9405 46.2444 80.7532 46.5761C80.566 46.9079 80.4723 47.2939 80.4723 47.7476C80.4723 48.2013 80.566 48.5872 80.7532 48.919C80.9405 49.2508 81.208 49.5014 81.5491 49.6842C81.8902 49.867 82.3049 49.955 82.7731 49.955C83.1811 49.955 83.5355 49.8941 83.8499 49.7654C84.1642 49.6368 84.4117 49.4607 84.6057 49.2237C84.7996 48.9867 84.9267 48.7091 84.9869 48.3841H86.057V48.3773Z" fill="black"/>
<path d="M93.8893 47.7409L93.4613 50.463L92.953 49.8604H97.6214V50.788H92.3711L92.8527 47.7409L92.3711 44.6938H97.5813V45.6215H92.953L93.4613 45.0189L93.8893 47.7409ZM97.394 47.294V48.1878H93.1871V47.294H97.394Z" fill="black"/>
<path d="M103.929 48.8107H105.005C105.039 49.0544 105.139 49.2711 105.306 49.454C105.474 49.6368 105.701 49.779 105.975 49.8805C106.256 49.9821 106.577 50.0295 106.938 50.0295C107.48 50.0295 107.908 49.9415 108.222 49.7722C108.537 49.6029 108.697 49.3727 108.697 49.0748C108.697 48.8378 108.604 48.6549 108.423 48.5398C108.243 48.4179 107.915 48.3299 107.44 48.269L106.136 48.0997C105.407 48.0049 104.878 47.8221 104.551 47.5512C104.223 47.2804 104.056 46.9012 104.056 46.4069C104.056 46.0344 104.169 45.7094 104.39 45.4386C104.611 45.1677 104.925 44.951 105.333 44.8021C105.741 44.6531 106.216 44.5786 106.764 44.5786C107.313 44.5786 107.781 44.6599 108.202 44.8224C108.617 44.9849 108.951 45.2083 109.199 45.4995C109.446 45.7907 109.58 46.1292 109.607 46.522H108.53C108.503 46.3053 108.416 46.1157 108.263 45.96C108.109 45.8042 107.908 45.6823 107.647 45.5875C107.393 45.4995 107.085 45.4521 106.738 45.4521C106.243 45.4521 105.855 45.5334 105.561 45.6959C105.266 45.8584 105.119 46.0818 105.119 46.3595C105.119 46.5761 105.206 46.7454 105.38 46.8605C105.554 46.9757 105.855 47.0637 106.29 47.1246L107.607 47.3142C108.149 47.3887 108.577 47.4903 108.885 47.6189C109.199 47.7476 109.42 47.9169 109.553 48.1335C109.687 48.3502 109.754 48.6211 109.754 48.9596C109.754 49.3524 109.634 49.691 109.4 49.9821C109.165 50.2733 108.831 50.5035 108.41 50.6592C107.982 50.8218 107.487 50.8962 106.918 50.8962C106.35 50.8962 105.828 50.8082 105.387 50.6322C104.945 50.4561 104.597 50.2123 104.337 49.8941C104.082 49.5826 103.942 49.217 103.922 48.7971L103.929 48.8107Z" fill="black"/>
<path d="M6.58691 26.6485H14.4055C14.5861 27.8131 15.0944 28.8356 15.9304 29.7091C16.7665 30.5826 17.8834 31.2597 19.2946 31.7337C20.7059 32.2077 22.3311 32.4447 24.1838 32.4447C26.8791 32.4447 29.006 32.052 30.5711 31.2733C32.1294 30.4878 32.912 29.3976 32.912 27.9824C32.912 26.8787 32.4638 26.0255 31.5743 25.4296C30.6781 24.8338 29.0194 24.3936 26.5982 24.116L19.7361 23.3305C15.3084 22.843 12.1047 21.7867 10.1183 20.1751C8.1319 18.5635 7.14204 16.3155 7.14204 13.4309C7.14204 11.1625 7.80418 9.22591 9.12177 7.63465C10.4394 6.0434 12.2987 4.81779 14.6931 3.97815C17.0875 3.13174 19.9033 2.71191 23.1471 2.71191C26.3909 2.71191 29.0996 3.17913 31.5542 4.11357C34.0088 5.04801 35.9618 6.35488 37.4199 8.02739C38.8712 9.6999 39.6604 11.6568 39.7808 13.8981H31.9622C31.8084 12.8824 31.3603 12.0021 30.6246 11.2505C29.8822 10.4989 28.8589 9.91658 27.5546 9.50353C26.2504 9.09048 24.7188 8.88057 22.9665 8.88057C20.5119 8.88057 18.5589 9.24622 17.1009 9.9843C15.6495 10.7224 14.9205 11.7652 14.9205 13.1126C14.9205 14.1554 15.3552 14.9612 16.218 15.53C17.0808 16.0988 18.6057 16.5186 20.7861 16.7962L27.9225 17.6697C31.0727 18.0083 33.5808 18.55 35.4468 19.3016C37.3128 20.0532 38.6438 21.0554 39.4464 22.3148C40.249 23.5743 40.6503 25.1656 40.6503 27.1022C40.6503 29.4044 39.9614 31.4223 38.5836 33.1557C37.2058 34.8892 35.2729 36.2299 32.7849 37.1846C30.2968 38.1326 27.3874 38.6134 24.0567 38.6134C20.7259 38.6134 17.6761 38.1123 15.1011 37.1169C12.5261 36.1215 10.4929 34.7266 9.00807 32.9255C7.52327 31.1311 6.72068 29.0388 6.60029 26.6417L6.58691 26.6485Z" fill="black"/>
<path d="M82.6792 37.9293H74.4526L71.2155 30.6569L68.3864 24.3054L61.7716 9.44918L55.1503 24.3054H61.5041C65.691 24.3054 69.4966 26.7905 71.2155 30.6569H52.3211L49.084 37.9293H40.8574L56.8156 3.40918H66.721L82.6792 37.9293Z" fill="black"/>
<path d="M86.3652 3.40918H94.0902V37.9225H86.3652V3.40918Z" fill="black"/>
<path d="M101.046 3.40918H108.771V37.9225H101.046V3.40918Z" fill="black"/>
</svg>
