<svg width="120" height="65" viewBox="0 0 120 65" fill="none" xmlns="http://www.w3.org/2000/svg">
<g clip-path="url(#clip0_2614_4393)">
<path d="M4.76555 39.7547C5.62678 37.3226 9.20318 35.5239 11.5831 34.6705C11.6603 34.6386 11.746 34.6329 11.8269 34.6544C11.9077 34.6758 11.9792 34.7232 12.0304 34.7893C12.0816 34.8553 12.1097 34.9364 12.1102 35.0199C12.1107 35.1034 12.0837 35.1848 12.0334 35.2515C8.49644 40.4899 3.57889 43.0894 4.76555 39.7547Z" fill="black"/>
<path d="M0.699685 30.5125C2.67196 28.8386 6.66254 29.0651 9.1509 29.5278C9.23286 29.5397 9.30871 29.5779 9.367 29.6366C9.42529 29.6954 9.46284 29.7715 9.47398 29.8534C9.48512 29.9354 9.46924 30.0187 9.42874 30.0908C9.38825 30.1629 9.32533 30.2199 9.24951 30.2532C3.56278 33.0102 -1.99576 32.81 0.699685 30.5125Z" fill="black"/>
<path d="M1.81133 20.4721C4.34899 20.0094 7.69858 22.1953 9.63141 23.8265C9.69549 23.8788 9.74098 23.9503 9.76113 24.0304C9.78129 24.1105 9.77503 24.195 9.74329 24.2713C9.71154 24.3476 9.65601 24.4116 9.58493 24.4539C9.51385 24.4962 9.43102 24.5144 9.34872 24.506C3.03743 24.0694 -1.67303 21.1155 1.81133 20.4721Z" fill="black"/>
<path d="M7.79664 12.3356C10.2291 13.1956 12.0305 16.7666 12.8884 19.1429C12.9204 19.2201 12.9261 19.3056 12.9046 19.3863C12.8831 19.467 12.8356 19.5385 12.7695 19.5896C12.7033 19.6407 12.6222 19.6687 12.5385 19.6692C12.4549 19.6698 12.3734 19.6428 12.3066 19.5925C7.06032 16.0708 4.45692 11.1475 7.79664 12.3356Z" fill="black"/>
<path d="M17.0566 8.27523C18.733 10.2445 18.5029 14.2291 18.0427 16.7137C18.0296 16.7952 17.9907 16.8702 17.9315 16.9278C17.8724 16.9854 17.7963 17.0225 17.7144 17.0336C17.6326 17.0446 17.5493 17.029 17.477 16.9892C17.4047 16.9493 17.3472 16.8872 17.3129 16.8122C14.5485 11.1471 14.7556 5.58384 17.0566 8.27523Z" fill="black"/>
<path d="M62.4887 44.3435L61.6833 44.4518L59.5467 44.6455C58.1332 44.7374 57.3049 44.8063 57.0551 44.849C57.0365 44.7594 57.0299 44.6678 57.0353 44.5766L56.5127 38.0811C56.184 34.2957 55.8268 31.2662 55.4411 28.9927C54.7179 24.7259 53.7592 21.9798 52.5648 20.7545C52.2723 20.4262 52.029 20.2982 51.8318 20.331C51.743 20.3475 51.5655 20.6593 51.2993 21.2435C50.5827 22.8452 49.9034 25.9677 49.2613 30.6109L48.9786 32.7147C48.4767 36.3492 48.0133 38.9148 47.5881 40.4115C47.198 41.7725 46.7192 42.7856 46.1516 43.4508C45.5114 44.2069 44.6265 44.7154 43.6501 44.8884C41.9934 45.1663 40.4726 44.6192 39.0876 43.2473C37.1898 41.2451 35.7139 37.1238 34.6598 30.8833C34.4407 29.6229 34.2369 28.2586 34.0484 26.7904C33.5061 22.6084 33.2229 18.397 33.2003 14.1802C33.1412 9.39918 33.4118 6.29095 34.0123 4.85554C34.101 4.83913 34.9984 5.18376 36.642 5.86317C38.2855 6.54258 39.1533 6.90034 39.1632 6.97255C39.1503 7.19293 39.1229 7.41223 39.081 7.62899C38.8309 9.5328 38.7331 11.4535 38.7885 13.3728C38.7914 18.895 39.2465 24.4078 40.1493 29.856C40.6884 33.0353 41.3546 35.6195 42.1479 37.6085C42.2761 37.9367 42.3583 38.0942 42.3945 38.0877C42.4996 38.0702 42.8788 35.7661 43.5318 31.1754C44.1629 26.4819 44.7579 23.2369 45.3167 21.4404C46.2634 18.062 47.6659 15.9603 49.5242 15.1353C49.7745 14.9979 50.0472 14.9057 50.3296 14.8629C50.738 14.7859 51.1508 14.7344 51.5655 14.7087C52.5139 14.6881 53.4553 14.8752 54.3234 15.2568C56.9992 16.4559 58.9561 19.4689 60.1943 24.2959C60.3586 24.9524 60.6183 26.2981 60.9667 28.3626C61.1837 29.6426 61.3645 30.7618 61.5091 31.7268C61.6954 33.1578 61.9814 36.254 62.3671 41.0154C62.4821 42.7878 62.5741 43.861 62.6366 44.2352C62.6476 44.2877 62.5983 44.3238 62.4887 44.3435Z" fill="black"/>
<path d="M70.2393 42.732L64.6348 42.5843C64.8539 34.8208 65.0303 29.3778 65.164 26.2554C65.3174 23.052 65.576 18.807 65.9398 13.5205C66.378 13.5336 67.7937 13.6529 70.1867 13.8783L71.5377 14.0063L71.0677 20.994C70.8485 24.7139 70.6951 27.7772 70.6075 30.1842C70.5395 31.8099 70.4168 35.9925 70.2393 42.732Z" fill="black"/>
<path d="M76.5903 43.7363C75.1724 43.4256 74.2257 42.441 73.7502 40.7824C73.2746 39.1238 73.4302 36.544 74.2169 33.043C75.4266 27.565 76.0249 25.3298 78.4113 19.6779C78.8014 18.7655 79.0052 18.3027 79.0227 18.2896L81.1594 19.2283C82.4545 19.8092 83.1711 20.1407 83.3092 20.2129C83.2959 20.2811 83.2738 20.3473 83.2434 20.4098L82.609 21.365C81.4059 24.4075 80.7781 26.6887 79.7656 30.2269C79.6013 30.8308 79.3624 31.8395 79.049 33.253C78.4705 35.8788 78.2262 37.1982 78.316 37.2114C78.4679 37.0264 78.6053 36.83 78.7269 36.6238C79.4501 35.5473 80.1349 34.4653 80.7813 33.3778C82.4775 30.5682 83.8099 28.4271 84.7785 26.9545C87.349 23.0159 89.6029 20.6243 91.5401 19.7797C92.5047 19.2875 93.6081 19.137 94.6695 19.353C95.3587 19.4996 96.0052 19.8016 96.5596 20.2359C98.6568 21.8551 99.3482 25.448 98.6338 31.0146C98.4519 32.4763 98.0771 34.4926 97.5096 37.0637C97.0209 39.2824 96.4566 41.5537 95.8167 43.8775C95.5975 44.6105 95.4332 45.2144 95.3236 45.6892L90.7216 44.6028C90.7939 44.3403 90.8597 44.0875 90.9123 43.8512C90.9649 43.6149 91.0701 43.3162 91.1818 42.9486C91.8195 40.6861 92.3466 38.6172 92.7629 36.742C93.2823 34.3766 93.6055 32.7706 93.7326 31.9238C94.298 28.2236 94.3441 25.7139 93.8707 24.3944C93.782 24.1581 93.6998 24.0301 93.6242 24.0137C93.5486 23.9973 93.2955 24.1483 92.8681 24.4765C91.3473 25.704 89.1559 28.6941 86.2939 33.4467L85.2617 35.1633C83.5261 37.9969 82.2507 39.9476 81.4355 41.0154C80.8471 41.8315 80.1351 42.5513 79.3252 43.1488C78.9387 43.438 78.4942 43.6402 78.0221 43.7416C77.5501 43.8431 77.0616 43.8412 76.5903 43.7363Z" fill="black"/>
<path d="M108.919 47.5468C108.465 47.473 108.018 47.3632 107.581 47.2186C104.64 46.1967 102.595 44.1257 101.444 41.0054C100.651 38.5909 100.484 36.0153 100.958 33.5187C101.694 29.4247 103.745 26.2345 107.111 23.9479C108.185 23.2048 109.378 22.6499 110.638 22.3068C111.984 21.9211 113.398 21.8371 114.78 22.0606C115.614 22.2511 116.427 22.5249 117.206 22.8779C118.281 23.3243 119.106 24.3778 119.691 26.0419C120.022 27.0633 120.089 28.1518 119.885 29.2059C119.665 30.311 119.266 31.373 118.705 32.3503C117.309 34.9301 115.143 36.8283 112.206 38.0449C110.54 38.6912 108.794 39.1128 107.016 39.2987C106.615 39.3479 106.414 39.3873 106.408 39.4201C106.46 39.6695 106.565 39.9046 106.717 40.1094C107.036 40.7256 107.496 41.2583 108.06 41.6642C108.623 42.0702 109.275 42.3381 109.961 42.4463C110.865 42.5901 111.787 42.5845 112.689 42.4299L113.347 42.3445C114.026 45.6267 114.36 47.305 114.349 47.3794C114.161 47.4422 113.966 47.4841 113.768 47.5041C112.167 47.8077 110.525 47.8222 108.919 47.5468ZM106.148 34.2342L106.408 34.2047C106.566 34.1817 106.736 34.1489 106.963 34.0997C110.814 33.5548 113.299 31.9597 114.418 29.3142C114.558 29.0138 114.668 28.7006 114.747 28.3788C114.801 28.1644 114.816 27.942 114.79 27.7224C114.702 27.4532 114.387 27.2694 113.843 27.171C113.568 27.1261 113.29 27.1107 113.012 27.125C111.637 27.2805 110.342 27.8533 109.304 28.7661C107.895 29.9086 106.87 31.4534 106.365 33.1938C106.273 33.522 106.201 33.8502 106.155 34.0964C106.135 34.1861 106.133 34.2321 106.148 34.2342Z" fill="black"/>
<path d="M93.0266 54.0162H90.5128C90.6514 54.408 91.0794 54.6974 91.5858 54.6974C91.9294 54.6974 92.2489 54.5647 92.4539 54.3538L93.0989 54.625C92.7673 55.0591 92.2067 55.3303 91.5858 55.3303C90.5912 55.3303 89.7773 54.625 89.7773 53.757C89.7773 52.8889 90.5369 52.1836 91.4713 52.1836C92.4117 52.1836 93.1712 52.8889 93.1712 53.757C93.1712 53.8474 93.1652 53.9318 93.1471 54.0162H93.0266ZM90.5128 53.4977H92.4358C92.3152 53.1059 91.9294 52.8166 91.4713 52.8166C91.0192 52.8166 90.6334 53.1059 90.5128 53.4977Z" fill="black"/>
<path d="M89.4677 52.1773C89.528 52.1893 89.5883 52.2074 89.6486 52.2255L89.4918 52.9007C89.4677 52.8886 89.4496 52.8765 89.4255 52.8645C89.3532 52.8223 89.2688 52.7982 89.1663 52.7921C89.0578 52.7801 88.9674 52.7861 88.8709 52.8102C88.7745 52.8343 88.678 52.8765 88.5876 52.9549C88.5032 53.0272 88.4309 53.1358 88.3766 53.2503C88.3284 53.3648 88.2982 53.4914 88.2922 53.624C88.2862 53.6602 88.2802 53.7024 88.2802 53.7386V55.2637H87.5869V52.2496H88.2802V52.6113C88.3585 52.5028 88.461 52.4003 88.5936 52.328C88.7624 52.2255 88.9674 52.1712 89.1663 52.1592C89.2628 52.1592 89.3652 52.1652 89.4677 52.1773Z" fill="black"/>
<path d="M86.3448 52.2499H87.038V55.264H86.3448V54.8481C86.2122 54.9867 86.0494 55.1013 85.8686 55.1856C85.6696 55.2761 85.4466 55.3243 85.2175 55.3303C84.9945 55.3364 84.7654 55.2942 84.5544 55.2158C84.3434 55.1374 84.1566 55.0169 83.9998 54.8662C83.6924 54.5708 83.5176 54.1609 83.5236 53.757C83.5176 53.3531 83.6924 52.9431 83.9998 52.6478C84.1566 52.5031 84.3434 52.3825 84.5544 52.2981C84.7654 52.2198 84.9945 52.1836 85.2175 52.1836C85.4466 52.1896 85.6696 52.2378 85.8686 52.3283C86.0494 52.4127 86.2122 52.5332 86.3448 52.6659V52.2499ZM85.9771 54.4683C86.2001 54.2995 86.3448 54.0343 86.3448 53.757C86.3448 53.4797 86.2001 53.2144 85.9771 53.0517C85.8686 52.9673 85.742 52.901 85.6154 52.8648C85.4828 52.8286 85.3501 52.8105 85.2175 52.8166C84.9523 52.8286 84.6991 52.9251 84.5122 53.0999C84.3253 53.2687 84.2168 53.5098 84.2168 53.757C84.2168 54.0041 84.3253 54.2452 84.5122 54.414C84.6991 54.5889 84.9523 54.6853 85.2175 54.6974C85.3501 54.7034 85.4828 54.6853 85.6154 54.6491C85.742 54.613 85.8686 54.5527 85.9771 54.4683Z" fill="black"/>
<path d="M81.9528 54.6974C82.2723 54.6974 82.5676 54.5587 82.7545 54.3176L83.3212 54.6913C83.0017 55.0892 82.4893 55.3303 81.9528 55.3303C81.0124 55.3303 80.2528 54.619 80.2588 53.7509C80.2588 53.335 80.4336 52.9431 80.7531 52.6417C81.0726 52.3464 81.5006 52.1836 81.9528 52.1836C81.9588 52.1836 81.9588 52.1836 81.9588 52.1836C82.5013 52.1836 83.0137 52.4308 83.3272 52.8346L82.7605 53.2024C82.5737 52.9552 82.2783 52.8166 81.9588 52.8166H81.9528C81.6875 52.8166 81.4404 52.913 81.2475 53.0878C81.0606 53.2626 80.9521 53.5038 80.9521 53.757C80.9521 54.2754 81.3982 54.6974 81.9528 54.6974Z" fill="black"/>
<path d="M80.1325 52.2559L80.1024 52.3161L78.1915 56.4756H77.4379L78.0347 55.1735L76.6904 52.2559H77.444L78.3904 54.4803L79.1379 52.7743L79.379 52.2559H80.1325Z" fill="black"/>
<path d="M75.7198 52.2499H76.413V55.264H75.7198V54.8481C75.5872 54.9867 75.4244 55.1013 75.2436 55.1856C75.0446 55.2761 74.8216 55.3243 74.5925 55.3303C74.3695 55.3364 74.1404 55.2942 73.9294 55.2158C73.7184 55.1374 73.5316 55.0169 73.3748 54.8662C73.0674 54.5708 72.8926 54.1609 72.8986 53.757C72.8926 53.3531 73.0674 52.9431 73.3748 52.6478C73.5316 52.5031 73.7184 52.3825 73.9294 52.2981C74.1404 52.2198 74.3695 52.1836 74.5925 52.1836C74.8216 52.1896 75.0446 52.2378 75.2436 52.3283C75.4244 52.4127 75.5872 52.5332 75.7198 52.6659V52.2499ZM75.3521 54.4683C75.5751 54.2995 75.7198 54.0343 75.7198 53.757C75.7198 53.4797 75.5751 53.2144 75.3521 53.0517C75.2436 52.9673 75.117 52.901 74.9904 52.8648C74.8578 52.8286 74.7251 52.8105 74.5925 52.8166C74.3273 52.8286 74.0741 52.9251 73.8872 53.0999C73.7003 53.2687 73.5918 53.5098 73.5918 53.757C73.5918 54.0041 73.7003 54.2452 73.8872 54.414C74.0741 54.5889 74.3273 54.6853 74.5925 54.6974C74.7251 54.7034 74.8578 54.6853 74.9904 54.6491C75.117 54.613 75.2436 54.5527 75.3521 54.4683Z" fill="black"/>
<path d="M72.4855 52.3584C72.588 52.6116 72.6423 52.8949 72.6423 53.1963C72.6423 53.4977 72.588 53.781 72.4855 54.0342C72.377 54.2995 72.2203 54.5225 72.0153 54.7154C71.8104 54.9023 71.5632 55.047 71.2799 55.1494C70.9966 55.2519 70.6771 55.3002 70.3335 55.3002H68.748V51.0864H70.3335C70.6771 51.0864 70.9966 51.1347 71.2799 51.2371C71.5632 51.3396 71.8104 51.4903 72.0153 51.6772C72.2203 51.8701 72.377 52.0931 72.4855 52.3584ZM71.8345 53.8112C71.9068 53.6303 71.949 53.4193 71.949 53.1903C71.949 52.9672 71.9068 52.7623 71.8345 52.5754C71.7622 52.3946 71.6536 52.2499 71.521 52.1173C71.3824 51.9907 71.2196 51.8942 71.0207 51.8219C70.8218 51.7556 70.5927 51.7194 70.3335 51.7194H69.4413V54.6672H70.3335C70.5927 54.6672 70.8218 54.631 71.0207 54.5647C71.2196 54.4924 71.3824 54.3959 71.521 54.2693C71.6536 54.1427 71.7622 53.992 71.8345 53.8112Z" fill="black"/>
<path d="M66.0557 54.215C66.4777 54.6611 66.8997 55.1012 67.0805 55.2881H66.2366C66.0618 55.1072 65.8508 54.8842 65.6338 54.6611C65.471 54.8239 65.2902 54.9866 65.0973 55.1132C64.4583 55.5292 63.7349 55.499 63.2647 55.0409C62.8306 54.625 62.8186 54.0161 63.2345 53.5158C63.4636 53.2385 63.6866 53.0395 63.8796 52.8707C63.6686 52.6477 63.5058 52.4367 63.4335 52.1895C63.3491 51.9062 63.4094 51.6048 63.5781 51.3757C63.7409 51.1648 63.982 51.0321 64.2593 51.008C64.6451 50.9658 64.9043 51.0984 65.049 51.213C65.248 51.3697 65.3625 51.5928 65.3685 51.8339C65.3866 52.2498 65.1575 52.5392 64.7778 52.8949C64.838 52.9551 64.9043 53.0214 64.9646 53.0878C65.0973 53.2204 65.3444 53.4736 65.6277 53.775C65.8267 53.558 66.0135 53.347 66.2064 53.13L66.6284 53.576C66.4415 53.7931 66.2547 53.998 66.0557 54.215ZM64.1026 51.7013C64.0363 51.7917 64.0122 51.9243 64.0483 52.0388C64.0845 52.1715 64.199 52.3161 64.3437 52.4668C64.6391 52.1895 64.7356 52.0449 64.7295 51.8459C64.7295 51.7917 64.6994 51.7073 64.6271 51.647C64.5728 51.6048 64.4944 51.5807 64.392 51.5807C64.3739 51.5807 64.3498 51.5807 64.3256 51.5807C64.2352 51.5928 64.1569 51.635 64.1026 51.7013ZM64.7235 54.643C64.8923 54.5345 65.0551 54.3778 65.2118 54.2211C64.8983 53.8955 64.6271 53.6122 64.4884 53.4675C64.4281 53.4133 64.3739 53.353 64.3136 53.2987C64.1388 53.4494 63.9398 53.6243 63.7409 53.8654C63.5721 54.0704 63.4696 54.3959 63.7228 54.643C64.0905 54.9927 64.5427 54.7576 64.7235 54.643Z" fill="black"/>
<path d="M61.1317 55.2637H60.4385V51.0439H61.1317V55.2637Z" fill="black"/>
<path d="M58.3394 52.1836C59.2798 52.1836 60.0394 52.8889 60.0394 53.757C60.0394 54.625 59.2798 55.3303 58.3394 55.3303C57.4051 55.3303 56.6455 54.625 56.6455 53.757C56.6455 52.8889 57.4051 52.1836 58.3394 52.1836ZM58.3394 54.6974C58.894 54.6974 59.3461 54.2754 59.3461 53.757C59.3461 53.2385 58.894 52.8166 58.3394 52.8166C57.7909 52.8166 57.3388 53.2385 57.3388 53.757C57.3388 54.2754 57.7909 54.6974 58.3394 54.6974Z" fill="black"/>
<path d="M54.692 52.1836C55.6324 52.1836 56.3919 52.8889 56.3919 53.757C56.3919 54.625 55.6324 55.3303 54.692 55.3303C53.7576 55.3303 52.998 54.625 52.998 53.757C52.998 52.8889 53.7576 52.1836 54.692 52.1836ZM54.692 54.6974C55.2466 54.6974 55.6987 54.2754 55.6987 53.757C55.6987 53.2385 55.2466 52.8166 54.692 52.8166C54.1434 52.8166 53.6913 53.2385 53.6913 53.757C53.6913 54.2754 54.1434 54.6974 54.692 54.6974Z" fill="black"/>
<path d="M52.6475 55.2637H51.9482V53.624C51.9482 53.4974 51.9361 53.395 51.906 53.2925C51.8758 53.19 51.8276 53.0996 51.7734 53.0272C51.6588 52.8826 51.5141 52.8102 51.3092 52.7921C51.2067 52.7801 51.1103 52.7921 51.0198 52.8162C50.9234 52.8464 50.833 52.8946 50.7546 52.9669C50.6702 53.0453 50.6039 53.1478 50.5496 53.2563C50.5014 53.3708 50.4713 53.4914 50.4592 53.624C50.4532 53.6602 50.4532 53.6964 50.4472 53.7325V55.2637H49.7539V51.0439H50.4472V52.551C50.5255 52.4606 50.622 52.3822 50.7305 52.3159C50.8149 52.2677 50.9113 52.2315 51.0138 52.2014C51.1103 52.1773 51.2127 52.1652 51.3092 52.1592C51.5021 52.1531 51.7251 52.1833 51.912 52.2737C52.1049 52.3641 52.2677 52.5028 52.3762 52.6535C52.5992 52.9669 52.6475 53.3226 52.6414 53.624L52.6475 55.2637Z" fill="black"/>
<path d="M48.0377 54.6974C48.3572 54.6974 48.6526 54.5587 48.8395 54.3176L49.4061 54.6913C49.0866 55.0892 48.5742 55.3303 48.0377 55.3303C47.0973 55.3303 46.3378 54.619 46.3438 53.7509C46.3438 53.335 46.5186 52.9431 46.8381 52.6417C47.1576 52.3464 47.5856 52.1836 48.0377 52.1836C48.0437 52.1836 48.0437 52.1836 48.0437 52.1836C48.5863 52.1836 49.0987 52.4308 49.4122 52.8346L48.8455 53.2024C48.6586 52.9552 48.3632 52.8166 48.0437 52.8166H48.0377C47.7725 52.8166 47.5253 52.913 47.3324 53.0878C47.1455 53.2626 47.037 53.5038 47.037 53.757C47.037 54.2754 47.4831 54.6974 48.0377 54.6974Z" fill="black"/>
<path d="M45.003 53.4015C45.3466 53.5039 46.0579 53.727 46.082 54.3961C46.0881 54.6372 45.9916 54.8543 45.8047 55.0231C45.5757 55.228 45.2381 55.3365 44.8643 55.3365C44.8402 55.3365 44.8161 55.3365 44.786 55.3365C44.159 55.3124 43.6527 54.9688 43.502 54.4624L44.1711 54.2936C44.2555 54.583 44.5629 54.6975 44.8221 54.7036C45.0211 54.7156 45.214 54.6614 45.3164 54.5709C45.3647 54.5287 45.3888 54.4745 45.3888 54.4142C45.3828 54.2213 45.1657 54.1188 44.7799 53.9983C44.7257 53.9862 44.6775 53.9681 44.6353 53.9561C44.6172 53.95 44.5931 53.938 44.5689 53.9319C44.3037 53.8476 43.5984 53.6185 43.6527 52.9976C43.6949 52.4309 44.2736 52.1777 44.786 52.1777C45.3466 52.1777 45.7686 52.4068 45.9615 52.8288L45.3225 53.0759C45.2682 52.9614 45.1537 52.8107 44.786 52.8107C44.7799 52.8107 44.364 52.8167 44.3459 53.0458C44.3338 53.1664 44.5569 53.2568 44.804 53.3352C44.8342 53.3472 44.8643 53.3532 44.8824 53.3653C44.9186 53.3774 44.9548 53.3894 45.003 53.4015Z" fill="black"/>
<path d="M43.1213 54.0162H40.6075C40.7462 54.408 41.1742 54.6974 41.6805 54.6974C42.0241 54.6974 42.3436 54.5647 42.5486 54.3538L43.1936 54.625C42.8621 55.0591 42.3014 55.3303 41.6805 55.3303C40.6859 55.3303 39.8721 54.625 39.8721 53.757C39.8721 52.8889 40.6316 52.1836 41.566 52.1836C42.5064 52.1836 43.266 52.8889 43.266 53.757C43.266 53.8474 43.2599 53.9318 43.2418 54.0162H43.1213ZM40.6075 53.4977H42.5305C42.41 53.1059 42.0241 52.8166 41.566 52.8166C41.1139 52.8166 40.7281 53.1059 40.6075 53.4977Z" fill="black"/>
<path d="M39.5624 52.1773C39.6227 52.1893 39.683 52.2074 39.7433 52.2255L39.5866 52.9007C39.5624 52.8886 39.5444 52.8765 39.5202 52.8645C39.4479 52.8223 39.3635 52.7982 39.261 52.7921C39.1525 52.7801 39.0621 52.7861 38.9657 52.8102C38.8692 52.8343 38.7727 52.8765 38.6823 52.9549C38.5979 53.0272 38.5256 53.1358 38.4713 53.2503C38.4231 53.3648 38.393 53.4914 38.3869 53.624C38.3809 53.6602 38.3749 53.7024 38.3749 53.7386V55.2637H37.6816V52.2496H38.3749V52.6113C38.4533 52.5028 38.5557 52.4003 38.6884 52.328C38.8571 52.2255 39.0621 52.1712 39.261 52.1592C39.3575 52.1592 39.46 52.1652 39.5624 52.1773Z" fill="black"/>
<path d="M37.2311 51.8279C37.3155 51.9907 37.3517 52.1655 37.3517 52.3524C37.3517 52.5392 37.3155 52.714 37.2311 52.8708C37.1528 53.0275 37.0322 53.1662 36.8815 53.2807C36.7368 53.3892 36.562 53.4736 36.3631 53.5339C36.1702 53.5881 35.9531 53.6183 35.718 53.6183H34.6932V55.3062H34V51.0864H35.718C35.9531 51.0864 36.1702 51.1105 36.3631 51.1708C36.562 51.2251 36.7368 51.3095 36.8815 51.418C37.0322 51.5325 37.1528 51.6712 37.2311 51.8279ZM36.5982 52.6055C36.6404 52.5272 36.6584 52.4428 36.6584 52.3524C36.6584 52.2559 36.6404 52.1715 36.5982 52.0931C36.562 52.0208 36.5138 51.9605 36.4414 51.9063C36.3631 51.852 36.2666 51.8038 36.146 51.7676C36.0255 51.7375 35.8808 51.7194 35.718 51.7194H34.6932V52.9853H35.718C35.8808 52.9853 36.0255 52.9672 36.146 52.9311C36.2666 52.9009 36.3631 52.8527 36.4354 52.7924C36.5077 52.7382 36.562 52.6779 36.5982 52.6055Z" fill="black"/>
<path d="M23.9951 47.419L23.2358 47.5404C22.7624 47.6159 22.3713 47.6684 22.0623 47.7012C20.3121 47.8551 18.5485 47.6939 16.8555 47.2253C15.8825 46.9562 15.3839 46.7494 15.3598 46.605C15.3598 46.5503 16.1685 44.8709 17.7857 41.5668C18.6973 41.887 19.6562 42.0523 20.6225 42.0559C21.3138 42.0519 22.0033 41.9882 22.6836 41.8655C23.2474 41.7795 23.8059 41.6622 24.3567 41.5143C25.3089 41.2685 26.2178 40.8789 27.0522 40.359C27.5617 40.0537 27.8279 39.8174 27.8575 39.6435C27.8575 39.6435 27.8312 39.6041 27.7885 39.5713C27.7457 39.5384 27.7194 39.4826 27.6504 39.4006C26.9119 38.7266 25.4743 37.9181 23.3377 36.975C20.2412 35.6315 18.5823 34.9051 18.361 34.7957C15.6261 33.5266 13.7075 32.1732 12.6052 30.7356C12.0959 30.0664 11.7511 29.2871 11.5986 28.4604C11.4462 27.6338 11.4903 26.7829 11.7276 25.9764C11.9548 25.1723 12.3244 24.4153 12.8189 23.7413C13.9617 22.2084 15.4656 20.9806 17.1973 20.167C18.4397 19.5447 19.7699 19.1153 21.1419 18.8935C24.4597 18.3618 27.4181 19.0106 30.0171 20.8398C30.1956 20.9496 30.3582 21.0832 30.5004 21.237C30.5004 21.2742 29.3236 22.7435 26.97 25.6449L26.592 25.3692C25.2625 24.5176 23.6566 24.2075 22.105 24.5027C21.2379 24.6481 20.3979 24.9237 19.6134 25.32C18.9384 25.6697 18.3155 26.1115 17.7627 26.6329C17.4143 27.0038 17.2499 27.2434 17.2664 27.3517C17.3694 27.9272 19.5224 29.1273 23.7256 30.9522C26.6029 32.1798 28.6519 33.1874 29.8725 33.9751C32.0749 35.4215 33.3218 37.0505 33.6133 38.8623L33.6757 39.4071C33.6757 42.86 31.0898 45.3906 25.9181 46.9988C25.4546 47.1301 24.8169 47.268 23.9951 47.419Z" fill="black"/>
<path d="M67.0319 0.566374C68.2809 -0.0437348 69.7941 2.80948 69.7941 2.80948C69.7941 2.80948 71.6905 0.181302 72.836 0.961116C73.9815 1.74093 72.2694 4.47129 72.2694 4.47129C72.2694 4.47129 75.4902 4.78998 75.3924 6.17662C75.2947 7.56326 72.0666 7.44205 72.0666 7.44205C72.0666 7.44205 73.391 10.3889 72.1477 10.9957C70.9044 11.6026 69.3855 8.75264 69.3855 8.75264C69.3855 8.75264 67.4809 11.3666 66.3436 10.601C65.2063 9.8354 66.9102 7.09084 66.9102 7.09084C66.9102 7.09084 63.6894 6.77214 63.7872 5.3855C63.885 3.99886 67.113 4.12007 67.113 4.12007C67.113 4.12007 65.7846 1.17933 67.0319 0.566374Z" fill="black"/>
</g>
<defs>
<clipPath id="clip0_2614_4393">
<rect width="120" height="65" fill="white"/>
</clipPath>
</defs>
</svg>
