<svg width="144" height="67" viewBox="0 0 144 67" fill="none" xmlns="http://www.w3.org/2000/svg">
<path d="M139.301 30.119C139.149 29.8988 138.957 29.727 138.712 29.6164C138.305 29.4336 138.058 29.5133 137.82 29.9056C137.734 30.0475 137.657 30.194 137.574 30.3385C136.942 31.4524 136.299 32.5604 135.563 33.6118C134.853 34.6254 134.08 35.5854 133.17 36.4326C132.768 36.8068 132.341 37.1468 131.875 37.4385C131.758 37.5118 131.648 37.6185 131.475 37.5854C131.4 37.4879 131.422 37.3716 131.439 37.2592C131.53 36.6727 131.683 36.1029 131.882 35.5431C132.381 34.1353 132.957 32.7599 133.608 31.4147C133.866 30.8812 134.106 30.3392 134.376 29.8117C134.652 29.2725 134.548 28.8062 134.156 28.3776C133.618 27.789 132.936 27.4813 132.149 27.3956C131.731 27.3501 131.34 27.44 130.996 27.6876C130.726 27.8818 130.45 28.0717 130.198 28.2876C129.528 28.862 128.929 29.5087 128.38 30.1955C127.624 31.1416 126.893 32.1072 126.15 33.064C126.011 33.2429 125.91 33.4556 125.687 33.6068C125.64 33.319 125.787 33.1145 125.868 32.9004C126.81 30.3854 128.046 28.0113 129.414 25.7033C130.468 23.9267 131.602 22.2023 132.933 20.6128C133.284 20.1931 133.651 19.7898 134.085 19.4494C134.443 19.1684 134.498 18.9326 134.304 18.5303C134.232 18.3824 134.143 18.2369 134.036 18.1135C133.456 17.4498 132.696 17.1393 131.834 17.0713C131.465 17.0422 131.123 17.1752 130.857 17.4391C130.57 17.7229 130.286 18.0121 130.026 18.3198C129.503 18.9379 129.065 19.6159 128.639 20.3023C127.539 22.0789 126.564 23.9235 125.664 25.8061C125.102 26.9819 124.572 28.1727 124.036 29.3607C123.931 29.5951 123.806 29.7342 123.518 29.7548C122.914 29.7982 122.366 30.0461 121.83 30.3093C121.08 30.6778 120.366 31.1074 119.676 31.5762C118.691 32.2449 117.712 32.9207 116.725 33.5869C116.552 33.7039 116.394 33.8597 116.148 33.886C115.778 33.5307 115.576 33.0772 115.482 32.5867C115.157 30.8855 115.453 29.2917 116.394 27.8284C116.534 27.6118 116.724 27.4247 116.908 27.2398C117.096 27.0502 117.337 26.9446 117.598 26.8855C117.698 26.8631 117.8 26.9506 117.769 27.0417C117.716 27.1978 117.655 27.3515 117.591 27.5037C117.408 27.9426 117.267 28.3943 117.194 28.8638C117.142 29.1946 117.141 29.5225 117.283 29.8398C117.588 30.5266 118.092 31.0004 118.805 31.2504C119.153 31.3724 119.241 31.3173 119.215 30.9627C119.185 30.549 119.267 30.161 119.426 29.7861C119.546 29.503 119.667 29.217 119.82 28.951C120.75 27.3333 121.906 25.8968 123.343 24.6903C123.722 24.3716 123.766 24.2279 123.561 23.7794C123.291 23.1854 122.886 22.6925 122.362 22.3009C121.791 21.8733 121.591 21.8979 121.075 22.382C120.15 23.2502 119.36 24.224 118.689 25.2957C118.527 25.5539 118.499 25.5503 118.24 25.4034C118.032 25.2864 117.831 25.1584 117.618 25.0513C117.04 24.76 116.436 24.5473 115.783 24.4897C115.289 24.4463 114.838 24.5416 114.434 24.8436C112.989 25.9209 111.994 27.2931 111.596 29.0605C111.514 29.4233 111.494 29.8053 111.132 30.0422C111.062 30.0881 111.039 30.2037 110.993 30.2869C109.744 32.5803 108.1 34.5678 106.204 36.3594C105.633 36.8993 105.018 37.3869 104.349 37.8055C104.066 37.983 103.776 38.1438 103.452 38.2402C102.731 38.455 102.421 38.2345 102.403 37.4748C102.374 36.2708 102.67 35.1301 103.105 34.0179C103.113 33.9962 103.127 33.976 103.136 33.9543C103.19 33.8244 103.287 33.7782 103.42 33.8188C103.556 33.8604 103.689 33.9144 103.826 33.9557C104.901 34.2829 105.9 34.1264 106.821 33.4851C107.215 33.2102 107.546 32.8705 107.848 32.5017C109.06 31.0235 109.826 29.3305 110.289 27.4934C110.33 27.3337 110.337 27.1658 110.36 27.0018C110.451 26.3406 110.18 25.8427 109.631 25.4952C109.088 25.1516 108.529 24.8326 107.974 24.5078C107.852 24.436 107.719 24.3791 107.587 24.325C106.727 23.9725 105.912 24.0494 105.14 24.5743C104.465 25.0332 103.878 25.5887 103.35 26.2023C101.431 28.4299 100.076 30.9666 99.2065 33.7583C98.8814 34.8026 98.6957 35.8767 98.7466 36.9775C98.7803 37.7006 98.924 38.4095 99.4341 38.9522C100.369 39.9474 101.502 40.6193 102.883 40.8238C103.299 40.8853 103.695 40.8082 104.06 40.6118C104.395 40.4312 104.727 40.2394 105.038 40.0221C107.734 38.137 109.923 35.7985 111.493 32.9072C111.581 32.7453 111.617 32.5429 111.835 32.4227C112.37 33.5065 113.259 34.3501 113.869 35.3748C113.767 35.6007 113.561 35.6886 113.401 35.8234C112.638 36.4678 111.86 37.0953 111.108 37.7533C110.263 38.4931 109.532 39.3353 108.935 40.2878C108.707 40.651 108.511 41.0287 108.397 41.4441C108.139 42.3799 108.472 43.2698 109.3 43.7859C109.539 43.9349 109.806 44.0601 110.078 44.1366C111.664 44.5837 113.197 44.4475 114.649 43.6514C115.512 43.1784 116.277 42.5727 116.948 41.8574C117.623 41.1386 118.16 40.3337 118.414 39.3695C118.68 38.36 118.571 37.3979 118.028 36.4956C117.93 36.333 117.819 36.1783 117.712 36.0215C117.257 35.3528 117.184 35.4609 117.875 34.9182C119.411 33.711 121.041 32.6376 122.732 31.6541C122.816 31.605 122.912 31.4795 123.052 31.6313C122.985 31.7967 122.914 31.9696 122.844 32.1424C121.996 34.2271 121.166 36.3181 120.447 38.4511C120.266 38.9896 120.089 39.5302 119.937 40.0769C119.791 40.5997 119.87 40.7893 120.32 41.1034C120.837 41.4647 121.414 41.6742 122.044 41.7418C122.604 41.8016 122.963 41.5995 123.245 41.0763C124.721 38.3359 126.43 35.7415 128.361 33.2938C128.713 32.8474 129.112 32.4369 129.495 32.0148C129.568 31.9344 129.637 31.8277 129.812 31.8558C129.793 32.1175 129.673 32.3502 129.587 32.5906C129.145 33.8408 128.707 35.0924 128.451 36.3981C128.358 36.8658 128.325 37.3346 128.337 37.8102C128.346 38.1872 128.475 38.5073 128.765 38.7499C128.965 38.9167 129.173 39.0785 129.397 39.2108C129.958 39.5423 130.575 39.7052 131.22 39.8037C131.898 39.9079 132.493 39.7635 133.046 39.3741C133.456 39.0849 133.841 38.7673 134.191 38.4102C136.325 36.232 137.998 33.743 139.273 30.9861C139.313 30.9004 139.353 30.814 139.386 30.7251C139.465 30.5092 139.432 30.3082 139.301 30.119ZM104.014 31.9689C104.04 31.8554 104.091 31.7455 104.146 31.6417C104.874 30.2502 105.748 28.9542 106.766 27.7552C106.901 27.5965 107.035 27.4262 107.291 27.3116C107.307 27.4052 107.329 27.4536 107.321 27.4966C107.081 28.8453 106.594 30.093 105.735 31.1764C105.53 31.4347 105.282 31.6641 105.027 31.8757C104.785 32.0774 104.487 32.1766 104.164 32.162C104.055 32.157 103.988 32.0745 104.014 31.9689ZM114.867 38.4948C114.255 39.8429 113.314 40.9159 112.058 41.7109C111.88 41.8233 111.67 41.8855 111.472 41.9634C111.381 41.9986 111.285 41.8997 111.313 41.8048C111.34 41.7151 111.37 41.6255 111.408 41.5398C111.674 40.9291 112.017 40.3632 112.455 39.8603C113.156 39.0557 113.924 38.3149 114.7 37.5829C114.767 37.5199 114.836 37.4438 114.945 37.4968C115.051 37.5487 115.022 37.6547 115.038 37.7287C115.057 38.0093 114.974 38.2605 114.867 38.4948Z" fill="black"/>
<path d="M71.2426 15.9518C71.8738 14.92 72.4505 13.9664 73.0391 13.02C73.3148 12.5768 73.6212 12.1542 73.9682 11.7605C74.232 11.4614 74.5507 11.3572 74.9306 11.44C76.0938 11.694 77.0558 12.2688 77.7516 13.2391C78.0168 13.609 78.0007 13.907 77.6369 14.2374C76.715 15.0736 75.9723 16.0631 75.2758 17.0839C73.6793 19.4239 72.3093 21.8849 71.2874 24.5286C71.0307 25.1927 70.8164 25.8709 70.692 26.5716C70.5927 27.1311 70.5131 27.6963 70.7841 28.2433C70.863 28.4026 70.797 28.4962 70.6318 28.5723C70.3565 28.6993 70.0748 28.6865 69.7909 28.6239C68.5801 28.3575 67.3552 26.9273 67.4825 25.6429C67.5481 24.9807 67.6692 24.3305 67.8721 23.6974C68.1897 22.7054 68.5191 21.717 68.8439 20.7271C69.1543 19.7807 69.4066 18.82 69.5651 17.8358C69.6568 17.2646 69.6206 16.7012 69.4529 16.1499C69.3292 15.7434 69.0564 15.5702 68.6327 15.6573C68.308 15.7242 67.9883 15.8327 67.6807 15.9575C67.1047 16.1912 66.5731 16.5113 66.0573 16.8549C64.0805 18.1702 62.3349 19.7391 60.8287 21.5672C60.3448 22.1548 59.9032 22.7726 59.5272 23.4349C59.268 23.8912 59.0705 24.3707 58.9555 24.8839C58.8063 25.5473 58.9827 26.1075 59.5006 26.5449C59.7537 26.7587 60.0351 26.9422 60.3165 27.1194C60.9226 27.501 61.576 27.7937 62.2338 28.0744C63.0446 28.4201 63.859 28.758 64.6762 29.0895C65.6293 29.4761 66.5358 29.9484 67.3914 30.5161C68.2144 31.0624 68.893 31.7496 69.4715 32.5473C70.3683 33.7847 70.7375 36.193 69.678 37.8697C69.0245 38.9036 68.2489 39.8259 67.3398 40.6362C64.6296 43.0516 61.5158 44.7385 57.9884 45.6619C56.6847 46.0033 55.3581 46.1146 54.0129 46.0229C53.4361 45.9838 52.8802 45.8557 52.3425 45.6537C51.0378 45.1639 50.3936 44.1933 50.2969 42.8399C50.2388 42.0254 50.3857 41.2323 50.6255 40.4601C50.794 39.9188 50.9944 39.3835 51.2288 38.867C52.078 36.9962 53.2081 35.3046 54.5982 33.7851C54.7584 33.6098 54.9348 33.4493 55.0964 33.2751C55.3599 32.9909 55.9019 33.0186 56.1908 33.3259C56.341 33.4853 56.3582 33.6699 56.2055 33.8256C56.0058 34.0295 55.7818 34.2105 55.5943 34.4243C54.3444 35.8477 53.4999 37.4649 53.2221 39.3511C53.1626 39.7555 53.1823 40.151 53.2702 40.549C53.4537 41.3799 53.977 41.8632 54.7993 42.0517C55.471 42.2058 56.1313 42.0944 56.7847 41.95C57.6733 41.7537 58.5203 41.4322 59.3426 41.0487C61.2162 40.1752 62.927 39.0683 64.3705 37.5816C64.8856 37.0513 65.3558 36.4854 65.6939 35.8235C65.9229 35.375 66.0691 34.908 66.0613 34.3944C66.0512 33.7232 65.8265 33.1431 65.3687 32.6544C64.9433 32.1998 64.4447 31.8339 63.9077 31.5191C63.0209 30.9991 62.0768 30.6025 61.1101 30.2586C60.234 29.9466 59.3652 29.6183 58.5146 29.2435C57.793 28.9251 57.1062 28.5481 56.4582 28.0982C55.1122 27.1635 54.6864 25.8684 54.9376 24.3095C55.0362 23.6985 55.2463 23.118 55.5015 22.5557C55.7958 21.9073 56.1348 21.282 56.5331 20.6898C58.0819 18.3864 60.0609 16.5291 62.4546 15.1106C63.4217 14.5376 64.4493 14.098 65.5544 13.8483C66.4498 13.646 67.3474 13.5947 68.2542 13.7626C69.2898 13.954 70.1027 14.4957 70.7461 15.307C70.9056 15.5083 71.0594 15.7139 71.2426 15.9518Z" fill="black"/>
<path d="M92.4418 29.4344C92.9669 28.7031 93.4354 28.0575 93.8606 27.3814C94.0247 27.1203 94.1796 26.8525 94.3588 26.6025C94.6979 26.1291 94.8506 26.0736 95.3811 26.2624C96.032 26.494 96.6765 26.7433 97.3195 26.9948C97.8235 27.1918 98.0705 27.5578 98.0149 28.1049C97.9454 28.7874 97.8945 29.4724 97.802 30.1521C97.6701 31.1196 97.6801 32.0874 97.7206 33.058C97.7364 33.4389 97.85 33.7544 98.2275 33.9234C98.2705 33.9426 98.3132 33.9661 98.349 33.9956C98.4802 34.1037 98.4658 34.3267 98.3278 34.4284C98.168 34.5465 97.9812 34.5924 97.7909 34.5985C96.8141 34.6301 95.8983 34.4014 95.0466 33.9301C94.7864 33.7861 94.6287 33.5609 94.557 33.2629C94.4506 32.8204 94.4312 32.3751 94.4387 31.9238C94.4452 31.546 94.428 31.1683 94.4183 30.7906C94.4183 30.7778 94.385 30.766 94.3287 30.7273C94.1785 30.808 94.0727 30.9631 93.9545 31.0982C91.507 33.8988 89.7736 37.0736 88.8567 40.6756C88.8334 40.7673 88.8201 40.8619 88.7936 40.9526C88.6376 41.4904 88.429 41.6437 87.8562 41.5893C87.1971 41.5263 86.6178 41.2614 86.1085 40.8427C85.764 40.56 85.6511 40.2206 85.7339 39.7725C86.1224 37.6747 86.6594 35.616 87.3351 33.5922C87.5361 32.9897 87.7473 32.3908 87.9555 31.785C87.7957 31.6986 87.7103 31.805 87.6286 31.8572C86.8257 32.3698 86.0432 32.9115 85.298 33.5051C84.8664 33.8487 84.5127 34.2456 84.237 34.734C83.1416 36.6724 81.6799 38.3245 80.0683 39.8514C79.6364 40.2608 79.1579 40.6186 78.6162 40.8786C78.4023 40.9814 78.1811 41.0792 77.9528 41.1408C77.4499 41.2756 76.9609 41.245 76.51 40.9498C75.9129 40.5589 75.6379 40.0318 75.7799 39.3144C75.8451 38.985 75.9677 38.6788 76.1254 38.3861C76.4086 37.86 76.7738 37.3934 77.1986 36.9729C78.1954 35.9859 79.2191 35.0267 80.2923 34.1208C80.3834 34.044 80.4737 33.9668 80.568 33.8942C81.8333 32.9211 82.3122 31.5702 82.4312 30.0525C82.4527 29.7783 82.5151 29.4379 82.2304 29.2793C81.9799 29.1395 81.7318 29.3618 81.506 29.4778C80.8594 29.81 80.3493 30.3093 79.879 30.8489C79.0489 31.8007 78.3399 32.8389 77.6993 33.923C76.5398 35.8864 75.5727 37.9443 74.6723 40.0339C73.4528 42.8633 72.337 45.7304 71.4563 48.6836C71.4294 48.7743 71.3947 48.8629 71.3671 48.9532C71.2796 49.2392 71.0634 49.3843 70.7857 49.4056C69.8519 49.4778 69.0476 49.1787 68.3866 48.52C68.1479 48.2821 68.0923 47.9815 68.1823 47.6639C68.2464 47.4366 68.3321 47.215 68.4167 46.9942C69.8648 43.2126 71.3764 39.4559 72.9102 35.7082C74.3006 32.3111 75.6971 28.9165 77.0918 25.5212C77.1728 25.3242 77.2556 25.1275 77.3509 24.9368C77.4656 24.7071 77.6635 24.5783 77.9198 24.5634C78.7489 24.5154 79.4665 24.785 80.0783 25.3359C80.302 25.5376 80.3239 25.7755 80.2056 26.0455C79.9966 26.5224 79.7973 27.0037 79.5959 27.4838C79.56 27.5692 79.5113 27.6539 79.56 27.7759C79.7066 27.8431 79.7944 27.7026 79.8937 27.6357C80.2099 27.4223 80.526 27.215 80.8934 27.0915C81.3598 26.9343 81.8308 26.9005 82.2996 27.0464C82.9595 27.2516 83.618 27.4632 84.266 27.7019C85.0596 27.9942 85.4862 28.5804 85.5543 29.4177C85.5848 29.7908 85.6041 30.1649 85.6274 30.5213C85.8174 30.611 85.9282 30.5007 86.0479 30.4392C86.8759 30.0138 87.7211 29.6254 88.6384 29.434C88.8907 29.3814 88.9972 29.2444 89.0911 29.0442C89.5341 28.1006 89.965 27.1509 90.4324 26.2194C90.8148 25.4572 91.2579 24.7252 91.6457 23.9658C91.9203 23.4288 92.3203 23.2235 93.0218 23.4195C93.4139 23.5291 93.7763 23.7122 94.0864 23.984C94.4294 24.2849 94.5258 24.6502 94.3627 25.0731C94.286 25.2715 94.1875 25.4618 94.0957 25.6542C93.6053 26.68 93.1103 27.7037 92.6264 28.7326C92.54 28.9165 92.4167 29.0993 92.4422 29.434L92.4418 29.4344Z" fill="black"/>
<path d="M25.9099 53.9907C28.0971 51.687 30.284 49.3829 32.4712 47.0796C32.6988 46.8398 32.9286 46.6022 33.1476 46.3735C33.1978 46.386 33.2215 46.3902 33.2437 46.3981C33.2659 46.4059 33.2896 46.4144 33.3071 46.429C33.3616 46.4742 33.4172 46.519 33.4659 46.5699C33.8118 46.928 34.1574 47.2862 34.5004 47.6472C36.508 49.7621 38.515 51.8773 40.5219 53.9925C40.3233 54.4595 39.8918 54.3307 39.5444 54.3332C37.2117 54.351 34.8785 54.3421 32.5454 54.3421C30.6647 54.3421 28.7839 54.3514 26.9035 54.3343C26.5472 54.3311 26.1232 54.435 25.9092 53.9904L25.9099 53.9907Z" fill="#9E9E9E"/>
<path d="M40.4473 12.1979C40.0785 12.6002 39.7154 13.0082 39.3394 13.404C37.4407 15.404 35.5388 17.4011 33.6379 19.3993C33.1422 19.9204 33.2064 19.8677 32.7823 19.4228C30.6012 17.1337 28.4244 14.8406 26.2479 12.5472C26.1343 12.4277 26.036 12.2936 25.9307 12.1663C26.1371 11.7114 26.5648 11.827 26.9164 11.8241C29.0807 11.8067 31.245 11.8156 33.4089 11.8159C35.4305 11.8159 37.4522 11.806 39.4734 11.8245C39.829 11.8277 40.2577 11.7313 40.4473 12.1979Z" fill="#B1B2AA"/>
<path d="M23.4637 13.1896C23.5146 14.7493 23.5669 16.3089 23.6153 17.8686C23.6669 19.5228 23.7146 21.1774 23.7641 22.832C23.7684 22.974 23.7738 23.1159 23.7738 23.2574C23.7738 23.6999 23.7677 23.7152 23.3529 23.7088C22.4472 23.6946 21.5414 23.6736 20.6356 23.6483C19.7301 23.6231 18.8247 23.5896 17.9196 23.5587C16.2998 23.5032 14.68 23.4466 13.0602 23.3908C12.9659 23.1013 13.1939 22.9547 13.352 22.7975C16.497 19.6679 19.6452 16.5415 22.8052 13.4265C22.9737 13.2604 23.145 12.9929 23.4641 13.1903L23.4637 13.1896Z" fill="#D8D8D8"/>
<path d="M12.0564 25.8081C12.2052 25.9248 12.3633 26.0315 12.5009 26.1599C14.8125 28.3181 17.1213 30.4789 19.4311 32.6392C19.8956 33.0735 19.9139 33.0518 19.435 33.4986C17.0883 35.6885 14.7441 37.8812 12.397 40.0715C12.2937 40.1679 12.1744 40.2465 12.0625 40.3336C11.7586 40.0896 11.7994 39.7403 11.7987 39.417C11.7898 35.1877 11.7898 30.9583 11.7987 26.7286C11.7994 26.4049 11.7604 26.0567 12.0564 25.8081Z" fill="#C1B8BD"/>
<path d="M13.8713 42.6355C14.2531 42.6259 14.6348 42.6163 15.0166 42.6063C17.8074 42.5337 20.5986 42.4615 23.3895 42.3886C23.6551 42.3819 23.7411 42.4502 23.7443 42.7045C23.7483 42.9883 23.7397 43.2725 23.7304 43.5567C23.6888 44.8104 23.6468 46.0642 23.6013 47.3176C23.5583 48.5002 23.5099 49.6825 23.464 50.8648C23.3586 51.4506 23.4296 52.0414 23.4228 52.6293C23.4181 53.0369 23.273 53.0931 22.9597 52.8733C22.8034 52.7637 22.6729 52.6243 22.5392 52.4899C19.5419 49.4819 16.622 46.3985 13.5659 43.4478C13.5147 43.3984 13.4638 43.3483 13.4179 43.2942C13.2971 43.1508 13.1103 43.0089 13.1695 42.8112C13.244 42.5618 13.4935 42.7123 13.6634 42.6764C13.7322 42.6618 13.8047 42.6625 13.8717 42.6355H13.8713Z" fill="#8E8D88"/>
<path d="M1.29461 25.9565C2.31833 26.9051 3.34384 27.8516 4.36577 28.8023C5.76944 30.1087 7.17024 31.4176 8.57176 32.7261C8.76281 32.9047 8.76102 32.9065 8.88289 33.1971C8.6051 33.4183 8.27604 33.4499 7.93803 33.4503C5.93791 33.4528 3.93743 33.4567 1.9373 33.4475C1.65234 33.446 1.36236 33.445 1.11539 33.2646C0.968784 33.0943 0.925054 32.8862 0.921828 32.6735C0.892077 30.6547 0.893869 28.6355 0.92362 26.6167C0.927563 26.3563 0.90068 26.0255 1.29461 25.9565Z" fill="#939292"/>
<path d="M25.9297 64.7907C28.166 62.4383 30.4009 60.0844 32.6426 57.7366C32.8151 57.5559 32.9369 57.3016 33.2258 57.2539C33.4205 57.5121 33.4642 57.8105 33.4649 58.1221C33.4692 60.1214 33.471 62.121 33.4628 64.1202C33.4617 64.4016 33.4606 64.6883 33.2807 64.9326C33.0434 65.1286 32.7541 65.1346 32.4695 65.1361C30.5694 65.1464 28.6693 65.1517 26.7695 65.1304C26.4656 65.1272 26.0774 65.2211 25.9297 64.7907Z" fill="#D8D8D8"/>
<path d="M15.7538 5.63894C15.7964 6.77177 15.8452 7.90461 15.8803 9.03779C15.9423 11.0449 15.9979 13.0523 16.0513 15.0598C16.0599 15.3898 16.0419 15.7203 16.0362 16.0507C15.7918 16.0791 15.634 15.9273 15.4824 15.7772C13.878 14.1869 12.2629 12.607 10.6757 10.9997C10.6086 10.9318 10.5588 10.8503 10.5219 10.7618C10.4491 10.3951 10.7187 10.1987 10.9316 9.98603C12.2751 8.64406 13.6214 7.30458 14.9792 5.97648C15.1828 5.7773 15.3652 5.45399 15.7538 5.6393V5.63894Z" fill="#D2D1CB"/>
<path d="M55.7851 10.7097C54.1004 12.3846 52.4161 14.0595 50.7311 15.7344C50.6637 15.8012 50.5966 15.8695 50.5207 15.9261C50.4891 15.9495 50.4346 15.9495 50.3909 15.9481C50.3321 15.9463 50.3167 15.9076 50.3185 15.8475C50.3275 15.5402 50.3285 15.2329 50.3386 14.9255C50.3676 14.0271 50.402 13.129 50.4296 12.2306C50.497 10.0318 50.5615 7.83299 50.6271 5.63455C50.9461 5.50046 51.1128 5.74766 51.2877 5.91874C52.6857 7.2888 54.0743 8.66848 55.4582 10.0521C55.6367 10.2306 55.8604 10.401 55.7851 10.7097Z" fill="#B3B0B2"/>
<path d="M33.1983 9.04815C33.0036 8.98875 32.8975 8.823 32.7692 8.6882C30.5297 6.33611 28.2926 3.98224 26.0563 1.62694C25.9921 1.55937 25.943 1.47756 25.8867 1.40251C26.1233 1.14536 26.4437 1.16528 26.7477 1.1635C28.6439 1.15283 30.5404 1.15389 32.4366 1.16243C32.7205 1.16385 33.0087 1.16777 33.2553 1.34418C33.4865 1.62552 33.4632 1.96555 33.4646 2.2942C33.4718 4.21201 33.4703 6.12982 33.466 8.04763C33.4653 8.40295 33.4736 8.76361 33.1979 9.04815H33.1983Z" fill="#958E92"/>
<path d="M50.6247 60.1177C50.6079 59.5507 50.5896 58.9838 50.5738 58.4168C50.5122 56.1953 50.4498 53.9737 50.3917 51.7518C50.3788 51.2613 50.2691 50.7733 50.3337 50.2903C50.4666 50.2263 50.5333 50.3052 50.5985 50.3696C52.3187 52.0751 54.0378 53.7813 55.7555 55.4889C55.8046 55.5376 55.8372 55.6031 55.8777 55.6607C55.8476 55.9203 55.6458 56.0662 55.4809 56.2308C54.136 57.5707 52.7869 58.9066 51.4384 60.2425C51.3878 60.2927 51.3402 60.3467 51.2839 60.3898C51.1212 60.515 50.9753 60.7504 50.743 60.6384C50.5433 60.542 50.6989 60.2873 50.6251 60.1173L50.6247 60.1177Z" fill="#AAABA0"/>
<path d="M5.44522 50.4346C7.15931 50.3813 8.87303 50.3265 10.5871 50.2749C12.2299 50.2255 13.8726 50.1768 15.5154 50.1352C15.6953 50.1305 15.8989 50.0566 16.0505 50.2315C15.9158 50.4795 15.7713 50.7153 15.5648 50.9187C14.1203 52.3418 12.6844 53.7734 11.2416 55.1982C11.0592 55.3785 10.8886 55.5845 10.6043 55.6172C10.2896 55.5912 10.11 55.3576 9.91145 55.1619C8.55222 53.8203 7.19444 52.4773 5.84561 51.1257C5.65671 50.9365 5.37353 50.7811 5.44487 50.435L5.44522 50.4346Z" fill="#939292"/>
<path d="M33.2139 64.8966C33.2182 62.3488 33.2221 59.8011 33.2264 57.2534C33.359 57.2637 33.4307 57.3637 33.511 57.448C35.8334 59.8915 38.1547 62.3357 40.4752 64.7806C40.5068 64.814 40.5247 64.8599 40.5491 64.9001C40.3118 65.1555 39.9917 65.1359 39.6877 65.1374C37.8163 65.1477 35.9449 65.148 34.0731 65.1374C33.7695 65.1356 33.449 65.1559 33.2139 64.8966Z" fill="#888784"/>
<path d="M48.1483 18.3067C48.0543 18.4127 47.9662 18.524 47.8662 18.6233C46.3173 20.1612 44.7674 21.6981 43.2168 23.2339C43.0838 23.3655 42.9436 23.49 42.8128 23.6124C42.601 23.532 42.678 23.3662 42.6816 23.2442C42.7318 21.4733 42.7874 19.7024 42.8469 17.9315C42.8952 16.4913 42.9501 15.0516 43.0017 13.6118C43.0677 13.3941 43.1383 13.1875 43.4318 13.3763C43.6136 13.4933 43.7602 13.6491 43.9114 13.7989C45.1753 15.0509 46.4421 16.3 47.6973 17.5605C47.9024 17.7664 48.2196 17.9272 48.1486 18.3064L48.1483 18.3067Z" fill="#95918E"/>
<path d="M1.16745 33.2157C1.85781 33.2089 2.54818 33.1968 3.2389 33.1961C5.12038 33.194 7.00186 33.1968 8.88334 33.1975C8.8328 33.3963 8.66074 33.4984 8.52561 33.625C6.17062 35.8299 3.81277 38.0322 1.45421 40.2335C1.36854 40.3135 1.2671 40.3769 1.17283 40.448C0.888221 40.2257 0.914746 39.9024 0.912596 39.6008C0.90005 37.7559 0.900408 35.911 0.912596 34.0664C0.914388 33.7645 0.889297 33.4419 1.16781 33.216L1.16745 33.2157Z" fill="#9AA09B"/>
<path d="M10.599 10.7283C12.2353 12.3456 13.8709 13.9632 15.509 15.5787C15.6768 15.744 15.8599 15.8934 16.0363 16.0506C15.9657 16.1769 15.8416 16.1669 15.7251 16.1648C15.1531 16.1556 14.5796 16.1666 14.0093 16.1275C12.5576 16.0279 11.1026 16.046 9.64986 15.9994C8.24475 15.9546 6.83965 15.9066 5.43419 15.86C5.3944 15.4905 5.70051 15.3283 5.90483 15.1159C7.25043 13.7163 8.71611 12.4327 9.99217 10.9652C10.1474 10.787 10.3158 10.602 10.599 10.729V10.7283Z" fill="#A8A2A6"/>
<path d="M33.1982 9.04788C33.2043 7.98832 33.2122 6.92876 33.2162 5.86884C33.2223 4.38495 33.2255 2.90142 33.2301 1.41754C33.457 1.14189 33.7814 1.16714 34.085 1.16501C35.9396 1.15292 37.7942 1.15398 39.6485 1.1643C39.9528 1.16608 40.2754 1.14296 40.5105 1.40545C40.4266 1.51784 40.3535 1.64055 40.2575 1.74156C38.1021 4.01469 35.9457 6.28676 33.7836 8.55349C33.6087 8.73666 33.4768 8.98066 33.1982 9.04717V9.04788Z" fill="#9E9E9E"/>
<path d="M10.5755 55.5394C10.7526 55.3822 10.9376 55.2328 11.106 55.0667C12.5606 53.6291 14.0109 52.1872 15.4658 50.7495C15.6508 50.5667 15.8554 50.4038 16.0511 50.231C16.0379 51.3837 16.0368 52.5372 16.0092 53.6903C15.9666 55.4793 15.9092 57.268 15.8511 59.0564C15.8336 59.5974 15.7927 60.1373 15.7626 60.6779C15.4482 60.7334 15.2927 60.4926 15.1153 60.3183C13.7191 58.9447 12.3287 57.5654 10.9433 56.1811C10.767 56.0047 10.5264 55.8496 10.5759 55.5394H10.5755Z" fill="#D3CBD0"/>
<path d="M42.866 50.5665C42.8237 47.9284 42.6656 45.2929 42.6631 42.6779C42.819 42.5901 42.8846 42.6747 42.9459 42.7363C44.6399 44.43 46.3321 46.1252 48.0226 47.8221C48.0702 47.8701 48.0968 47.9388 48.133 47.9978C48.0975 48.2557 47.8967 48.4022 47.7311 48.5672C46.3834 49.9096 45.0349 51.2512 43.6768 52.5835C43.4854 52.7713 43.3302 53.0598 42.9757 52.9808L42.9728 52.9737C42.8022 52.1774 43.004 51.3643 42.8652 50.5665H42.866Z" fill="#D8D8D8"/>
<path d="M10.5749 55.5392C10.6781 55.6669 10.7702 55.8053 10.8856 55.9205C12.3632 57.3902 13.8432 58.857 15.3246 60.3227C15.458 60.4543 15.573 60.6112 15.7612 60.6777C16.024 60.9797 16.2867 61.2813 16.5613 61.5968C16.5007 61.6764 16.4523 61.7586 16.3863 61.8233C15.7103 62.4845 15.868 62.5084 15.2002 61.8475C11.5355 58.2196 7.87255 54.5903 4.21068 50.9595C3.58842 50.3424 3.59595 50.4822 4.25333 49.8388C4.44546 49.6506 4.52826 49.6642 4.74118 49.8424C4.97632 50.039 5.14084 50.3183 5.44445 50.4342C5.50108 50.5989 5.63801 50.7003 5.7545 50.8158C7.25065 52.3022 8.74752 53.7872 10.2469 55.2703C10.3469 55.3692 10.4648 55.4503 10.5742 55.5396L10.5749 55.5392Z" fill="#333333"/>
<path d="M13.8722 42.6355C13.7045 42.8105 13.4489 42.6622 13.2539 42.8066C13.3134 43.0496 13.5285 43.1758 13.6894 43.3362C15.4361 45.0773 17.2115 46.7906 18.9288 48.559C20.1834 49.8508 21.4444 51.1352 22.7229 52.4035C22.8864 52.5657 23.0262 52.7599 23.238 52.8602C23.3975 52.7759 23.3405 52.6429 23.3434 52.5383C23.3563 52.1136 23.3559 51.6882 23.362 51.2632C23.3638 51.1227 23.3524 50.9776 23.4649 50.8648C23.4656 51.4553 23.4821 52.0461 23.4613 52.6354C23.4495 52.9662 23.5255 53.2312 23.7829 53.452C23.9241 53.5737 24.0786 53.6943 24.1585 53.8998C23.9653 54.1869 23.6868 54.4003 23.409 54.677C19.3751 50.6621 15.3734 46.6792 11.3545 42.6796C11.4448 42.5687 11.509 42.4709 11.5914 42.3912C12.1979 41.8061 12.0829 41.7453 12.6743 42.3482C12.8535 42.5306 13.0442 42.6245 13.3034 42.6099C13.4919 42.5996 13.6822 42.6256 13.8719 42.6352L13.8722 42.6355Z" fill="#333333"/>
<path d="M10.5986 10.7279C10.4291 10.7691 10.3054 10.879 10.1922 11.001C8.84117 12.4572 7.38302 13.808 5.99082 15.2236C5.79367 15.4242 5.55423 15.5907 5.43415 15.8589C5.14131 15.9901 4.97248 16.2626 4.7377 16.46C4.53374 16.6318 4.45847 16.6342 4.25093 16.4447C4.11078 16.317 3.98174 16.1772 3.84732 16.0435C3.71613 15.9129 3.75448 15.7927 3.86883 15.6771C3.96883 15.5758 4.06848 15.4744 4.16956 15.3741C7.85581 11.7131 11.5421 8.05176 15.229 4.39113C15.8348 3.78968 15.7312 3.79822 16.3646 4.44519C16.5248 4.6088 16.5119 4.69274 16.3628 4.87236C16.1545 5.12347 15.8344 5.28779 15.7538 5.63849C15.5441 5.65023 15.4158 5.79321 15.2817 5.92623C13.8056 7.3902 12.3303 8.85417 10.8538 10.3174C10.7352 10.4348 10.6183 10.5507 10.599 10.7279H10.5986Z" fill="#333333"/>
<path d="M40.4476 12.1985C40.3572 12.1153 40.2519 12.0651 40.1275 12.0623C39.9608 12.0584 39.7941 12.0562 39.6275 12.0562C35.3146 12.0562 31.0018 12.0555 26.689 12.0612C26.4352 12.0612 26.1618 11.9823 25.9309 12.1672C25.6169 12.0086 25.2764 12.0818 24.9473 12.0555C24.7244 12.0377 24.6613 11.9762 24.6502 11.7471C24.6423 11.5821 24.6427 11.4164 24.6513 11.2513C24.6645 10.9949 24.7265 10.9394 25.0094 10.928C25.1997 10.9206 25.3904 10.9248 25.5807 10.9248C30.7491 10.9223 35.9172 10.9198 41.0856 10.917C41.824 10.9166 41.8337 10.927 41.796 11.6764C41.7799 11.9929 41.734 12.0345 41.4154 12.0566C41.0896 12.0794 40.7444 11.9794 40.4476 12.1981V12.1985Z" fill="#333333"/>
<path d="M33.214 64.897C35.6589 64.8984 38.1042 64.8995 40.5492 64.9009C40.7639 64.9038 40.9786 64.9066 41.1937 64.9102C41.8059 64.9198 41.8138 64.9272 41.8012 65.5625C41.7995 65.6567 41.7934 65.7513 41.7819 65.8449C41.769 65.9502 41.7034 66.0188 41.5991 66.0298C41.4575 66.0451 41.3141 66.0512 41.1715 66.0512C35.8719 66.0544 30.5722 66.0576 25.273 66.0576C24.6368 66.0576 24.6332 66.0473 24.6411 65.4302C24.6421 65.3356 24.6454 65.2409 24.6532 65.1467C24.6647 65.0094 24.7468 64.9329 24.8819 64.9251C25.0486 64.9155 25.2164 64.9095 25.3827 64.9162C25.5791 64.924 25.7616 64.8885 25.9315 64.791C26.0304 64.9258 26.1784 64.9112 26.3186 64.9112C28.6173 64.9073 30.9163 64.9023 33.2151 64.8974L33.214 64.897Z" fill="#333333"/>
<path d="M25.9095 53.9907C25.9758 54.0661 26.0611 54.1017 26.1604 54.1038C26.3274 54.1074 26.4945 54.1106 26.6615 54.1106C31.0299 54.1102 35.3982 54.1109 39.767 54.1045C40.0197 54.1042 40.295 54.1899 40.5222 53.9929C40.8423 54.1216 41.1803 54.0686 41.5108 54.09C41.6768 54.1006 41.7718 54.1849 41.7897 54.3503C41.7947 54.3973 41.7968 54.4446 41.7979 54.4915C41.8119 55.1513 41.7875 55.2235 41.0979 55.2231C36.0753 55.2199 31.0528 55.2239 26.0303 55.2253C25.6733 55.2253 25.3159 55.2317 24.9593 55.2224C24.7345 55.2167 24.6646 55.142 24.651 54.9237C24.6424 54.7825 24.6417 54.6405 24.6467 54.499C24.6585 54.1444 24.6976 54.1063 25.0682 54.0907C25.3517 54.0786 25.6414 54.1223 25.9102 53.9907H25.9095Z" fill="#333333"/>
<path d="M12.0565 25.8088C12.049 26.47 12.0347 27.1309 12.0347 27.7921C12.0343 31.7131 12.0365 35.6344 12.0397 39.5554C12.0397 39.815 12.0544 40.0743 12.0623 40.334C12.0551 40.5705 12.0468 40.807 12.0404 41.0435C12.0261 41.5739 12.0175 41.5831 11.4568 41.581C11.3378 41.5806 11.2185 41.5756 11.1006 41.561C10.998 41.5482 10.9238 41.4864 10.9138 41.3797C10.9005 41.2388 10.893 41.0969 10.893 40.9553C10.8905 35.6998 10.8884 30.4444 10.8887 25.1892C10.8887 24.5608 10.9002 24.5558 11.5228 24.564C11.6181 24.565 11.7135 24.5686 11.8081 24.5778C11.9501 24.5921 12.0149 24.6845 12.0207 24.8158C12.0357 25.1466 12.0447 25.4777 12.0562 25.8088H12.0565Z" fill="#333333"/>
<path d="M40.5113 1.40585C38.0846 1.40976 35.658 1.41368 33.2309 1.41759C33.0653 1.40443 32.9001 1.37953 32.7345 1.37953C30.5946 1.3774 28.4546 1.37811 26.3147 1.37953C26.1724 1.37953 26.0301 1.39411 25.8878 1.40194C25.6971 1.39554 25.5057 1.39554 25.3154 1.38095C25.1082 1.3653 24.8286 1.4777 24.7136 1.27887C24.558 1.01034 24.6243 0.682403 24.6809 0.380789C24.6899 0.332773 24.7813 0.274442 24.8408 0.266261C25.0053 0.244209 25.1734 0.239941 25.3398 0.239941C30.5935 0.235673 35.8472 0.233895 41.1009 0.228559C41.8343 0.227848 41.8193 0.226781 41.7924 1.01176C41.7838 1.265 41.6935 1.34716 41.44 1.36317C41.1307 1.38273 40.821 1.39198 40.5113 1.40585Z" fill="#333333"/>
<path d="M1.1671 33.216C1.16853 35.6268 1.17032 38.0376 1.17212 40.4484C1.16746 40.6376 1.16208 40.8268 1.15849 41.0164C1.14631 41.6235 1.1377 41.6324 0.499672 41.6189C0.404684 41.6168 0.308621 41.6132 0.215067 41.599C0.113627 41.5837 0.0383536 41.5229 0.0276003 41.4183C0.012904 41.2775 0.00645201 41.1352 0.00645201 40.9936C0.00286756 35.7606 0 30.5275 0 25.2944C0 24.6734 0.0218652 24.6595 0.639107 24.6684C0.663123 24.6684 0.686781 24.6684 0.710796 24.6695C1.09111 24.6823 1.12838 24.7147 1.14344 25.0682C1.15061 25.2336 1.15491 25.4 1.14774 25.5654C1.14129 25.7198 1.23699 25.8301 1.29434 25.9574C1.15921 26.0488 1.14165 26.1879 1.14129 26.333C1.14021 26.6641 1.14021 26.9953 1.14021 27.3267C1.14021 29.0301 1.1395 30.7338 1.14201 32.4371C1.14236 32.6971 1.15814 32.9568 1.16674 33.2168L1.1671 33.216Z" fill="#333333"/>
<path d="M23.4637 13.1895C23.1924 13.2065 23.0615 13.426 22.897 13.5885C21.1922 15.2752 19.4911 16.9653 17.7892 18.6544C16.3737 20.0594 14.9578 21.4643 13.5441 22.871C13.3763 23.0378 13.2208 23.2167 13.0598 23.3899C12.834 23.5994 12.6078 23.8086 12.3824 24.0184C12.2626 24.1297 12.1361 24.1625 12.0085 24.038C11.3027 23.3497 11.302 23.4981 11.9379 22.8664C15.5883 19.2399 19.2394 15.6138 22.8934 11.9908C23.5687 11.3215 23.4024 11.3154 24.1225 12.0534C24.2157 12.1488 24.2179 12.2644 24.1175 12.3671C23.9852 12.503 23.8562 12.6424 23.7182 12.7723C23.5938 12.8896 23.5046 13.0237 23.4637 13.1891V13.1895Z" fill="#333333"/>
<path d="M21.2118 33.8848C22.9463 34.5325 24.6809 35.1805 26.3906 35.8189C26.4286 36.0192 26.358 36.1462 26.3007 36.2735C25.6207 37.7819 24.9397 39.2896 24.2554 40.7963C24.2077 40.9016 24.1339 40.9955 24.0722 41.0943C23.7399 41.0492 23.7016 40.7508 23.6037 40.5267C22.7514 38.5726 21.9402 36.6014 21.1211 34.6338C21.0262 34.4058 20.7079 34.0736 21.2122 33.8848H21.2118Z" fill="#9AA09B"/>
<path d="M25.2036 42.0525C26.3915 41.5208 27.5794 40.9883 28.768 40.458C29.2842 40.2275 29.8025 40.0013 30.2993 39.7822C30.3717 39.8267 30.4326 39.842 30.4459 39.8758C31.1183 41.583 31.7972 43.2885 32.3976 45.0228C32.2403 45.3813 31.9847 45.154 31.8065 45.0857C29.7261 44.2872 27.6762 43.4144 25.6216 42.5526C25.4072 42.4626 25.1767 42.3552 25.2033 42.0525H25.2036Z" fill="#A8A8A1"/>
<path d="M33.9714 45.149C33.9635 45.1059 33.9685 45.064 33.9861 45.0238C34.0126 44.9733 34.0356 44.921 34.056 44.8676C34.6886 43.1654 35.3299 41.4663 36.0156 39.7349C37.7989 40.4978 39.5251 41.2778 41.255 42.0503C41.2156 42.4345 40.8743 42.5063 40.6091 42.6158C38.5943 43.4481 36.5884 44.301 34.5686 45.1219C34.3768 45.1998 34.1786 45.3225 33.9714 45.1486V45.149Z" fill="#D8D8D8"/>
<path d="M45.2982 32.2705C43.8106 31.7213 42.3209 31.1785 40.838 30.6184C40.5567 30.512 40.1484 30.506 40.0351 30.2371C39.9229 29.9707 40.1979 29.6772 40.3205 29.4044C40.9674 27.965 41.6241 26.5298 42.2776 25.0933C42.6184 25.0918 42.6923 25.3693 42.7919 25.5994C43.6554 27.5898 44.4841 29.5947 45.3172 31.5975C45.4007 31.7985 45.6269 32.0578 45.2982 32.2705Z" fill="#D3CBD0"/>
<path d="M24.0712 25.1068C24.5493 26.1301 25.03 27.1523 25.5046 28.177C25.7917 28.797 26.0734 29.4194 26.3498 30.044C26.4423 30.2527 26.4111 30.3182 26.177 30.4082C24.9845 30.8681 23.7905 31.3237 22.5958 31.7775C22.1757 31.9372 21.752 32.0866 21.3298 32.241C20.824 32.3135 21.0061 31.9582 21.0645 31.7629C21.233 31.1995 21.4789 30.6618 21.7054 30.119C22.3223 28.6419 22.9313 27.1615 23.5561 25.6876C23.6589 25.4447 23.6912 25.1178 24.0708 25.1064L24.0712 25.1068Z" fill="#D8D8D8"/>
<path d="M41.1132 24.1099C39.4318 24.8718 37.7424 25.6162 36.0065 26.377C35.3401 24.6477 34.6831 22.9813 34.0791 21.2947C34.1913 20.9138 34.2451 20.8693 34.6791 21.045C35.4487 21.357 36.2215 21.6614 36.989 21.9787C38.2166 22.487 39.4414 23.0016 40.6716 23.5035C40.9107 23.6009 41.2534 23.6184 41.2749 23.9964H41.2727C41.2172 24.0313 41.1641 24.0686 41.1132 24.1095V24.1099Z" fill="#CDCAC9"/>
<path d="M42.2824 40.9068C41.5142 39.2366 40.7465 37.5663 39.9912 35.9242C40.0521 35.7591 40.1701 35.7186 40.2755 35.6787C41.9139 35.0542 43.5538 34.4335 45.1944 33.8143C45.2596 33.7897 45.3345 33.7908 45.4048 33.7798C45.5349 33.9896 45.4507 34.1952 45.3693 34.3859C44.5087 36.3972 43.7137 38.4352 42.8401 40.4405C42.7423 40.6653 42.7068 41.0352 42.2824 40.9065V40.9068Z" fill="#D2D1CB"/>
<path d="M32.4057 21.0135C32.3548 21.1942 32.3168 21.3795 32.2512 21.5545C31.7111 22.9907 31.1655 24.4248 30.6217 25.8596C30.6135 25.8816 30.6027 25.903 30.5941 25.925C30.4027 26.4041 30.3999 26.4102 29.9471 26.2103C28.6435 25.6355 27.342 25.0561 26.0405 24.4767C25.7369 24.3416 25.4372 24.1975 25.1357 24.0577C25.1952 23.8205 25.392 23.7284 25.5903 23.643C27.6692 22.7478 29.7726 21.9109 31.8634 21.0441C32.0333 20.9737 32.2172 20.8808 32.4057 21.0135Z" fill="#9E9E9E"/>
<path d="M48.1478 18.3064C48.074 18.1254 47.9231 18.0062 47.7897 17.8743C46.3843 16.4775 44.9777 15.0819 43.5712 13.6862C43.521 13.6364 43.4716 13.5855 43.4199 13.5372C43.2971 13.4221 43.1573 13.447 43.0006 13.6118C43.0214 13.1783 42.817 12.8656 42.5009 12.5804C42.1844 12.2948 42.1955 12.2354 42.4769 11.9544C43.0568 11.3746 42.9403 11.3889 43.5031 11.9466C45.2028 13.6307 46.8969 15.3205 48.5934 17.0082C48.6773 17.0918 48.7608 17.1757 48.8439 17.2604C48.9568 17.3753 49.0009 17.4962 48.8662 17.6249C48.6274 17.8529 48.3873 18.0795 48.1478 18.3064Z" fill="#333333"/>
<path d="M55.7847 10.7095C55.7109 10.4997 55.5449 10.361 55.3936 10.2112C53.9756 8.80668 52.558 7.40211 51.1389 5.99861C50.9891 5.85029 50.8593 5.67032 50.627 5.63475C50.5242 5.29828 50.2231 5.1208 50.0087 4.87396C49.8492 4.69043 49.8399 4.6264 50.0101 4.45604C50.6647 3.80052 50.5747 3.77918 51.2063 4.40553C52.8856 6.07045 54.5653 7.73502 56.2457 9.39888C56.693 9.84205 56.7023 9.84063 56.2507 10.281C56.0998 10.4282 55.9403 10.5669 55.7847 10.7099V10.7095Z" fill="#333333"/>
<path d="M42.9754 52.9811C43.2059 52.8879 43.3443 52.6873 43.511 52.5226C44.877 51.1721 46.238 49.8166 47.6033 48.4658C47.7704 48.3007 47.9557 48.1535 48.1324 47.998C48.3994 48.124 48.5579 48.3687 48.7604 48.5646C48.8876 48.6881 48.8575 48.8133 48.7443 48.9342C48.5665 49.1245 48.3994 49.3254 48.2148 49.5093C46.6183 51.0981 45.0186 52.6841 43.4196 54.2708C43.3185 54.3711 43.2181 54.4721 43.1109 54.5656C43.0113 54.6528 42.9016 54.6734 42.7955 54.5717C42.5758 54.3615 42.3428 54.1626 42.1689 53.9183C42.4102 53.553 42.7848 53.3449 42.9747 52.9811H42.9754Z" fill="#333333"/>
<path d="M50.6254 60.1176C50.7699 60.2329 50.6441 60.4484 50.7989 60.5683C51.0294 60.4833 51.1627 60.2802 51.3269 60.1183C52.6704 58.7906 54.0088 57.4575 55.3515 56.1287C55.5182 55.9637 55.7028 55.8164 55.8788 55.6606C56.9011 56.5082 56.7387 56.335 55.9763 57.1018C54.4852 58.6014 52.9772 60.0842 51.4778 61.5759C51.2592 61.7936 51.0538 62.0244 50.838 62.2449C50.7215 62.3641 50.5896 62.3762 50.4591 62.2638C50.3871 62.2019 50.3193 62.135 50.2516 62.0682C49.7809 61.6026 49.7544 61.6097 50.2448 61.2042C50.6172 60.8962 50.5842 60.5078 50.6258 60.1173L50.6254 60.1176Z" fill="#333333"/>
<path d="M32.4059 21.0138C30.1302 21.9538 27.854 22.8932 25.5793 23.8357C25.4274 23.8987 25.2847 23.984 25.1367 24.0584C24.9614 24.0054 24.8141 24.1171 24.651 24.1355C24.4531 24.1576 24.3653 24.0946 24.2918 23.8787C24.2585 23.7806 24.2617 23.6835 24.3538 23.6301C24.4968 23.5476 24.6481 23.4779 24.8008 23.4146C27.3436 22.3629 29.8868 21.3125 32.4303 20.2622C32.4959 20.2352 32.5593 20.201 32.6271 20.1797C32.7784 20.132 32.883 20.1886 32.9475 20.3679C32.992 20.4923 33.0827 20.6318 32.8981 20.7328C32.7325 20.8235 32.5701 20.9202 32.4059 21.0141V21.0138Z" fill="#333333"/>
<path d="M45.2982 32.2698C45.3806 32.1222 45.2932 31.9963 45.2405 31.8697C44.6587 30.479 44.0748 29.089 43.4909 27.6993C43.1805 26.961 42.8658 26.2244 42.5589 25.4845C42.4948 25.3295 42.4353 25.1783 42.2776 25.0926C42.2521 24.9308 42.2328 24.7682 42.2001 24.6082C42.1471 24.3478 42.1496 24.3357 42.3783 24.2343C42.593 24.139 42.693 24.1632 42.7772 24.3574C43.0023 24.8763 43.2196 25.3985 43.4389 25.9195C44.2709 27.896 45.1025 29.8725 45.933 31.8497C46.0061 32.0233 46.061 32.2054 46.1427 32.3747C46.2563 32.6105 46.2158 32.7279 45.9029 32.8339C45.7634 32.8812 45.6538 32.8471 45.6143 32.7236C45.5541 32.5355 45.4434 32.3943 45.2989 32.2698H45.2982Z" fill="#333333"/>
<path d="M24.071 25.1073C23.9333 25.1834 23.8932 25.3267 23.8398 25.4551C22.9781 27.5319 22.1189 29.6094 21.2611 31.688C21.207 31.8189 21.1504 31.9544 21.1317 32.0924C21.1156 32.2123 21.2454 32.2137 21.33 32.2415C21.0826 32.3809 20.8665 32.5417 20.7489 32.8194C20.6941 32.9493 20.5514 32.9126 20.4381 32.8529C20.3109 32.7856 20.1697 32.7273 20.2238 32.5406C20.2435 32.4727 20.2718 32.4072 20.2991 32.3418C21.3604 29.7848 22.4221 27.2278 23.4849 24.6716C23.5301 24.5631 23.5731 24.4504 23.6387 24.354C23.738 24.2085 23.8864 24.2441 24.0258 24.2882C24.1566 24.3294 24.2179 24.4219 24.1914 24.5574C24.1552 24.7413 24.1115 24.9238 24.071 25.1069V25.1073Z" fill="#333333"/>
<path d="M41.2749 23.9971C41.0627 23.7951 40.7745 23.741 40.5175 23.635C38.773 22.9152 37.022 22.2106 35.2731 21.5006C34.9455 21.3676 34.6211 21.2264 34.2902 21.1008C34.1125 21.0333 34.1186 21.1965 34.0791 21.295C33.939 21.0859 33.8472 20.8505 33.5687 20.7469C33.363 20.6705 33.3694 20.5723 33.478 20.3514C33.5522 20.2006 33.6508 20.1377 33.8164 20.2053C34.1895 20.3571 34.5648 20.5047 34.9372 20.658C37.1736 21.5792 39.4096 22.5015 41.6455 23.4238C41.7552 23.4689 41.8638 23.5163 41.9717 23.5653C42.1355 23.6397 42.1409 23.7741 42.104 23.9217C42.0524 24.1287 41.9452 24.1956 41.7502 24.1398C41.5911 24.0942 41.433 24.0444 41.2745 23.9964L41.2749 23.9971Z" fill="#333333"/>
<path d="M42.2825 40.9067C42.4032 40.8797 42.4921 40.8267 42.5438 40.7001C42.8739 39.8938 43.2119 39.0903 43.547 38.2861C44.0729 37.0252 44.5994 35.7651 45.1231 34.5035C45.2224 34.2645 45.3113 34.0208 45.4049 33.7797C45.473 33.6292 45.5303 33.4727 45.6128 33.3305C45.707 33.1679 46.0597 33.2042 46.1687 33.3714C46.2153 33.4429 46.2017 33.5062 46.1762 33.5695C46.0264 33.9422 45.8734 34.3139 45.7199 34.6852C44.7991 36.9143 43.8779 39.1429 42.9563 41.3716C42.9022 41.5028 42.8592 41.6405 42.7871 41.7618C42.6975 41.9126 42.5516 41.9051 42.4136 41.8318C42.295 41.7689 42.1427 41.7262 42.2204 41.5242C42.2964 41.3275 42.3703 41.123 42.2817 40.9067H42.2825Z" fill="#333333"/>
<path d="M33.9711 45.1491C34.6944 44.86 35.4199 44.5768 36.14 44.2806C37.4942 43.7232 38.8473 43.1623 40.1969 42.5943C40.5621 42.4406 40.9636 42.3499 41.2543 42.0508C41.4206 42.0448 41.5844 42.033 41.7389 41.9576C41.9042 41.8769 42.0085 41.9612 42.0755 42.106C42.1644 42.2977 42.1303 42.4399 41.969 42.5306C41.8662 42.5886 41.7565 42.6356 41.6472 42.6807C39.0886 43.7403 36.5296 44.7995 33.9711 45.8583C33.9273 45.8765 33.8832 45.8939 33.8384 45.9103C33.6298 45.9875 33.5621 45.9562 33.4603 45.7381C33.3631 45.5297 33.3843 45.4511 33.5882 45.3362C33.7115 45.2669 33.8427 45.2114 33.9703 45.1495L33.9711 45.1491Z" fill="#333333"/>
<path d="M39.0402 30.4642C38.4348 30.3742 37.8272 30.4226 37.2193 30.4546C36.8641 30.4734 36.5081 30.4926 36.1525 30.4951C35.8436 30.4973 35.7912 30.4386 35.793 30.1135C35.7952 29.7134 35.826 29.3125 35.8153 28.9131C35.8009 28.3781 35.9317 27.8389 35.7712 27.3079C35.7665 27.2923 35.7877 27.2585 35.8056 27.2492C35.8411 27.2307 35.8934 27.2026 35.9192 27.2158C35.9809 27.2475 36.035 27.2965 36.0848 27.3463C37.0221 28.2814 37.9591 29.2172 38.8946 30.154C38.976 30.2355 39.0732 30.3137 39.0405 30.4646L39.0402 30.4642Z" fill="#B1AFAD"/>
<path d="M25.2035 42.0527C25.2949 42.2373 25.4727 42.3102 25.6476 42.3827C26.8248 42.8718 28.0012 43.3626 29.1812 43.8453C30.1422 44.2386 31.1078 44.6217 32.0717 45.0087C32.1778 45.0514 32.2846 45.1243 32.3979 45.0226C32.5359 45.1129 32.642 45.2381 32.7972 45.3156C33.0599 45.4469 33.0624 45.5095 32.9431 45.7524C32.8714 45.8979 32.781 45.9776 32.6079 45.9071C32.2111 45.746 31.8107 45.5938 31.415 45.4302C29.1726 44.5026 26.9312 43.5728 24.6895 42.6441C24.6017 42.6079 24.5088 42.5823 24.4235 42.5414C24.2576 42.4617 24.2278 42.376 24.2923 42.1985C24.3798 41.9577 24.4379 41.9054 24.6418 41.9694C24.8279 42.0278 25.0128 42.0502 25.2042 42.0523L25.2035 42.0527Z" fill="#333333"/>
<path d="M30.916 27.0308H35.4647C34.6829 27.8442 33.9431 28.6142 33.1764 29.412C32.4272 28.6228 31.7125 27.8698 30.916 27.0308Z" fill="#B7B1B1"/>
<path d="M21.212 33.8847C21.0887 33.9559 21.0665 34.054 21.121 34.1821C21.3346 34.6822 21.5464 35.1833 21.7572 35.6845C22.4899 37.4283 23.2215 39.1729 23.9559 40.9161C23.9828 40.9801 24.033 41.0349 24.0724 41.0943C24.1287 41.2501 24.1839 41.4059 24.2423 41.5609C24.2803 41.6623 24.2631 41.7448 24.1703 41.8067C24.0086 41.9145 23.7867 41.9323 23.7107 41.8295C23.6412 41.7356 23.5835 41.6296 23.538 41.5218C23.058 40.3876 22.5813 39.2519 22.1035 38.1162C21.5156 36.7191 20.9278 35.3217 20.3399 33.9246C20.303 33.8371 20.2614 33.7517 20.2313 33.6621C20.1725 33.4874 20.2388 33.3878 20.4578 33.2907C20.6184 33.2196 20.736 33.2552 20.8034 33.4167C20.8876 33.619 21.0149 33.7809 21.2124 33.8844L21.212 33.8847Z" fill="#333333"/>
<path d="M27.1916 30.8608C27.9683 31.5864 28.7221 32.2903 29.4899 33.0077C29.1723 33.4925 28.7103 33.8009 28.3296 34.185C27.9669 34.5513 27.583 34.8974 27.2084 35.2524C27.1815 35.2186 27.1321 35.1859 27.1306 35.1507C27.0672 33.8834 27.0994 31.4886 27.1919 30.8608H27.1916Z" fill="#C3BABF"/>
<path d="M30.5428 37.198C30.5743 37.7112 30.4188 38.2298 30.5729 38.7412C30.5815 38.7693 30.5456 38.8323 30.5159 38.8447C30.4811 38.8593 30.4195 38.8501 30.389 38.8262C30.2954 38.754 30.2076 38.674 30.1241 38.5904C29.2509 37.7204 28.3788 36.8494 27.5078 35.978C27.4411 35.9115 27.3845 35.835 27.3193 35.7667C27.2748 35.7205 27.2727 35.6806 27.3275 35.6472C27.3648 35.6244 27.4135 35.5874 27.4472 35.596C28.1064 35.7628 28.7724 35.5985 29.4334 35.6422C29.8055 35.6668 30.1886 35.5423 30.5499 35.7198C30.5478 36.0708 30.5453 36.4219 30.5435 36.7729C30.5428 36.9145 30.5435 37.056 30.5435 37.1976L30.5428 37.198Z" fill="#BBB9B8"/>
<path d="M39.201 30.9629V35.1617C39.0483 35.1937 38.9566 35.0535 38.8688 34.9739C38.2533 34.4158 37.6536 33.841 37.05 33.2705C36.9317 33.1585 36.8891 33.0322 37.0246 32.906C37.6662 32.3074 38.3092 31.7102 38.9551 31.1158C39.0186 31.0575 39.1035 31.0223 39.201 30.9629Z" fill="#B5B7B4"/>
<path d="M33.1794 36.7158C33.8604 37.4368 34.4802 38.0905 35.0956 38.7482C35.1841 38.8428 35.1153 38.984 34.9795 39.0046C34.9089 39.0153 34.8372 39.0252 34.7662 39.0252C33.6439 39.0259 32.5216 39.0252 31.3997 39.0231C31.3341 39.0231 31.2412 39.0405 31.2251 38.9537C31.214 38.894 31.2301 38.8061 31.2696 38.7631C31.8814 38.1005 32.499 37.4428 33.1794 36.7158Z" fill="#C0C0C0"/>
<path d="M30.4926 27.6861C30.5237 28.5034 30.5567 29.3208 30.5843 30.1385C30.5929 30.3964 30.5137 30.4867 30.2578 30.4778C29.4341 30.4494 28.6107 30.4088 27.787 30.3725C27.7487 30.2779 27.7562 30.1794 27.82 30.1072C28.5684 29.2593 29.3713 28.4647 30.2251 27.721C30.2976 27.6576 30.3968 27.6491 30.4926 27.6857V27.6861Z" fill="#8E8D88"/>
<path d="M35.8419 38.1958C35.8243 37.4492 35.8028 36.7023 35.7913 35.9558C35.787 35.6698 35.8204 35.6403 36.1218 35.6406C36.4982 35.6406 36.8746 35.6545 37.2513 35.6623C37.5743 35.7644 37.9062 35.6982 38.2334 35.7068C38.5155 35.7143 38.6922 35.8298 38.4869 36.0749C37.808 36.8837 37.057 37.6274 36.239 38.3C36.0967 38.417 35.9276 38.4082 35.8426 38.1962L35.8419 38.1958Z" fill="#A59D9D"/>
<path d="M35.8411 38.1959C35.9612 38.2966 36.0702 38.335 36.2046 38.1995C36.7677 37.6315 37.3405 37.0723 37.9051 36.5054C38.1001 36.3094 38.3201 36.1334 38.4653 35.9029C38.3621 35.7194 38.2062 35.7884 38.0786 35.7706C37.8026 35.7325 37.5097 35.8229 37.2498 35.6621C37.5093 35.6525 37.7681 35.639 38.0277 35.6347C38.2169 35.6315 38.408 35.6269 38.5951 35.6482C38.7553 35.6664 38.9331 35.4487 39.0517 35.6237C39.1969 35.8378 38.9546 35.9555 38.8345 36.0765C37.9549 36.9635 37.0674 37.8435 36.1802 38.7234C36.0974 38.8052 36.0046 38.8788 35.9078 38.9436C35.8827 38.9603 35.8168 38.9404 35.7842 38.9172C35.7505 38.8931 35.71 38.8401 35.7153 38.807C35.7505 38.6021 35.7978 38.399 35.8408 38.1956L35.8411 38.1959Z" fill="#BFBAB6"/>
<path d="M30.4931 27.6862C30.3812 27.7715 30.2587 27.8466 30.159 27.9444C29.4507 28.6401 28.746 29.339 28.0445 30.0411C27.9463 30.1393 27.8728 30.2616 27.7879 30.3726C27.6205 30.4035 27.442 30.6568 27.2943 30.4295C27.1886 30.2673 27.4119 30.1517 27.5208 30.0429C28.4008 29.1615 29.2862 28.2855 30.1698 27.4077C30.2199 27.3579 30.2708 27.3095 30.3217 27.2608C30.3909 27.195 30.473 27.1299 30.5666 27.1832C30.668 27.2409 30.639 27.3344 30.5945 27.4255C30.5537 27.509 30.5264 27.599 30.4931 27.6862Z" fill="#A8A4A0"/>
<path d="M128.304 50.0764C128.248 49.7289 128.072 49.4632 127.752 49.2399C127.865 49.1115 127.928 49.041 127.989 48.9688C128.434 48.4431 128.118 47.3765 127.286 47.2641C127.121 47.242 126.957 47.199 126.793 47.1965C126.197 47.188 125.602 47.1872 125.006 47.194C124.716 47.1976 124.663 47.2456 124.662 47.5234C124.657 48.7753 124.657 50.0277 124.662 51.2797C124.663 51.5432 124.72 51.5934 125.014 51.5966C125.633 51.603 126.253 51.6001 126.872 51.5944C127.014 51.5934 127.158 51.5784 127.297 51.55C128.014 51.4038 128.42 50.7967 128.304 50.0764ZM126.063 47.979C126.158 47.9776 126.253 47.979 126.479 47.979C126.538 47.9822 126.729 47.9808 126.916 48.0057C127.127 48.0341 127.245 48.1757 127.267 48.3873C127.293 48.6445 127.193 48.8127 126.97 48.8813C126.645 48.9813 126.31 48.9432 125.98 48.9397C125.574 48.9354 125.546 48.8956 125.541 48.4823C125.536 47.9975 125.546 47.9875 126.063 47.979ZM126.893 50.8365C126.705 50.8607 126.512 50.8408 126.322 50.8408C125.437 50.8525 125.55 50.9268 125.549 50.0334C125.549 49.7453 125.597 49.6973 125.875 49.6919C126.208 49.6852 126.543 49.6809 126.876 49.7022C127.2 49.7232 127.379 49.9032 127.397 50.1767C127.42 50.5246 127.226 50.7931 126.893 50.8365Z" fill="#333333"/>
<path d="M88.7999 51.8826C88.9454 51.7677 89.1178 51.8204 89.2802 51.8097C89.4415 51.7994 89.5462 51.8634 89.6053 52.0203C89.6372 52.1053 89.6964 52.1889 89.7638 52.2515C90.0573 52.5235 90.5473 52.4393 90.7409 52.0871C90.7746 52.026 90.8101 51.958 90.8158 51.8908C90.8273 51.7524 90.8194 51.6123 90.8194 51.4796C90.6484 51.3704 90.5491 51.5202 90.4301 51.5593C89.5168 51.8577 88.7899 51.3879 88.7425 50.4325C88.7135 49.8435 88.7314 49.2517 88.739 48.6612C88.7422 48.4112 88.8239 48.349 89.0978 48.3379C89.1214 48.3369 89.1454 48.3372 89.1691 48.3372C89.5723 48.3347 89.6304 48.3838 89.6372 48.7694C89.6437 49.1471 89.6387 49.5252 89.6397 49.9033C89.6401 50.0687 89.643 50.2341 89.644 50.3991C89.6473 50.7861 89.8942 50.9347 90.1677 50.949C90.4918 50.9657 90.7968 50.7295 90.823 50.4204C90.8506 50.0918 90.8362 49.7599 90.8387 49.4292C90.8402 49.2403 90.833 49.0511 90.8412 48.8622C90.8481 48.7036 90.7796 48.509 90.942 48.4037C91.1305 48.2817 91.3563 48.3283 91.5649 48.3639C91.6144 48.3724 91.6589 48.4564 91.6893 48.5136C91.7101 48.5524 91.7072 48.6054 91.7072 48.6524C91.7076 49.7151 91.7194 50.7782 91.7015 51.841C91.6922 52.382 91.4144 52.7846 90.9104 53.0058C90.4308 53.2164 89.9344 53.2114 89.4541 53.0172C88.996 52.8319 88.8393 52.5321 88.7999 51.8826Z" fill="#333333"/>
<path d="M78.057 51.7721C77.6476 51.7244 77.2874 51.7205 76.9562 51.5562C76.5429 51.3513 76.2866 51.0351 76.2106 50.5795C76.1798 50.3953 76.2432 50.3017 76.4182 50.2921C76.5372 50.2857 76.6569 50.2879 76.7762 50.2875C76.9257 50.2871 77.0221 50.3323 77.1139 50.4796C77.425 50.9789 77.9885 51.1511 78.5298 50.9423C78.7445 50.8594 78.8835 50.704 78.9158 50.4714C78.9441 50.2672 78.8287 50.0752 78.5928 49.9731C78.4419 49.908 78.2763 49.8756 78.1165 49.8308C77.7724 49.7344 77.4186 49.6644 77.0863 49.5384C76.5114 49.3208 76.2364 48.8918 76.2665 48.3363C76.2966 47.781 76.6214 47.3542 77.1666 47.1753C77.682 47.006 78.2032 47.0167 78.7136 47.1917C79.0362 47.3023 79.3126 47.4958 79.4807 47.7995C79.5925 48.0019 79.7761 48.2445 79.6033 48.4533C79.4682 48.6165 79.1979 48.523 78.9864 48.5169C78.8814 48.5141 78.8323 48.4326 78.7746 48.3526C78.4351 47.8789 78.0957 47.7483 77.5616 47.8845C77.4723 47.9073 77.3845 47.9571 77.3103 48.0129C77.0777 48.1887 77.0752 48.5045 77.2971 48.6855C77.4297 48.7937 77.5856 48.8452 77.7498 48.8865C78.0269 48.9558 78.3021 49.0327 78.5767 49.112C78.7366 49.1582 78.8939 49.2134 79.0506 49.2685C79.5266 49.436 79.785 49.7618 79.8209 50.2708C79.8596 50.8214 79.6592 51.2382 79.1789 51.5217C78.8144 51.7369 78.4086 51.7504 78.057 51.7725V51.7721Z" fill="#333333"/>
<path d="M83.0981 48.8401C82.7698 48.312 82.0991 48.1139 81.5303 48.3674C81.312 48.4649 81.1607 48.5759 80.9284 48.3749C80.8327 48.2924 80.608 48.3465 80.4431 48.3561C80.3449 48.3618 80.2667 48.4229 80.252 48.5314C80.2427 48.6011 80.2377 48.6723 80.2377 48.7427C80.237 50.0896 80.2373 51.4366 80.2381 52.7835C80.2384 52.854 80.2338 52.929 80.2556 52.9941C80.2764 53.0556 80.3069 53.1278 80.3976 53.1314C80.5158 53.1364 80.6345 53.1527 80.7528 53.1509C81.0428 53.146 81.0915 53.1058 81.0958 52.8301C81.103 52.3589 81.0976 51.8872 81.0976 51.3274C81.3302 51.4551 81.4478 51.5319 81.5751 51.5878C82.1851 51.8556 82.8723 51.6582 83.1705 51.0702C83.5472 50.3283 83.5465 49.56 83.0981 48.8401ZM82.4507 50.5218C82.3314 50.8035 82.079 50.9774 81.7837 50.9646C81.4948 50.9522 81.284 50.8095 81.1772 50.5446C81.0399 50.2049 81.0317 49.8503 81.136 49.5028C81.2342 49.1755 81.5148 48.981 81.8235 48.9874C82.1593 48.9942 82.3414 49.2047 82.4522 49.4811C82.512 49.6312 82.5221 49.8005 82.5317 49.8496C82.535 50.1551 82.5264 50.3429 82.4507 50.5218Z" fill="#333333"/>
<path d="M104.182 47.5104C104.182 47.44 104.181 47.3664 104.162 47.2999C104.143 47.2344 104.102 47.1718 104.019 47.1686C103.877 47.1626 103.734 47.1583 103.592 47.1573C103.423 47.1555 103.323 47.2305 103.323 47.4073C103.323 47.7832 103.323 48.1592 103.323 48.6415C103.104 48.5152 102.989 48.4338 102.863 48.3787C102.228 48.1016 101.522 48.3292 101.225 48.9467C100.889 49.647 100.891 50.3669 101.276 51.0537C101.581 51.5975 102.23 51.8355 102.811 51.6427C102.944 51.5986 103.06 51.4965 103.194 51.462C103.359 51.4197 103.462 51.6377 103.643 51.6011C103.711 51.5872 103.785 51.6004 103.856 51.5986C104.129 51.5915 104.18 51.5492 104.181 51.2614C104.186 50.0112 104.183 48.7606 104.182 47.5104ZM103.224 50.5945C103.108 50.8442 102.898 50.9918 102.599 50.9851C102.327 50.9787 102.16 50.8264 102.035 50.6119C101.926 50.4238 101.871 50.2203 101.888 50.0009C101.872 49.7843 101.911 49.5766 102.009 49.3831C102.139 49.1281 102.351 48.9972 102.642 49.0039C102.903 49.01 103.11 49.1298 103.213 49.3617C103.393 49.7658 103.414 50.1887 103.224 50.5945Z" fill="#333333"/>
<path d="M120.178 48.5825C120.589 48.3791 120.908 48.2351 121.284 48.2724C121.858 48.3293 122.234 48.6466 122.257 49.2075C122.285 49.9156 122.266 50.6259 122.265 51.3351C122.265 51.5062 122.173 51.5923 122.002 51.5966C121.906 51.599 121.81 51.603 121.716 51.5983C121.46 51.5855 121.394 51.5233 121.39 51.2462C121.382 50.7735 121.386 50.3005 121.386 49.8274C121.386 49.7328 121.389 49.6378 121.384 49.5436C121.361 49.157 121.255 49.0126 120.976 48.9802C120.587 48.935 120.298 49.1104 120.217 49.4643C120.181 49.6236 120.183 49.7926 120.181 49.9576C120.175 50.3833 120.183 50.8091 120.175 51.2345C120.17 51.5379 120.104 51.5937 119.788 51.5994C119.693 51.6012 119.598 51.5937 119.503 51.5848C119.396 51.5745 119.331 51.5105 119.32 51.4063C119.308 51.2889 119.304 51.1705 119.304 51.0527C119.302 49.9412 119.302 48.8297 119.304 47.7182C119.304 47.6002 119.307 47.4821 119.315 47.3644C119.325 47.2231 119.413 47.162 119.549 47.1584C119.596 47.157 119.644 47.1552 119.692 47.1545C120.148 47.1488 120.17 47.1677 120.177 47.6233C120.182 47.9053 120.178 48.1877 120.178 48.5833V48.5825Z" fill="#333333"/>
<path d="M106.575 49.3859C106.575 48.7713 106.57 48.1567 106.577 47.5425C106.58 47.2604 106.638 47.1975 106.903 47.1953C107.737 47.1889 108.571 47.1886 109.405 47.1957C109.673 47.1978 109.725 47.2665 109.734 47.5428C109.736 47.6136 109.733 47.6847 109.731 47.7555C109.726 47.8942 109.656 47.9739 109.514 47.9803C109.372 47.9867 109.229 47.9885 109.086 47.9892C108.729 47.9903 108.371 47.9863 108.014 47.9906C107.476 47.9967 107.476 47.9988 107.486 48.559C107.487 48.6298 107.489 48.7005 107.495 48.7713C107.506 48.9132 107.597 48.9766 107.729 48.9808C107.944 48.9872 108.158 48.9854 108.373 48.9862C108.587 48.9869 108.802 48.9826 109.016 48.9876C109.435 48.9972 109.489 49.0673 109.445 49.5051C109.432 49.6434 109.361 49.7274 109.227 49.732C108.894 49.743 108.561 49.7413 108.227 49.7445C108.084 49.7459 107.94 49.7413 107.798 49.7494C107.569 49.763 107.497 49.8259 107.491 50.0471C107.482 50.4014 107.482 50.756 107.486 51.1106C107.492 51.6228 107.435 51.5993 106.947 51.5982C106.876 51.5982 106.798 51.6014 106.736 51.5748C106.679 51.5506 106.61 51.494 106.598 51.4403C106.572 51.3269 106.576 51.2059 106.575 51.0879C106.573 50.5205 106.574 49.9532 106.574 49.3859H106.575H106.575Z" fill="#333333"/>
<path d="M96.9937 50.3786H96.9808C96.9808 50.0243 97.0052 49.6679 96.9751 49.3158C96.9278 48.7606 96.6339 48.4177 96.1209 48.3149C95.7464 48.2399 95.3589 48.2342 94.9854 48.3256C94.5312 48.4366 94.2291 48.7126 94.1606 49.1931C94.1516 49.2578 94.1438 49.341 94.2237 49.3738C94.4065 49.4481 94.5983 49.4147 94.7872 49.404C94.8936 49.3983 94.9495 49.3282 95.0004 49.2425C95.2151 48.8808 95.5438 48.9153 95.8793 49.0117C95.9987 49.0462 96.0772 49.1458 96.0747 49.2767C96.0722 49.4033 96.0052 49.5103 95.8815 49.5434C95.6521 49.605 95.4195 49.6636 95.1847 49.6917C94.9434 49.7205 94.7148 49.781 94.5043 49.892C94.1398 50.0848 93.9452 50.5628 94.0391 50.9921C94.1219 51.373 94.4194 51.6437 94.8442 51.6846C95.1506 51.7138 95.4661 51.7365 95.7532 51.5782C95.9256 51.4826 96.0862 51.4317 96.2722 51.5669C96.3382 51.6145 96.4561 51.5971 96.5507 51.6003C96.9378 51.6138 96.9851 51.5676 96.993 51.1582C96.9977 50.8986 96.9937 50.6386 96.9937 50.3786ZM96.0417 50.6403C95.8915 50.9469 95.6252 51.0682 95.3184 51.0949C95.1205 51.0753 94.9868 50.9974 94.9237 50.8221C94.8689 50.6698 94.9302 50.5002 95.0675 50.3878C95.2413 50.2459 95.4628 50.2434 95.6621 50.1779C95.7894 50.136 95.9518 50.0609 96.0586 50.1833C96.1794 50.3216 96.1152 50.4902 96.0417 50.6403Z" fill="#333333"/>
<path d="M138.12 49.4202C138.1 48.8102 137.819 48.4449 137.292 48.3251C136.895 48.2351 136.485 48.2337 136.088 48.3354C135.659 48.4449 135.384 48.7177 135.302 49.1588C135.29 49.2214 135.295 49.3142 135.334 49.354C135.453 49.4768 136.01 49.433 136.113 49.2673C136.334 48.9091 136.643 48.9151 136.985 48.9994C137.109 49.0297 137.196 49.1204 137.21 49.2438C137.229 49.4053 137.134 49.5159 136.983 49.5568C136.777 49.6123 136.565 49.6461 136.356 49.6926C136.171 49.7339 135.98 49.7613 135.804 49.8271C135.318 50.0099 135.082 50.4492 135.177 50.9599C135.259 51.4049 135.575 51.6603 136.091 51.6958C136.138 51.699 136.187 51.6937 136.234 51.6983C136.556 51.7293 136.834 51.5287 137.123 51.5038C137.426 51.4778 137.742 51.6873 138.069 51.5347C138.086 51.4913 138.118 51.4479 138.118 51.4042C138.123 50.743 138.141 50.0811 138.12 49.4202ZM136.445 51.0873C136.278 51.0873 136.113 50.9642 136.077 50.8113C136.036 50.6331 136.077 50.4737 136.238 50.3805C136.508 50.2237 136.808 50.1518 137.119 50.1412C137.185 50.139 137.251 50.1899 137.246 50.271C137.254 50.7391 136.909 51.0869 136.445 51.0873Z" fill="#333333"/>
<path d="M141.531 49.2887C141.463 48.6869 141.123 48.3533 140.511 48.2928C140.229 48.2651 139.937 48.264 139.657 48.3049C139.056 48.3924 138.795 48.71 138.74 49.3559C138.783 49.3726 138.827 49.4004 138.872 49.4039C139.178 49.426 139.46 49.4577 139.669 49.1162C139.811 48.8857 140.272 48.8932 140.518 49.0579C140.595 49.1098 140.66 49.2033 140.63 49.3004C140.604 49.3833 140.548 49.4964 140.48 49.5199C140.256 49.5957 140.023 49.6561 139.789 49.6856C139.549 49.7159 139.318 49.7671 139.104 49.8702C138.723 50.0534 138.515 50.5051 138.589 50.9458C138.659 51.363 138.963 51.6394 139.425 51.6867C139.589 51.7038 139.763 51.7169 139.923 51.6838C140.152 51.6365 140.384 51.4647 140.594 51.4943C140.818 51.5259 141.037 51.6141 141.275 51.5974C141.441 51.5857 141.542 51.5195 141.543 51.342C141.544 50.9405 141.548 50.5393 141.547 50.1377C141.547 49.8546 141.563 49.5686 141.531 49.2887ZM139.798 51.0881C139.645 51.0682 139.484 50.9177 139.46 50.7676C139.436 50.614 139.496 50.4809 139.618 50.4002C139.9 50.2138 140.223 50.147 140.557 50.1406C140.621 50.1395 140.678 50.2046 140.674 50.2793C140.677 50.7673 140.259 51.1489 139.798 51.0881Z" fill="#333333"/>
<path d="M113.547 50.228C114.023 50.2209 114.499 50.2212 114.974 50.2248C115.478 50.2287 115.539 50.2056 115.467 49.6465C115.443 49.4615 115.39 49.2744 115.317 49.1026C115.104 48.605 114.725 48.3166 114.172 48.2807C114.007 48.27 113.838 48.2686 113.674 48.2881C113.107 48.3568 112.702 48.6506 112.493 49.182C112.334 49.5871 112.313 50.0075 112.401 50.4343C112.577 51.2847 113.07 51.6895 113.97 51.6977C114.367 51.724 114.742 51.6062 115.056 51.3171C115.3 51.0919 115.451 50.7825 115.345 50.7256C115.125 50.6075 114.881 50.6441 114.652 50.6961C114.546 50.7199 114.465 50.8334 114.363 50.8906C113.954 51.1193 113.558 51.0052 113.339 50.6015C113.22 50.3817 113.298 50.2316 113.547 50.228ZM113.381 49.2826C113.507 49.0642 113.704 48.9568 113.964 48.9661C114.257 48.976 114.442 49.1233 114.551 49.3854C114.618 49.5451 114.558 49.666 114.385 49.6753C114.222 49.6838 114.057 49.6771 113.893 49.6771V49.6838C113.8 49.6838 113.705 49.6877 113.612 49.6831C113.499 49.6771 113.358 49.6948 113.332 49.5458C113.317 49.4622 113.339 49.3569 113.381 49.2826Z" fill="#333333"/>
<path d="M131.56 51.1609C131.555 50.9016 131.559 50.6423 131.559 50.3827H131.542C131.542 50.0057 131.561 49.6272 131.537 49.2516C131.511 48.8433 131.307 48.531 130.903 48.3934C130.371 48.2113 129.832 48.2034 129.305 48.4218C128.939 48.5734 128.773 48.8739 128.732 49.2499C128.728 49.2872 128.755 49.3452 128.786 49.3658C128.961 49.48 129.443 49.432 129.558 49.2548C129.786 48.9048 130.095 48.9152 130.434 49.0069C130.558 49.04 130.635 49.13 130.647 49.2591C130.659 49.3918 130.589 49.4914 130.471 49.534C130.315 49.5895 130.152 49.6276 129.99 49.6624C129.735 49.7172 129.473 49.7186 129.225 49.8239C128.892 49.9662 128.684 50.1906 128.633 50.5534C128.531 51.2705 128.88 51.6806 129.619 51.6962C129.784 51.6998 129.972 51.7211 130.111 51.6546C130.425 51.5052 130.714 51.5283 131.049 51.5831C131.485 51.6539 131.567 51.6126 131.56 51.1609ZM129.796 51.0723C129.655 51.0421 129.533 50.9653 129.506 50.7995C129.484 50.6516 129.497 50.5065 129.625 50.4165C129.905 50.2205 130.233 50.1618 130.566 50.1426C130.625 50.139 130.678 50.2191 130.674 50.2906C130.685 50.7839 130.253 51.1698 129.796 51.0723Z" fill="#333333"/>
<path d="M97.5461 49.978C97.5461 49.5064 97.5418 49.0348 97.549 48.5635C97.5508 48.4322 97.6361 48.3465 97.7752 48.344C97.9171 48.3412 98.0594 48.3472 98.2014 48.3561C98.348 48.3654 98.3777 48.6033 98.5387 48.5532C98.6709 48.5119 98.7778 48.3949 98.9089 48.3465C99.2068 48.237 99.5226 48.2331 99.8212 48.3241C100.129 48.418 100.362 48.6211 100.451 48.9458C100.488 49.0813 100.523 49.2226 100.525 49.3616C100.533 49.9983 100.534 50.6353 100.527 51.272C100.524 51.5309 100.449 51.5899 100.177 51.6013C100.13 51.6035 100.082 51.6027 100.035 51.602C99.6818 51.5967 99.6326 51.5537 99.6265 51.187C99.619 50.7388 99.6266 50.2907 99.6222 49.8425C99.6208 49.6782 99.6086 49.5131 99.5921 49.3495C99.5796 49.224 99.5022 49.1347 99.3936 49.0742C99.014 48.8626 98.5272 49.0707 98.4448 49.4932C98.4093 49.6764 98.4168 49.8685 98.4143 50.057C98.4089 50.4813 98.4096 50.906 98.4071 51.3303C98.406 51.5014 98.3103 51.5864 98.1455 51.596C98.0272 51.6027 97.9078 51.5992 97.7892 51.5974C97.6081 51.5946 97.544 51.4861 97.5426 51.3232C97.5422 51.2759 97.54 51.2289 97.54 51.1816C97.54 50.7808 97.54 50.3796 97.54 49.9787C97.5422 49.9787 97.5447 49.9787 97.5469 49.9787L97.5461 49.978Z" fill="#333333"/>
<path d="M115.924 50.6115C116.106 50.5254 116.3 50.566 116.488 50.5628C116.607 50.5607 116.72 50.5777 116.783 50.7093C116.871 50.8953 117.028 50.9903 117.233 51.0152C117.449 51.0419 117.661 51.0337 117.864 50.9466C118.014 50.8815 118.033 50.6332 117.902 50.5244C117.73 50.3807 117.513 50.3504 117.309 50.3017C116.982 50.2235 116.667 50.1232 116.377 49.9542C116.132 49.8112 116.014 49.5843 115.981 49.3137C115.936 48.9445 116.115 48.6019 116.468 48.4451C117.012 48.2036 117.576 48.2061 118.137 48.3928C118.247 48.4291 118.351 48.4992 118.439 48.5746C118.669 48.7705 118.827 49.1532 118.721 49.2478C118.673 49.2909 118.592 49.3208 118.528 49.3183C118.301 49.3097 118.063 49.3919 117.875 49.1525C117.634 48.8449 117.305 48.8566 116.97 49.0003C116.831 49.0601 116.809 49.2614 116.929 49.3499C117.085 49.4637 117.261 49.5235 117.448 49.5729C117.746 49.6519 118.039 49.7508 118.334 49.8436C118.997 50.0524 119.038 50.9334 118.579 51.3599C118.07 51.8329 116.595 51.8535 116.084 51.1984C115.949 51.0255 115.849 50.8427 115.924 50.6119V50.6115Z" fill="#333333"/>
<path d="M133.155 50.879C133.713 50.8868 134.111 50.8903 134.509 50.8989C134.625 50.9014 134.759 50.8975 134.803 51.0369C134.852 51.1945 134.87 51.3634 134.777 51.5103C134.748 51.5576 134.657 51.5903 134.594 51.591C133.809 51.5974 133.025 51.5992 132.24 51.5957C132.075 51.5949 131.995 51.5014 131.983 51.3282C131.965 51.076 132.043 50.8779 132.215 50.6894C132.629 50.2345 133.028 49.7664 133.428 49.299C133.467 49.2528 133.49 49.1746 133.485 49.1137C133.478 49.0213 133.385 49.0309 133.319 49.0298C133.01 49.0248 132.701 49.0305 132.392 49.0209C132.16 49.0134 132.109 48.9494 132.11 48.7161C132.112 48.4234 132.161 48.3462 132.41 48.343C133.1 48.3341 133.789 48.3337 134.479 48.3412C134.736 48.3441 134.786 48.4269 134.803 48.6976C134.819 48.9537 134.721 49.1433 134.549 49.3275C134.116 49.7924 133.699 50.2718 133.156 50.8797L133.155 50.879Z" fill="#333333"/>
<path d="M86.8317 48.2722C87.4238 48.2583 87.9049 48.4568 88.1952 48.9952C88.2493 49.0956 88.2694 49.2183 88.2841 49.3331C88.2923 49.3972 88.2705 49.4907 88.1844 49.4971C87.8916 49.5188 87.5647 49.6593 87.3701 49.2887C87.3382 49.2282 87.283 49.1763 87.2288 49.1322C86.9098 48.8708 86.437 48.981 86.2797 49.3612C86.1288 49.7251 86.1395 50.1021 86.2553 50.4717C86.4302 51.0304 86.9532 51.14 87.3478 50.7046C87.4235 50.6211 87.4321 50.4678 87.5672 50.4482C87.7776 50.418 87.993 50.3995 88.2013 50.4656C88.2332 50.4756 88.2669 50.5321 88.2694 50.5691C88.2741 50.6378 88.2697 50.7125 88.2457 50.7761C88.0224 51.363 87.474 51.7069 86.7854 51.6977C86.1284 51.6888 85.6294 51.3513 85.4302 50.7487C85.2954 50.3415 85.2563 49.9225 85.343 49.4925C85.509 48.6694 85.98 48.2768 86.8324 48.2725L86.8317 48.2722Z" fill="#333333"/>
<path d="M143.999 48.7733C143.998 48.796 144.002 48.8917 143.985 48.9838C143.973 49.05 143.938 49.1158 143.851 49.1222C143.757 49.1293 143.659 49.1283 143.568 49.1489C143.172 49.2392 143.003 49.4245 142.981 49.8343C142.963 50.1636 142.976 50.4944 142.974 50.8248C142.973 50.9899 142.971 51.1549 142.97 51.3199C142.969 51.4885 142.883 51.5792 142.716 51.5942C142.645 51.6006 142.573 51.6002 142.502 51.5999C142.14 51.5984 142.101 51.5675 142.098 51.1919C142.092 50.3664 142.092 49.5408 142.098 48.7153C142.101 48.3874 142.16 48.3618 142.464 48.3305C142.701 48.3059 142.861 48.5104 143.046 48.5026C143.239 48.4944 143.401 48.296 143.629 48.2782C143.923 48.2551 143.993 48.3077 143.999 48.6307C143.999 48.6541 143.999 48.678 143.999 48.7729L143.999 48.7733Z" fill="#333333"/>
<path d="M110.146 49.9801C110.146 49.5315 110.14 49.083 110.148 48.6349C110.153 48.4044 110.219 48.3493 110.451 48.3407C110.546 48.3372 110.641 48.3468 110.736 48.3436C110.89 48.3379 110.931 48.5733 111.093 48.5164C111.225 48.4702 111.338 48.3639 111.471 48.3254C111.604 48.287 111.751 48.2977 111.892 48.2917C111.981 48.2877 112.026 48.3614 112.03 48.4247C112.042 48.6125 112.042 48.8017 112.03 48.9895C112.026 49.0524 111.983 49.1218 111.893 49.1243C111.846 49.1257 111.798 49.13 111.752 49.1382C111.161 49.241 111.035 49.3786 111.02 49.9761C111.008 50.4243 111.014 50.8728 111.012 51.3213C111.011 51.4899 110.922 51.581 110.756 51.5945C110.661 51.6023 110.565 51.6012 110.47 51.5984C110.205 51.5902 110.152 51.5404 110.147 51.2552C110.14 50.8305 110.145 50.4054 110.145 49.9808H110.146L110.146 49.9801Z" fill="#333333"/>
<path d="M83.9331 49.9964C83.9331 49.5489 83.9274 49.1019 83.9353 48.6544C83.9399 48.3887 84.002 48.3403 84.2862 48.3357C84.3808 48.3343 84.4765 48.3336 84.5701 48.3457C84.6988 48.3624 84.7877 48.4335 84.7973 48.5705C84.8056 48.6878 84.8059 48.8056 84.8056 48.9233C84.8049 49.7236 84.8031 50.5242 84.8013 51.3245C84.8009 51.4913 84.7171 51.5848 84.5486 51.598C84.4776 51.6033 84.4063 51.604 84.3353 51.6037C83.9765 51.6023 83.9392 51.5703 83.9331 51.1971C83.9263 50.797 83.9317 50.3969 83.9317 49.9964H83.9331Z" fill="#333333"/>
<path d="M83.932 47.501C83.9341 47.1901 83.9714 47.1542 84.3029 47.1499C84.3968 47.1485 84.4911 47.1499 84.5847 47.1563C84.7205 47.1649 84.7908 47.2388 84.804 47.3751C84.8578 47.9232 84.7514 48.0249 84.1832 47.9801C84.0065 47.9662 83.9398 47.8695 83.9323 47.7112C83.9291 47.6415 83.9316 47.5714 83.9316 47.5013L83.932 47.501Z" fill="#333333"/>
<path d="M42.8653 50.5664C42.8947 50.6521 42.9477 50.7375 42.9495 50.8239C42.9628 51.5406 42.9663 52.2573 42.9728 52.9736C42.9416 52.9128 42.885 52.8527 42.8832 52.7912C42.8617 52.0496 42.7864 51.3083 42.8653 50.5664Z" fill="#B1AEAB"/>
<path d="M41.1143 24.1095C41.1465 24.043 41.1906 23.9929 41.2734 23.9968C41.2558 24.0836 41.1985 24.1152 41.1143 24.1095Z" fill="#969492"/>
<path d="M34.055 44.8682C34.0819 44.9425 34.0575 44.9941 33.9851 45.0243C33.9589 44.9503 33.9815 44.898 34.055 44.8682Z" fill="#ACAAA9"/>
</svg>
