<svg width="205" height="45" viewBox="0 0 205 45" fill="none" xmlns="http://www.w3.org/2000/svg">
<path d="M17.4869 0.716797C16.4931 3.1114 15.9555 5.76548 16.2217 8.34833C16.3116 9.18441 16.5355 9.98996 16.8068 10.7769C17.0086 11.3569 17.2494 11.9352 17.5869 12.4524C18.6333 14.1619 20.1257 15.5338 21.016 17.3807C21.8131 19.0444 22.1726 20.8318 22.4864 22.6159C22.7458 24.1286 23.0426 26.3248 23.2631 27.8647C23.3937 28.7279 23.5209 29.5979 23.7498 30.378C23.9703 31.1395 24.3027 31.694 25.0353 32.018C26.5226 32.7625 29.2971 32.5946 30.1179 34.2464C30.279 34.6195 30.2587 34.9366 30.2705 35.2045C30.3027 35.3623 30.3265 35.659 30.3808 35.7608C30.4876 35.8727 30.725 35.9185 30.9404 35.966C31.2999 36.0847 31.595 36.4527 31.6883 36.7919C31.8291 37.1921 31.79 37.6483 31.8782 37.9553C31.8833 37.9723 31.885 37.9672 31.8782 37.9587C31.8664 37.9332 31.8019 37.8841 31.7629 37.8739C31.7561 37.8705 31.746 37.8688 31.7392 37.8688L31.7493 37.8722L31.7714 37.8773L31.9461 37.9214C33.1552 38.2165 34.1965 39.3476 34.1389 40.6416C34.1016 41.8898 33.1332 42.8768 32.1038 43.4127C30.5927 44.1996 28.8697 44.4557 27.1874 44.4896C23.4462 44.6151 19.6067 43.3177 16.9187 40.6636C15.8842 39.6359 14.9973 38.4284 14.3647 37.1141C13.9543 36.1848 13.6711 35.2266 13.2709 34.304C12.2805 31.884 11.2086 30.2542 8.79199 29.0773C11.4257 29.9557 12.7621 31.5567 14.0391 33.9343C14.4732 34.7178 14.8565 35.5607 15.2652 36.3459C15.506 36.758 15.718 37.1938 15.9605 37.6042C18.8487 42.485 25.2473 44.3912 30.5487 42.8225C31.5374 42.4884 32.5379 41.9864 32.9093 41.0249C33.2383 40.1277 32.5176 39.2408 31.6459 39.0356C31.0167 38.9287 30.7725 38.5082 30.7013 37.9383C30.6538 37.6466 30.6724 37.2617 30.5453 37.0531L30.6589 37.0887C30.2536 37.0073 29.7092 36.8377 29.4311 36.4154C29.1818 36.0321 29.1953 35.7048 29.1241 35.3012C29.1207 35.2724 29.119 35.174 29.1173 35.1418C29.1173 34.9044 29.1037 34.8009 29.0664 34.7127C28.7883 34.2175 27.8098 33.9784 27.2043 33.8309C26.3004 33.6189 25.422 33.4663 24.5486 33.0643C22.5915 32.2418 22.4202 29.8133 22.1268 28.0343C21.7554 25.5362 21.4383 22.6787 20.8244 20.2705C20.6141 19.4378 20.3427 18.6339 19.9832 17.8861C19.1336 16.1427 17.6276 14.7419 16.6118 13.0612C14.1968 9.34043 15.406 4.29683 17.4919 0.716797L17.4869 0.716797Z" fill="black"/>
<path d="M3.40442 6.56445C3.96746 7.2479 4.30494 8.09076 4.50845 8.95058C5.03079 11.1671 4.54237 13.5922 3.22975 15.451C2.99232 15.7511 2.74302 16.0479 2.47168 16.3176C2.55987 15.8783 2.70232 15.4815 2.80577 15.0745C3.1229 13.889 3.39934 12.7053 3.51974 11.4859C3.69273 9.83075 3.63167 8.24339 3.40442 6.56615V6.56445Z" fill="black"/>
<path fill-rule="evenodd" clip-rule="evenodd" d="M5.77106 18.9159C6.08529 18.9691 6.29693 19.2669 6.24376 19.5811C5.9239 21.4716 6.57362 22.7535 7.32098 23.5888C8.0854 24.4432 8.96083 24.835 9.04023 24.8688C9.33341 24.9938 9.46977 25.3327 9.34481 25.6259C9.21985 25.9191 8.88088 26.0555 8.5877 25.9305C8.43243 25.8643 7.38435 25.3905 6.46089 24.3584C5.52036 23.3072 4.71783 21.6817 5.10583 19.3886C5.15899 19.0744 5.45683 18.8627 5.77106 18.9159Z" fill="#333333"/>
<path fill-rule="evenodd" clip-rule="evenodd" d="M1.77638 19.0933L1.77599 19.095L1.7735 19.1056C1.77113 19.1159 1.7674 19.1324 1.76258 19.1549C1.75295 19.1999 1.739 19.2686 1.72301 19.3582C1.69101 19.5376 1.651 19.7999 1.62095 20.1233C1.56064 20.7723 1.54159 21.6552 1.70122 22.6016C2.01758 24.4771 3.02469 26.5841 5.84414 27.6738C6.1414 27.7887 6.28925 28.1228 6.17437 28.4201C6.05948 28.7173 5.72536 28.8652 5.42809 28.7503C2.13077 27.4759 0.927764 24.955 0.563192 22.7935C0.382366 21.7215 0.405151 20.7336 0.471794 20.0165C0.505218 19.6568 0.549961 19.3623 0.586845 19.1555C0.605301 19.0521 0.621829 18.9704 0.634059 18.9132C0.640175 18.8847 0.645221 18.8622 0.648901 18.8463C0.650741 18.8383 0.65224 18.8319 0.653361 18.8272L0.654755 18.8214L0.655231 18.8195L0.655412 18.8187C0.655486 18.8184 0.655555 18.8182 1.21588 18.9561L0.655555 18.8182C0.731732 18.5087 1.04435 18.3196 1.35381 18.3958C1.66302 18.4719 1.85208 18.7841 1.77639 19.0933" fill="black"/>
<path fill-rule="evenodd" clip-rule="evenodd" d="M11.0947 19.3069C11.0947 19.3069 11.0947 19.3069 11.0947 19.3069C11.0947 19.307 11.0947 19.3072 11.0947 19.3074C11.0946 19.3089 11.0945 19.3124 11.0943 19.3179C11.0939 19.329 11.0935 19.3478 11.0936 19.3735C11.0937 19.4251 11.0957 19.5038 11.1038 19.6029C11.1203 19.8023 11.161 20.0771 11.257 20.3763C11.4474 20.9693 11.8466 21.6401 12.7082 22.0439C12.9968 22.1792 13.1211 22.5227 12.9858 22.8113C12.8506 23.0999 12.507 23.2242 12.2184 23.0889C10.9911 22.5137 10.4179 21.5379 10.1582 20.7292C10.0292 20.3275 9.97544 19.9626 9.95362 19.6976C9.94266 19.5644 9.93962 19.4547 9.93946 19.3759C9.93938 19.3364 9.94002 19.3046 9.94076 19.2812C9.94113 19.2696 9.94153 19.26 9.94188 19.2527L9.94235 19.2434L9.94254 19.24L9.94263 19.2386L9.94266 19.238C9.94268 19.2377 9.9427 19.2375 10.5186 19.2734L9.9427 19.2375C9.96253 18.9194 10.2365 18.6776 10.5545 18.6974C10.8718 18.7172 11.1132 18.9898 11.0947 19.3069Z" fill="black"/>
<path fill-rule="evenodd" clip-rule="evenodd" d="M11.3145 26.6084C11.464 26.3269 11.8133 26.2198 12.0948 26.3692C14.674 27.7384 15.8336 29.1535 16.9668 31.14C17.2392 31.6172 17.5173 32.1496 17.7957 32.6827C18.0046 33.0826 18.2136 33.4828 18.4205 33.8603C18.9231 34.777 19.4633 35.6594 20.1187 36.4302C21.4065 37.9445 23.1577 39.055 26.0224 39.0298C26.341 39.027 26.6017 39.283 26.6045 39.6017C26.6073 39.9204 26.3512 40.181 26.0325 40.1838C22.7881 40.2124 20.7231 38.9225 19.2395 37.1778C18.5093 36.3191 17.9252 35.3575 17.4085 34.4151C17.172 33.9836 16.9581 33.5732 16.751 33.1758C16.4887 32.6724 16.2373 32.1899 15.9645 31.7122L15.9644 31.712C14.9164 29.8747 13.9024 28.6354 11.5537 27.3886C11.2722 27.2392 11.1651 26.8899 11.3145 26.6084Z" fill="#333333"/>
<g clip-path="url(#clip0_2614_4446)">
<path d="M85.4673 13.8591C86.632 13.8591 87.5762 12.9185 87.5762 11.7582C87.5762 10.5979 86.632 9.65723 85.4673 9.65723C84.3026 9.65723 83.3584 10.5979 83.3584 11.7582C83.3584 12.9185 84.3026 13.8591 85.4673 13.8591Z" fill="black"/>
<path d="M159.187 13.8591C160.352 13.8591 161.296 12.9185 161.296 11.7582C161.296 10.5979 160.352 9.65723 159.187 9.65723C158.022 9.65723 157.078 10.5979 157.078 11.7582C157.078 12.9185 158.022 13.8591 159.187 13.8591Z" fill="#333333"/>
<path d="M48.8116 35.976C46.9271 35.976 45.2871 35.5134 43.8915 34.5857C42.4959 33.6581 41.507 32.4073 40.9248 30.831L43.5071 29.5802C44.0426 30.6938 44.776 31.5727 45.7049 32.2236C46.636 32.8722 47.6716 33.1977 48.8116 33.1977C49.836 33.1977 50.6849 32.9541 51.3583 32.4671C52.0316 31.98 52.3694 31.3424 52.3694 30.5543C52.3694 29.9986 52.2072 29.5581 51.8805 29.2326C51.5783 28.885 51.2049 28.6194 50.7627 28.4334C50.3205 28.2253 49.9138 28.0748 49.5405 27.9818L46.7138 27.1826C45.016 26.6955 43.7715 26.0004 42.9804 25.0971C42.2137 24.1939 41.8293 23.1379 41.8293 21.9335C41.8293 20.8199 42.1093 19.8591 42.6671 19.0489C43.2493 18.2142 44.0271 17.5656 45.0049 17.1029C46.0049 16.6402 47.1227 16.4077 48.356 16.4077C50.0072 16.4077 51.485 16.8239 52.7872 17.6585C54.1139 18.4932 55.0561 19.6643 55.6139 21.1697L52.9605 22.3874C52.5427 21.4133 51.9138 20.6495 51.0761 20.0938C50.2383 19.5138 49.296 19.2237 48.2493 19.2237C47.296 19.2237 46.5382 19.4673 45.9804 19.9543C45.4226 20.417 45.1426 21.0081 45.1426 21.7276C45.1426 22.2612 45.2826 22.7017 45.5604 23.0493C45.8404 23.3747 46.176 23.6293 46.5715 23.8131C46.9671 23.9747 47.3516 24.1142 47.7227 24.2293L50.7938 25.1325C52.3294 25.5731 53.5161 26.2572 54.3539 27.1848C55.2139 28.1124 55.645 29.2238 55.645 30.5233C55.645 31.566 55.3539 32.5047 54.7717 33.3393C54.1894 34.174 53.3872 34.8226 52.3627 35.2853C51.3383 35.748 50.1516 35.9805 48.8027 35.9805L48.8116 35.976Z" fill="black"/>
<path d="M66.8457 35.7652C65.0079 35.7652 63.5879 35.2427 62.5879 34.2C61.6101 33.1573 61.1212 31.685 61.1212 29.7855V19.9117H57.7012V16.8167H58.399C59.2367 16.8167 59.899 16.5621 60.3879 16.053C60.8768 15.5438 61.1212 14.8708 61.1212 14.0361V12.5063H64.3657V16.8167H68.588V19.9117H64.3657V29.6815C64.3657 30.308 64.459 30.8526 64.6457 31.3153C64.8546 31.778 65.1924 32.15 65.6568 32.4289C66.1213 32.6835 66.7391 32.8119 67.5058 32.8119C67.668 32.8119 67.8658 32.8008 68.0991 32.7765C68.3547 32.7543 68.588 32.73 68.7969 32.7078V35.5593C68.4947 35.6279 68.1569 35.6744 67.7858 35.6988C67.4124 35.7453 67.0991 35.7674 66.8435 35.7674L66.8457 35.7652Z" fill="black"/>
<path d="M81.6617 16.6108V19.6682H80.0216C78.6949 19.6682 77.6238 20.0866 76.8105 20.9212C75.9949 21.7315 75.5882 22.8916 75.5882 24.397V35.5571H72.3438V16.8189H75.5193V19.0727C75.9394 18.3554 76.4994 17.7997 77.1949 17.41C78.1016 16.8765 79.2061 16.6108 80.5105 16.6108H81.6617Z" fill="black"/>
<path d="M106.47 9.23877V19.3207C105.844 18.5459 105.064 17.9083 104.132 17.4101C102.924 16.7371 101.539 16.4006 99.979 16.4006C98.2101 16.4006 96.6168 16.8301 95.199 17.6869C93.8012 18.5458 92.6967 19.7148 91.8834 21.1981C91.0678 22.6592 90.6611 24.3285 90.6611 26.2058C90.6611 28.0832 91.0678 29.6949 91.8834 31.1782C92.6967 32.6614 93.8012 33.8304 95.199 34.6893C96.6168 35.5461 98.2101 35.9756 99.979 35.9756C101.515 35.9756 102.899 35.6391 104.132 34.9661C105.141 34.4281 105.955 33.7064 106.575 32.8098V35.5572H109.75V9.23877H106.47ZM105.632 29.613C105.097 30.6092 104.366 31.3973 103.435 31.9774C102.504 32.5552 101.446 32.8452 100.259 32.8452C99.0724 32.8452 98.0123 32.5552 97.0834 31.9774C96.1523 31.3973 95.419 30.6092 94.8834 29.613C94.3479 28.5924 94.0812 27.4566 94.0812 26.2058C94.0812 24.955 94.3479 23.7728 94.8834 22.7987C95.419 21.8024 96.1523 21.0143 97.0834 20.4343C98.0368 19.8321 99.0946 19.531 100.259 19.531C101.424 19.531 102.504 19.821 103.435 20.3989C104.366 20.9789 105.097 21.7781 105.632 22.7987C106.19 23.7949 106.47 24.9306 106.47 26.2058C106.47 27.481 106.19 28.5924 105.632 29.613Z" fill="black"/>
<path d="M130.653 22.0684C130.258 20.9791 129.675 20.0183 128.909 19.1837C128.164 18.3247 127.244 17.6539 126.151 17.1669C125.082 16.6555 123.849 16.4009 122.453 16.4009C120.731 16.4009 119.173 16.8304 117.775 17.6871C116.404 18.5218 115.311 19.6685 114.495 21.1297C113.704 22.5908 113.309 24.2579 113.309 26.1352C113.309 28.0126 113.715 29.6708 114.531 31.1784C115.344 32.6617 116.462 33.8306 117.88 34.6896C119.3 35.5464 120.918 35.9759 122.731 35.9759C124.035 35.9759 125.209 35.7655 126.255 35.3493C127.327 34.9331 128.247 34.3752 129.013 33.6801C129.804 32.9628 130.387 32.1747 130.758 31.3157L128.035 29.9254C127.502 30.8308 126.802 31.5725 125.942 32.1503C125.082 32.7303 124.022 33.0203 122.767 33.0203C121.626 33.0203 120.569 32.7414 119.591 32.1857C118.638 31.6057 117.893 30.8065 117.358 29.7859C116.971 28.9978 116.755 28.1166 116.715 27.1448H131.107C131.153 26.8658 131.189 26.5758 131.211 26.2747C131.258 25.9515 131.282 25.6615 131.282 25.4069C131.282 24.2468 131.073 23.1355 130.653 22.0684ZM117.322 22.52C117.833 21.4773 118.544 20.6781 119.451 20.1224C120.358 19.5645 121.36 19.2878 122.453 19.2878C123.547 19.2878 124.524 19.5645 125.384 20.1224C126.244 20.6781 126.895 21.4308 127.338 22.3805C127.62 22.9915 127.771 23.6513 127.787 24.3641H116.782C116.875 23.6911 117.055 23.0757 117.322 22.52Z" fill="black"/>
<path d="M146.053 9.65723H142.004L132.687 35.5572H136.351L138.48 29.4735H149.578L151.707 35.5572H155.371L146.053 9.65723ZM139.562 26.3453L144.029 13.5293L148.496 26.3453H139.562Z" fill="#333333"/>
<path d="M180.189 9.23877V19.3207C179.562 18.5459 178.782 17.9083 177.851 17.4101C176.642 16.7371 175.258 16.4006 173.698 16.4006C171.931 16.4006 170.336 16.8301 168.918 17.6869C167.522 18.5458 166.415 19.7148 165.602 21.1981C164.787 22.6592 164.38 24.3285 164.38 26.2058C164.38 28.0832 164.787 29.6949 165.602 31.1782C166.415 32.6614 167.522 33.8304 168.918 34.6893C170.336 35.5461 171.931 35.9756 173.698 35.9756C175.233 35.9756 176.618 35.6391 177.851 34.9661C178.86 34.4281 179.673 33.7064 180.293 32.8098V35.5572H183.469V9.23877H180.189ZM179.351 29.613C178.816 30.6092 178.085 31.3973 177.153 31.9774C176.222 32.5552 175.164 32.8452 173.978 32.8452C172.791 32.8452 171.733 32.5552 170.802 31.9774C169.871 31.3973 169.138 30.6092 168.602 29.613C168.069 28.5924 167.8 27.4566 167.8 26.2058C167.8 24.955 168.069 23.7728 168.602 22.7987C169.138 21.8024 169.871 21.0143 170.802 20.4343C171.756 19.8321 172.813 19.531 173.978 19.531C175.142 19.531 176.222 19.821 177.153 20.3989C178.085 20.9789 178.816 21.7781 179.351 22.7987C179.911 23.7949 180.189 24.9306 180.189 26.2058C180.189 27.481 179.911 28.5924 179.351 29.613Z" fill="black"/>
<path d="M204.371 22.0684C203.975 20.9791 203.395 20.0183 202.627 19.1837C201.882 18.3247 200.964 17.6539 199.871 17.1669C198.8 16.6555 197.567 16.4009 196.171 16.4009C194.449 16.4009 192.891 16.8304 191.495 17.6871C190.122 18.5218 189.029 19.6685 188.213 21.1297C187.422 22.5908 187.026 24.2579 187.026 26.1352C187.026 28.0126 187.435 29.6708 188.249 31.1784C189.064 32.6617 190.18 33.8306 191.6 34.6896C193.018 35.5464 194.635 35.9759 196.451 35.9759C197.753 35.9759 198.927 35.7655 199.975 35.3493C201.044 34.9331 201.964 34.3752 202.731 33.6801C203.522 32.9628 204.104 32.1747 204.475 31.3157L201.755 29.9254C201.22 30.8308 200.522 31.5725 199.66 32.1503C198.8 32.7303 197.742 33.0203 196.484 33.0203C195.344 33.0203 194.286 32.7414 193.309 32.1857C192.355 31.6057 191.611 30.8065 191.075 29.7859C190.689 28.9978 190.475 28.1166 190.435 27.1448H204.827C204.871 26.8658 204.907 26.5758 204.931 26.2747C204.978 25.9515 205 25.6615 205 25.4069C205 24.2468 204.791 23.1355 204.371 22.0684ZM191.04 22.52C191.553 21.4773 192.262 20.6781 193.169 20.1224C194.078 19.5645 195.078 19.2878 196.171 19.2878C197.264 19.2878 198.242 19.5645 199.102 20.1224C199.962 20.6781 200.615 21.4308 201.055 22.3805C201.338 22.9915 201.489 23.6513 201.504 24.3641H190.502C190.595 23.6911 190.775 23.0757 191.04 22.52Z" fill="black"/>
<path d="M160.845 16.8193V32.4647H163.602V35.5575H157.564V16.8193H160.845Z" fill="#333333"/>
<path d="M87.1248 16.8193V32.4647H89.8804V35.5575H83.8447V16.8193H87.1248Z" fill="black"/>
</g>
<defs>
<clipPath id="clip0_2614_4446">
<rect width="164.076" height="26.7368" fill="white" transform="translate(40.9248 9.23877)"/>
</clipPath>
</defs>
</svg>
